%TF.GenerationSoftware,KiCad,Pcbnew,9.0.9-9.0.9~ubuntu22.04.1*%
%TF.CreationDate,2026-05-26T13:00:12-04:00*%
%TF.ProjectId,acmi2-afe,61636d69-322d-4616-9665-2e6b69636164,rev?*%
%TF.SameCoordinates,Original*%
%TF.FileFunction,Copper,L6,Bot*%
%TF.FilePolarity,Positive*%
%FSLAX46Y46*%
G04 Gerber Fmt 4.6, Leading zero omitted, Abs format (unit mm)*
G04 Created by KiCad (PCBNEW 9.0.9-9.0.9~ubuntu22.04.1) date 2026-05-26 13:00:12*
%MOMM*%
%LPD*%
G01*
G04 APERTURE LIST*
G04 Aperture macros list*
%AMRoundRect*
0 Rectangle with rounded corners*
0 $1 Rounding radius*
0 $2 $3 $4 $5 $6 $7 $8 $9 X,Y pos of 4 corners*
0 Add a 4 corners polygon primitive as box body*
4,1,4,$2,$3,$4,$5,$6,$7,$8,$9,$2,$3,0*
0 Add four circle primitives for the rounded corners*
1,1,$1+$1,$2,$3*
1,1,$1+$1,$4,$5*
1,1,$1+$1,$6,$7*
1,1,$1+$1,$8,$9*
0 Add four rect primitives between the rounded corners*
20,1,$1+$1,$2,$3,$4,$5,0*
20,1,$1+$1,$4,$5,$6,$7,0*
20,1,$1+$1,$6,$7,$8,$9,0*
20,1,$1+$1,$8,$9,$2,$3,0*%
G04 Aperture macros list end*
%TA.AperFunction,ComponentPad*%
%ADD10C,2.050000*%
%TD*%
%TA.AperFunction,ComponentPad*%
%ADD11C,2.250000*%
%TD*%
%TA.AperFunction,ComponentPad*%
%ADD12C,7.500000*%
%TD*%
%TA.AperFunction,ComponentPad*%
%ADD13C,0.500000*%
%TD*%
%TA.AperFunction,ComponentPad*%
%ADD14R,1.320000X1.320000*%
%TD*%
%TA.AperFunction,ComponentPad*%
%ADD15C,1.320000*%
%TD*%
%TA.AperFunction,ComponentPad*%
%ADD16R,1.000000X1.000000*%
%TD*%
%TA.AperFunction,ComponentPad*%
%ADD17C,1.000000*%
%TD*%
%TA.AperFunction,ComponentPad*%
%ADD18R,2.300000X2.300000*%
%TD*%
%TA.AperFunction,ComponentPad*%
%ADD19C,2.300000*%
%TD*%
%TA.AperFunction,SMDPad,CuDef*%
%ADD20RoundRect,0.250000X-0.475000X0.250000X-0.475000X-0.250000X0.475000X-0.250000X0.475000X0.250000X0*%
%TD*%
%TA.AperFunction,SMDPad,CuDef*%
%ADD21RoundRect,0.250000X0.475000X-0.250000X0.475000X0.250000X-0.475000X0.250000X-0.475000X-0.250000X0*%
%TD*%
%TA.AperFunction,SMDPad,CuDef*%
%ADD22RoundRect,0.250000X0.250000X0.475000X-0.250000X0.475000X-0.250000X-0.475000X0.250000X-0.475000X0*%
%TD*%
%TA.AperFunction,ViaPad*%
%ADD23C,0.600000*%
%TD*%
%TA.AperFunction,ViaPad*%
%ADD24C,1.000000*%
%TD*%
%TA.AperFunction,Conductor*%
%ADD25C,0.300000*%
%TD*%
%TA.AperFunction,Conductor*%
%ADD26C,1.016000*%
%TD*%
%TA.AperFunction,Conductor*%
%ADD27C,0.200000*%
%TD*%
%TA.AperFunction,Conductor*%
%ADD28C,0.170000*%
%TD*%
%TA.AperFunction,Conductor*%
%ADD29C,1.000000*%
%TD*%
G04 APERTURE END LIST*
D10*
%TO.P,J4,1,In*%
%TO.N,Net-(J4-In)*%
X110160000Y-288710000D03*
D11*
%TO.P,J4,2,Ext*%
%TO.N,GND*%
X112700000Y-291250000D03*
X112700000Y-286170000D03*
X107620000Y-291250000D03*
X107620000Y-286170000D03*
%TD*%
D12*
%TO.P,MT2,1,1*%
%TO.N,GND*%
X111960000Y-329920000D03*
%TD*%
D13*
%TO.P,U3,21,GND_TH*%
%TO.N,GND*%
X177000000Y-293914322D03*
X177500000Y-293414322D03*
X177500000Y-294414322D03*
X178000000Y-293914322D03*
%TD*%
%TO.P,U6,9,GND*%
%TO.N,GND*%
X283700000Y-320800000D03*
X283700000Y-319700000D03*
%TD*%
%TO.P,U4,23,PGND*%
%TO.N,GND*%
X269650000Y-320100002D03*
X270299998Y-320650001D03*
X268999998Y-320650001D03*
X269650000Y-321200000D03*
%TD*%
D12*
%TO.P,MT4,1,1*%
%TO.N,GND*%
X246580000Y-263880000D03*
%TD*%
D14*
%TO.P,J5,1,1*%
%TO.N,/Pulser Interface/tp_pos0*%
X204160000Y-267500000D03*
D15*
%TO.P,J5,2,2*%
%TO.N,GND*%
X204160000Y-264960000D03*
%TO.P,J5,3,3*%
%TO.N,/Pulser Interface/tp_pos1*%
X206700000Y-267500000D03*
%TO.P,J5,4,4*%
%TO.N,GND*%
X206700000Y-264960000D03*
%TO.P,J5,5,5*%
%TO.N,/Pulser Interface/tp_pos2*%
X209240000Y-267500000D03*
%TO.P,J5,6,6*%
%TO.N,GND*%
X209240000Y-264960000D03*
%TO.P,J5,7,7*%
%TO.N,/Pulser Interface/tp_pos3*%
X211780000Y-267500000D03*
%TO.P,J5,8,8*%
%TO.N,GND*%
X211780000Y-264960000D03*
%TO.P,J5,9,9*%
%TO.N,/Pulser Interface/tp_pos4*%
X214320000Y-267500000D03*
%TO.P,J5,10,10*%
%TO.N,GND*%
X214320000Y-264960000D03*
%TO.P,J5,11,11*%
%TO.N,/Pulser Interface/tp_neg0*%
X216860000Y-267500000D03*
%TO.P,J5,12,12*%
%TO.N,GND*%
X216860000Y-264960000D03*
%TO.P,J5,13,13*%
%TO.N,/Pulser Interface/tp_neg1*%
X219400000Y-267500000D03*
%TO.P,J5,14,14*%
%TO.N,GND*%
X219400000Y-264960000D03*
%TO.P,J5,15,15*%
%TO.N,/Pulser Interface/tp_neg2*%
X221940000Y-267500000D03*
%TO.P,J5,16,16*%
%TO.N,GND*%
X221940000Y-264960000D03*
%TO.P,J5,17,17*%
%TO.N,/Pulser Interface/tp_neg3*%
X224480000Y-267500000D03*
%TO.P,J5,18,18*%
%TO.N,GND*%
X224480000Y-264960000D03*
%TO.P,J5,19,19*%
%TO.N,/Pulser Interface/tp_neg4*%
X227020000Y-267500000D03*
%TO.P,J5,20,20*%
%TO.N,GND*%
X227020000Y-264960000D03*
%TD*%
D12*
%TO.P,MT5,1,1*%
%TO.N,GND*%
X299920000Y-329920000D03*
%TD*%
%TO.P,MT8,1,1*%
%TO.N,GND*%
X68780000Y-263880000D03*
%TD*%
%TO.P,MT6,1,1*%
%TO.N,GND*%
X164738974Y-263880000D03*
%TD*%
D13*
%TO.P,U10,11,GNDTH*%
%TO.N,GND*%
X271975000Y-305700000D03*
X271400000Y-306650000D03*
X271400000Y-304750000D03*
X270825000Y-305700000D03*
%TD*%
%TO.P,U2,49,GND*%
%TO.N,GND*%
X160950000Y-296500000D03*
X159700000Y-296500000D03*
X158450000Y-296500000D03*
X157200000Y-296500000D03*
X160950000Y-298000000D03*
X159700000Y-298000000D03*
X158450000Y-298000000D03*
X157200000Y-298000000D03*
X160950000Y-299250000D03*
X159700000Y-299250000D03*
X158450000Y-299250000D03*
X157200000Y-299250000D03*
X160950000Y-300500000D03*
X159700000Y-300500000D03*
X158450000Y-300500000D03*
X157200000Y-300500000D03*
%TD*%
D16*
%TO.P,J2,A1,A1*%
%TO.N,unconnected-(J2-PadA1)*%
X217624000Y-321284000D03*
D17*
%TO.P,J2,A2,A2*%
%TO.N,unconnected-(J2-PadA2)*%
X215124000Y-321284000D03*
%TO.P,J2,A3,A3*%
%TO.N,unconnected-(J2-PadA3)*%
X212624000Y-321284000D03*
%TO.P,J2,A4,A4*%
%TO.N,unconnected-(J2-PadA4)*%
X210124000Y-321284000D03*
%TO.P,J2,A5,A5*%
%TO.N,unconnected-(J2-PadA5)*%
X207624000Y-321284000D03*
%TO.P,J2,A6,A6*%
%TO.N,unconnected-(J2-PadA6)*%
X205124000Y-321284000D03*
%TO.P,J2,A7,A7*%
%TO.N,unconnected-(J2-PadA7)*%
X202624000Y-321284000D03*
%TO.P,J2,A8,A8*%
%TO.N,unconnected-(J2-PadA8)*%
X200124000Y-321284000D03*
%TO.P,J2,A9,A9*%
%TO.N,unconnected-(J2-PadA9)*%
X197624000Y-321284000D03*
%TO.P,J2,A10,A10*%
%TO.N,unconnected-(J2-PadA10)*%
X195124000Y-321284000D03*
%TO.P,J2,B1,B1*%
%TO.N,unconnected-(J2-PadB1)*%
X217624000Y-319784000D03*
%TO.P,J2,B2,B2*%
%TO.N,unconnected-(J2-PadB2)*%
X215124000Y-319784000D03*
%TO.P,J2,B3,B3*%
%TO.N,unconnected-(J2-PadB3)*%
X212624000Y-319784000D03*
%TO.P,J2,B4,B4*%
%TO.N,unconnected-(J2-PadB4)*%
X210124000Y-319784000D03*
%TO.P,J2,B5,B5*%
%TO.N,unconnected-(J2-PadB5)*%
X207624000Y-319784000D03*
%TO.P,J2,B6,B6*%
%TO.N,unconnected-(J2-PadB6)*%
X205124000Y-319784000D03*
%TO.P,J2,B7,B7*%
%TO.N,unconnected-(J2-PadB7)*%
X202624000Y-319784000D03*
%TO.P,J2,B8,B8*%
%TO.N,unconnected-(J2-PadB8)*%
X200124000Y-319784000D03*
%TO.P,J2,B9,B9*%
%TO.N,unconnected-(J2-PadB9)*%
X197624000Y-319784000D03*
%TO.P,J2,B10,B10*%
%TO.N,unconnected-(J2-PadB10)*%
X195124000Y-319784000D03*
%TO.P,J2,BG1,BG1*%
%TO.N,GND*%
X217624000Y-318284000D03*
%TO.P,J2,BG2,BG2*%
X215124000Y-318284000D03*
%TO.P,J2,BG3,BG3*%
X212624000Y-318284000D03*
%TO.P,J2,BG4,BG4*%
X210124000Y-318284000D03*
%TO.P,J2,BG5,BG5*%
X207624000Y-318284000D03*
%TO.P,J2,BG6,BG6*%
X205124000Y-318284000D03*
%TO.P,J2,BG7,BG7*%
X202624000Y-318284000D03*
%TO.P,J2,BG8,BG8*%
X200124000Y-318284000D03*
%TO.P,J2,BG9,BG9*%
X197624000Y-318284000D03*
%TO.P,J2,BG10,BG10*%
X195124000Y-318284000D03*
%TO.P,J2,C1,C1*%
%TO.N,unconnected-(J2-PadC1)*%
X217624000Y-316784000D03*
%TO.P,J2,C2,C2*%
%TO.N,unconnected-(J2-PadC2)*%
X215124000Y-316784000D03*
%TO.P,J2,C3,C3*%
%TO.N,/Fault LED's/fault_led15*%
X212624000Y-316784000D03*
%TO.P,J2,C4,C4*%
%TO.N,/Fault LED's/fault_led13*%
X210124000Y-316784000D03*
%TO.P,J2,C5,C5*%
%TO.N,/Fault LED's/fault_led11*%
X207624000Y-316784000D03*
%TO.P,J2,C6,C6*%
%TO.N,/Fault LED's/fault_led9*%
X205124000Y-316784000D03*
%TO.P,J2,C7,C7*%
%TO.N,/Fault LED's/fault_led7*%
X202624000Y-316784000D03*
%TO.P,J2,C8,C8*%
%TO.N,/Fault LED's/fault_led5*%
X200124000Y-316784000D03*
%TO.P,J2,C9,C9*%
%TO.N,/Fault LED's/fault_led3*%
X197624000Y-316784000D03*
%TO.P,J2,C10,C10*%
%TO.N,/Fault LED's/fault_led1*%
X195124000Y-316784000D03*
%TO.P,J2,D1,D1*%
%TO.N,unconnected-(J2-PadD1)*%
X217624000Y-315284000D03*
%TO.P,J2,D2,D2*%
%TO.N,unconnected-(J2-PadD2)*%
X215124000Y-315284000D03*
%TO.P,J2,D3,D3*%
%TO.N,/Fault LED's/fault_led14*%
X212624000Y-315284000D03*
%TO.P,J2,D4,D4*%
%TO.N,/Fault LED's/fault_led12*%
X210124000Y-315284000D03*
%TO.P,J2,D5,D5*%
%TO.N,/Fault LED's/fault_led10*%
X207624000Y-315284000D03*
%TO.P,J2,D6,D6*%
%TO.N,/Fault LED's/fault_led8*%
X205124000Y-315284000D03*
%TO.P,J2,D7,D7*%
%TO.N,/Fault LED's/fault_led6*%
X202624000Y-315284000D03*
%TO.P,J2,D8,D8*%
%TO.N,/Fault LED's/fault_led4*%
X200124000Y-315284000D03*
%TO.P,J2,D9,D9*%
%TO.N,/Fault LED's/fault_led2*%
X197624000Y-315284000D03*
%TO.P,J2,D10,D10*%
%TO.N,/Fault LED's/fault_led0*%
X195124000Y-315284000D03*
%TO.P,J2,DG1,DG1*%
%TO.N,GND*%
X217624000Y-313784000D03*
%TO.P,J2,DG2,DG2*%
X215124000Y-313784000D03*
%TO.P,J2,DG3,DG3*%
X212624000Y-313784000D03*
%TO.P,J2,DG4,DG4*%
X210124000Y-313784000D03*
%TO.P,J2,DG5,DG5*%
X207624000Y-313784000D03*
%TO.P,J2,DG6,DG6*%
X205124000Y-313784000D03*
%TO.P,J2,DG7,DG7*%
X202624000Y-313784000D03*
%TO.P,J2,DG8,DG8*%
X200124000Y-313784000D03*
%TO.P,J2,DG9,DG9*%
X197624000Y-313784000D03*
%TO.P,J2,DG10,DG10*%
X195124000Y-313784000D03*
%TD*%
D18*
%TO.P,J6,1,1*%
%TO.N,GND*%
X293770000Y-319750000D03*
D19*
%TO.P,J6,2,2*%
%TO.N,/Regulators/+5VIN*%
X288270000Y-319750000D03*
%TD*%
D16*
%TO.P,J1,A1,A1*%
%TO.N,/adc/CSN*%
X166824000Y-321284000D03*
D17*
%TO.P,J1,A2,A2*%
%TO.N,/adc/SDI*%
X164324000Y-321284000D03*
%TO.P,J1,A3,A3*%
%TO.N,/adc/D14_P*%
X161824000Y-321284000D03*
%TO.P,J1,A4,A4*%
%TO.N,/adc/D10_P*%
X159324000Y-321284000D03*
%TO.P,J1,A5,A5*%
%TO.N,/adc/CLKOUT_P*%
X156824000Y-321284000D03*
%TO.P,J1,A6,A6*%
%TO.N,/adc/D6_P*%
X154324000Y-321284000D03*
%TO.P,J1,A7,A7*%
%TO.N,/adc/D2_P*%
X151824000Y-321284000D03*
%TO.P,J1,A8,A8*%
%TO.N,/adc/SDO*%
X149324000Y-321284000D03*
%TO.P,J1,A9,A9*%
%TO.N,unconnected-(J1-PadA9)*%
X146824000Y-321284000D03*
%TO.P,J1,A10,A10*%
%TO.N,unconnected-(J1-PadA10)*%
X144324000Y-321284000D03*
%TO.P,J1,B1,B1*%
%TO.N,unconnected-(J1-PadB1)*%
X166824000Y-319784000D03*
%TO.P,J1,B2,B2*%
%TO.N,unconnected-(J1-PadB2)*%
X164324000Y-319784000D03*
%TO.P,J1,B3,B3*%
%TO.N,/adc/D14_N*%
X161824000Y-319784000D03*
%TO.P,J1,B4,B4*%
%TO.N,/adc/D10_N*%
X159324000Y-319784000D03*
%TO.P,J1,B5,B5*%
%TO.N,/adc/CLKOUT_N*%
X156824000Y-319784000D03*
%TO.P,J1,B6,B6*%
%TO.N,/adc/D6_N*%
X154324000Y-319784000D03*
%TO.P,J1,B7,B7*%
%TO.N,/adc/D2_N*%
X151824000Y-319784000D03*
%TO.P,J1,B8,B8*%
%TO.N,unconnected-(J1-PadB8)*%
X149324000Y-319784000D03*
%TO.P,J1,B9,B9*%
%TO.N,unconnected-(J1-PadB9)*%
X146824000Y-319784000D03*
%TO.P,J1,B10,B10*%
%TO.N,unconnected-(J1-PadB10)*%
X144324000Y-319784000D03*
%TO.P,J1,BG1,BG1*%
%TO.N,GND*%
X166824000Y-318284000D03*
%TO.P,J1,BG2,BG2*%
X164324000Y-318284000D03*
%TO.P,J1,BG3,BG3*%
X161824000Y-318284000D03*
%TO.P,J1,BG4,BG4*%
X159324000Y-318284000D03*
%TO.P,J1,BG5,BG5*%
X156824000Y-318284000D03*
%TO.P,J1,BG6,BG6*%
X154324000Y-318284000D03*
%TO.P,J1,BG7,BG7*%
X151824000Y-318284000D03*
%TO.P,J1,BG8,BG8*%
X149324000Y-318284000D03*
%TO.P,J1,BG9,BG9*%
X146824000Y-318284000D03*
%TO.P,J1,BG10,BG10*%
X144324000Y-318284000D03*
%TO.P,J1,C1,C1*%
%TO.N,/adc/SCK*%
X166824000Y-316784000D03*
%TO.P,J1,C2,C2*%
%TO.N,/adc/OF_P*%
X164324000Y-316784000D03*
%TO.P,J1,C3,C3*%
%TO.N,/adc/D12_P*%
X161824000Y-316784000D03*
%TO.P,J1,C4,C4*%
%TO.N,unconnected-(J1-PadC4)*%
X159324000Y-316784000D03*
%TO.P,J1,C5,C5*%
%TO.N,/adc/D8_P*%
X156824000Y-316784000D03*
%TO.P,J1,C6,C6*%
%TO.N,/adc/D4_P*%
X154324000Y-316784000D03*
%TO.P,J1,C7,C7*%
%TO.N,/adc/D0_P*%
X151824000Y-316784000D03*
%TO.P,J1,C8,C8*%
%TO.N,unconnected-(J1-PadC8)*%
X149324000Y-316784000D03*
%TO.P,J1,C9,C9*%
%TO.N,unconnected-(J1-PadC9)*%
X146824000Y-316784000D03*
%TO.P,J1,C10,C10*%
%TO.N,unconnected-(J1-PadC10)*%
X144324000Y-316784000D03*
%TO.P,J1,D1,D1*%
%TO.N,unconnected-(J1-PadD1)*%
X166824000Y-315284000D03*
%TO.P,J1,D2,D2*%
%TO.N,/adc/OF_N*%
X164324000Y-315284000D03*
%TO.P,J1,D3,D3*%
%TO.N,/adc/D12_N*%
X161824000Y-315284000D03*
%TO.P,J1,D4,D4*%
%TO.N,unconnected-(J1-PadD4)*%
X159324000Y-315284000D03*
%TO.P,J1,D5,D5*%
%TO.N,/adc/D8_N*%
X156824000Y-315284000D03*
%TO.P,J1,D6,D6*%
%TO.N,/adc/D4_N*%
X154324000Y-315284000D03*
%TO.P,J1,D7,D7*%
%TO.N,/adc/D0_N*%
X151824000Y-315284000D03*
%TO.P,J1,D8,D8*%
%TO.N,unconnected-(J1-PadD8)*%
X149324000Y-315284000D03*
%TO.P,J1,D9,D9*%
%TO.N,unconnected-(J1-PadD9)*%
X146824000Y-315284000D03*
%TO.P,J1,D10,D10*%
%TO.N,unconnected-(J1-PadD10)*%
X144324000Y-315284000D03*
%TO.P,J1,DG1,DG1*%
%TO.N,GND*%
X166824000Y-313784000D03*
%TO.P,J1,DG2,DG2*%
X164324000Y-313784000D03*
%TO.P,J1,DG3,DG3*%
X161824000Y-313784000D03*
%TO.P,J1,DG4,DG4*%
X159324000Y-313784000D03*
%TO.P,J1,DG5,DG5*%
X156824000Y-313784000D03*
%TO.P,J1,DG6,DG6*%
X154324000Y-313784000D03*
%TO.P,J1,DG7,DG7*%
X151824000Y-313784000D03*
%TO.P,J1,DG8,DG8*%
X149324000Y-313784000D03*
%TO.P,J1,DG9,DG9*%
X146824000Y-313784000D03*
%TO.P,J1,DG10,DG10*%
X144324000Y-313784000D03*
%TD*%
D14*
%TO.P,J7,1,1*%
%TO.N,/Relay Board Interface/faultn*%
X111240000Y-267500000D03*
D15*
%TO.P,J7,2,2*%
%TO.N,GND*%
X111240000Y-264960000D03*
%TO.P,J7,3,3*%
%TO.N,/Relay Board Interface/fault_rdbk*%
X113780000Y-267500000D03*
%TO.P,J7,4,4*%
%TO.N,GND*%
X113780000Y-264960000D03*
%TO.P,J7,5,5*%
%TO.N,/Relay Board Interface/fault_reset*%
X116320000Y-267500000D03*
%TO.P,J7,6,6*%
%TO.N,GND*%
X116320000Y-264960000D03*
%TO.P,J7,7,7*%
%TO.N,/Relay Board Interface/force_trip*%
X118860000Y-267500000D03*
%TO.P,J7,8,8*%
%TO.N,GND*%
X118860000Y-264960000D03*
%TO.P,J7,9,9*%
%TO.N,/Relay Board Interface/keylock*%
X121400000Y-267500000D03*
%TO.P,J7,10,10*%
%TO.N,GND*%
X121400000Y-264960000D03*
%TO.P,J7,11,11*%
%TO.N,/Relay Board Interface/spare0*%
X123940000Y-267500000D03*
%TO.P,J7,12,12*%
%TO.N,GND*%
X123940000Y-264960000D03*
%TO.P,J7,13,13*%
%TO.N,/Relay Board Interface/spare1*%
X126480000Y-267500000D03*
%TO.P,J7,14,14*%
%TO.N,GND*%
X126480000Y-264960000D03*
%TO.P,J7,15,15*%
%TO.N,/Relay Board Interface/spare2*%
X129020000Y-267500000D03*
%TO.P,J7,16,16*%
%TO.N,GND*%
X129020000Y-264960000D03*
%TO.P,J7,17,17*%
%TO.N,/Relay Board Interface/spare3*%
X131560000Y-267500000D03*
%TO.P,J7,18,18*%
%TO.N,GND*%
X131560000Y-264960000D03*
%TO.P,J7,19,19*%
%TO.N,/Relay Board Interface/spare4*%
X134100000Y-267500000D03*
%TO.P,J7,20,20*%
%TO.N,GND*%
X134100000Y-264960000D03*
%TD*%
D13*
%TO.P,U5,21,GND_TH*%
%TO.N,GND*%
X177000000Y-306800000D03*
X177500000Y-306300000D03*
X177500000Y-307300000D03*
X178000000Y-306800000D03*
%TD*%
D12*
%TO.P,MT3,1,1*%
%TO.N,GND*%
X250644000Y-329920000D03*
%TD*%
D16*
%TO.P,J3,A1,A1*%
%TO.N,/Pulser Interface/tp_neg4*%
X243024000Y-321284000D03*
D17*
%TO.P,J3,A2,A2*%
%TO.N,/Pulser Interface/tp_neg0*%
X240524000Y-321284000D03*
%TO.P,J3,A3,A3*%
%TO.N,/Pulser Interface/tp_pos1*%
X238024000Y-321284000D03*
%TO.P,J3,A4,A4*%
%TO.N,unconnected-(J3-PadA4)*%
X235524000Y-321284000D03*
%TO.P,J3,A5,A5*%
%TO.N,/EEPROM/csn*%
X233024000Y-321284000D03*
%TO.P,J3,A6,A6*%
%TO.N,/EEPROM/sdo*%
X230524000Y-321284000D03*
%TO.P,J3,A7,A7*%
%TO.N,/Relay Board Interface/wdi*%
X228024000Y-321284000D03*
%TO.P,J3,A8,A8*%
%TO.N,/Relay Board Interface/spare3*%
X225524000Y-321284000D03*
%TO.P,J3,A9,A9*%
%TO.N,/Relay Board Interface/keylock*%
X223024000Y-321284000D03*
%TO.P,J3,A10,A10*%
%TO.N,/Relay Board Interface/faultn*%
X220524000Y-321284000D03*
%TO.P,J3,B1,B1*%
%TO.N,/Pulser Interface/tp_neg3*%
X243024000Y-319784000D03*
%TO.P,J3,B2,B2*%
%TO.N,/Pulser Interface/tp_pos4*%
X240524000Y-319784000D03*
%TO.P,J3,B3,B3*%
%TO.N,/Pulser Interface/tp_pos0*%
X238024000Y-319784000D03*
%TO.P,J3,B4,B4*%
%TO.N,unconnected-(J3-PadB4)*%
X235524000Y-319784000D03*
%TO.P,J3,B5,B5*%
%TO.N,/EEPROM/sck*%
X233024000Y-319784000D03*
%TO.P,J3,B6,B6*%
%TO.N,/EEPROM/wpn*%
X230524000Y-319784000D03*
%TO.P,J3,B7,B7*%
%TO.N,unconnected-(J3-PadB7)*%
X228024000Y-319784000D03*
%TO.P,J3,B8,B8*%
%TO.N,/Relay Board Interface/spare2*%
X225524000Y-319784000D03*
%TO.P,J3,B9,B9*%
%TO.N,/Relay Board Interface/force_trip*%
X223024000Y-319784000D03*
%TO.P,J3,B10,B10*%
%TO.N,/Regulators/afe_pwrenb*%
X220524000Y-319784000D03*
%TO.P,J3,BG1,BG1*%
%TO.N,GND*%
X243024000Y-318284000D03*
%TO.P,J3,BG2,BG2*%
X240524000Y-318284000D03*
%TO.P,J3,BG3,BG3*%
X238024000Y-318284000D03*
%TO.P,J3,BG4,BG4*%
X235524000Y-318284000D03*
%TO.P,J3,BG5,BG5*%
X233024000Y-318284000D03*
%TO.P,J3,BG6,BG6*%
X230524000Y-318284000D03*
%TO.P,J3,BG7,BG7*%
X228024000Y-318284000D03*
%TO.P,J3,BG8,BG8*%
X225524000Y-318284000D03*
%TO.P,J3,BG9,BG9*%
X223024000Y-318284000D03*
%TO.P,J3,BG10,BG10*%
X220524000Y-318284000D03*
%TO.P,J3,C1,C1*%
%TO.N,/Pulser Interface/tp_neg2*%
X243024000Y-316784000D03*
%TO.P,J3,C2,C2*%
%TO.N,/Pulser Interface/tp_pos3*%
X240524000Y-316784000D03*
%TO.P,J3,C3,C3*%
%TO.N,unconnected-(J3-PadC3)*%
X238024000Y-316784000D03*
%TO.P,J3,C4,C4*%
%TO.N,unconnected-(J3-PadC4)*%
X235524000Y-316784000D03*
%TO.P,J3,C5,C5*%
%TO.N,/EEPROM/sdi*%
X233024000Y-316784000D03*
%TO.P,J3,C6,C6*%
%TO.N,unconnected-(J3-PadC6)*%
X230524000Y-316784000D03*
%TO.P,J3,C7,C7*%
%TO.N,unconnected-(J3-PadC7)*%
X228024000Y-316784000D03*
%TO.P,J3,C8,C8*%
%TO.N,/Relay Board Interface/spare1*%
X225524000Y-316784000D03*
%TO.P,J3,C9,C9*%
%TO.N,/Relay Board Interface/fault_reset*%
X223024000Y-316784000D03*
%TO.P,J3,C10,C10*%
%TO.N,/zuDFE Connectors/i2c_sda*%
X220524000Y-316784000D03*
%TO.P,J3,D1,D1*%
%TO.N,/Pulser Interface/tp_neg1*%
X243024000Y-315284000D03*
%TO.P,J3,D2,D2*%
%TO.N,/Pulser Interface/tp_pos2*%
X240524000Y-315284000D03*
%TO.P,J3,D3,D3*%
%TO.N,unconnected-(J3-PadD3)*%
X238024000Y-315284000D03*
%TO.P,J3,D4,D4*%
%TO.N,unconnected-(J3-PadD4)*%
X235524000Y-315284000D03*
%TO.P,J3,D5,D5*%
%TO.N,/EEPROM/holdn*%
X233024000Y-315284000D03*
%TO.P,J3,D6,D6*%
%TO.N,unconnected-(J3-PadD6)*%
X230524000Y-315284000D03*
%TO.P,J3,D7,D7*%
%TO.N,/Relay Board Interface/spare4*%
X228024000Y-315284000D03*
%TO.P,J3,D8,D8*%
%TO.N,/Relay Board Interface/spare0*%
X225524000Y-315284000D03*
%TO.P,J3,D9,D9*%
%TO.N,/Relay Board Interface/fault_rdbk*%
X223024000Y-315284000D03*
%TO.P,J3,D10,D10*%
%TO.N,/zuDFE Connectors/i2c_scl*%
X220524000Y-315284000D03*
%TO.P,J3,DG1,DG1*%
%TO.N,GND*%
X243024000Y-313784000D03*
%TO.P,J3,DG2,DG2*%
X240524000Y-313784000D03*
%TO.P,J3,DG3,DG3*%
X238024000Y-313784000D03*
%TO.P,J3,DG4,DG4*%
X235524000Y-313784000D03*
%TO.P,J3,DG5,DG5*%
X233024000Y-313784000D03*
%TO.P,J3,DG6,DG6*%
X230524000Y-313784000D03*
%TO.P,J3,DG7,DG7*%
X228024000Y-313784000D03*
%TO.P,J3,DG8,DG8*%
X225524000Y-313784000D03*
%TO.P,J3,DG9,DG9*%
X223024000Y-313784000D03*
%TO.P,J3,DG10,DG10*%
X220524000Y-313784000D03*
%TD*%
D12*
%TO.P,MT7,1,1*%
%TO.N,GND*%
X299920000Y-263880000D03*
%TD*%
%TO.P,MT1,1,1*%
%TO.N,GND*%
X68780000Y-329920000D03*
%TD*%
D20*
%TO.P,C34,1*%
%TO.N,+1.8V*%
X255450000Y-284900000D03*
%TO.P,C34,2*%
%TO.N,GND*%
X255450000Y-286800000D03*
%TD*%
%TO.P,C36,1*%
%TO.N,+3.3V*%
X258200000Y-284900000D03*
%TO.P,C36,2*%
%TO.N,GND*%
X258200000Y-286800000D03*
%TD*%
D21*
%TO.P,C35,1*%
%TO.N,+1.8V*%
X255450000Y-276900000D03*
%TO.P,C35,2*%
%TO.N,GND*%
X255450000Y-275000000D03*
%TD*%
D22*
%TO.P,C11,1*%
%TO.N,+1.8V*%
X152850000Y-299300000D03*
%TO.P,C11,2*%
%TO.N,GND*%
X150950000Y-299300000D03*
%TD*%
D21*
%TO.P,C37,1*%
%TO.N,+3.3V*%
X258200000Y-276900000D03*
%TO.P,C37,2*%
%TO.N,GND*%
X258200000Y-275000000D03*
%TD*%
D20*
%TO.P,C1,1*%
%TO.N,+3.3V*%
X129400000Y-313500000D03*
%TO.P,C1,2*%
%TO.N,GND*%
X129400000Y-315400000D03*
%TD*%
D22*
%TO.P,C46,1*%
%TO.N,+5.0V*%
X271900000Y-308800000D03*
%TO.P,C46,2*%
%TO.N,GND*%
X270000000Y-308800000D03*
%TD*%
D20*
%TO.P,C39,1*%
%TO.N,+3.3V*%
X254450000Y-307300000D03*
%TO.P,C39,2*%
%TO.N,GND*%
X254450000Y-309200000D03*
%TD*%
D23*
%TO.N,*%
X144225000Y-92650000D03*
%TO.N,GND*%
X282715000Y-321685000D03*
X274200000Y-323200000D03*
X279100000Y-309400000D03*
X168850000Y-304500000D03*
X277610000Y-281750000D03*
X185250000Y-305100000D03*
X258200000Y-274000000D03*
X255000000Y-282300000D03*
X159050000Y-289800000D03*
X150500000Y-296550000D03*
X284000000Y-325800000D03*
X277737500Y-279650000D03*
X82600000Y-265600000D03*
X185300000Y-307400000D03*
X260700000Y-287700000D03*
X180600000Y-286014322D03*
X278100000Y-305100000D03*
X77400000Y-326400000D03*
D24*
X168700000Y-291100000D03*
D23*
X181300000Y-286014322D03*
X271600000Y-323000000D03*
X148700000Y-299300000D03*
X277600000Y-264970000D03*
X251300000Y-285300000D03*
X186100000Y-298700000D03*
X164050000Y-289800000D03*
X163650000Y-295750000D03*
X176500000Y-296814322D03*
X284000000Y-331000000D03*
X160550000Y-288650000D03*
X255400000Y-287900000D03*
X277610000Y-277550000D03*
X180600000Y-295614322D03*
X277610000Y-290150000D03*
X143700000Y-296500000D03*
X254500000Y-310400000D03*
X260600000Y-274300000D03*
X277610000Y-283850000D03*
X129400000Y-317000000D03*
X259100000Y-282300000D03*
X270000000Y-310300000D03*
X186100000Y-292514322D03*
X251600000Y-276800000D03*
X254800000Y-279800000D03*
X176500000Y-299200000D03*
X174350000Y-285800000D03*
X266000000Y-319200000D03*
X253200000Y-274600000D03*
X277610000Y-271250000D03*
X159028199Y-293750000D03*
X185900000Y-302900000D03*
X172600000Y-287200000D03*
X174350000Y-299250000D03*
X277610000Y-294350000D03*
X185900000Y-307400000D03*
X185300000Y-302900000D03*
X168850000Y-297200000D03*
X262600000Y-332000000D03*
X185400000Y-292514322D03*
X267200000Y-316000000D03*
X186600000Y-290200000D03*
X161950000Y-294300000D03*
X297300000Y-273700000D03*
X276400000Y-323200000D03*
X272700000Y-322100000D03*
X176500000Y-285750000D03*
X265700000Y-309700000D03*
X263700000Y-319200000D03*
X253200000Y-287700000D03*
X167800000Y-297200000D03*
X149700000Y-299300000D03*
X259100000Y-279800000D03*
X185900000Y-305100000D03*
X277200000Y-309300000D03*
X277610000Y-296450000D03*
X277610000Y-292250000D03*
X277605000Y-275450000D03*
X185350000Y-298700000D03*
X177000000Y-309800000D03*
X118400000Y-295900000D03*
X185650000Y-290199322D03*
X162600000Y-288550000D03*
X277650000Y-267050000D03*
X279950000Y-325750000D03*
X178500000Y-309800000D03*
X273800000Y-304100000D03*
X278600000Y-323200000D03*
X261500000Y-319200000D03*
X275800000Y-317300000D03*
X255450000Y-274050000D03*
X185350000Y-294814322D03*
X155500000Y-294900000D03*
X277737500Y-288050000D03*
X277737500Y-286000000D03*
X277610000Y-269150000D03*
X186100000Y-294814322D03*
X258200000Y-287900000D03*
X277610000Y-273350000D03*
%TO.N,/adc/vcm*%
X143450000Y-294500000D03*
X142700000Y-292250000D03*
%TO.N,/adc/CSN*%
X163950000Y-296700000D03*
%TO.N,/adc/D8_N*%
X157826563Y-304996745D03*
%TO.N,/adc/D8_P*%
X158576563Y-304996745D03*
%TO.N,/adc/D0_N*%
X152031983Y-307195209D03*
%TO.N,/adc/D4_P*%
X156175000Y-305392329D03*
%TO.N,/adc/SCK*%
X164450000Y-297350000D03*
%TO.N,/adc/D0_P*%
X152781983Y-307195209D03*
%TO.N,/adc/SDI*%
X164350000Y-298250000D03*
%TO.N,/adc/SDO*%
X154400000Y-298100000D03*
%TO.N,/adc/D12_P*%
X162075001Y-304279275D03*
%TO.N,/adc/D12_N*%
X161325001Y-304279275D03*
%TO.N,/adc/D4_N*%
X155425000Y-305392329D03*
%TO.N,+3.3V*%
X256000000Y-299500000D03*
X129400000Y-311670000D03*
X268200000Y-325300000D03*
X261300000Y-325300000D03*
X185700000Y-300800000D03*
X262600000Y-305400000D03*
X258300000Y-278300000D03*
X180700000Y-298700000D03*
X185650000Y-288114322D03*
X254600000Y-305900000D03*
X270400000Y-325300000D03*
X258300000Y-283800000D03*
X255900000Y-296500000D03*
X186100000Y-286114322D03*
X263500000Y-325300000D03*
X265900000Y-325300000D03*
%TO.N,+1.8V*%
X172350000Y-302800000D03*
X167800000Y-299100000D03*
X173950000Y-304000000D03*
X153850000Y-299150000D03*
X175500000Y-303950000D03*
X255400000Y-278300000D03*
X255500000Y-283800000D03*
X168800000Y-299100000D03*
X176800000Y-303950000D03*
X173950000Y-304950000D03*
%TO.N,+5.0V*%
X272900000Y-308800000D03*
X280600000Y-319100000D03*
X280100000Y-318600000D03*
%TO.N,/Relay Board Interface/faultn*%
X220200000Y-300400000D03*
X246500000Y-296500000D03*
D24*
%TO.N,/Fault LED's/fault_led4*%
X247450000Y-278750000D03*
%TO.N,/Fault LED's/fault_led3*%
X248950000Y-278000000D03*
%TO.N,/Fault LED's/fault_led15*%
X250700000Y-287500000D03*
%TO.N,/Fault LED's/fault_led9*%
X250950000Y-282250000D03*
%TO.N,/Fault LED's/fault_led12*%
X246950000Y-285500000D03*
%TO.N,/Fault LED's/fault_led10*%
X245900000Y-283196800D03*
%TO.N,/Fault LED's/fault_led1*%
X248200000Y-275250000D03*
%TO.N,/Fault LED's/fault_led7*%
X249450000Y-281250000D03*
%TO.N,/Fault LED's/fault_led14*%
X249700000Y-286750000D03*
%TO.N,/Fault LED's/fault_led6*%
X248700000Y-280000000D03*
%TO.N,/Fault LED's/fault_led5*%
X249950000Y-279500000D03*
%TO.N,/Fault LED's/fault_led13*%
X248450000Y-286000000D03*
%TO.N,/Fault LED's/fault_led8*%
X247700000Y-281750000D03*
%TO.N,/Fault LED's/fault_led2*%
X248950000Y-276750000D03*
%TO.N,/Fault LED's/fault_led11*%
X247200000Y-284000000D03*
%TO.N,/Fault LED's/fault_led0*%
X248950000Y-274000000D03*
D23*
%TO.N,/Regulators/afe_pwrenb*%
X287000000Y-329200000D03*
%TO.N,/EEPROM/wpn*%
X237600000Y-310500000D03*
X249300000Y-308800000D03*
%TO.N,/EEPROM/sck*%
X258900000Y-308800000D03*
%TO.N,/EEPROM/holdn*%
X259000000Y-307500000D03*
%TO.N,/EEPROM/sdi*%
X236800000Y-311500000D03*
X258995000Y-310005000D03*
%TO.N,/EEPROM/sdo*%
X249450000Y-307450000D03*
X237300000Y-309200000D03*
%TO.N,/EEPROM/csn*%
X249300000Y-306100000D03*
%TO.N,/Relay Board Interface/wdi*%
X268800000Y-304700000D03*
%TD*%
D25*
%TO.N,GND*%
X255450000Y-275000000D02*
X255450000Y-274050000D01*
X255450000Y-286800000D02*
X255450000Y-287850000D01*
X255400000Y-287900000D02*
X255450000Y-287850000D01*
X270000000Y-308800000D02*
X270000000Y-310300000D01*
X254500000Y-310400000D02*
X254500000Y-309250000D01*
D26*
X149700000Y-299300000D02*
X148700000Y-299300000D01*
D25*
X254500000Y-309250000D02*
X254450000Y-309200000D01*
X129400000Y-315400000D02*
X129400000Y-317000000D01*
D26*
X150950000Y-299300000D02*
X149700000Y-299300000D01*
D25*
X255450000Y-274050000D02*
X255500000Y-274000000D01*
X258200000Y-275000000D02*
X258200000Y-274000000D01*
X258200000Y-286800000D02*
X258200000Y-287900000D01*
%TO.N,/adc/vcm*%
X143450000Y-294500000D02*
X143450000Y-293000000D01*
X143450000Y-293000000D02*
X142700000Y-292250000D01*
D27*
%TO.N,/Pulser Interface/tp_pos3*%
X241950000Y-315358000D02*
X240524000Y-316784000D01*
X241950000Y-298370000D02*
X241950000Y-315358000D01*
X211780000Y-268200000D02*
X241950000Y-298370000D01*
%TO.N,/Pulser Interface/tp_neg2*%
X244950000Y-292000000D02*
X244950000Y-314858000D01*
X244950000Y-314858000D02*
X243024000Y-316784000D01*
X221940000Y-268200000D02*
X221940000Y-268990000D01*
X221940000Y-268990000D02*
X244950000Y-292000000D01*
D28*
%TO.N,/adc/CSN*%
X167366000Y-321284000D02*
X166824000Y-321284000D01*
X163950000Y-296700000D02*
X164631841Y-296700000D01*
X168850000Y-312900000D02*
X168850000Y-319800000D01*
X166800000Y-310850000D02*
X168850000Y-312900000D01*
X166800000Y-298868159D02*
X166800000Y-310850000D01*
X164631841Y-296700000D02*
X166800000Y-298868159D01*
X168850000Y-319800000D02*
X167366000Y-321284000D01*
%TO.N,/adc/D8_N*%
X157586863Y-315886863D02*
X157426863Y-315886863D01*
X157826563Y-304996745D02*
X158041562Y-305211744D01*
X158041562Y-305211744D02*
X158041562Y-315432164D01*
X156824000Y-315284000D02*
X157426863Y-315886863D01*
X158041562Y-315432164D02*
X157586863Y-315886863D01*
%TO.N,/adc/D8_P*%
X158361564Y-315564710D02*
X157142274Y-316784000D01*
X158576563Y-304996745D02*
X158361564Y-305211744D01*
X157142274Y-316784000D02*
X156824000Y-316784000D01*
X158361564Y-305211744D02*
X158361564Y-315564710D01*
%TO.N,/adc/D0_N*%
X153040000Y-310266274D02*
X152246982Y-309473256D01*
X152246982Y-309473256D02*
X152246982Y-307410208D01*
X152435135Y-315895135D02*
X152695135Y-315895135D01*
X152695135Y-315895135D02*
X152832727Y-315757543D01*
X151824000Y-315284000D02*
X152435135Y-315895135D01*
X152246982Y-307410208D02*
X152031983Y-307195209D01*
X153040000Y-315550269D02*
X153040000Y-310266274D01*
X152832727Y-315757543D02*
X153040000Y-315550269D01*
%TO.N,/adc/D4_P*%
X155660000Y-315766274D02*
X154642274Y-316784000D01*
X155960001Y-312066273D02*
X155660000Y-312366274D01*
X156175000Y-305392329D02*
X155960001Y-305607328D01*
X154642274Y-316784000D02*
X154324000Y-316784000D01*
X155660000Y-312366274D02*
X155660000Y-315766274D01*
X155960001Y-305607328D02*
X155960001Y-312066273D01*
%TO.N,/adc/SCK*%
X165750000Y-315710000D02*
X166824000Y-316784000D01*
X165750000Y-298650000D02*
X165750000Y-315710000D01*
X164450000Y-297350000D02*
X165750000Y-298650000D01*
%TO.N,/adc/D0_P*%
X153360000Y-315682817D02*
X153121409Y-315921409D01*
X152781983Y-307195209D02*
X152566984Y-307410208D01*
X152566984Y-307410208D02*
X152566984Y-309340710D01*
X153121409Y-315921409D02*
X152258818Y-316784000D01*
X152258818Y-316784000D02*
X151824000Y-316784000D01*
X152566984Y-309340710D02*
X153360000Y-310133726D01*
X153360000Y-310133726D02*
X153360000Y-315682817D01*
%TO.N,/adc/SDI*%
X164324000Y-321284000D02*
X164566000Y-321284000D01*
X165350000Y-299250000D02*
X165350000Y-320500000D01*
X164350000Y-298250000D02*
X165350000Y-299250000D01*
X164566000Y-321284000D02*
X165350000Y-320500000D01*
%TO.N,/adc/D12_P*%
X162242274Y-316784000D02*
X161824000Y-316784000D01*
X163260000Y-306033726D02*
X163260000Y-315766274D01*
X161860002Y-304494274D02*
X161860002Y-304633728D01*
X162075001Y-304279275D02*
X161860002Y-304494274D01*
X163260000Y-315766274D02*
X162242274Y-316784000D01*
X161860002Y-304633728D02*
X163260000Y-306033726D01*
%TO.N,/adc/D12_N*%
X161540000Y-304766274D02*
X162940000Y-306166274D01*
X161540000Y-304494274D02*
X161540000Y-304766274D01*
X162426863Y-315886863D02*
X161824000Y-315284000D01*
X162686863Y-315886863D02*
X162426863Y-315886863D01*
X162940000Y-306166274D02*
X162940000Y-315633726D01*
X161325001Y-304279275D02*
X161540000Y-304494274D01*
X162940000Y-315633726D02*
X162686863Y-315886863D01*
%TO.N,/adc/D4_N*%
X155425000Y-305392329D02*
X155639999Y-305607328D01*
X155639999Y-311933727D02*
X155340000Y-312233726D01*
X155340000Y-315633726D02*
X155086863Y-315886863D01*
X154324000Y-315284000D02*
X154926863Y-315886863D01*
X154926863Y-315886863D02*
X155086863Y-315886863D01*
X155639999Y-305607328D02*
X155639999Y-311933727D01*
X155340000Y-312233726D02*
X155340000Y-315633726D01*
D27*
%TO.N,/Pulser Interface/tp_neg1*%
X244200000Y-314108000D02*
X243024000Y-315284000D01*
X244200000Y-293000000D02*
X244200000Y-314108000D01*
X219400000Y-268200000D02*
X244200000Y-293000000D01*
%TO.N,/Pulser Interface/tp_pos2*%
X241450000Y-300410000D02*
X241450000Y-314358000D01*
X241450000Y-314358000D02*
X240524000Y-315284000D01*
X209240000Y-268200000D02*
X241450000Y-300410000D01*
%TO.N,/Relay Board Interface/fault_rdbk*%
X121780000Y-275500000D02*
X113780000Y-267500000D01*
X199200000Y-275500000D02*
X121780000Y-275500000D01*
X223024000Y-315284000D02*
X222224000Y-314484000D01*
X222224000Y-314484000D02*
X222224000Y-298524000D01*
X222224000Y-298524000D02*
X199200000Y-275500000D01*
%TO.N,/Relay Board Interface/spare2*%
X226950000Y-294500000D02*
X226950000Y-318358000D01*
X204950000Y-272500000D02*
X226950000Y-294500000D01*
X226950000Y-318358000D02*
X225524000Y-319784000D01*
X134020000Y-272500000D02*
X204950000Y-272500000D01*
X129020000Y-267500000D02*
X134020000Y-272500000D01*
D25*
%TO.N,+3.3V*%
X258300000Y-284800000D02*
X258200000Y-284900000D01*
X254600000Y-307150000D02*
X254450000Y-307300000D01*
X254600000Y-305900000D02*
X254600000Y-307150000D01*
X258200000Y-278200000D02*
X258300000Y-278300000D01*
X258200000Y-276900000D02*
X258200000Y-278200000D01*
X258300000Y-283800000D02*
X258300000Y-284800000D01*
X129400000Y-313500000D02*
X129400000Y-311670000D01*
%TO.N,+1.8V*%
X255450000Y-276900000D02*
X255450000Y-278250000D01*
X153700000Y-299300000D02*
X153850000Y-299150000D01*
X255450000Y-278250000D02*
X255400000Y-278300000D01*
X255500000Y-284850000D02*
X255450000Y-284900000D01*
X255500000Y-283800000D02*
X255500000Y-284850000D01*
D29*
X152850000Y-299300000D02*
X153700000Y-299300000D01*
D27*
%TO.N,+5.0V*%
X272900000Y-308800000D02*
X271900000Y-308800000D01*
%TO.N,/Relay Board Interface/force_trip*%
X224450000Y-318358000D02*
X224450000Y-297500000D01*
X224450000Y-297500000D02*
X201450000Y-274500000D01*
X223024000Y-319784000D02*
X224450000Y-318358000D01*
X125860000Y-274500000D02*
X118860000Y-267500000D01*
X201450000Y-274500000D02*
X125860000Y-274500000D01*
%TO.N,/Relay Board Interface/faultn*%
X220524000Y-321284000D02*
X221450000Y-320358000D01*
X221450000Y-320358000D02*
X221450000Y-306150000D01*
X197923529Y-275973529D02*
X119713529Y-275973529D01*
X221450000Y-306150000D02*
X220200000Y-304900000D01*
X220200000Y-304900000D02*
X220200000Y-300400000D01*
X220200000Y-298250000D02*
X197923529Y-275973529D01*
X119713529Y-275973529D02*
X111240000Y-267500000D01*
X220200000Y-300400000D02*
X220200000Y-298250000D01*
%TO.N,/Relay Board Interface/spare1*%
X226550000Y-295350000D02*
X226550000Y-315758000D01*
X131980000Y-273000000D02*
X204200000Y-273000000D01*
X204200000Y-273000000D02*
X226550000Y-295350000D01*
X126480000Y-267500000D02*
X131980000Y-273000000D01*
X226550000Y-315758000D02*
X225524000Y-316784000D01*
%TO.N,/Relay Board Interface/fault_reset*%
X123820000Y-275000000D02*
X200450000Y-275000000D01*
X116320000Y-267500000D02*
X123820000Y-275000000D01*
X200450000Y-275000000D02*
X224050000Y-298600000D01*
X224050000Y-315758000D02*
X223024000Y-316784000D01*
X224050000Y-298600000D02*
X224050000Y-315758000D01*
%TO.N,/EEPROM/wpn*%
X233500000Y-310500000D02*
X231800000Y-312200000D01*
X237600000Y-310500000D02*
X233500000Y-310500000D01*
X231800000Y-318508000D02*
X230524000Y-319784000D01*
X231800000Y-312200000D02*
X231800000Y-318508000D01*
%TD*%
M02*
