M48
; DRILL file {KiCad 9.0.9-9.0.9~ubuntu22.04.1} date 2026-05-26T12:54:22-0400
; FORMAT={-:-/ absolute / metric / decimal}
; #@! TF.CreationDate,2026-05-26T12:54:22-04:00
; #@! TF.GenerationSoftware,Kicad,Pcbnew,9.0.9-9.0.9~ubuntu22.04.1
; #@! TF.FileFunction,Plated,1,6,PTH
FMAT,2
METRIC
; #@! TA.AperFunction,Plated,PTH,ViaDrill
T1C0.300
; #@! TA.AperFunction,Plated,PTH,ComponentDrill
T2C0.300
; #@! TA.AperFunction,Plated,PTH,ViaDrill
T3C0.500
; #@! TA.AperFunction,Plated,PTH,ComponentDrill
T4C0.610
; #@! TA.AperFunction,Plated,PTH,ComponentDrill
T5C0.970
; #@! TA.AperFunction,Plated,PTH,ComponentDrill
T6C1.500
; #@! TA.AperFunction,Plated,PTH,ComponentDrill
T7C1.700
; #@! TA.AperFunction,Plated,PTH,ComponentDrill
T8C1.800
; #@! TA.AperFunction,Plated,PTH,ComponentDrill
T9C4.300
%
G90
G05
T1
X77.4Y-326.4
X82.6Y-265.6
X118.4Y-295.9
X129.4Y-311.67
X129.4Y-317.0
X142.7Y-292.25
X143.45Y-294.5
X143.7Y-296.5
X144.225Y-92.65
X148.7Y-299.3
X149.7Y-299.3
X150.5Y-296.55
X152.032Y-307.195
X152.782Y-307.195
X153.85Y-299.15
X154.4Y-298.1
X155.425Y-305.392
X155.5Y-294.9
X156.175Y-305.392
X157.827Y-304.997
X158.577Y-304.997
X159.028Y-293.75
X159.05Y-289.8
X160.55Y-288.65
X161.325Y-304.279
X161.95Y-294.3
X162.075Y-304.279
X162.6Y-288.55
X163.65Y-295.75
X163.95Y-296.7
X164.05Y-289.8
X164.35Y-298.25
X164.45Y-297.35
X167.8Y-297.2
X167.8Y-299.1
X168.8Y-299.1
X168.85Y-297.2
X168.85Y-304.5
X172.35Y-302.8
X172.6Y-287.2
X173.95Y-304.0
X173.95Y-304.95
X174.35Y-285.8
X174.35Y-299.25
X175.5Y-303.95
X176.5Y-285.75
X176.5Y-296.814
X176.5Y-299.2
X176.8Y-303.95
X177.0Y-309.8
X178.5Y-309.8
X180.6Y-286.014
X180.6Y-295.614
X180.7Y-298.7
X181.3Y-286.014
X185.25Y-305.1
X185.3Y-302.9
X185.3Y-307.4
X185.35Y-294.814
X185.35Y-298.7
X185.4Y-292.514
X185.65Y-288.114
X185.65Y-290.199
X185.7Y-300.8
X185.9Y-302.9
X185.9Y-305.1
X185.9Y-307.4
X186.1Y-286.114
X186.1Y-292.514
X186.1Y-294.814
X186.1Y-298.7
X186.6Y-290.2
X220.2Y-300.4
X236.8Y-311.5
X237.3Y-309.2
X237.6Y-310.5
X246.5Y-296.5
X249.3Y-306.1
X249.3Y-308.8
X249.45Y-307.45
X251.3Y-285.3
X251.6Y-276.8
X253.2Y-274.6
X253.2Y-287.7
X254.5Y-310.4
X254.6Y-305.9
X254.8Y-279.8
X255.0Y-282.3
X255.4Y-278.3
X255.4Y-287.9
X255.45Y-274.05
X255.5Y-283.8
X255.9Y-296.5
X256.0Y-299.5
X258.2Y-274.0
X258.2Y-287.9
X258.3Y-278.3
X258.3Y-283.8
X258.9Y-308.8
X258.995Y-310.005
X259.0Y-307.5
X259.1Y-279.8
X259.1Y-282.3
X260.6Y-274.3
X260.7Y-287.7
X261.3Y-325.3
X261.5Y-319.2
X262.6Y-305.4
X262.6Y-332.0
X263.5Y-325.3
X263.7Y-319.2
X265.7Y-309.7
X265.9Y-325.3
X266.0Y-319.2
X267.2Y-316.0
X268.2Y-325.3
X268.8Y-304.7
X270.0Y-310.3
X270.4Y-325.3
X271.6Y-323.0
X272.7Y-322.1
X272.9Y-308.8
X273.8Y-304.1
X274.2Y-323.2
X275.8Y-317.3
X276.4Y-323.2
X277.2Y-309.3
X277.6Y-264.97
X277.605Y-275.45
X277.61Y-269.15
X277.61Y-271.25
X277.61Y-273.35
X277.61Y-277.55
X277.61Y-281.75
X277.61Y-283.85
X277.61Y-290.15
X277.61Y-292.25
X277.61Y-294.35
X277.61Y-296.45
X277.65Y-267.05
X277.738Y-279.65
X277.738Y-286.0
X277.738Y-288.05
X278.1Y-305.1
X278.6Y-323.2
X279.1Y-309.4
X279.95Y-325.75
X280.1Y-318.6
X280.6Y-319.1
X282.715Y-321.685
X284.0Y-325.8
X284.0Y-331.0
X287.0Y-329.2
X297.3Y-273.7
T2
X157.2Y-296.5
X157.2Y-298.0
X157.2Y-299.25
X157.2Y-300.5
X158.45Y-296.5
X158.45Y-298.0
X158.45Y-299.25
X158.45Y-300.5
X159.7Y-296.5
X159.7Y-298.0
X159.7Y-299.25
X159.7Y-300.5
X160.95Y-296.5
X160.95Y-298.0
X160.95Y-299.25
X160.95Y-300.5
X177.0Y-293.914
X177.0Y-306.8
X177.5Y-293.414
X177.5Y-294.414
X177.5Y-306.3
X177.5Y-307.3
X178.0Y-293.914
X178.0Y-306.8
X269.0Y-320.65
X269.65Y-320.1
X269.65Y-321.2
X270.3Y-320.65
X270.825Y-305.7
X271.4Y-304.75
X271.4Y-306.65
X271.975Y-305.7
X283.7Y-319.7
X283.7Y-320.8
T3
X168.7Y-291.1
X245.9Y-283.197
X246.95Y-285.5
X247.2Y-284.0
X247.45Y-278.75
X247.7Y-281.75
X248.2Y-275.25
X248.45Y-286.0
X248.7Y-280.0
X248.95Y-274.0
X248.95Y-276.75
X248.95Y-278.0
X249.45Y-281.25
X249.7Y-286.75
X249.95Y-279.5
X250.7Y-287.5
X250.95Y-282.25
T4
X144.324Y-313.784
X144.324Y-315.284
X144.324Y-316.784
X144.324Y-318.284
X144.324Y-319.784
X144.324Y-321.284
X146.824Y-313.784
X146.824Y-315.284
X146.824Y-316.784
X146.824Y-318.284
X146.824Y-319.784
X146.824Y-321.284
X149.324Y-313.784
X149.324Y-315.284
X149.324Y-316.784
X149.324Y-318.284
X149.324Y-319.784
X149.324Y-321.284
X151.824Y-313.784
X151.824Y-315.284
X151.824Y-316.784
X151.824Y-318.284
X151.824Y-319.784
X151.824Y-321.284
X154.324Y-313.784
X154.324Y-315.284
X154.324Y-316.784
X154.324Y-318.284
X154.324Y-319.784
X154.324Y-321.284
X156.824Y-313.784
X156.824Y-315.284
X156.824Y-316.784
X156.824Y-318.284
X156.824Y-319.784
X156.824Y-321.284
X159.324Y-313.784
X159.324Y-315.284
X159.324Y-316.784
X159.324Y-318.284
X159.324Y-319.784
X159.324Y-321.284
X161.824Y-313.784
X161.824Y-315.284
X161.824Y-316.784
X161.824Y-318.284
X161.824Y-319.784
X161.824Y-321.284
X164.324Y-313.784
X164.324Y-315.284
X164.324Y-316.784
X164.324Y-318.284
X164.324Y-319.784
X164.324Y-321.284
X166.824Y-313.784
X166.824Y-315.284
X166.824Y-316.784
X166.824Y-318.284
X166.824Y-319.784
X166.824Y-321.284
X195.124Y-313.784
X195.124Y-315.284
X195.124Y-316.784
X195.124Y-318.284
X195.124Y-319.784
X195.124Y-321.284
X197.624Y-313.784
X197.624Y-315.284
X197.624Y-316.784
X197.624Y-318.284
X197.624Y-319.784
X197.624Y-321.284
X200.124Y-313.784
X200.124Y-315.284
X200.124Y-316.784
X200.124Y-318.284
X200.124Y-319.784
X200.124Y-321.284
X202.624Y-313.784
X202.624Y-315.284
X202.624Y-316.784
X202.624Y-318.284
X202.624Y-319.784
X202.624Y-321.284
X205.124Y-313.784
X205.124Y-315.284
X205.124Y-316.784
X205.124Y-318.284
X205.124Y-319.784
X205.124Y-321.284
X207.624Y-313.784
X207.624Y-315.284
X207.624Y-316.784
X207.624Y-318.284
X207.624Y-319.784
X207.624Y-321.284
X210.124Y-313.784
X210.124Y-315.284
X210.124Y-316.784
X210.124Y-318.284
X210.124Y-319.784
X210.124Y-321.284
X212.624Y-313.784
X212.624Y-315.284
X212.624Y-316.784
X212.624Y-318.284
X212.624Y-319.784
X212.624Y-321.284
X215.124Y-313.784
X215.124Y-315.284
X215.124Y-316.784
X215.124Y-318.284
X215.124Y-319.784
X215.124Y-321.284
X217.624Y-313.784
X217.624Y-315.284
X217.624Y-316.784
X217.624Y-318.284
X217.624Y-319.784
X217.624Y-321.284
X220.524Y-313.784
X220.524Y-315.284
X220.524Y-316.784
X220.524Y-318.284
X220.524Y-319.784
X220.524Y-321.284
X223.024Y-313.784
X223.024Y-315.284
X223.024Y-316.784
X223.024Y-318.284
X223.024Y-319.784
X223.024Y-321.284
X225.524Y-313.784
X225.524Y-315.284
X225.524Y-316.784
X225.524Y-318.284
X225.524Y-319.784
X225.524Y-321.284
X228.024Y-313.784
X228.024Y-315.284
X228.024Y-316.784
X228.024Y-318.284
X228.024Y-319.784
X228.024Y-321.284
X230.524Y-313.784
X230.524Y-315.284
X230.524Y-316.784
X230.524Y-318.284
X230.524Y-319.784
X230.524Y-321.284
X233.024Y-313.784
X233.024Y-315.284
X233.024Y-316.784
X233.024Y-318.284
X233.024Y-319.784
X233.024Y-321.284
X235.524Y-313.784
X235.524Y-315.284
X235.524Y-316.784
X235.524Y-318.284
X235.524Y-319.784
X235.524Y-321.284
X238.024Y-313.784
X238.024Y-315.284
X238.024Y-316.784
X238.024Y-318.284
X238.024Y-319.784
X238.024Y-321.284
X240.524Y-313.784
X240.524Y-315.284
X240.524Y-316.784
X240.524Y-318.284
X240.524Y-319.784
X240.524Y-321.284
X243.024Y-313.784
X243.024Y-315.284
X243.024Y-316.784
X243.024Y-318.284
X243.024Y-319.784
X243.024Y-321.284
T5
X111.24Y-264.96
X111.24Y-267.5
X113.78Y-264.96
X113.78Y-267.5
X116.32Y-264.96
X116.32Y-267.5
X118.86Y-264.96
X118.86Y-267.5
X121.4Y-264.96
X121.4Y-267.5
X123.94Y-264.96
X123.94Y-267.5
X126.48Y-264.96
X126.48Y-267.5
X129.02Y-264.96
X129.02Y-267.5
X131.56Y-264.96
X131.56Y-267.5
X134.1Y-264.96
X134.1Y-267.5
X204.16Y-264.96
X204.16Y-267.5
X206.7Y-264.96
X206.7Y-267.5
X209.24Y-264.96
X209.24Y-267.5
X211.78Y-264.96
X211.78Y-267.5
X214.32Y-264.96
X214.32Y-267.5
X216.86Y-264.96
X216.86Y-267.5
X219.4Y-264.96
X219.4Y-267.5
X221.94Y-264.96
X221.94Y-267.5
X224.48Y-264.96
X224.48Y-267.5
X227.02Y-264.96
X227.02Y-267.5
T6
X110.16Y-288.71
T7
X107.62Y-286.17
X107.62Y-291.25
X112.7Y-286.17
X112.7Y-291.25
T8
X288.27Y-319.75
X293.77Y-319.75
T9
X68.78Y-263.88
X68.78Y-329.92
X111.96Y-329.92
X164.739Y-263.88
X246.58Y-263.88
X250.644Y-329.92
X299.92Y-263.88
X299.92Y-329.92
M30
