%TF.GenerationSoftware,KiCad,Pcbnew,9.0.9-9.0.9~ubuntu22.04.1*%
%TF.CreationDate,2026-05-26T13:00:12-04:00*%
%TF.ProjectId,acmi2-afe,61636d69-322d-4616-9665-2e6b69636164,rev?*%
%TF.SameCoordinates,Original*%
%TF.FileFunction,Legend,Bot*%
%TF.FilePolarity,Positive*%
%FSLAX46Y46*%
G04 Gerber Fmt 4.6, Leading zero omitted, Abs format (unit mm)*
G04 Created by KiCad (PCBNEW 9.0.9-9.0.9~ubuntu22.04.1) date 2026-05-26 13:00:12*
%MOMM*%
%LPD*%
G01*
G04 APERTURE LIST*
%ADD10C,0.150000*%
%ADD11C,0.120000*%
G04 APERTURE END LIST*
D10*
X253542857Y-286209580D02*
X253590476Y-286257200D01*
X253590476Y-286257200D02*
X253733333Y-286304819D01*
X253733333Y-286304819D02*
X253828571Y-286304819D01*
X253828571Y-286304819D02*
X253971428Y-286257200D01*
X253971428Y-286257200D02*
X254066666Y-286161961D01*
X254066666Y-286161961D02*
X254114285Y-286066723D01*
X254114285Y-286066723D02*
X254161904Y-285876247D01*
X254161904Y-285876247D02*
X254161904Y-285733390D01*
X254161904Y-285733390D02*
X254114285Y-285542914D01*
X254114285Y-285542914D02*
X254066666Y-285447676D01*
X254066666Y-285447676D02*
X253971428Y-285352438D01*
X253971428Y-285352438D02*
X253828571Y-285304819D01*
X253828571Y-285304819D02*
X253733333Y-285304819D01*
X253733333Y-285304819D02*
X253590476Y-285352438D01*
X253590476Y-285352438D02*
X253542857Y-285400057D01*
X253209523Y-285304819D02*
X252590476Y-285304819D01*
X252590476Y-285304819D02*
X252923809Y-285685771D01*
X252923809Y-285685771D02*
X252780952Y-285685771D01*
X252780952Y-285685771D02*
X252685714Y-285733390D01*
X252685714Y-285733390D02*
X252638095Y-285781009D01*
X252638095Y-285781009D02*
X252590476Y-285876247D01*
X252590476Y-285876247D02*
X252590476Y-286114342D01*
X252590476Y-286114342D02*
X252638095Y-286209580D01*
X252638095Y-286209580D02*
X252685714Y-286257200D01*
X252685714Y-286257200D02*
X252780952Y-286304819D01*
X252780952Y-286304819D02*
X253066666Y-286304819D01*
X253066666Y-286304819D02*
X253161904Y-286257200D01*
X253161904Y-286257200D02*
X253209523Y-286209580D01*
X251733333Y-285638152D02*
X251733333Y-286304819D01*
X251971428Y-285257200D02*
X252209523Y-285971485D01*
X252209523Y-285971485D02*
X251590476Y-285971485D01*
X261442857Y-286470832D02*
X261490476Y-286518452D01*
X261490476Y-286518452D02*
X261633333Y-286566071D01*
X261633333Y-286566071D02*
X261728571Y-286566071D01*
X261728571Y-286566071D02*
X261871428Y-286518452D01*
X261871428Y-286518452D02*
X261966666Y-286423213D01*
X261966666Y-286423213D02*
X262014285Y-286327975D01*
X262014285Y-286327975D02*
X262061904Y-286137499D01*
X262061904Y-286137499D02*
X262061904Y-285994642D01*
X262061904Y-285994642D02*
X262014285Y-285804166D01*
X262014285Y-285804166D02*
X261966666Y-285708928D01*
X261966666Y-285708928D02*
X261871428Y-285613690D01*
X261871428Y-285613690D02*
X261728571Y-285566071D01*
X261728571Y-285566071D02*
X261633333Y-285566071D01*
X261633333Y-285566071D02*
X261490476Y-285613690D01*
X261490476Y-285613690D02*
X261442857Y-285661309D01*
X261109523Y-285566071D02*
X260490476Y-285566071D01*
X260490476Y-285566071D02*
X260823809Y-285947023D01*
X260823809Y-285947023D02*
X260680952Y-285947023D01*
X260680952Y-285947023D02*
X260585714Y-285994642D01*
X260585714Y-285994642D02*
X260538095Y-286042261D01*
X260538095Y-286042261D02*
X260490476Y-286137499D01*
X260490476Y-286137499D02*
X260490476Y-286375594D01*
X260490476Y-286375594D02*
X260538095Y-286470832D01*
X260538095Y-286470832D02*
X260585714Y-286518452D01*
X260585714Y-286518452D02*
X260680952Y-286566071D01*
X260680952Y-286566071D02*
X260966666Y-286566071D01*
X260966666Y-286566071D02*
X261061904Y-286518452D01*
X261061904Y-286518452D02*
X261109523Y-286470832D01*
X259633333Y-285566071D02*
X259823809Y-285566071D01*
X259823809Y-285566071D02*
X259919047Y-285613690D01*
X259919047Y-285613690D02*
X259966666Y-285661309D01*
X259966666Y-285661309D02*
X260061904Y-285804166D01*
X260061904Y-285804166D02*
X260109523Y-285994642D01*
X260109523Y-285994642D02*
X260109523Y-286375594D01*
X260109523Y-286375594D02*
X260061904Y-286470832D01*
X260061904Y-286470832D02*
X260014285Y-286518452D01*
X260014285Y-286518452D02*
X259919047Y-286566071D01*
X259919047Y-286566071D02*
X259728571Y-286566071D01*
X259728571Y-286566071D02*
X259633333Y-286518452D01*
X259633333Y-286518452D02*
X259585714Y-286470832D01*
X259585714Y-286470832D02*
X259538095Y-286375594D01*
X259538095Y-286375594D02*
X259538095Y-286137499D01*
X259538095Y-286137499D02*
X259585714Y-286042261D01*
X259585714Y-286042261D02*
X259633333Y-285994642D01*
X259633333Y-285994642D02*
X259728571Y-285947023D01*
X259728571Y-285947023D02*
X259919047Y-285947023D01*
X259919047Y-285947023D02*
X260014285Y-285994642D01*
X260014285Y-285994642D02*
X260061904Y-286042261D01*
X260061904Y-286042261D02*
X260109523Y-286137499D01*
X253642857Y-276309580D02*
X253690476Y-276357200D01*
X253690476Y-276357200D02*
X253833333Y-276404819D01*
X253833333Y-276404819D02*
X253928571Y-276404819D01*
X253928571Y-276404819D02*
X254071428Y-276357200D01*
X254071428Y-276357200D02*
X254166666Y-276261961D01*
X254166666Y-276261961D02*
X254214285Y-276166723D01*
X254214285Y-276166723D02*
X254261904Y-275976247D01*
X254261904Y-275976247D02*
X254261904Y-275833390D01*
X254261904Y-275833390D02*
X254214285Y-275642914D01*
X254214285Y-275642914D02*
X254166666Y-275547676D01*
X254166666Y-275547676D02*
X254071428Y-275452438D01*
X254071428Y-275452438D02*
X253928571Y-275404819D01*
X253928571Y-275404819D02*
X253833333Y-275404819D01*
X253833333Y-275404819D02*
X253690476Y-275452438D01*
X253690476Y-275452438D02*
X253642857Y-275500057D01*
X253309523Y-275404819D02*
X252690476Y-275404819D01*
X252690476Y-275404819D02*
X253023809Y-275785771D01*
X253023809Y-275785771D02*
X252880952Y-275785771D01*
X252880952Y-275785771D02*
X252785714Y-275833390D01*
X252785714Y-275833390D02*
X252738095Y-275881009D01*
X252738095Y-275881009D02*
X252690476Y-275976247D01*
X252690476Y-275976247D02*
X252690476Y-276214342D01*
X252690476Y-276214342D02*
X252738095Y-276309580D01*
X252738095Y-276309580D02*
X252785714Y-276357200D01*
X252785714Y-276357200D02*
X252880952Y-276404819D01*
X252880952Y-276404819D02*
X253166666Y-276404819D01*
X253166666Y-276404819D02*
X253261904Y-276357200D01*
X253261904Y-276357200D02*
X253309523Y-276309580D01*
X251785714Y-275404819D02*
X252261904Y-275404819D01*
X252261904Y-275404819D02*
X252309523Y-275881009D01*
X252309523Y-275881009D02*
X252261904Y-275833390D01*
X252261904Y-275833390D02*
X252166666Y-275785771D01*
X252166666Y-275785771D02*
X251928571Y-275785771D01*
X251928571Y-275785771D02*
X251833333Y-275833390D01*
X251833333Y-275833390D02*
X251785714Y-275881009D01*
X251785714Y-275881009D02*
X251738095Y-275976247D01*
X251738095Y-275976247D02*
X251738095Y-276214342D01*
X251738095Y-276214342D02*
X251785714Y-276309580D01*
X251785714Y-276309580D02*
X251833333Y-276357200D01*
X251833333Y-276357200D02*
X251928571Y-276404819D01*
X251928571Y-276404819D02*
X252166666Y-276404819D01*
X252166666Y-276404819D02*
X252261904Y-276357200D01*
X252261904Y-276357200D02*
X252309523Y-276309580D01*
X152542857Y-297979580D02*
X152590476Y-298027200D01*
X152590476Y-298027200D02*
X152733333Y-298074819D01*
X152733333Y-298074819D02*
X152828571Y-298074819D01*
X152828571Y-298074819D02*
X152971428Y-298027200D01*
X152971428Y-298027200D02*
X153066666Y-297931961D01*
X153066666Y-297931961D02*
X153114285Y-297836723D01*
X153114285Y-297836723D02*
X153161904Y-297646247D01*
X153161904Y-297646247D02*
X153161904Y-297503390D01*
X153161904Y-297503390D02*
X153114285Y-297312914D01*
X153114285Y-297312914D02*
X153066666Y-297217676D01*
X153066666Y-297217676D02*
X152971428Y-297122438D01*
X152971428Y-297122438D02*
X152828571Y-297074819D01*
X152828571Y-297074819D02*
X152733333Y-297074819D01*
X152733333Y-297074819D02*
X152590476Y-297122438D01*
X152590476Y-297122438D02*
X152542857Y-297170057D01*
X151590476Y-298074819D02*
X152161904Y-298074819D01*
X151876190Y-298074819D02*
X151876190Y-297074819D01*
X151876190Y-297074819D02*
X151971428Y-297217676D01*
X151971428Y-297217676D02*
X152066666Y-297312914D01*
X152066666Y-297312914D02*
X152161904Y-297360533D01*
X150638095Y-298074819D02*
X151209523Y-298074819D01*
X150923809Y-298074819D02*
X150923809Y-297074819D01*
X150923809Y-297074819D02*
X151019047Y-297217676D01*
X151019047Y-297217676D02*
X151114285Y-297312914D01*
X151114285Y-297312914D02*
X151209523Y-297360533D01*
X261642857Y-276459580D02*
X261690476Y-276507200D01*
X261690476Y-276507200D02*
X261833333Y-276554819D01*
X261833333Y-276554819D02*
X261928571Y-276554819D01*
X261928571Y-276554819D02*
X262071428Y-276507200D01*
X262071428Y-276507200D02*
X262166666Y-276411961D01*
X262166666Y-276411961D02*
X262214285Y-276316723D01*
X262214285Y-276316723D02*
X262261904Y-276126247D01*
X262261904Y-276126247D02*
X262261904Y-275983390D01*
X262261904Y-275983390D02*
X262214285Y-275792914D01*
X262214285Y-275792914D02*
X262166666Y-275697676D01*
X262166666Y-275697676D02*
X262071428Y-275602438D01*
X262071428Y-275602438D02*
X261928571Y-275554819D01*
X261928571Y-275554819D02*
X261833333Y-275554819D01*
X261833333Y-275554819D02*
X261690476Y-275602438D01*
X261690476Y-275602438D02*
X261642857Y-275650057D01*
X261309523Y-275554819D02*
X260690476Y-275554819D01*
X260690476Y-275554819D02*
X261023809Y-275935771D01*
X261023809Y-275935771D02*
X260880952Y-275935771D01*
X260880952Y-275935771D02*
X260785714Y-275983390D01*
X260785714Y-275983390D02*
X260738095Y-276031009D01*
X260738095Y-276031009D02*
X260690476Y-276126247D01*
X260690476Y-276126247D02*
X260690476Y-276364342D01*
X260690476Y-276364342D02*
X260738095Y-276459580D01*
X260738095Y-276459580D02*
X260785714Y-276507200D01*
X260785714Y-276507200D02*
X260880952Y-276554819D01*
X260880952Y-276554819D02*
X261166666Y-276554819D01*
X261166666Y-276554819D02*
X261261904Y-276507200D01*
X261261904Y-276507200D02*
X261309523Y-276459580D01*
X260357142Y-275554819D02*
X259690476Y-275554819D01*
X259690476Y-275554819D02*
X260119047Y-276554819D01*
X128079580Y-314283333D02*
X128127200Y-314235714D01*
X128127200Y-314235714D02*
X128174819Y-314092857D01*
X128174819Y-314092857D02*
X128174819Y-313997619D01*
X128174819Y-313997619D02*
X128127200Y-313854762D01*
X128127200Y-313854762D02*
X128031961Y-313759524D01*
X128031961Y-313759524D02*
X127936723Y-313711905D01*
X127936723Y-313711905D02*
X127746247Y-313664286D01*
X127746247Y-313664286D02*
X127603390Y-313664286D01*
X127603390Y-313664286D02*
X127412914Y-313711905D01*
X127412914Y-313711905D02*
X127317676Y-313759524D01*
X127317676Y-313759524D02*
X127222438Y-313854762D01*
X127222438Y-313854762D02*
X127174819Y-313997619D01*
X127174819Y-313997619D02*
X127174819Y-314092857D01*
X127174819Y-314092857D02*
X127222438Y-314235714D01*
X127222438Y-314235714D02*
X127270057Y-314283333D01*
X128174819Y-315235714D02*
X128174819Y-314664286D01*
X128174819Y-314950000D02*
X127174819Y-314950000D01*
X127174819Y-314950000D02*
X127317676Y-314854762D01*
X127317676Y-314854762D02*
X127412914Y-314759524D01*
X127412914Y-314759524D02*
X127460533Y-314664286D01*
X272642857Y-311259580D02*
X272690476Y-311307200D01*
X272690476Y-311307200D02*
X272833333Y-311354819D01*
X272833333Y-311354819D02*
X272928571Y-311354819D01*
X272928571Y-311354819D02*
X273071428Y-311307200D01*
X273071428Y-311307200D02*
X273166666Y-311211961D01*
X273166666Y-311211961D02*
X273214285Y-311116723D01*
X273214285Y-311116723D02*
X273261904Y-310926247D01*
X273261904Y-310926247D02*
X273261904Y-310783390D01*
X273261904Y-310783390D02*
X273214285Y-310592914D01*
X273214285Y-310592914D02*
X273166666Y-310497676D01*
X273166666Y-310497676D02*
X273071428Y-310402438D01*
X273071428Y-310402438D02*
X272928571Y-310354819D01*
X272928571Y-310354819D02*
X272833333Y-310354819D01*
X272833333Y-310354819D02*
X272690476Y-310402438D01*
X272690476Y-310402438D02*
X272642857Y-310450057D01*
X271785714Y-310688152D02*
X271785714Y-311354819D01*
X272023809Y-310307200D02*
X272261904Y-311021485D01*
X272261904Y-311021485D02*
X271642857Y-311021485D01*
X270833333Y-310354819D02*
X271023809Y-310354819D01*
X271023809Y-310354819D02*
X271119047Y-310402438D01*
X271119047Y-310402438D02*
X271166666Y-310450057D01*
X271166666Y-310450057D02*
X271261904Y-310592914D01*
X271261904Y-310592914D02*
X271309523Y-310783390D01*
X271309523Y-310783390D02*
X271309523Y-311164342D01*
X271309523Y-311164342D02*
X271261904Y-311259580D01*
X271261904Y-311259580D02*
X271214285Y-311307200D01*
X271214285Y-311307200D02*
X271119047Y-311354819D01*
X271119047Y-311354819D02*
X270928571Y-311354819D01*
X270928571Y-311354819D02*
X270833333Y-311307200D01*
X270833333Y-311307200D02*
X270785714Y-311259580D01*
X270785714Y-311259580D02*
X270738095Y-311164342D01*
X270738095Y-311164342D02*
X270738095Y-310926247D01*
X270738095Y-310926247D02*
X270785714Y-310831009D01*
X270785714Y-310831009D02*
X270833333Y-310783390D01*
X270833333Y-310783390D02*
X270928571Y-310735771D01*
X270928571Y-310735771D02*
X271119047Y-310735771D01*
X271119047Y-310735771D02*
X271214285Y-310783390D01*
X271214285Y-310783390D02*
X271261904Y-310831009D01*
X271261904Y-310831009D02*
X271309523Y-310926247D01*
X253129580Y-307607142D02*
X253177200Y-307559523D01*
X253177200Y-307559523D02*
X253224819Y-307416666D01*
X253224819Y-307416666D02*
X253224819Y-307321428D01*
X253224819Y-307321428D02*
X253177200Y-307178571D01*
X253177200Y-307178571D02*
X253081961Y-307083333D01*
X253081961Y-307083333D02*
X252986723Y-307035714D01*
X252986723Y-307035714D02*
X252796247Y-306988095D01*
X252796247Y-306988095D02*
X252653390Y-306988095D01*
X252653390Y-306988095D02*
X252462914Y-307035714D01*
X252462914Y-307035714D02*
X252367676Y-307083333D01*
X252367676Y-307083333D02*
X252272438Y-307178571D01*
X252272438Y-307178571D02*
X252224819Y-307321428D01*
X252224819Y-307321428D02*
X252224819Y-307416666D01*
X252224819Y-307416666D02*
X252272438Y-307559523D01*
X252272438Y-307559523D02*
X252320057Y-307607142D01*
X252224819Y-307940476D02*
X252224819Y-308559523D01*
X252224819Y-308559523D02*
X252605771Y-308226190D01*
X252605771Y-308226190D02*
X252605771Y-308369047D01*
X252605771Y-308369047D02*
X252653390Y-308464285D01*
X252653390Y-308464285D02*
X252701009Y-308511904D01*
X252701009Y-308511904D02*
X252796247Y-308559523D01*
X252796247Y-308559523D02*
X253034342Y-308559523D01*
X253034342Y-308559523D02*
X253129580Y-308511904D01*
X253129580Y-308511904D02*
X253177200Y-308464285D01*
X253177200Y-308464285D02*
X253224819Y-308369047D01*
X253224819Y-308369047D02*
X253224819Y-308083333D01*
X253224819Y-308083333D02*
X253177200Y-307988095D01*
X253177200Y-307988095D02*
X253129580Y-307940476D01*
X253224819Y-309035714D02*
X253224819Y-309226190D01*
X253224819Y-309226190D02*
X253177200Y-309321428D01*
X253177200Y-309321428D02*
X253129580Y-309369047D01*
X253129580Y-309369047D02*
X252986723Y-309464285D01*
X252986723Y-309464285D02*
X252796247Y-309511904D01*
X252796247Y-309511904D02*
X252415295Y-309511904D01*
X252415295Y-309511904D02*
X252320057Y-309464285D01*
X252320057Y-309464285D02*
X252272438Y-309416666D01*
X252272438Y-309416666D02*
X252224819Y-309321428D01*
X252224819Y-309321428D02*
X252224819Y-309130952D01*
X252224819Y-309130952D02*
X252272438Y-309035714D01*
X252272438Y-309035714D02*
X252320057Y-308988095D01*
X252320057Y-308988095D02*
X252415295Y-308940476D01*
X252415295Y-308940476D02*
X252653390Y-308940476D01*
X252653390Y-308940476D02*
X252748628Y-308988095D01*
X252748628Y-308988095D02*
X252796247Y-309035714D01*
X252796247Y-309035714D02*
X252843866Y-309130952D01*
X252843866Y-309130952D02*
X252843866Y-309321428D01*
X252843866Y-309321428D02*
X252796247Y-309416666D01*
X252796247Y-309416666D02*
X252748628Y-309464285D01*
X252748628Y-309464285D02*
X252653390Y-309511904D01*
D11*
%TO.C,C34*%
X254715000Y-285588748D02*
X254715000Y-286111252D01*
X256185000Y-285588748D02*
X256185000Y-286111252D01*
%TO.C,C36*%
X257465000Y-285588748D02*
X257465000Y-286111252D01*
X258935000Y-285588748D02*
X258935000Y-286111252D01*
%TO.C,C35*%
X254715000Y-276211252D02*
X254715000Y-275688748D01*
X256185000Y-276211252D02*
X256185000Y-275688748D01*
%TO.C,C11*%
X152161252Y-298565000D02*
X151638748Y-298565000D01*
X152161252Y-300035000D02*
X151638748Y-300035000D01*
%TO.C,C37*%
X257465000Y-276211252D02*
X257465000Y-275688748D01*
X258935000Y-276211252D02*
X258935000Y-275688748D01*
%TO.C,C1*%
X128665000Y-314188748D02*
X128665000Y-314711252D01*
X130135000Y-314188748D02*
X130135000Y-314711252D01*
%TO.C,C46*%
X271211252Y-308065000D02*
X270688748Y-308065000D01*
X271211252Y-309535000D02*
X270688748Y-309535000D01*
%TO.C,C39*%
X253715000Y-307988748D02*
X253715000Y-308511252D01*
X255185000Y-307988748D02*
X255185000Y-308511252D01*
%TD*%
M02*
