%TF.GenerationSoftware,KiCad,Pcbnew,9.0.9-9.0.9~ubuntu22.04.1*%
%TF.CreationDate,2026-05-26T13:00:12-04:00*%
%TF.ProjectId,acmi2-afe,61636d69-322d-4616-9665-2e6b69636164,rev?*%
%TF.SameCoordinates,Original*%
%TF.FileFunction,Copper,L1,Top*%
%TF.FilePolarity,Positive*%
%FSLAX46Y46*%
G04 Gerber Fmt 4.6, Leading zero omitted, Abs format (unit mm)*
G04 Created by KiCad (PCBNEW 9.0.9-9.0.9~ubuntu22.04.1) date 2026-05-26 13:00:12*
%MOMM*%
%LPD*%
G01*
G04 APERTURE LIST*
G04 Aperture macros list*
%AMRoundRect*
0 Rectangle with rounded corners*
0 $1 Rounding radius*
0 $2 $3 $4 $5 $6 $7 $8 $9 X,Y pos of 4 corners*
0 Add a 4 corners polygon primitive as box body*
4,1,4,$2,$3,$4,$5,$6,$7,$8,$9,$2,$3,0*
0 Add four circle primitives for the rounded corners*
1,1,$1+$1,$2,$3*
1,1,$1+$1,$4,$5*
1,1,$1+$1,$6,$7*
1,1,$1+$1,$8,$9*
0 Add four rect primitives between the rounded corners*
20,1,$1+$1,$2,$3,$4,$5,0*
20,1,$1+$1,$4,$5,$6,$7,0*
20,1,$1+$1,$6,$7,$8,$9,0*
20,1,$1+$1,$8,$9,$2,$3,0*%
%AMFreePoly0*
4,1,153,0.406581,0.804743,0.408810,0.804000,0.410000,0.804000,0.411581,0.803743,0.413810,0.803000,0.415000,0.803000,0.416581,0.802743,0.419581,0.801743,0.420236,0.801472,0.421920,0.800630,0.424581,0.799743,0.426536,0.798536,0.427964,0.797108,0.429236,0.796472,0.430536,0.795536,0.431964,0.794108,0.433236,0.793472,0.434536,0.792536,0.442536,0.784536,0.443472,0.783236,
0.444108,0.781964,0.445536,0.780536,0.446472,0.779236,0.447108,0.777964,0.448536,0.776536,0.449743,0.774581,0.450630,0.771920,0.451472,0.770236,0.451743,0.769581,0.452743,0.766581,0.453000,0.765000,0.453000,0.763810,0.453743,0.761581,0.454000,0.760000,0.454000,0.758810,0.454743,0.756581,0.455000,0.755000,0.455000,-0.755000,0.454743,-0.756581,0.454000,-0.758810,
0.454000,-0.760000,0.453743,-0.761581,0.453000,-0.763810,0.453000,-0.765000,0.452743,-0.766581,0.451743,-0.769581,0.451472,-0.770236,0.450630,-0.771920,0.449743,-0.774581,0.448536,-0.776536,0.447108,-0.777964,0.446472,-0.779236,0.445536,-0.780536,0.444108,-0.781964,0.443472,-0.783236,0.442536,-0.784536,0.434536,-0.792536,0.433236,-0.793472,0.431964,-0.794108,0.430536,-0.795536,
0.429236,-0.796472,0.427964,-0.797108,0.426536,-0.798536,0.424581,-0.799743,0.421920,-0.800630,0.420236,-0.801472,0.419581,-0.801743,0.416581,-0.802743,0.415000,-0.803000,0.413810,-0.803000,0.411581,-0.803743,0.410000,-0.804000,0.408810,-0.804000,0.406581,-0.804743,0.405000,-0.805000,-0.405000,-0.805000,-0.406581,-0.804743,-0.408810,-0.804000,-0.410000,-0.804000,-0.411581,-0.803743,
-0.413810,-0.803000,-0.415000,-0.803000,-0.416581,-0.802743,-0.419581,-0.801743,-0.420236,-0.801472,-0.421920,-0.800630,-0.424581,-0.799743,-0.426536,-0.798536,-0.427964,-0.797108,-0.429236,-0.796472,-0.430536,-0.795536,-0.431964,-0.794108,-0.433236,-0.793472,-0.434536,-0.792536,-0.442536,-0.784536,-0.443472,-0.783236,-0.444108,-0.781964,-0.445536,-0.780536,-0.446472,-0.779236,-0.447108,-0.777964,
-0.448536,-0.776536,-0.449743,-0.774581,-0.450630,-0.771920,-0.451472,-0.770236,-0.451743,-0.769581,-0.452743,-0.766581,-0.453000,-0.765000,-0.453000,-0.763810,-0.453743,-0.761581,-0.454000,-0.760000,-0.454000,-0.758810,-0.454743,-0.756581,-0.455000,-0.755000,-0.455000,0.755000,-0.454743,0.756581,-0.454000,0.758810,-0.454000,0.760000,-0.453743,0.761581,-0.453000,0.763810,-0.453000,0.765000,
-0.452743,0.766581,-0.451743,0.769581,-0.451472,0.770236,-0.450630,0.771920,-0.449743,0.774581,-0.448536,0.776536,-0.447108,0.777964,-0.446472,0.779236,-0.445536,0.780536,-0.444108,0.781964,-0.443472,0.783236,-0.442536,0.784536,-0.434536,0.792536,-0.433236,0.793472,-0.431964,0.794108,-0.430536,0.795536,-0.429236,0.796472,-0.427964,0.797108,-0.426536,0.798536,-0.424581,0.799743,
-0.421920,0.800630,-0.420236,0.801472,-0.419581,0.801743,-0.416581,0.802743,-0.415000,0.803000,-0.413810,0.803000,-0.411581,0.803743,-0.410000,0.804000,-0.408810,0.804000,-0.406581,0.804743,-0.405000,0.805000,0.405000,0.805000,0.406581,0.804743,0.406581,0.804743,$1*%
%AMFreePoly1*
4,1,17,0.275001,0.550001,0.275001,-0.174999,0.225001,-0.225001,-0.499999,-0.224999,-0.550001,-0.174999,-0.549999,-0.024999,-0.499999,0.025001,-0.275000,0.025001,-0.225001,0.075000,-0.225001,0.225000,-0.175001,0.275000,-0.025001,0.275000,0.024999,0.325000,0.024999,0.550001,0.074999,0.599998,0.224999,0.599998,0.275001,0.550001,0.275001,0.550001,$1*%
%AMFreePoly2*
4,1,17,0.275001,0.174999,0.275001,-0.550001,0.224999,-0.599998,0.074999,-0.599998,0.024999,-0.550001,0.025001,-0.325000,-0.025001,-0.275000,-0.175001,-0.275000,-0.225001,-0.225000,-0.224998,-0.075000,-0.275000,-0.025001,-0.499999,-0.025001,-0.549999,0.024999,-0.550001,0.174999,-0.499999,0.224999,0.225001,0.224999,0.275001,0.174999,0.275001,0.174999,$1*%
%AMFreePoly3*
4,1,17,0.499999,0.224999,0.550001,0.174999,0.549999,0.024999,0.499999,-0.025001,0.275000,-0.025001,0.224998,-0.075000,0.225001,-0.225000,0.175001,-0.275000,0.024998,-0.275000,-0.025001,-0.325000,-0.024999,-0.550001,-0.074999,-0.599998,-0.225001,-0.599998,-0.275001,-0.550001,-0.275001,0.174999,-0.225001,0.225001,0.499999,0.224999,0.499999,0.224999,$1*%
%AMFreePoly4*
4,1,17,-0.024999,0.550001,-0.025001,0.325000,0.024998,0.275000,0.175001,0.275000,0.225001,0.225000,0.224998,0.075000,0.275000,0.025001,0.499999,0.025001,0.549999,-0.024999,0.550001,-0.174999,0.499999,-0.224999,-0.225001,-0.225001,-0.275001,-0.175002,-0.275001,0.550001,-0.225001,0.599998,-0.074999,0.599998,-0.024999,0.550001,-0.024999,0.550001,$1*%
%AMFreePoly5*
4,1,45,-0.121464,1.703536,-0.120000,1.700000,-0.120000,1.205000,0.120000,1.205000,0.120000,1.700000,0.121464,1.703536,0.125000,1.705000,0.375000,1.705000,0.378536,1.703536,0.380000,1.700000,0.380000,1.205000,0.825000,1.205000,0.828536,1.203536,0.830000,1.200000,0.830000,-1.200000,0.828536,-1.203536,0.825000,-1.205000,0.380000,-1.205000,0.380000,-1.700000,0.378536,-1.703536,
0.375000,-1.705000,0.125000,-1.705000,0.121464,-1.703536,0.120000,-1.700000,0.120000,-1.205000,-0.120000,-1.205000,-0.120000,-1.700000,-0.121464,-1.703536,-0.125000,-1.705000,-0.375000,-1.705000,-0.378536,-1.703536,-0.380000,-1.700000,-0.380000,-1.205000,-0.825000,-1.205000,-0.828536,-1.203536,-0.830000,-1.200000,-0.830000,1.200000,-0.828536,1.203536,-0.825000,1.205000,-0.380000,1.205000,
-0.380000,1.700000,-0.378536,1.703536,-0.375000,1.705000,-0.125000,1.705000,-0.121464,1.703536,-0.121464,1.703536,$1*%
G04 Aperture macros list end*
%TA.AperFunction,SMDPad,CuDef*%
%ADD10RoundRect,0.250000X-0.262500X-0.450000X0.262500X-0.450000X0.262500X0.450000X-0.262500X0.450000X0*%
%TD*%
%TA.AperFunction,SMDPad,CuDef*%
%ADD11RoundRect,0.250000X-0.250000X-0.475000X0.250000X-0.475000X0.250000X0.475000X-0.250000X0.475000X0*%
%TD*%
%TA.AperFunction,ComponentPad*%
%ADD12C,2.050000*%
%TD*%
%TA.AperFunction,ComponentPad*%
%ADD13C,2.250000*%
%TD*%
%TA.AperFunction,SMDPad,CuDef*%
%ADD14RoundRect,0.250000X0.262500X0.450000X-0.262500X0.450000X-0.262500X-0.450000X0.262500X-0.450000X0*%
%TD*%
%TA.AperFunction,SMDPad,CuDef*%
%ADD15RoundRect,0.250000X0.450000X-0.262500X0.450000X0.262500X-0.450000X0.262500X-0.450000X-0.262500X0*%
%TD*%
%TA.AperFunction,SMDPad,CuDef*%
%ADD16RoundRect,0.250000X0.475000X-0.250000X0.475000X0.250000X-0.475000X0.250000X-0.475000X-0.250000X0*%
%TD*%
%TA.AperFunction,SMDPad,CuDef*%
%ADD17RoundRect,0.243750X0.243750X0.456250X-0.243750X0.456250X-0.243750X-0.456250X0.243750X-0.456250X0*%
%TD*%
%TA.AperFunction,SMDPad,CuDef*%
%ADD18RoundRect,0.222222X-1.552778X-0.577778X1.552778X-0.577778X1.552778X0.577778X-1.552778X0.577778X0*%
%TD*%
%TA.AperFunction,SMDPad,CuDef*%
%ADD19RoundRect,0.250000X-0.475000X0.250000X-0.475000X-0.250000X0.475000X-0.250000X0.475000X0.250000X0*%
%TD*%
%TA.AperFunction,SMDPad,CuDef*%
%ADD20R,1.981200X0.558800*%
%TD*%
%TA.AperFunction,ComponentPad*%
%ADD21C,7.500000*%
%TD*%
%TA.AperFunction,SMDPad,CuDef*%
%ADD22O,0.880000X0.260000*%
%TD*%
%TA.AperFunction,SMDPad,CuDef*%
%ADD23O,0.260000X0.880000*%
%TD*%
%TA.AperFunction,ComponentPad*%
%ADD24C,0.500000*%
%TD*%
%TA.AperFunction,SMDPad,CuDef*%
%ADD25R,2.050000X2.050000*%
%TD*%
%TA.AperFunction,SMDPad,CuDef*%
%ADD26RoundRect,0.031250X0.218750X0.093750X-0.218750X0.093750X-0.218750X-0.093750X0.218750X-0.093750X0*%
%TD*%
%TA.AperFunction,SMDPad,CuDef*%
%ADD27FreePoly0,180.000000*%
%TD*%
%TA.AperFunction,SMDPad,CuDef*%
%ADD28R,1.600000X1.600000*%
%TD*%
%TA.AperFunction,SMDPad,CuDef*%
%ADD29RoundRect,0.243750X-0.456250X0.243750X-0.456250X-0.243750X0.456250X-0.243750X0.456250X0.243750X0*%
%TD*%
%TA.AperFunction,SMDPad,CuDef*%
%ADD30R,0.812800X0.889000*%
%TD*%
%TA.AperFunction,SMDPad,CuDef*%
%ADD31FreePoly1,270.000000*%
%TD*%
%TA.AperFunction,SMDPad,CuDef*%
%ADD32R,0.249999X0.700001*%
%TD*%
%TA.AperFunction,SMDPad,CuDef*%
%ADD33FreePoly2,270.000000*%
%TD*%
%TA.AperFunction,SMDPad,CuDef*%
%ADD34R,0.700001X0.249999*%
%TD*%
%TA.AperFunction,SMDPad,CuDef*%
%ADD35FreePoly3,270.000000*%
%TD*%
%TA.AperFunction,SMDPad,CuDef*%
%ADD36FreePoly4,270.000000*%
%TD*%
%TA.AperFunction,SMDPad,CuDef*%
%ADD37R,1.799999X1.599999*%
%TD*%
%TA.AperFunction,SMDPad,CuDef*%
%ADD38RoundRect,0.125000X-0.487500X-0.125000X0.487500X-0.125000X0.487500X0.125000X-0.487500X0.125000X0*%
%TD*%
%TA.AperFunction,SMDPad,CuDef*%
%ADD39RoundRect,0.250000X0.250000X0.475000X-0.250000X0.475000X-0.250000X-0.475000X0.250000X-0.475000X0*%
%TD*%
%TA.AperFunction,ComponentPad*%
%ADD40R,1.320000X1.320000*%
%TD*%
%TA.AperFunction,ComponentPad*%
%ADD41C,1.320000*%
%TD*%
%TA.AperFunction,SMDPad,CuDef*%
%ADD42RoundRect,0.035000X-0.750000X-0.105000X0.750000X-0.105000X0.750000X0.105000X-0.750000X0.105000X0*%
%TD*%
%TA.AperFunction,SMDPad,CuDef*%
%ADD43RoundRect,0.030000X0.270000X0.090000X-0.270000X0.090000X-0.270000X-0.090000X0.270000X-0.090000X0*%
%TD*%
%TA.AperFunction,SMDPad,CuDef*%
%ADD44FreePoly5,180.000000*%
%TD*%
%TA.AperFunction,SMDPad,CuDef*%
%ADD45R,0.249200X0.804800*%
%TD*%
%TA.AperFunction,SMDPad,CuDef*%
%ADD46R,0.804800X0.249200*%
%TD*%
%TA.AperFunction,SMDPad,CuDef*%
%ADD47R,5.250000X5.250000*%
%TD*%
%TA.AperFunction,ComponentPad*%
%ADD48R,1.000000X1.000000*%
%TD*%
%TA.AperFunction,ComponentPad*%
%ADD49C,1.000000*%
%TD*%
%TA.AperFunction,ComponentPad*%
%ADD50R,2.300000X2.300000*%
%TD*%
%TA.AperFunction,ComponentPad*%
%ADD51C,2.300000*%
%TD*%
%TA.AperFunction,SMDPad,CuDef*%
%ADD52R,3.180000X1.270000*%
%TD*%
%TA.AperFunction,SMDPad,CuDef*%
%ADD53RoundRect,0.250000X-0.450000X0.262500X-0.450000X-0.262500X0.450000X-0.262500X0.450000X0.262500X0*%
%TD*%
%TA.AperFunction,ViaPad*%
%ADD54C,0.600000*%
%TD*%
%TA.AperFunction,ViaPad*%
%ADD55C,1.000000*%
%TD*%
%TA.AperFunction,Conductor*%
%ADD56C,0.200000*%
%TD*%
%TA.AperFunction,Conductor*%
%ADD57C,0.300000*%
%TD*%
%TA.AperFunction,Conductor*%
%ADD58C,1.000000*%
%TD*%
%TA.AperFunction,Conductor*%
%ADD59C,0.170000*%
%TD*%
%TA.AperFunction,Conductor*%
%ADD60C,0.152400*%
%TD*%
%TA.AperFunction,Conductor*%
%ADD61C,1.016000*%
%TD*%
%TA.AperFunction,Conductor*%
%ADD62C,0.250000*%
%TD*%
%TA.AperFunction,Conductor*%
%ADD63C,0.600000*%
%TD*%
%TA.AperFunction,Conductor*%
%ADD64C,0.400000*%
%TD*%
G04 APERTURE END LIST*
D10*
%TO.P,R15,1*%
%TO.N,Net-(U7-1A5)*%
X270425000Y-273350000D03*
%TO.P,R15,2*%
%TO.N,Net-(D6-A)*%
X272250000Y-273350000D03*
%TD*%
%TO.P,R39,1*%
%TO.N,Net-(U10-SENSE)*%
X263900000Y-308300000D03*
%TO.P,R39,2*%
%TO.N,GND*%
X265725000Y-308300000D03*
%TD*%
D11*
%TO.P,C21,1*%
%TO.N,/Regulators/+3.3v_U5*%
X182300000Y-302900000D03*
%TO.P,C21,2*%
%TO.N,GND*%
X184200000Y-302900000D03*
%TD*%
D12*
%TO.P,J4,1,In*%
%TO.N,Net-(J4-In)*%
X110160000Y-288710000D03*
D13*
%TO.P,J4,2,Ext*%
%TO.N,GND*%
X112700000Y-291250000D03*
X112700000Y-286170000D03*
X107620000Y-291250000D03*
X107620000Y-286170000D03*
%TD*%
D14*
%TO.P,R42,1*%
%TO.N,+3.3V*%
X254445000Y-299500000D03*
%TO.P,R42,2*%
%TO.N,Net-(U10-RESET)*%
X252620000Y-299500000D03*
%TD*%
D15*
%TO.P,R1,1*%
%TO.N,Net-(C5-Pad1)*%
X141450000Y-294000000D03*
%TO.P,R1,2*%
%TO.N,/adc/vcm*%
X141450000Y-292175000D03*
%TD*%
D16*
%TO.P,C5,1*%
%TO.N,Net-(C5-Pad1)*%
X145150000Y-292050000D03*
%TO.P,C5,2*%
%TO.N,Net-(C5-Pad2)*%
X145150000Y-290150000D03*
%TD*%
D17*
%TO.P,D13,1,K*%
%TO.N,GND*%
X276075000Y-288050000D03*
%TO.P,D13,2,A*%
%TO.N,Net-(D13-A)*%
X274200000Y-288050000D03*
%TD*%
D18*
%TO.P,TP3,1,1*%
%TO.N,GND*%
X81000000Y-326400000D03*
%TD*%
D14*
%TO.P,R7,1*%
%TO.N,Net-(U4-VSET_MODE)*%
X270512500Y-316000000D03*
%TO.P,R7,2*%
%TO.N,GND*%
X268687500Y-316000000D03*
%TD*%
D19*
%TO.P,C33,1*%
%TO.N,Net-(U6-DVDT)*%
X285450000Y-323850000D03*
%TO.P,C33,2*%
%TO.N,GND*%
X285450000Y-325750000D03*
%TD*%
D18*
%TO.P,TP1,1,1*%
%TO.N,GND*%
X300200000Y-273750000D03*
%TD*%
D20*
%TO.P,U8,1,~CS*%
%TO.N,/EEPROM/csn*%
X251986200Y-306195000D03*
%TO.P,U8,2,SO*%
%TO.N,/EEPROM/sdo*%
X251986200Y-307465000D03*
%TO.P,U8,3,~WP*%
%TO.N,/EEPROM/wpn*%
X251986200Y-308735000D03*
%TO.P,U8,4,VSS*%
%TO.N,GND*%
X251986200Y-310005000D03*
%TO.P,U8,5,SI*%
%TO.N,/EEPROM/sdi*%
X256913800Y-310005000D03*
%TO.P,U8,6,SCK*%
%TO.N,/EEPROM/sck*%
X256913800Y-308735000D03*
%TO.P,U8,7,~HOLD*%
%TO.N,/EEPROM/holdn*%
X256913800Y-307465000D03*
%TO.P,U8,8,VCC*%
%TO.N,+3.3V*%
X256913800Y-306195000D03*
%TD*%
D10*
%TO.P,R17,1*%
%TO.N,Net-(U7-1A7)*%
X270425000Y-277550000D03*
%TO.P,R17,2*%
%TO.N,Net-(D8-A)*%
X272250000Y-277550000D03*
%TD*%
D21*
%TO.P,MT2,1,1*%
%TO.N,GND*%
X111960000Y-329920000D03*
%TD*%
D19*
%TO.P,C6,1*%
%TO.N,/adc/vcm*%
X145250000Y-294600000D03*
%TO.P,C6,2*%
%TO.N,GND*%
X145250000Y-296500000D03*
%TD*%
D22*
%TO.P,U3,1,OUT*%
%TO.N,+2.5V*%
X175815000Y-292914322D03*
%TO.P,U3,2,SNS*%
X175815000Y-293414322D03*
%TO.P,U3,3,FB*%
%TO.N,Net-(U3-FB)*%
X175815000Y-293914322D03*
%TO.P,U3,4,PG*%
%TO.N,unconnected-(U3-PG-Pad4)*%
X175815000Y-294414322D03*
%TO.P,U3,5,50MV*%
%TO.N,unconnected-(U3-50MV-Pad5)*%
X175815000Y-294914322D03*
D23*
%TO.P,U3,6,100MV*%
%TO.N,GND*%
X176500000Y-295599322D03*
%TO.P,U3,7,200MV*%
%TO.N,unconnected-(U3-200MV-Pad7)*%
X177000000Y-295599322D03*
%TO.P,U3,8,GND*%
%TO.N,GND*%
X177500000Y-295599322D03*
%TO.P,U3,9,400MV*%
%TO.N,unconnected-(U3-400MV-Pad9)*%
X178000000Y-295599322D03*
%TO.P,U3,10,800MV*%
%TO.N,unconnected-(U3-800MV-Pad10)*%
X178500000Y-295599322D03*
D22*
%TO.P,U3,11,1.6V*%
%TO.N,GND*%
X179185000Y-294914322D03*
%TO.P,U3,12,BIAS*%
%TO.N,unconnected-(U3-BIAS-Pad12)*%
X179185000Y-294414322D03*
%TO.P,U3,13,NR/SS*%
%TO.N,Net-(U3-NR{slash}SS)*%
X179185000Y-293914322D03*
%TO.P,U3,14,EN*%
%TO.N,/Regulators/+3.3v_U3*%
X179185000Y-293414322D03*
%TO.P,U3,15,IN*%
X179185000Y-292914322D03*
D23*
%TO.P,U3,16,IN*%
X178500000Y-292229322D03*
%TO.P,U3,17,IN*%
X178000000Y-292229322D03*
%TO.P,U3,18,GND*%
%TO.N,GND*%
X177500000Y-292229322D03*
%TO.P,U3,19,OUT*%
%TO.N,+2.5V*%
X177000000Y-292229322D03*
%TO.P,U3,20,OUT*%
X176500000Y-292229322D03*
D24*
%TO.P,U3,21,GND_TH*%
%TO.N,GND*%
X177000000Y-293914322D03*
X177500000Y-293414322D03*
D25*
X177500000Y-293914322D03*
D24*
X177500000Y-294414322D03*
X178000000Y-293914322D03*
%TD*%
D17*
%TO.P,D12,1,K*%
%TO.N,GND*%
X276075000Y-285950000D03*
%TO.P,D12,2,A*%
%TO.N,Net-(D12-A)*%
X274200000Y-285950000D03*
%TD*%
%TO.P,D9,1,K*%
%TO.N,GND*%
X276075000Y-279650000D03*
%TO.P,D9,2,A*%
%TO.N,Net-(D9-A)*%
X274200000Y-279650000D03*
%TD*%
D26*
%TO.P,U6,1,DVDT*%
%TO.N,Net-(U6-DVDT)*%
X284685000Y-321000000D03*
%TO.P,U6,2,EN/UVLO*%
%TO.N,/Regulators/afe_pwrenb*%
X284685000Y-320500000D03*
%TO.P,U6,3,IN*%
%TO.N,/Regulators/+5VIN*%
X284685000Y-320000000D03*
%TO.P,U6,4,IN*%
X284685000Y-319500000D03*
%TO.P,U6,5,OUT*%
%TO.N,+5.0V*%
X282715000Y-319500000D03*
%TO.P,U6,6,~{FLT}*%
%TO.N,unconnected-(U6-~{FLT}-Pad6)*%
X282715000Y-320000000D03*
%TO.P,U6,7,ILM*%
%TO.N,Net-(U6-ILM)*%
X282715000Y-320500000D03*
%TO.P,U6,8,GND*%
%TO.N,GND*%
X282715000Y-321000000D03*
D24*
%TO.P,U6,9,GND*%
X283700000Y-320800000D03*
D27*
X283700000Y-320250000D03*
D24*
X283700000Y-319700000D03*
%TD*%
D28*
%TO.P,U1,1,OE*%
%TO.N,+3.3V*%
X127450000Y-311670000D03*
%TO.P,U1,2*%
%TO.N,N/C*%
X127450000Y-314210000D03*
%TO.P,U1,3,GND*%
%TO.N,GND*%
X127450000Y-316750000D03*
%TO.P,U1,4,CLK_P*%
%TO.N,Net-(U1-CLK_P)*%
X131250000Y-316750000D03*
%TO.P,U1,5,CLK_N*%
%TO.N,Net-(U1-CLK_N)*%
X131250000Y-314210000D03*
%TO.P,U1,6,VDD*%
%TO.N,+3.3V*%
X131250000Y-311670000D03*
%TD*%
D18*
%TO.P,TP4,1,1*%
%TO.N,GND*%
X79052280Y-265600000D03*
%TD*%
D14*
%TO.P,R4,1*%
%TO.N,/adc/AIN_P*%
X149162500Y-290000000D03*
%TO.P,R4,2*%
%TO.N,Net-(C5-Pad2)*%
X147337500Y-290000000D03*
%TD*%
D29*
%TO.P,D1,1,K*%
%TO.N,Net-(D1-K)*%
X282700000Y-314225000D03*
%TO.P,D1,2,A*%
%TO.N,+5.0V*%
X282700000Y-316100000D03*
%TD*%
D10*
%TO.P,R18,1*%
%TO.N,Net-(U7-1A8)*%
X270425000Y-279650000D03*
%TO.P,R18,2*%
%TO.N,Net-(D9-A)*%
X272250000Y-279650000D03*
%TD*%
D30*
%TO.P,L2,1,1*%
%TO.N,/Regulators/+3.3v_U5*%
X182299900Y-300800000D03*
%TO.P,L2,2,2*%
%TO.N,+3.3V*%
X183900100Y-300800000D03*
%TD*%
D14*
%TO.P,R44,1*%
%TO.N,Net-(U10-WDO)*%
X250725000Y-296550000D03*
%TO.P,R44,2*%
%TO.N,/Relay Board Interface/faultn*%
X248900000Y-296550000D03*
%TD*%
D10*
%TO.P,R23,1*%
%TO.N,Net-(U7-2A5)*%
X270425000Y-290150000D03*
%TO.P,R23,2*%
%TO.N,Net-(D14-A)*%
X272250000Y-290150000D03*
%TD*%
D17*
%TO.P,D8,1,K*%
%TO.N,GND*%
X276075000Y-277550000D03*
%TO.P,D8,2,A*%
%TO.N,Net-(D8-A)*%
X274200000Y-277550000D03*
%TD*%
D11*
%TO.P,C2,1*%
%TO.N,Net-(J4-In)*%
X118300000Y-288820000D03*
%TO.P,C2,2*%
%TO.N,Net-(C2-Pad2)*%
X120200000Y-288820000D03*
%TD*%
D10*
%TO.P,R25,1*%
%TO.N,Net-(U7-2A7)*%
X270425000Y-294350000D03*
%TO.P,R25,2*%
%TO.N,Net-(D16-A)*%
X272250000Y-294350000D03*
%TD*%
D11*
%TO.P,C45,1*%
%TO.N,Net-(U10-CWD)*%
X275350000Y-307900000D03*
%TO.P,C45,2*%
%TO.N,GND*%
X277250000Y-307900000D03*
%TD*%
%TO.P,C12,1*%
%TO.N,/Regulators/+3.3v_U3*%
X182350000Y-292499322D03*
%TO.P,C12,2*%
%TO.N,GND*%
X184250000Y-292499322D03*
%TD*%
D31*
%TO.P,U4,1,EN*%
%TO.N,+5.0V*%
X271549999Y-319250001D03*
D32*
%TO.P,U4,2,PG*%
%TO.N,/Regulators/PG*%
X270950000Y-319050002D03*
%TO.P,U4,3,VSET_MODE*%
%TO.N,Net-(U4-VSET_MODE)*%
X270449998Y-319050002D03*
%TO.P,U4,4,PGND*%
%TO.N,GND*%
X269949999Y-319050002D03*
%TO.P,U4,5,PGND*%
X269450000Y-319050002D03*
%TO.P,U4,6,PGND*%
X268949998Y-319050002D03*
D33*
%TO.P,U4,7,SW*%
%TO.N,unconnected-(U4-SW-Pad7)*%
X268349999Y-319250001D03*
D34*
%TO.P,U4,8,PGND*%
%TO.N,GND*%
X268100000Y-319900000D03*
%TO.P,U4,9,PGND*%
X268100000Y-320400001D03*
%TO.P,U4,10,PGND*%
X268100000Y-320900001D03*
%TO.P,U4,11,PGND*%
X268100000Y-321400002D03*
D35*
%TO.P,U4,12,VOUT*%
%TO.N,+3.3V*%
X268349999Y-322050001D03*
D32*
%TO.P,U4,13,VOUT*%
X268949998Y-322250000D03*
%TO.P,U4,14,VOUT*%
X269450000Y-322250000D03*
%TO.P,U4,15,VOUT*%
X269949999Y-322250000D03*
%TO.P,U4,16,VOS*%
X270449998Y-322250000D03*
%TO.P,U4,17,FB*%
X270950000Y-322250000D03*
D36*
%TO.P,U4,18,AGND*%
%TO.N,GND*%
X271549999Y-322050001D03*
D34*
%TO.P,U4,19,PGND*%
X271799998Y-321400002D03*
%TO.P,U4,20,PGND*%
X271799998Y-320900001D03*
%TO.P,U4,21,VIN*%
%TO.N,+5.0V*%
X271799998Y-320400001D03*
%TO.P,U4,22,VIN*%
X271799998Y-319900000D03*
D24*
%TO.P,U4,23,PGND*%
%TO.N,GND*%
X269650000Y-320100002D03*
X270299998Y-320650001D03*
D37*
X269650000Y-320650001D03*
D24*
X268999998Y-320650001D03*
X269650000Y-321200000D03*
%TD*%
D14*
%TO.P,R43,1*%
%TO.N,+3.3V*%
X254400000Y-296500000D03*
%TO.P,R43,2*%
%TO.N,Net-(U10-WDO)*%
X252575000Y-296500000D03*
%TD*%
D10*
%TO.P,R21,1*%
%TO.N,Net-(U7-2A3)*%
X270425000Y-285950000D03*
%TO.P,R21,2*%
%TO.N,Net-(D12-A)*%
X272250000Y-285950000D03*
%TD*%
D16*
%TO.P,C16,1*%
%TO.N,+2.5V*%
X176500000Y-289099322D03*
%TO.P,C16,2*%
%TO.N,GND*%
X176500000Y-287199322D03*
%TD*%
D11*
%TO.P,C3,1*%
%TO.N,Net-(U1-CLK_P)*%
X134450000Y-316500000D03*
%TO.P,C3,2*%
%TO.N,/adc/ADC_CLK_P*%
X136350000Y-316500000D03*
%TD*%
D38*
%TO.P,Q1,1,G*%
%TO.N,/Regulators/PG*%
X275762500Y-314600000D03*
%TO.P,Q1,2,S*%
%TO.N,GND*%
X275762500Y-315900000D03*
%TO.P,Q1,3,D*%
%TO.N,Net-(Q1-D)*%
X277637500Y-315250000D03*
%TD*%
D18*
%TO.P,TP5,1,1*%
%TO.N,/Relay Board Interface/faultn*%
X248100000Y-292500000D03*
%TD*%
D19*
%TO.P,C15,1*%
%TO.N,+2.5V*%
X172600000Y-293179322D03*
%TO.P,C15,2*%
%TO.N,Net-(U3-FB)*%
X172600000Y-295079322D03*
%TD*%
D17*
%TO.P,D6,1,K*%
%TO.N,GND*%
X276075000Y-273350000D03*
%TO.P,D6,2,A*%
%TO.N,Net-(D6-A)*%
X274200000Y-273350000D03*
%TD*%
D14*
%TO.P,R3,1*%
%TO.N,/adc/AIN_N*%
X149162500Y-292100000D03*
%TO.P,R3,2*%
%TO.N,Net-(C5-Pad1)*%
X147337500Y-292100000D03*
%TD*%
D10*
%TO.P,R38,1*%
%TO.N,+3.3V*%
X263900000Y-305350000D03*
%TO.P,R38,2*%
%TO.N,Net-(U10-SENSE)*%
X265725000Y-305350000D03*
%TD*%
D17*
%TO.P,D5,1,K*%
%TO.N,GND*%
X276075000Y-271250000D03*
%TO.P,D5,2,A*%
%TO.N,Net-(D5-A)*%
X274200000Y-271250000D03*
%TD*%
D16*
%TO.P,C25,1*%
%TO.N,+3.3V*%
X263600000Y-323100000D03*
%TO.P,C25,2*%
%TO.N,GND*%
X263600000Y-321200000D03*
%TD*%
D21*
%TO.P,MT4,1,1*%
%TO.N,GND*%
X246580000Y-263880000D03*
%TD*%
D10*
%TO.P,R12,1*%
%TO.N,Net-(U7-1A2)*%
X270425000Y-267050000D03*
%TO.P,R12,2*%
%TO.N,Net-(D3-A)*%
X272250000Y-267050000D03*
%TD*%
%TO.P,R26,1*%
%TO.N,Net-(U7-2A8)*%
X270425000Y-296450000D03*
%TO.P,R26,2*%
%TO.N,Net-(D17-A)*%
X272250000Y-296450000D03*
%TD*%
D19*
%TO.P,C19,1*%
%TO.N,+5.0V*%
X276400000Y-319950000D03*
%TO.P,C19,2*%
%TO.N,GND*%
X276400000Y-321850000D03*
%TD*%
%TO.P,C17,1*%
%TO.N,+5.0V*%
X278600000Y-319950000D03*
%TO.P,C17,2*%
%TO.N,GND*%
X278600000Y-321850000D03*
%TD*%
D39*
%TO.P,C31,1*%
%TO.N,+3.3V*%
X184300000Y-286014322D03*
%TO.P,C31,2*%
%TO.N,GND*%
X182400000Y-286014322D03*
%TD*%
D10*
%TO.P,R13,1*%
%TO.N,Net-(U7-1A3)*%
X270425000Y-269150000D03*
%TO.P,R13,2*%
%TO.N,Net-(D4-A)*%
X272250000Y-269150000D03*
%TD*%
D11*
%TO.P,C13,1*%
%TO.N,/Regulators/+3.3v_U3*%
X182400000Y-290199322D03*
%TO.P,C13,2*%
%TO.N,GND*%
X184300000Y-290199322D03*
%TD*%
D14*
%TO.P,R41,1*%
%TO.N,Net-(U10-SET1)*%
X280812500Y-305100000D03*
%TO.P,R41,2*%
%TO.N,GND*%
X278987500Y-305100000D03*
%TD*%
D17*
%TO.P,D10,1,K*%
%TO.N,GND*%
X276075000Y-281750000D03*
%TO.P,D10,2,A*%
%TO.N,Net-(D10-A)*%
X274200000Y-281750000D03*
%TD*%
D40*
%TO.P,J5,1,1*%
%TO.N,/Pulser Interface/tp_pos0*%
X204160000Y-267500000D03*
D41*
%TO.P,J5,2,2*%
%TO.N,GND*%
X204160000Y-264960000D03*
%TO.P,J5,3,3*%
%TO.N,/Pulser Interface/tp_pos1*%
X206700000Y-267500000D03*
%TO.P,J5,4,4*%
%TO.N,GND*%
X206700000Y-264960000D03*
%TO.P,J5,5,5*%
%TO.N,/Pulser Interface/tp_pos2*%
X209240000Y-267500000D03*
%TO.P,J5,6,6*%
%TO.N,GND*%
X209240000Y-264960000D03*
%TO.P,J5,7,7*%
%TO.N,/Pulser Interface/tp_pos3*%
X211780000Y-267500000D03*
%TO.P,J5,8,8*%
%TO.N,GND*%
X211780000Y-264960000D03*
%TO.P,J5,9,9*%
%TO.N,/Pulser Interface/tp_pos4*%
X214320000Y-267500000D03*
%TO.P,J5,10,10*%
%TO.N,GND*%
X214320000Y-264960000D03*
%TO.P,J5,11,11*%
%TO.N,/Pulser Interface/tp_neg0*%
X216860000Y-267500000D03*
%TO.P,J5,12,12*%
%TO.N,GND*%
X216860000Y-264960000D03*
%TO.P,J5,13,13*%
%TO.N,/Pulser Interface/tp_neg1*%
X219400000Y-267500000D03*
%TO.P,J5,14,14*%
%TO.N,GND*%
X219400000Y-264960000D03*
%TO.P,J5,15,15*%
%TO.N,/Pulser Interface/tp_neg2*%
X221940000Y-267500000D03*
%TO.P,J5,16,16*%
%TO.N,GND*%
X221940000Y-264960000D03*
%TO.P,J5,17,17*%
%TO.N,/Pulser Interface/tp_neg3*%
X224480000Y-267500000D03*
%TO.P,J5,18,18*%
%TO.N,GND*%
X224480000Y-264960000D03*
%TO.P,J5,19,19*%
%TO.N,/Pulser Interface/tp_neg4*%
X227020000Y-267500000D03*
%TO.P,J5,20,20*%
%TO.N,GND*%
X227020000Y-264960000D03*
%TD*%
D21*
%TO.P,MT5,1,1*%
%TO.N,GND*%
X299920000Y-329920000D03*
%TD*%
%TO.P,MT8,1,1*%
%TO.N,GND*%
X68780000Y-263880000D03*
%TD*%
%TO.P,MT6,1,1*%
%TO.N,GND*%
X164738974Y-263880000D03*
%TD*%
D11*
%TO.P,C14,1*%
%TO.N,Net-(U3-NR{slash}SS)*%
X182300000Y-294799322D03*
%TO.P,C14,2*%
%TO.N,GND*%
X184200000Y-294799322D03*
%TD*%
D42*
%TO.P,U7,1,1DIR*%
%TO.N,GND*%
X253205000Y-275300000D03*
%TO.P,U7,2,1B1*%
%TO.N,/Fault LED's/fault_led0*%
X253205000Y-275800000D03*
%TO.P,U7,3,1B2*%
%TO.N,/Fault LED's/fault_led1*%
X253205000Y-276300000D03*
%TO.P,U7,4,GND*%
%TO.N,GND*%
X253205000Y-276800000D03*
%TO.P,U7,5,1B3*%
%TO.N,/Fault LED's/fault_led2*%
X253205000Y-277300000D03*
%TO.P,U7,6,1B4*%
%TO.N,/Fault LED's/fault_led3*%
X253205000Y-277800000D03*
%TO.P,U7,7,VCCB_7*%
%TO.N,+1.8V*%
X253205000Y-278300000D03*
%TO.P,U7,8,1B5*%
%TO.N,/Fault LED's/fault_led4*%
X253205000Y-278800000D03*
%TO.P,U7,9,1B6*%
%TO.N,/Fault LED's/fault_led5*%
X253205000Y-279300000D03*
%TO.P,U7,10,GND*%
%TO.N,GND*%
X253205000Y-279800000D03*
%TO.P,U7,11,1B7*%
%TO.N,/Fault LED's/fault_led6*%
X253205000Y-280300000D03*
%TO.P,U7,12,1B8*%
%TO.N,/Fault LED's/fault_led7*%
X253205000Y-280800000D03*
%TO.P,U7,13,2B1*%
%TO.N,/Fault LED's/fault_led8*%
X253205000Y-281300000D03*
%TO.P,U7,14,2B2*%
%TO.N,/Fault LED's/fault_led9*%
X253205000Y-281800000D03*
%TO.P,U7,15,GND*%
%TO.N,GND*%
X253205000Y-282300000D03*
%TO.P,U7,16,2B3*%
%TO.N,/Fault LED's/fault_led10*%
X253205000Y-282800000D03*
%TO.P,U7,17,2B4*%
%TO.N,/Fault LED's/fault_led11*%
X253205000Y-283300000D03*
%TO.P,U7,18,VCCB_18*%
%TO.N,+1.8V*%
X253205000Y-283800000D03*
%TO.P,U7,19,2B5*%
%TO.N,/Fault LED's/fault_led12*%
X253205000Y-284300000D03*
%TO.P,U7,20,2B6*%
%TO.N,/Fault LED's/fault_led13*%
X253205000Y-284800000D03*
%TO.P,U7,21,GND*%
%TO.N,GND*%
X253205000Y-285300000D03*
%TO.P,U7,22,2B7*%
%TO.N,/Fault LED's/fault_led14*%
X253205000Y-285800000D03*
%TO.P,U7,23,2B8*%
%TO.N,/Fault LED's/fault_led15*%
X253205000Y-286300000D03*
%TO.P,U7,24,2DIR*%
%TO.N,GND*%
X253205000Y-286800000D03*
%TO.P,U7,25,2~{OE}*%
X260645000Y-286800000D03*
%TO.P,U7,26,2A8*%
%TO.N,Net-(U7-2A8)*%
X260645000Y-286300000D03*
%TO.P,U7,27,2A7*%
%TO.N,Net-(U7-2A7)*%
X260645000Y-285800000D03*
%TO.P,U7,28,GND*%
%TO.N,GND*%
X260645000Y-285300000D03*
%TO.P,U7,29,2A6*%
%TO.N,Net-(U7-2A6)*%
X260645000Y-284800000D03*
%TO.P,U7,30,2A5*%
%TO.N,Net-(U7-2A5)*%
X260645000Y-284300000D03*
%TO.P,U7,31,VCCA_31*%
%TO.N,+3.3V*%
X260645000Y-283800000D03*
%TO.P,U7,32,2A4*%
%TO.N,Net-(U7-2A4)*%
X260645000Y-283300000D03*
%TO.P,U7,33,2A3*%
%TO.N,Net-(U7-2A3)*%
X260645000Y-282800000D03*
%TO.P,U7,34,GND*%
%TO.N,GND*%
X260645000Y-282300000D03*
%TO.P,U7,35,2A2*%
%TO.N,Net-(U7-2A2)*%
X260645000Y-281800000D03*
%TO.P,U7,36,2A1*%
%TO.N,Net-(U7-2A1)*%
X260645000Y-281300000D03*
%TO.P,U7,37,1A8*%
%TO.N,Net-(U7-1A8)*%
X260645000Y-280800000D03*
%TO.P,U7,38,1A7*%
%TO.N,Net-(U7-1A7)*%
X260645000Y-280300000D03*
%TO.P,U7,39,GND*%
%TO.N,GND*%
X260645000Y-279800000D03*
%TO.P,U7,40,1A6*%
%TO.N,Net-(U7-1A6)*%
X260645000Y-279300000D03*
%TO.P,U7,41,1A5*%
%TO.N,Net-(U7-1A5)*%
X260645000Y-278800000D03*
%TO.P,U7,42,VCCA_42*%
%TO.N,+3.3V*%
X260645000Y-278300000D03*
%TO.P,U7,43,1A4*%
%TO.N,Net-(U7-1A4)*%
X260645000Y-277800000D03*
%TO.P,U7,44,1A3*%
%TO.N,Net-(U7-1A3)*%
X260645000Y-277300000D03*
%TO.P,U7,45,GND*%
%TO.N,GND*%
X260645000Y-276800000D03*
%TO.P,U7,46,1A2*%
%TO.N,Net-(U7-1A2)*%
X260645000Y-276300000D03*
%TO.P,U7,47,1A1*%
%TO.N,Net-(U7-1A1)*%
X260645000Y-275800000D03*
%TO.P,U7,48,1~{OE}*%
%TO.N,GND*%
X260645000Y-275300000D03*
%TD*%
D16*
%TO.P,C9,1*%
%TO.N,+2.5V*%
X160500000Y-291700000D03*
%TO.P,C9,2*%
%TO.N,GND*%
X160500000Y-289800000D03*
%TD*%
D10*
%TO.P,R20,1*%
%TO.N,Net-(U7-2A2)*%
X270425000Y-283850000D03*
%TO.P,R20,2*%
%TO.N,Net-(D11-A)*%
X272250000Y-283850000D03*
%TD*%
D15*
%TO.P,R10,1*%
%TO.N,+5.0V*%
X273100000Y-316600000D03*
%TO.P,R10,2*%
%TO.N,/Regulators/PG*%
X273100000Y-314775000D03*
%TD*%
D16*
%TO.P,C28,1*%
%TO.N,+1.8V*%
X174350000Y-302550000D03*
%TO.P,C28,2*%
%TO.N,GND*%
X174350000Y-300650000D03*
%TD*%
D39*
%TO.P,C30,1*%
%TO.N,+1.8V*%
X172450000Y-304500000D03*
%TO.P,C30,2*%
%TO.N,GND*%
X170550000Y-304500000D03*
%TD*%
D10*
%TO.P,R16,1*%
%TO.N,Net-(U7-1A6)*%
X270425000Y-275450000D03*
%TO.P,R16,2*%
%TO.N,Net-(D7-A)*%
X272250000Y-275450000D03*
%TD*%
D16*
%TO.P,C8,1*%
%TO.N,+2.5V*%
X162600000Y-291700000D03*
%TO.P,C8,2*%
%TO.N,GND*%
X162600000Y-289800000D03*
%TD*%
D43*
%TO.P,U10,1,VDD*%
%TO.N,+5.0V*%
X272800000Y-306700000D03*
%TO.P,U10,2,CWD*%
%TO.N,Net-(U10-CWD)*%
X272800000Y-306200000D03*
%TO.P,U10,3,SET0*%
%TO.N,Net-(U10-SET0)*%
X272800000Y-305700000D03*
%TO.P,U10,4,CRST*%
%TO.N,Net-(U10-CRST)*%
X272800000Y-305200000D03*
%TO.P,U10,5,GND*%
%TO.N,GND*%
X272800000Y-304700000D03*
%TO.P,U10,6,SET1*%
%TO.N,Net-(U10-SET1)*%
X270000000Y-304700000D03*
%TO.P,U10,7,WDI*%
%TO.N,/Relay Board Interface/wdi*%
X270000000Y-305200000D03*
%TO.P,U10,8,WDO*%
%TO.N,Net-(U10-WDO)*%
X270000000Y-305700000D03*
%TO.P,U10,9,RESET*%
%TO.N,Net-(U10-RESET)*%
X270000000Y-306200000D03*
%TO.P,U10,10,SENSE*%
%TO.N,Net-(U10-SENSE)*%
X270000000Y-306700000D03*
D24*
%TO.P,U10,11,GNDTH*%
%TO.N,GND*%
X271975000Y-305700000D03*
X271400000Y-306650000D03*
D44*
X271400000Y-305700000D03*
D24*
X271400000Y-304750000D03*
X270825000Y-305700000D03*
%TD*%
D19*
%TO.P,C7,1*%
%TO.N,Net-(U2-VCM)*%
X151950000Y-294650000D03*
%TO.P,C7,2*%
%TO.N,GND*%
X151950000Y-296550000D03*
%TD*%
D14*
%TO.P,R40,1*%
%TO.N,+5.0V*%
X284525000Y-305100000D03*
%TO.P,R40,2*%
%TO.N,Net-(U10-SET1)*%
X282700000Y-305100000D03*
%TD*%
D45*
%TO.P,U2,1,SENSE*%
%TO.N,GND*%
X161950000Y-295047599D03*
%TO.P,U2,2,GND*%
X161450001Y-295047599D03*
%TO.P,U2,3,GND*%
X160949999Y-295047599D03*
%TO.P,U2,4,VDD*%
%TO.N,+2.5V*%
X160450000Y-295047599D03*
%TO.P,U2,5,VDD*%
X159950001Y-295047599D03*
%TO.P,U2,6,VDD*%
X159450000Y-295047599D03*
%TO.P,U2,7,GND*%
%TO.N,GND*%
X158950000Y-295047599D03*
%TO.P,U2,8,AIN+*%
%TO.N,/adc/AIN_P*%
X158449999Y-295047599D03*
%TO.P,U2,9,AIN-*%
%TO.N,/adc/AIN_N*%
X157950000Y-295047599D03*
%TO.P,U2,10,GND*%
%TO.N,GND*%
X157450001Y-295047599D03*
%TO.P,U2,11,VCM*%
%TO.N,Net-(U2-VCM)*%
X156949999Y-295047599D03*
%TO.P,U2,12,GND*%
%TO.N,GND*%
X156450000Y-295047599D03*
D46*
%TO.P,U2,13,GND*%
X155747599Y-295750000D03*
%TO.P,U2,14,ENC+*%
%TO.N,/adc/ADC_CLK_N*%
X155747599Y-296249999D03*
%TO.P,U2,15,ENC-*%
%TO.N,/adc/ADC_CLK_P*%
X155747599Y-296750001D03*
%TO.P,U2,16,GND*%
%TO.N,GND*%
X155747599Y-297250000D03*
%TO.P,U2,17,SHDN*%
X155747599Y-297749999D03*
%TO.P,U2,18,SDO*%
%TO.N,/adc/SDO*%
X155747599Y-298250000D03*
%TO.P,U2,19,OGND*%
%TO.N,GND*%
X155747599Y-298750000D03*
%TO.P,U2,20,OVDD*%
%TO.N,+1.8V*%
X155747599Y-299250001D03*
%TO.P,U2,21,D0_D1-*%
%TO.N,/adc/D0_N*%
X155747599Y-299750000D03*
%TO.P,U2,22,D1_D0+*%
%TO.N,/adc/D0_P*%
X155747599Y-300249999D03*
%TO.P,U2,23,D3_D2-*%
%TO.N,/adc/D2_N*%
X155747599Y-300750001D03*
%TO.P,U2,24,D3_D2+*%
%TO.N,/adc/D2_P*%
X155747599Y-301250000D03*
D45*
%TO.P,U2,25,D5_D4-*%
%TO.N,/adc/D4_N*%
X156450000Y-301952401D03*
%TO.P,U2,26,D5_D4+*%
%TO.N,/adc/D4_P*%
X156949999Y-301952401D03*
%TO.P,U2,27,D7_D6-*%
%TO.N,/adc/D6_N*%
X157450001Y-301952401D03*
%TO.P,U2,28,D7_D6+*%
%TO.N,/adc/D6_P*%
X157950000Y-301952401D03*
%TO.P,U2,29,D9_D8-*%
%TO.N,/adc/D8_N*%
X158449999Y-301952401D03*
%TO.P,U2,30,D9_D8+*%
%TO.N,/adc/D8_P*%
X158950000Y-301952401D03*
%TO.P,U2,31,CLKOUT-*%
%TO.N,/adc/CLKOUT_N*%
X159450000Y-301952401D03*
%TO.P,U2,32,CLKOUT+*%
%TO.N,/adc/CLKOUT_P*%
X159950001Y-301952401D03*
%TO.P,U2,33,D11_D10-*%
%TO.N,/adc/D10_N*%
X160450000Y-301952401D03*
%TO.P,U2,34,D11_D10+*%
%TO.N,/adc/D10_P*%
X160949999Y-301952401D03*
%TO.P,U2,35,D13_D12-*%
%TO.N,/adc/D12_N*%
X161450001Y-301952401D03*
%TO.P,U2,36,D13_D12+*%
%TO.N,/adc/D12_P*%
X161950000Y-301952401D03*
D46*
%TO.P,U2,37,D15_D14-*%
%TO.N,/adc/D14_N*%
X162652401Y-301250000D03*
%TO.P,U2,38,D15_D14+*%
%TO.N,/adc/D14_P*%
X162652401Y-300750001D03*
%TO.P,U2,39,OF-*%
%TO.N,/adc/OF_N*%
X162652401Y-300249999D03*
%TO.P,U2,40,OF+*%
%TO.N,/adc/OF_P*%
X162652401Y-299750000D03*
%TO.P,U2,41,OVDD*%
%TO.N,+1.8V*%
X162652401Y-299250001D03*
%TO.P,U2,42,OGND*%
%TO.N,GND*%
X162652401Y-298750000D03*
%TO.P,U2,43,SDI*%
%TO.N,/adc/SDI*%
X162652401Y-298250000D03*
%TO.P,U2,44,SCK*%
%TO.N,/adc/SCK*%
X162652401Y-297749999D03*
%TO.P,U2,45,\u002ACS*%
%TO.N,/adc/CSN*%
X162652401Y-297250000D03*
%TO.P,U2,46,PAR/\u002ASER*%
%TO.N,GND*%
X162652401Y-296750001D03*
%TO.P,U2,47,GND*%
X162652401Y-296249999D03*
%TO.P,U2,48,GND*%
X162652401Y-295750000D03*
D24*
%TO.P,U2,49,GND*%
X160950000Y-296500000D03*
X159700000Y-296500000D03*
X158450000Y-296500000D03*
X157200000Y-296500000D03*
X160950000Y-298000000D03*
X159700000Y-298000000D03*
X158450000Y-298000000D03*
X157200000Y-298000000D03*
D47*
X159200000Y-298500000D03*
D24*
X160950000Y-299250000D03*
X159700000Y-299250000D03*
X158450000Y-299250000D03*
X157200000Y-299250000D03*
X160950000Y-300500000D03*
X159700000Y-300500000D03*
X158450000Y-300500000D03*
X157200000Y-300500000D03*
%TD*%
D19*
%TO.P,C38,1*%
%TO.N,+5.0V*%
X274200000Y-319950000D03*
%TO.P,C38,2*%
%TO.N,GND*%
X274200000Y-321850000D03*
%TD*%
D14*
%TO.P,R45,1*%
%TO.N,Net-(U10-RESET)*%
X250725000Y-299500000D03*
%TO.P,R45,2*%
%TO.N,/Relay Board Interface/faultn*%
X248900000Y-299500000D03*
%TD*%
D16*
%TO.P,C18,1*%
%TO.N,+2.5V*%
X174350000Y-289114322D03*
%TO.P,C18,2*%
%TO.N,GND*%
X174350000Y-287214322D03*
%TD*%
D11*
%TO.P,C40,1*%
%TO.N,GND*%
X118450000Y-294000000D03*
%TO.P,C40,2*%
%TO.N,Net-(C40-Pad2)*%
X120350000Y-294000000D03*
%TD*%
D48*
%TO.P,J2,A1,A1*%
%TO.N,unconnected-(J2-PadA1)*%
X217624000Y-321284000D03*
D49*
%TO.P,J2,A2,A2*%
%TO.N,unconnected-(J2-PadA2)*%
X215124000Y-321284000D03*
%TO.P,J2,A3,A3*%
%TO.N,unconnected-(J2-PadA3)*%
X212624000Y-321284000D03*
%TO.P,J2,A4,A4*%
%TO.N,unconnected-(J2-PadA4)*%
X210124000Y-321284000D03*
%TO.P,J2,A5,A5*%
%TO.N,unconnected-(J2-PadA5)*%
X207624000Y-321284000D03*
%TO.P,J2,A6,A6*%
%TO.N,unconnected-(J2-PadA6)*%
X205124000Y-321284000D03*
%TO.P,J2,A7,A7*%
%TO.N,unconnected-(J2-PadA7)*%
X202624000Y-321284000D03*
%TO.P,J2,A8,A8*%
%TO.N,unconnected-(J2-PadA8)*%
X200124000Y-321284000D03*
%TO.P,J2,A9,A9*%
%TO.N,unconnected-(J2-PadA9)*%
X197624000Y-321284000D03*
%TO.P,J2,A10,A10*%
%TO.N,unconnected-(J2-PadA10)*%
X195124000Y-321284000D03*
%TO.P,J2,B1,B1*%
%TO.N,unconnected-(J2-PadB1)*%
X217624000Y-319784000D03*
%TO.P,J2,B2,B2*%
%TO.N,unconnected-(J2-PadB2)*%
X215124000Y-319784000D03*
%TO.P,J2,B3,B3*%
%TO.N,unconnected-(J2-PadB3)*%
X212624000Y-319784000D03*
%TO.P,J2,B4,B4*%
%TO.N,unconnected-(J2-PadB4)*%
X210124000Y-319784000D03*
%TO.P,J2,B5,B5*%
%TO.N,unconnected-(J2-PadB5)*%
X207624000Y-319784000D03*
%TO.P,J2,B6,B6*%
%TO.N,unconnected-(J2-PadB6)*%
X205124000Y-319784000D03*
%TO.P,J2,B7,B7*%
%TO.N,unconnected-(J2-PadB7)*%
X202624000Y-319784000D03*
%TO.P,J2,B8,B8*%
%TO.N,unconnected-(J2-PadB8)*%
X200124000Y-319784000D03*
%TO.P,J2,B9,B9*%
%TO.N,unconnected-(J2-PadB9)*%
X197624000Y-319784000D03*
%TO.P,J2,B10,B10*%
%TO.N,unconnected-(J2-PadB10)*%
X195124000Y-319784000D03*
%TO.P,J2,BG1,BG1*%
%TO.N,GND*%
X217624000Y-318284000D03*
%TO.P,J2,BG2,BG2*%
X215124000Y-318284000D03*
%TO.P,J2,BG3,BG3*%
X212624000Y-318284000D03*
%TO.P,J2,BG4,BG4*%
X210124000Y-318284000D03*
%TO.P,J2,BG5,BG5*%
X207624000Y-318284000D03*
%TO.P,J2,BG6,BG6*%
X205124000Y-318284000D03*
%TO.P,J2,BG7,BG7*%
X202624000Y-318284000D03*
%TO.P,J2,BG8,BG8*%
X200124000Y-318284000D03*
%TO.P,J2,BG9,BG9*%
X197624000Y-318284000D03*
%TO.P,J2,BG10,BG10*%
X195124000Y-318284000D03*
%TO.P,J2,C1,C1*%
%TO.N,unconnected-(J2-PadC1)*%
X217624000Y-316784000D03*
%TO.P,J2,C2,C2*%
%TO.N,unconnected-(J2-PadC2)*%
X215124000Y-316784000D03*
%TO.P,J2,C3,C3*%
%TO.N,/Fault LED's/fault_led15*%
X212624000Y-316784000D03*
%TO.P,J2,C4,C4*%
%TO.N,/Fault LED's/fault_led13*%
X210124000Y-316784000D03*
%TO.P,J2,C5,C5*%
%TO.N,/Fault LED's/fault_led11*%
X207624000Y-316784000D03*
%TO.P,J2,C6,C6*%
%TO.N,/Fault LED's/fault_led9*%
X205124000Y-316784000D03*
%TO.P,J2,C7,C7*%
%TO.N,/Fault LED's/fault_led7*%
X202624000Y-316784000D03*
%TO.P,J2,C8,C8*%
%TO.N,/Fault LED's/fault_led5*%
X200124000Y-316784000D03*
%TO.P,J2,C9,C9*%
%TO.N,/Fault LED's/fault_led3*%
X197624000Y-316784000D03*
%TO.P,J2,C10,C10*%
%TO.N,/Fault LED's/fault_led1*%
X195124000Y-316784000D03*
%TO.P,J2,D1,D1*%
%TO.N,unconnected-(J2-PadD1)*%
X217624000Y-315284000D03*
%TO.P,J2,D2,D2*%
%TO.N,unconnected-(J2-PadD2)*%
X215124000Y-315284000D03*
%TO.P,J2,D3,D3*%
%TO.N,/Fault LED's/fault_led14*%
X212624000Y-315284000D03*
%TO.P,J2,D4,D4*%
%TO.N,/Fault LED's/fault_led12*%
X210124000Y-315284000D03*
%TO.P,J2,D5,D5*%
%TO.N,/Fault LED's/fault_led10*%
X207624000Y-315284000D03*
%TO.P,J2,D6,D6*%
%TO.N,/Fault LED's/fault_led8*%
X205124000Y-315284000D03*
%TO.P,J2,D7,D7*%
%TO.N,/Fault LED's/fault_led6*%
X202624000Y-315284000D03*
%TO.P,J2,D8,D8*%
%TO.N,/Fault LED's/fault_led4*%
X200124000Y-315284000D03*
%TO.P,J2,D9,D9*%
%TO.N,/Fault LED's/fault_led2*%
X197624000Y-315284000D03*
%TO.P,J2,D10,D10*%
%TO.N,/Fault LED's/fault_led0*%
X195124000Y-315284000D03*
%TO.P,J2,DG1,DG1*%
%TO.N,GND*%
X217624000Y-313784000D03*
%TO.P,J2,DG2,DG2*%
X215124000Y-313784000D03*
%TO.P,J2,DG3,DG3*%
X212624000Y-313784000D03*
%TO.P,J2,DG4,DG4*%
X210124000Y-313784000D03*
%TO.P,J2,DG5,DG5*%
X207624000Y-313784000D03*
%TO.P,J2,DG6,DG6*%
X205124000Y-313784000D03*
%TO.P,J2,DG7,DG7*%
X202624000Y-313784000D03*
%TO.P,J2,DG8,DG8*%
X200124000Y-313784000D03*
%TO.P,J2,DG9,DG9*%
X197624000Y-313784000D03*
%TO.P,J2,DG10,DG10*%
X195124000Y-313784000D03*
%TD*%
D50*
%TO.P,J6,1,1*%
%TO.N,GND*%
X293770000Y-319750000D03*
D51*
%TO.P,J6,2,2*%
%TO.N,/Regulators/+5VIN*%
X288270000Y-319750000D03*
%TD*%
D48*
%TO.P,J1,A1,A1*%
%TO.N,/adc/CSN*%
X166824000Y-321284000D03*
D49*
%TO.P,J1,A2,A2*%
%TO.N,/adc/SDI*%
X164324000Y-321284000D03*
%TO.P,J1,A3,A3*%
%TO.N,/adc/D14_P*%
X161824000Y-321284000D03*
%TO.P,J1,A4,A4*%
%TO.N,/adc/D10_P*%
X159324000Y-321284000D03*
%TO.P,J1,A5,A5*%
%TO.N,/adc/CLKOUT_P*%
X156824000Y-321284000D03*
%TO.P,J1,A6,A6*%
%TO.N,/adc/D6_P*%
X154324000Y-321284000D03*
%TO.P,J1,A7,A7*%
%TO.N,/adc/D2_P*%
X151824000Y-321284000D03*
%TO.P,J1,A8,A8*%
%TO.N,/adc/SDO*%
X149324000Y-321284000D03*
%TO.P,J1,A9,A9*%
%TO.N,unconnected-(J1-PadA9)*%
X146824000Y-321284000D03*
%TO.P,J1,A10,A10*%
%TO.N,unconnected-(J1-PadA10)*%
X144324000Y-321284000D03*
%TO.P,J1,B1,B1*%
%TO.N,unconnected-(J1-PadB1)*%
X166824000Y-319784000D03*
%TO.P,J1,B2,B2*%
%TO.N,unconnected-(J1-PadB2)*%
X164324000Y-319784000D03*
%TO.P,J1,B3,B3*%
%TO.N,/adc/D14_N*%
X161824000Y-319784000D03*
%TO.P,J1,B4,B4*%
%TO.N,/adc/D10_N*%
X159324000Y-319784000D03*
%TO.P,J1,B5,B5*%
%TO.N,/adc/CLKOUT_N*%
X156824000Y-319784000D03*
%TO.P,J1,B6,B6*%
%TO.N,/adc/D6_N*%
X154324000Y-319784000D03*
%TO.P,J1,B7,B7*%
%TO.N,/adc/D2_N*%
X151824000Y-319784000D03*
%TO.P,J1,B8,B8*%
%TO.N,unconnected-(J1-PadB8)*%
X149324000Y-319784000D03*
%TO.P,J1,B9,B9*%
%TO.N,unconnected-(J1-PadB9)*%
X146824000Y-319784000D03*
%TO.P,J1,B10,B10*%
%TO.N,unconnected-(J1-PadB10)*%
X144324000Y-319784000D03*
%TO.P,J1,BG1,BG1*%
%TO.N,GND*%
X166824000Y-318284000D03*
%TO.P,J1,BG2,BG2*%
X164324000Y-318284000D03*
%TO.P,J1,BG3,BG3*%
X161824000Y-318284000D03*
%TO.P,J1,BG4,BG4*%
X159324000Y-318284000D03*
%TO.P,J1,BG5,BG5*%
X156824000Y-318284000D03*
%TO.P,J1,BG6,BG6*%
X154324000Y-318284000D03*
%TO.P,J1,BG7,BG7*%
X151824000Y-318284000D03*
%TO.P,J1,BG8,BG8*%
X149324000Y-318284000D03*
%TO.P,J1,BG9,BG9*%
X146824000Y-318284000D03*
%TO.P,J1,BG10,BG10*%
X144324000Y-318284000D03*
%TO.P,J1,C1,C1*%
%TO.N,/adc/SCK*%
X166824000Y-316784000D03*
%TO.P,J1,C2,C2*%
%TO.N,/adc/OF_P*%
X164324000Y-316784000D03*
%TO.P,J1,C3,C3*%
%TO.N,/adc/D12_P*%
X161824000Y-316784000D03*
%TO.P,J1,C4,C4*%
%TO.N,unconnected-(J1-PadC4)*%
X159324000Y-316784000D03*
%TO.P,J1,C5,C5*%
%TO.N,/adc/D8_P*%
X156824000Y-316784000D03*
%TO.P,J1,C6,C6*%
%TO.N,/adc/D4_P*%
X154324000Y-316784000D03*
%TO.P,J1,C7,C7*%
%TO.N,/adc/D0_P*%
X151824000Y-316784000D03*
%TO.P,J1,C8,C8*%
%TO.N,unconnected-(J1-PadC8)*%
X149324000Y-316784000D03*
%TO.P,J1,C9,C9*%
%TO.N,unconnected-(J1-PadC9)*%
X146824000Y-316784000D03*
%TO.P,J1,C10,C10*%
%TO.N,unconnected-(J1-PadC10)*%
X144324000Y-316784000D03*
%TO.P,J1,D1,D1*%
%TO.N,unconnected-(J1-PadD1)*%
X166824000Y-315284000D03*
%TO.P,J1,D2,D2*%
%TO.N,/adc/OF_N*%
X164324000Y-315284000D03*
%TO.P,J1,D3,D3*%
%TO.N,/adc/D12_N*%
X161824000Y-315284000D03*
%TO.P,J1,D4,D4*%
%TO.N,unconnected-(J1-PadD4)*%
X159324000Y-315284000D03*
%TO.P,J1,D5,D5*%
%TO.N,/adc/D8_N*%
X156824000Y-315284000D03*
%TO.P,J1,D6,D6*%
%TO.N,/adc/D4_N*%
X154324000Y-315284000D03*
%TO.P,J1,D7,D7*%
%TO.N,/adc/D0_N*%
X151824000Y-315284000D03*
%TO.P,J1,D8,D8*%
%TO.N,unconnected-(J1-PadD8)*%
X149324000Y-315284000D03*
%TO.P,J1,D9,D9*%
%TO.N,unconnected-(J1-PadD9)*%
X146824000Y-315284000D03*
%TO.P,J1,D10,D10*%
%TO.N,unconnected-(J1-PadD10)*%
X144324000Y-315284000D03*
%TO.P,J1,DG1,DG1*%
%TO.N,GND*%
X166824000Y-313784000D03*
%TO.P,J1,DG2,DG2*%
X164324000Y-313784000D03*
%TO.P,J1,DG3,DG3*%
X161824000Y-313784000D03*
%TO.P,J1,DG4,DG4*%
X159324000Y-313784000D03*
%TO.P,J1,DG5,DG5*%
X156824000Y-313784000D03*
%TO.P,J1,DG6,DG6*%
X154324000Y-313784000D03*
%TO.P,J1,DG7,DG7*%
X151824000Y-313784000D03*
%TO.P,J1,DG8,DG8*%
X149324000Y-313784000D03*
%TO.P,J1,DG9,DG9*%
X146824000Y-313784000D03*
%TO.P,J1,DG10,DG10*%
X144324000Y-313784000D03*
%TD*%
D11*
%TO.P,C23,1*%
%TO.N,Net-(U5-NR{slash}SS)*%
X182300000Y-307400000D03*
%TO.P,C23,2*%
%TO.N,GND*%
X184200000Y-307400000D03*
%TD*%
%TO.P,C22,1*%
%TO.N,/Regulators/+3.3v_U5*%
X182300000Y-305100000D03*
%TO.P,C22,2*%
%TO.N,GND*%
X184200000Y-305100000D03*
%TD*%
D17*
%TO.P,D16,1,K*%
%TO.N,GND*%
X276075000Y-294350000D03*
%TO.P,D16,2,A*%
%TO.N,Net-(D16-A)*%
X274200000Y-294350000D03*
%TD*%
D40*
%TO.P,J7,1,1*%
%TO.N,/Relay Board Interface/faultn*%
X111240000Y-267500000D03*
D41*
%TO.P,J7,2,2*%
%TO.N,GND*%
X111240000Y-264960000D03*
%TO.P,J7,3,3*%
%TO.N,/Relay Board Interface/fault_rdbk*%
X113780000Y-267500000D03*
%TO.P,J7,4,4*%
%TO.N,GND*%
X113780000Y-264960000D03*
%TO.P,J7,5,5*%
%TO.N,/Relay Board Interface/fault_reset*%
X116320000Y-267500000D03*
%TO.P,J7,6,6*%
%TO.N,GND*%
X116320000Y-264960000D03*
%TO.P,J7,7,7*%
%TO.N,/Relay Board Interface/force_trip*%
X118860000Y-267500000D03*
%TO.P,J7,8,8*%
%TO.N,GND*%
X118860000Y-264960000D03*
%TO.P,J7,9,9*%
%TO.N,/Relay Board Interface/keylock*%
X121400000Y-267500000D03*
%TO.P,J7,10,10*%
%TO.N,GND*%
X121400000Y-264960000D03*
%TO.P,J7,11,11*%
%TO.N,/Relay Board Interface/spare0*%
X123940000Y-267500000D03*
%TO.P,J7,12,12*%
%TO.N,GND*%
X123940000Y-264960000D03*
%TO.P,J7,13,13*%
%TO.N,/Relay Board Interface/spare1*%
X126480000Y-267500000D03*
%TO.P,J7,14,14*%
%TO.N,GND*%
X126480000Y-264960000D03*
%TO.P,J7,15,15*%
%TO.N,/Relay Board Interface/spare2*%
X129020000Y-267500000D03*
%TO.P,J7,16,16*%
%TO.N,GND*%
X129020000Y-264960000D03*
%TO.P,J7,17,17*%
%TO.N,/Relay Board Interface/spare3*%
X131560000Y-267500000D03*
%TO.P,J7,18,18*%
%TO.N,GND*%
X131560000Y-264960000D03*
%TO.P,J7,19,19*%
%TO.N,/Relay Board Interface/spare4*%
X134100000Y-267500000D03*
%TO.P,J7,20,20*%
%TO.N,GND*%
X134100000Y-264960000D03*
%TD*%
D10*
%TO.P,R24,1*%
%TO.N,Net-(U7-2A6)*%
X270425000Y-292250000D03*
%TO.P,R24,2*%
%TO.N,Net-(D15-A)*%
X272250000Y-292250000D03*
%TD*%
D22*
%TO.P,U5,1,OUT*%
%TO.N,+1.8V*%
X175815000Y-305800000D03*
%TO.P,U5,2,SNS*%
X175815000Y-306300000D03*
%TO.P,U5,3,FB*%
%TO.N,Net-(U5-FB)*%
X175815000Y-306800000D03*
%TO.P,U5,4,PG*%
%TO.N,unconnected-(U5-PG-Pad4)*%
X175815000Y-307300000D03*
%TO.P,U5,5,50MV*%
%TO.N,unconnected-(U5-50MV-Pad5)*%
X175815000Y-307800000D03*
D23*
%TO.P,U5,6,100MV*%
%TO.N,unconnected-(U5-100MV-Pad6)*%
X176500000Y-308485000D03*
%TO.P,U5,7,200MV*%
%TO.N,GND*%
X177000000Y-308485000D03*
%TO.P,U5,8,GND*%
X177500000Y-308485000D03*
%TO.P,U5,9,400MV*%
%TO.N,unconnected-(U5-400MV-Pad9)*%
X178000000Y-308485000D03*
%TO.P,U5,10,800MV*%
%TO.N,GND*%
X178500000Y-308485000D03*
D22*
%TO.P,U5,11,1.6V*%
%TO.N,unconnected-(U5-1.6V-Pad11)*%
X179185000Y-307800000D03*
%TO.P,U5,12,BIAS*%
%TO.N,unconnected-(U5-BIAS-Pad12)*%
X179185000Y-307300000D03*
%TO.P,U5,13,NR/SS*%
%TO.N,Net-(U5-NR{slash}SS)*%
X179185000Y-306800000D03*
%TO.P,U5,14,EN*%
%TO.N,/Regulators/+3.3v_U5*%
X179185000Y-306300000D03*
%TO.P,U5,15,IN*%
X179185000Y-305800000D03*
D23*
%TO.P,U5,16,IN*%
X178500000Y-305115000D03*
%TO.P,U5,17,IN*%
X178000000Y-305115000D03*
%TO.P,U5,18,GND*%
%TO.N,GND*%
X177500000Y-305115000D03*
%TO.P,U5,19,OUT*%
%TO.N,+1.8V*%
X177000000Y-305115000D03*
%TO.P,U5,20,OUT*%
X176500000Y-305115000D03*
D24*
%TO.P,U5,21,GND_TH*%
%TO.N,GND*%
X177000000Y-306800000D03*
X177500000Y-306300000D03*
D25*
X177500000Y-306800000D03*
D24*
X177500000Y-307300000D03*
X178000000Y-306800000D03*
%TD*%
D14*
%TO.P,R36,1*%
%TO.N,+5.0V*%
X284525000Y-307900000D03*
%TO.P,R36,2*%
%TO.N,Net-(U10-SET0)*%
X282700000Y-307900000D03*
%TD*%
D19*
%TO.P,C26,1*%
%TO.N,+1.8V*%
X172300000Y-306400000D03*
%TO.P,C26,2*%
%TO.N,Net-(U5-FB)*%
X172300000Y-308300000D03*
%TD*%
D16*
%TO.P,C24,1*%
%TO.N,+3.3V*%
X265900000Y-323100000D03*
%TO.P,C24,2*%
%TO.N,GND*%
X265900000Y-321200000D03*
%TD*%
D10*
%TO.P,R14,1*%
%TO.N,Net-(U7-1A4)*%
X270425000Y-271250000D03*
%TO.P,R14,2*%
%TO.N,Net-(D5-A)*%
X272250000Y-271250000D03*
%TD*%
D17*
%TO.P,D4,1,K*%
%TO.N,GND*%
X276075000Y-269150000D03*
%TO.P,D4,2,A*%
%TO.N,Net-(D4-A)*%
X274200000Y-269150000D03*
%TD*%
%TO.P,D7,1,K*%
%TO.N,GND*%
X276075000Y-275450000D03*
%TO.P,D7,2,A*%
%TO.N,Net-(D7-A)*%
X274200000Y-275450000D03*
%TD*%
D39*
%TO.P,C20,1*%
%TO.N,+2.5V*%
X172600000Y-291099322D03*
%TO.P,C20,2*%
%TO.N,GND*%
X170700000Y-291099322D03*
%TD*%
D15*
%TO.P,R2,1*%
%TO.N,/adc/vcm*%
X141450000Y-290325000D03*
%TO.P,R2,2*%
%TO.N,Net-(C5-Pad2)*%
X141450000Y-288500000D03*
%TD*%
D21*
%TO.P,MT3,1,1*%
%TO.N,GND*%
X250644000Y-329920000D03*
%TD*%
D10*
%TO.P,R19,1*%
%TO.N,Net-(U7-2A1)*%
X270425000Y-281750000D03*
%TO.P,R19,2*%
%TO.N,Net-(D10-A)*%
X272250000Y-281750000D03*
%TD*%
%TO.P,R22,1*%
%TO.N,Net-(U7-2A4)*%
X270425000Y-288050000D03*
%TO.P,R22,2*%
%TO.N,Net-(D13-A)*%
X272250000Y-288050000D03*
%TD*%
D17*
%TO.P,D2,1,K*%
%TO.N,GND*%
X276075000Y-264950000D03*
%TO.P,D2,2,A*%
%TO.N,Net-(D2-A)*%
X274200000Y-264950000D03*
%TD*%
D52*
%TO.P,T1,1*%
%TO.N,Net-(C5-Pad2)*%
X137050000Y-288820000D03*
%TO.P,T1,2*%
%TO.N,/adc/vcm*%
X137050000Y-291360000D03*
%TO.P,T1,3*%
%TO.N,Net-(C5-Pad1)*%
X137050000Y-293900000D03*
%TO.P,T1,4*%
%TO.N,Net-(C40-Pad2)*%
X124990000Y-293900000D03*
%TO.P,T1,5*%
%TO.N,N/C*%
X124990000Y-291360000D03*
%TO.P,T1,6*%
%TO.N,Net-(C2-Pad2)*%
X124990000Y-288820000D03*
%TD*%
D17*
%TO.P,D11,1,K*%
%TO.N,GND*%
X276075000Y-283850000D03*
%TO.P,D11,2,A*%
%TO.N,Net-(D11-A)*%
X274200000Y-283850000D03*
%TD*%
D11*
%TO.P,C32,1*%
%TO.N,+3.3V*%
X182300000Y-298700000D03*
%TO.P,C32,2*%
%TO.N,GND*%
X184200000Y-298700000D03*
%TD*%
D17*
%TO.P,D17,1,K*%
%TO.N,GND*%
X276075000Y-296450000D03*
%TO.P,D17,2,A*%
%TO.N,Net-(D17-A)*%
X274200000Y-296450000D03*
%TD*%
D53*
%TO.P,R8,1*%
%TO.N,Net-(U6-ILM)*%
X281450000Y-323925000D03*
%TO.P,R8,2*%
%TO.N,GND*%
X281450000Y-325750000D03*
%TD*%
D48*
%TO.P,J3,A1,A1*%
%TO.N,/Pulser Interface/tp_neg4*%
X243024000Y-321284000D03*
D49*
%TO.P,J3,A2,A2*%
%TO.N,/Pulser Interface/tp_neg0*%
X240524000Y-321284000D03*
%TO.P,J3,A3,A3*%
%TO.N,/Pulser Interface/tp_pos1*%
X238024000Y-321284000D03*
%TO.P,J3,A4,A4*%
%TO.N,unconnected-(J3-PadA4)*%
X235524000Y-321284000D03*
%TO.P,J3,A5,A5*%
%TO.N,/EEPROM/csn*%
X233024000Y-321284000D03*
%TO.P,J3,A6,A6*%
%TO.N,/EEPROM/sdo*%
X230524000Y-321284000D03*
%TO.P,J3,A7,A7*%
%TO.N,/Relay Board Interface/wdi*%
X228024000Y-321284000D03*
%TO.P,J3,A8,A8*%
%TO.N,/Relay Board Interface/spare3*%
X225524000Y-321284000D03*
%TO.P,J3,A9,A9*%
%TO.N,/Relay Board Interface/keylock*%
X223024000Y-321284000D03*
%TO.P,J3,A10,A10*%
%TO.N,/Relay Board Interface/faultn*%
X220524000Y-321284000D03*
%TO.P,J3,B1,B1*%
%TO.N,/Pulser Interface/tp_neg3*%
X243024000Y-319784000D03*
%TO.P,J3,B2,B2*%
%TO.N,/Pulser Interface/tp_pos4*%
X240524000Y-319784000D03*
%TO.P,J3,B3,B3*%
%TO.N,/Pulser Interface/tp_pos0*%
X238024000Y-319784000D03*
%TO.P,J3,B4,B4*%
%TO.N,unconnected-(J3-PadB4)*%
X235524000Y-319784000D03*
%TO.P,J3,B5,B5*%
%TO.N,/EEPROM/sck*%
X233024000Y-319784000D03*
%TO.P,J3,B6,B6*%
%TO.N,/EEPROM/wpn*%
X230524000Y-319784000D03*
%TO.P,J3,B7,B7*%
%TO.N,unconnected-(J3-PadB7)*%
X228024000Y-319784000D03*
%TO.P,J3,B8,B8*%
%TO.N,/Relay Board Interface/spare2*%
X225524000Y-319784000D03*
%TO.P,J3,B9,B9*%
%TO.N,/Relay Board Interface/force_trip*%
X223024000Y-319784000D03*
%TO.P,J3,B10,B10*%
%TO.N,/Regulators/afe_pwrenb*%
X220524000Y-319784000D03*
%TO.P,J3,BG1,BG1*%
%TO.N,GND*%
X243024000Y-318284000D03*
%TO.P,J3,BG2,BG2*%
X240524000Y-318284000D03*
%TO.P,J3,BG3,BG3*%
X238024000Y-318284000D03*
%TO.P,J3,BG4,BG4*%
X235524000Y-318284000D03*
%TO.P,J3,BG5,BG5*%
X233024000Y-318284000D03*
%TO.P,J3,BG6,BG6*%
X230524000Y-318284000D03*
%TO.P,J3,BG7,BG7*%
X228024000Y-318284000D03*
%TO.P,J3,BG8,BG8*%
X225524000Y-318284000D03*
%TO.P,J3,BG9,BG9*%
X223024000Y-318284000D03*
%TO.P,J3,BG10,BG10*%
X220524000Y-318284000D03*
%TO.P,J3,C1,C1*%
%TO.N,/Pulser Interface/tp_neg2*%
X243024000Y-316784000D03*
%TO.P,J3,C2,C2*%
%TO.N,/Pulser Interface/tp_pos3*%
X240524000Y-316784000D03*
%TO.P,J3,C3,C3*%
%TO.N,unconnected-(J3-PadC3)*%
X238024000Y-316784000D03*
%TO.P,J3,C4,C4*%
%TO.N,unconnected-(J3-PadC4)*%
X235524000Y-316784000D03*
%TO.P,J3,C5,C5*%
%TO.N,/EEPROM/sdi*%
X233024000Y-316784000D03*
%TO.P,J3,C6,C6*%
%TO.N,unconnected-(J3-PadC6)*%
X230524000Y-316784000D03*
%TO.P,J3,C7,C7*%
%TO.N,unconnected-(J3-PadC7)*%
X228024000Y-316784000D03*
%TO.P,J3,C8,C8*%
%TO.N,/Relay Board Interface/spare1*%
X225524000Y-316784000D03*
%TO.P,J3,C9,C9*%
%TO.N,/Relay Board Interface/fault_reset*%
X223024000Y-316784000D03*
%TO.P,J3,C10,C10*%
%TO.N,/zuDFE Connectors/i2c_sda*%
X220524000Y-316784000D03*
%TO.P,J3,D1,D1*%
%TO.N,/Pulser Interface/tp_neg1*%
X243024000Y-315284000D03*
%TO.P,J3,D2,D2*%
%TO.N,/Pulser Interface/tp_pos2*%
X240524000Y-315284000D03*
%TO.P,J3,D3,D3*%
%TO.N,unconnected-(J3-PadD3)*%
X238024000Y-315284000D03*
%TO.P,J3,D4,D4*%
%TO.N,unconnected-(J3-PadD4)*%
X235524000Y-315284000D03*
%TO.P,J3,D5,D5*%
%TO.N,/EEPROM/holdn*%
X233024000Y-315284000D03*
%TO.P,J3,D6,D6*%
%TO.N,unconnected-(J3-PadD6)*%
X230524000Y-315284000D03*
%TO.P,J3,D7,D7*%
%TO.N,/Relay Board Interface/spare4*%
X228024000Y-315284000D03*
%TO.P,J3,D8,D8*%
%TO.N,/Relay Board Interface/spare0*%
X225524000Y-315284000D03*
%TO.P,J3,D9,D9*%
%TO.N,/Relay Board Interface/fault_rdbk*%
X223024000Y-315284000D03*
%TO.P,J3,D10,D10*%
%TO.N,/zuDFE Connectors/i2c_scl*%
X220524000Y-315284000D03*
%TO.P,J3,DG1,DG1*%
%TO.N,GND*%
X243024000Y-313784000D03*
%TO.P,J3,DG2,DG2*%
X240524000Y-313784000D03*
%TO.P,J3,DG3,DG3*%
X238024000Y-313784000D03*
%TO.P,J3,DG4,DG4*%
X235524000Y-313784000D03*
%TO.P,J3,DG5,DG5*%
X233024000Y-313784000D03*
%TO.P,J3,DG6,DG6*%
X230524000Y-313784000D03*
%TO.P,J3,DG7,DG7*%
X228024000Y-313784000D03*
%TO.P,J3,DG8,DG8*%
X225524000Y-313784000D03*
%TO.P,J3,DG9,DG9*%
X223024000Y-313784000D03*
%TO.P,J3,DG10,DG10*%
X220524000Y-313784000D03*
%TD*%
D16*
%TO.P,C27,1*%
%TO.N,+3.3V*%
X261300000Y-323100000D03*
%TO.P,C27,2*%
%TO.N,GND*%
X261300000Y-321200000D03*
%TD*%
D17*
%TO.P,D3,1,K*%
%TO.N,GND*%
X276075000Y-267050000D03*
%TO.P,D3,2,A*%
%TO.N,Net-(D3-A)*%
X274200000Y-267050000D03*
%TD*%
D15*
%TO.P,R6,1*%
%TO.N,/adc/AIN_N*%
X151450000Y-291912500D03*
%TO.P,R6,2*%
%TO.N,/adc/AIN_P*%
X151450000Y-290087500D03*
%TD*%
D16*
%TO.P,C29,1*%
%TO.N,+1.8V*%
X176500000Y-302550000D03*
%TO.P,C29,2*%
%TO.N,GND*%
X176500000Y-300650000D03*
%TD*%
D30*
%TO.P,L1,1,1*%
%TO.N,/Regulators/+3.3v_U3*%
X182350000Y-288114322D03*
%TO.P,L1,2,2*%
%TO.N,+3.3V*%
X183950200Y-288114322D03*
%TD*%
D18*
%TO.P,TP2,1,1*%
%TO.N,GND*%
X259450000Y-332000000D03*
%TD*%
D21*
%TO.P,MT7,1,1*%
%TO.N,GND*%
X299920000Y-263880000D03*
%TD*%
D10*
%TO.P,R11,1*%
%TO.N,Net-(U7-1A1)*%
X270415000Y-264950000D03*
%TO.P,R11,2*%
%TO.N,Net-(D2-A)*%
X272240000Y-264950000D03*
%TD*%
D16*
%TO.P,C10,1*%
%TO.N,+1.8V*%
X166200000Y-299100000D03*
%TO.P,C10,2*%
%TO.N,GND*%
X166200000Y-297200000D03*
%TD*%
D53*
%TO.P,R9,1*%
%TO.N,/Regulators/afe_pwrenb*%
X285450000Y-329200000D03*
%TO.P,R9,2*%
%TO.N,GND*%
X285450000Y-331025000D03*
%TD*%
D11*
%TO.P,C44,1*%
%TO.N,Net-(U10-CRST)*%
X275300000Y-305100000D03*
%TO.P,C44,2*%
%TO.N,GND*%
X277200000Y-305100000D03*
%TD*%
D14*
%TO.P,R37,1*%
%TO.N,Net-(U10-SET0)*%
X280912500Y-307900000D03*
%TO.P,R37,2*%
%TO.N,GND*%
X279087500Y-307900000D03*
%TD*%
D17*
%TO.P,D15,1,K*%
%TO.N,GND*%
X276075000Y-292250000D03*
%TO.P,D15,2,A*%
%TO.N,Net-(D15-A)*%
X274200000Y-292250000D03*
%TD*%
D53*
%TO.P,R27,1*%
%TO.N,Net-(D1-K)*%
X280100000Y-314175000D03*
%TO.P,R27,2*%
%TO.N,Net-(Q1-D)*%
X280100000Y-316000000D03*
%TD*%
D14*
%TO.P,R5,1*%
%TO.N,Net-(U2-VCM)*%
X149675000Y-294600000D03*
%TO.P,R5,2*%
%TO.N,/adc/vcm*%
X147850000Y-294600000D03*
%TD*%
D17*
%TO.P,D14,1,K*%
%TO.N,GND*%
X276075000Y-290150000D03*
%TO.P,D14,2,A*%
%TO.N,Net-(D14-A)*%
X274200000Y-290150000D03*
%TD*%
D21*
%TO.P,MT1,1,1*%
%TO.N,GND*%
X68780000Y-329920000D03*
%TD*%
D11*
%TO.P,C4,1*%
%TO.N,Net-(U1-CLK_N)*%
X134400000Y-314200000D03*
%TO.P,C4,2*%
%TO.N,/adc/ADC_CLK_N*%
X136300000Y-314200000D03*
%TD*%
D54*
%TO.N,*%
X144225000Y-92650000D03*
%TO.N,GND*%
X282715000Y-321685000D03*
X274200000Y-323200000D03*
X279100000Y-309400000D03*
X168850000Y-304500000D03*
X277610000Y-281750000D03*
X185250000Y-305100000D03*
X258200000Y-274000000D03*
X255000000Y-282300000D03*
X159050000Y-289800000D03*
X150500000Y-296550000D03*
X284000000Y-325800000D03*
X277737500Y-279650000D03*
X82600000Y-265600000D03*
X185300000Y-307400000D03*
X260700000Y-287700000D03*
X180600000Y-286014322D03*
X278100000Y-305100000D03*
X77400000Y-326400000D03*
D55*
X168700000Y-291100000D03*
D54*
X181300000Y-286014322D03*
X271600000Y-323000000D03*
X148700000Y-299300000D03*
X277600000Y-264970000D03*
X251300000Y-285300000D03*
X186100000Y-298700000D03*
X164050000Y-289800000D03*
X163650000Y-295750000D03*
X176500000Y-296814322D03*
X284000000Y-331000000D03*
X160550000Y-288650000D03*
X255400000Y-287900000D03*
X277610000Y-277550000D03*
X180600000Y-295614322D03*
X277610000Y-290150000D03*
X143700000Y-296500000D03*
X254500000Y-310400000D03*
X260600000Y-274300000D03*
X277610000Y-283850000D03*
X129400000Y-317000000D03*
X259100000Y-282300000D03*
X270000000Y-310300000D03*
X186100000Y-292514322D03*
X251600000Y-276800000D03*
X254800000Y-279800000D03*
X176500000Y-299200000D03*
X174350000Y-285800000D03*
X266000000Y-319200000D03*
X253200000Y-274600000D03*
X277610000Y-271250000D03*
X159028199Y-293750000D03*
X185900000Y-302900000D03*
X172600000Y-287200000D03*
X174350000Y-299250000D03*
X277610000Y-294350000D03*
X185900000Y-307400000D03*
X185300000Y-302900000D03*
X168850000Y-297200000D03*
X262600000Y-332000000D03*
X185400000Y-292514322D03*
X267200000Y-316000000D03*
X186600000Y-290200000D03*
X161950000Y-294300000D03*
X297300000Y-273700000D03*
X276400000Y-323200000D03*
X272700000Y-322100000D03*
X176500000Y-285750000D03*
X265700000Y-309700000D03*
X263700000Y-319200000D03*
X253200000Y-287700000D03*
X167800000Y-297200000D03*
X149700000Y-299300000D03*
X259100000Y-279800000D03*
X185900000Y-305100000D03*
X277200000Y-309300000D03*
X277610000Y-296450000D03*
X277610000Y-292250000D03*
X277605000Y-275450000D03*
X185350000Y-298700000D03*
X177000000Y-309800000D03*
X118400000Y-295900000D03*
X185650000Y-290199322D03*
X162600000Y-288550000D03*
X277650000Y-267050000D03*
X279950000Y-325750000D03*
X178500000Y-309800000D03*
X273800000Y-304100000D03*
X278600000Y-323200000D03*
X261500000Y-319200000D03*
X275800000Y-317300000D03*
X255450000Y-274050000D03*
X185350000Y-294814322D03*
X155500000Y-294900000D03*
X277737500Y-288050000D03*
X277737500Y-286000000D03*
X277610000Y-269150000D03*
X186100000Y-294814322D03*
X258200000Y-287900000D03*
X277610000Y-273350000D03*
%TO.N,/adc/vcm*%
X143450000Y-294500000D03*
X142700000Y-292250000D03*
%TO.N,/adc/CSN*%
X163950000Y-296700000D03*
%TO.N,/adc/D8_N*%
X157826563Y-304996745D03*
%TO.N,/adc/D8_P*%
X158576563Y-304996745D03*
%TO.N,/adc/D0_N*%
X152031983Y-307195209D03*
%TO.N,/adc/D4_P*%
X156175000Y-305392329D03*
%TO.N,/adc/SCK*%
X164450000Y-297350000D03*
%TO.N,/adc/D0_P*%
X152781983Y-307195209D03*
%TO.N,/adc/SDI*%
X164350000Y-298250000D03*
%TO.N,/adc/SDO*%
X154400000Y-298100000D03*
%TO.N,/adc/D12_P*%
X162075001Y-304279275D03*
%TO.N,/adc/D12_N*%
X161325001Y-304279275D03*
%TO.N,/adc/D4_N*%
X155425000Y-305392329D03*
%TO.N,+3.3V*%
X256000000Y-299500000D03*
X129400000Y-311670000D03*
X268200000Y-325300000D03*
X261300000Y-325300000D03*
X185700000Y-300800000D03*
X262600000Y-305400000D03*
X258300000Y-278300000D03*
X180700000Y-298700000D03*
X185650000Y-288114322D03*
X254600000Y-305900000D03*
X270400000Y-325300000D03*
X258300000Y-283800000D03*
X255900000Y-296500000D03*
X186100000Y-286114322D03*
X263500000Y-325300000D03*
X265900000Y-325300000D03*
%TO.N,+1.8V*%
X172350000Y-302800000D03*
X167800000Y-299100000D03*
X173950000Y-304000000D03*
X153850000Y-299150000D03*
X175500000Y-303950000D03*
X255400000Y-278300000D03*
X255500000Y-283800000D03*
X168800000Y-299100000D03*
X176800000Y-303950000D03*
X173950000Y-304950000D03*
%TO.N,+5.0V*%
X272900000Y-308800000D03*
X280600000Y-319100000D03*
X280100000Y-318600000D03*
%TO.N,/Relay Board Interface/faultn*%
X220200000Y-300400000D03*
X246500000Y-296500000D03*
D55*
%TO.N,/Fault LED's/fault_led4*%
X247450000Y-278750000D03*
%TO.N,/Fault LED's/fault_led3*%
X248950000Y-278000000D03*
%TO.N,/Fault LED's/fault_led15*%
X250700000Y-287500000D03*
%TO.N,/Fault LED's/fault_led9*%
X250950000Y-282250000D03*
%TO.N,/Fault LED's/fault_led12*%
X246950000Y-285500000D03*
%TO.N,/Fault LED's/fault_led10*%
X245900000Y-283196800D03*
%TO.N,/Fault LED's/fault_led1*%
X248200000Y-275250000D03*
%TO.N,/Fault LED's/fault_led7*%
X249450000Y-281250000D03*
%TO.N,/Fault LED's/fault_led14*%
X249700000Y-286750000D03*
%TO.N,/Fault LED's/fault_led6*%
X248700000Y-280000000D03*
%TO.N,/Fault LED's/fault_led5*%
X249950000Y-279500000D03*
%TO.N,/Fault LED's/fault_led13*%
X248450000Y-286000000D03*
%TO.N,/Fault LED's/fault_led8*%
X247700000Y-281750000D03*
%TO.N,/Fault LED's/fault_led2*%
X248950000Y-276750000D03*
%TO.N,/Fault LED's/fault_led11*%
X247200000Y-284000000D03*
%TO.N,/Fault LED's/fault_led0*%
X248950000Y-274000000D03*
D54*
%TO.N,/Regulators/afe_pwrenb*%
X287000000Y-329200000D03*
%TO.N,/EEPROM/wpn*%
X237600000Y-310500000D03*
X249300000Y-308800000D03*
%TO.N,/EEPROM/sck*%
X258900000Y-308800000D03*
%TO.N,/EEPROM/holdn*%
X259000000Y-307500000D03*
%TO.N,/EEPROM/sdi*%
X236800000Y-311500000D03*
X258995000Y-310005000D03*
%TO.N,/EEPROM/sdo*%
X249450000Y-307450000D03*
X237300000Y-309200000D03*
%TO.N,/EEPROM/csn*%
X249300000Y-306100000D03*
%TO.N,/Relay Board Interface/wdi*%
X268800000Y-304700000D03*
%TD*%
D56*
%TO.N,GND*%
X179185000Y-294914322D02*
X179900000Y-294914322D01*
X268899999Y-319900000D02*
X269096801Y-320096802D01*
D57*
X161950000Y-295047599D02*
X161950000Y-294300000D01*
D56*
X275762500Y-315900000D02*
X275762500Y-317262500D01*
X176500000Y-295599322D02*
X176500000Y-296814322D01*
D58*
X184315000Y-302900000D02*
X185300000Y-302900000D01*
D57*
X284025000Y-331025000D02*
X284000000Y-331000000D01*
D59*
X158950000Y-298250000D02*
X159200000Y-298500000D01*
D60*
X276035000Y-281750000D02*
X277610000Y-281750000D01*
D56*
X278100000Y-305100000D02*
X277200000Y-305100000D01*
X277250000Y-307900000D02*
X277250000Y-309250000D01*
D60*
X276035000Y-296450000D02*
X277610000Y-296450000D01*
D57*
X157950000Y-297250000D02*
X159200000Y-298500000D01*
D56*
X259815268Y-276800000D02*
X258200000Y-275184732D01*
X269949999Y-320350002D02*
X269650000Y-320650001D01*
X253205000Y-282300000D02*
X255000000Y-282300000D01*
D60*
X276035000Y-277550000D02*
X277610000Y-277550000D01*
X276035000Y-292250000D02*
X277610000Y-292250000D01*
D56*
X272800000Y-304700000D02*
X272338603Y-304700000D01*
X177500000Y-305659078D02*
X177046800Y-306112278D01*
D57*
X118400000Y-295900000D02*
X118450000Y-295850000D01*
D61*
X160500000Y-289800000D02*
X160500000Y-288700000D01*
X160500000Y-289800000D02*
X159050000Y-289800000D01*
D57*
X281450000Y-325750000D02*
X279950000Y-325750000D01*
D58*
X185400000Y-292514322D02*
X186100000Y-292514322D01*
D61*
X172600000Y-287200000D02*
X172614322Y-287214322D01*
D56*
X177500000Y-305115000D02*
X177500000Y-305659078D01*
D57*
X260645000Y-287645000D02*
X260700000Y-287700000D01*
D60*
X276035000Y-294350000D02*
X277610000Y-294350000D01*
D56*
X177000000Y-308485000D02*
X177000000Y-309800000D01*
X268100000Y-321400002D02*
X268899999Y-321400002D01*
X265725000Y-308300000D02*
X265725000Y-309675000D01*
X282715000Y-321000000D02*
X283500000Y-321000000D01*
D61*
X176500000Y-287199322D02*
X176500000Y-285750000D01*
D57*
X161450001Y-295047599D02*
X161450001Y-296249999D01*
D61*
X162600000Y-289800000D02*
X162600000Y-288550000D01*
D56*
X269449998Y-319900000D02*
X269650000Y-320100002D01*
X177500000Y-295599322D02*
X177500000Y-293914322D01*
X260645000Y-276800000D02*
X259815268Y-276800000D01*
D58*
X184515000Y-294814322D02*
X185350000Y-294814322D01*
X184300000Y-290199322D02*
X185250000Y-290199322D01*
D56*
X179900000Y-294914322D02*
X180600000Y-295614322D01*
D57*
X158950000Y-298750000D02*
X159200000Y-298500000D01*
D61*
X185650000Y-290199322D02*
X186599322Y-290199322D01*
D58*
X185350000Y-298700000D02*
X186100000Y-298700000D01*
D56*
X265725000Y-309675000D02*
X265700000Y-309700000D01*
X178500000Y-308485000D02*
X178500000Y-309800000D01*
D58*
X185250000Y-305100000D02*
X185900000Y-305100000D01*
D56*
X177500000Y-292229322D02*
X177500000Y-293914322D01*
X271400000Y-305638603D02*
X271400000Y-305700000D01*
D57*
X129150000Y-316750000D02*
X129400000Y-317000000D01*
X254105000Y-310005000D02*
X254500000Y-310400000D01*
D59*
X158950000Y-295047599D02*
X158950000Y-298250000D01*
D57*
X161450001Y-296249999D02*
X159200000Y-298500000D01*
D56*
X279087500Y-307900000D02*
X279087500Y-309387500D01*
D57*
X160949999Y-295047599D02*
X160949999Y-296750001D01*
X297350000Y-273750000D02*
X297300000Y-273700000D01*
D56*
X268100000Y-319900000D02*
X269449998Y-319900000D01*
X260645000Y-282300000D02*
X259100000Y-282300000D01*
X177953200Y-294602044D02*
X177953200Y-294367522D01*
X272650001Y-322050001D02*
X272700000Y-322100000D01*
D57*
X276400000Y-321850000D02*
X276400000Y-323200000D01*
X260645000Y-285300000D02*
X259700000Y-285300000D01*
D56*
X258200000Y-275184732D02*
X258200000Y-274000000D01*
X268100000Y-320900001D02*
X270049998Y-320900001D01*
D58*
X184315000Y-307400000D02*
X185300000Y-307400000D01*
D61*
X79052280Y-265600000D02*
X82600000Y-265600000D01*
D56*
X269900000Y-320900001D02*
X269650000Y-320650001D01*
X268899999Y-321400002D02*
X269650000Y-320650001D01*
D61*
X162600000Y-289800000D02*
X164050000Y-289800000D01*
D59*
X159078199Y-293700000D02*
X159200000Y-293700000D01*
D61*
X80300000Y-326400000D02*
X77400000Y-326400000D01*
D56*
X268949998Y-319949999D02*
X269096801Y-320096802D01*
X282715000Y-321685000D02*
X282700000Y-321700000D01*
D60*
X276162500Y-279650000D02*
X277737500Y-279650000D01*
D56*
X177500000Y-308485000D02*
X177500000Y-306800000D01*
X271799998Y-321400002D02*
X270400001Y-321400002D01*
X275800000Y-317300000D02*
X275762500Y-317262500D01*
D57*
X253200000Y-287700000D02*
X253205000Y-287695000D01*
D56*
X260645000Y-279800000D02*
X259100000Y-279800000D01*
D57*
X258300000Y-286700000D02*
X258300000Y-287800000D01*
D56*
X177953200Y-307487722D02*
X177953200Y-307253200D01*
D57*
X162652401Y-295750000D02*
X163650000Y-295750000D01*
D59*
X158950000Y-293828199D02*
X159028199Y-293750000D01*
D58*
X185250000Y-290199322D02*
X185885000Y-290199322D01*
D56*
X278987500Y-305100000D02*
X278100000Y-305100000D01*
D57*
X251986200Y-310005000D02*
X254105000Y-310005000D01*
D56*
X277250000Y-309250000D02*
X277200000Y-309300000D01*
D60*
X276162500Y-286000000D02*
X277737500Y-286000000D01*
D57*
X260645000Y-275300000D02*
X260645000Y-274345000D01*
D56*
X268687500Y-316000000D02*
X267200000Y-316000000D01*
D61*
X186599322Y-290199322D02*
X186600000Y-290200000D01*
D56*
X270049998Y-320900001D02*
X270299998Y-320650001D01*
X271549999Y-322949999D02*
X271600000Y-323000000D01*
D57*
X159450000Y-298750000D02*
X159200000Y-298500000D01*
D56*
X271549999Y-322050001D02*
X271549999Y-322949999D01*
D60*
X276162500Y-288050000D02*
X277737500Y-288050000D01*
D62*
X155747599Y-298750000D02*
X158950000Y-298750000D01*
D57*
X258300000Y-287800000D02*
X258200000Y-287900000D01*
D58*
X184515000Y-298700000D02*
X185350000Y-298700000D01*
D57*
X259450000Y-332000000D02*
X262600000Y-332000000D01*
X259700000Y-285300000D02*
X258300000Y-286700000D01*
D58*
X182400000Y-286014322D02*
X181300000Y-286014322D01*
D56*
X253205000Y-279800000D02*
X254800000Y-279800000D01*
D58*
X185350000Y-294814322D02*
X186100000Y-294814322D01*
D57*
X260645000Y-286800000D02*
X260645000Y-287645000D01*
D61*
X167800000Y-297200000D02*
X168850000Y-297200000D01*
D56*
X283500000Y-321000000D02*
X283700000Y-320800000D01*
D57*
X158449999Y-297749999D02*
X159200000Y-298500000D01*
X118450000Y-294000000D02*
X118450000Y-295850000D01*
X160949999Y-296750001D02*
X159200000Y-298500000D01*
D56*
X269450000Y-319050002D02*
X269450000Y-320450001D01*
D57*
X127450000Y-316750000D02*
X129150000Y-316750000D01*
D60*
X276035000Y-283850000D02*
X277610000Y-283850000D01*
D61*
X166200000Y-297200000D02*
X167800000Y-297200000D01*
D57*
X300200000Y-273750000D02*
X297350000Y-273750000D01*
D58*
X185300000Y-302900000D02*
X185900000Y-302900000D01*
D56*
X272800000Y-304700000D02*
X273200000Y-304700000D01*
X253205000Y-285300000D02*
X251300000Y-285300000D01*
D59*
X157450001Y-296750001D02*
X159200000Y-298500000D01*
D56*
X271549999Y-322050001D02*
X272650001Y-322050001D01*
D58*
X170500000Y-291100000D02*
X168700000Y-291100000D01*
D56*
X177046800Y-306112278D02*
X177046800Y-306346800D01*
D57*
X278600000Y-321850000D02*
X278600000Y-323200000D01*
D56*
X272338603Y-304700000D02*
X271400000Y-305638603D01*
X279087500Y-309387500D02*
X279100000Y-309400000D01*
X269949999Y-319050002D02*
X269949999Y-320350002D01*
D57*
X162652401Y-298750000D02*
X159450000Y-298750000D01*
D61*
X174350000Y-287214322D02*
X174350000Y-285800000D01*
D60*
X276075000Y-264950000D02*
X277580000Y-264950000D01*
D57*
X162652401Y-296249999D02*
X161450001Y-296249999D01*
X155747599Y-297749999D02*
X158449999Y-297749999D01*
D58*
X184315000Y-305100000D02*
X185250000Y-305100000D01*
D57*
X285450000Y-331025000D02*
X284025000Y-331025000D01*
D61*
X160500000Y-288700000D02*
X160550000Y-288650000D01*
D59*
X159028199Y-293750000D02*
X159078199Y-293700000D01*
D60*
X277700000Y-267000000D02*
X277650000Y-267050000D01*
D57*
X155747599Y-297250000D02*
X157950000Y-297250000D01*
X145250000Y-296500000D02*
X143700000Y-296500000D01*
D58*
X184515000Y-292514322D02*
X185400000Y-292514322D01*
D56*
X268949998Y-319050002D02*
X268949998Y-319949999D01*
D57*
X274200000Y-321850000D02*
X274200000Y-323200000D01*
D60*
X276035000Y-290150000D02*
X277610000Y-290150000D01*
X276035000Y-269150000D02*
X277610000Y-269150000D01*
D58*
X185300000Y-307400000D02*
X185900000Y-307400000D01*
D60*
X276035000Y-273350000D02*
X277610000Y-273350000D01*
D58*
X181300000Y-286014322D02*
X180600000Y-286014322D01*
D61*
X82600000Y-265600000D02*
X82700000Y-265600000D01*
D56*
X270400001Y-321400002D02*
X269650000Y-320650001D01*
D61*
X174350000Y-300650000D02*
X174350000Y-299250000D01*
X185250000Y-290199322D02*
X185650000Y-290199322D01*
D56*
X282715000Y-321000000D02*
X282715000Y-321685000D01*
X268100000Y-320400001D02*
X270049998Y-320400001D01*
D60*
X276075000Y-267050000D02*
X277650000Y-267050000D01*
D61*
X185900000Y-290214322D02*
X185885000Y-290199322D01*
D56*
X269450000Y-320450001D02*
X269650000Y-320650001D01*
D60*
X276035000Y-271250000D02*
X277610000Y-271250000D01*
D56*
X253205000Y-276800000D02*
X251600000Y-276800000D01*
D61*
X176500000Y-300600000D02*
X176500000Y-299200000D01*
X174350000Y-287214322D02*
X172614322Y-287214322D01*
X174350000Y-285800000D02*
X174350000Y-285750000D01*
D56*
X273200000Y-304700000D02*
X273800000Y-304100000D01*
X270049998Y-320400001D02*
X270299998Y-320650001D01*
D57*
X253205000Y-275300000D02*
X253205000Y-274605000D01*
X285450000Y-325750000D02*
X284050000Y-325750000D01*
D56*
X179185000Y-294914322D02*
X179126800Y-294856122D01*
D60*
X277580000Y-264950000D02*
X277600000Y-264970000D01*
D57*
X253200000Y-274600000D02*
X253205000Y-274605000D01*
X151950000Y-296550000D02*
X150500000Y-296550000D01*
X253205000Y-286800000D02*
X253205000Y-287695000D01*
X279900000Y-325700000D02*
X279950000Y-325750000D01*
D60*
X276030000Y-275450000D02*
X277605000Y-275450000D01*
D61*
X170550000Y-304500000D02*
X168850000Y-304500000D01*
D59*
X157450001Y-295047599D02*
X157450001Y-296750001D01*
D57*
X150450000Y-296500000D02*
X150500000Y-296550000D01*
X162652401Y-296750001D02*
X160949999Y-296750001D01*
X260600000Y-274300000D02*
X260645000Y-274345000D01*
D56*
X271799998Y-320900001D02*
X269900000Y-320900001D01*
D57*
X284050000Y-325750000D02*
X284000000Y-325800000D01*
D56*
%TO.N,Net-(U10-CRST)*%
X272800000Y-305200000D02*
X273900000Y-305200000D01*
X274000000Y-305100000D02*
X275300000Y-305100000D01*
X273900000Y-305200000D02*
X274000000Y-305100000D01*
D57*
%TO.N,Net-(C2-Pad2)*%
X120200000Y-288820000D02*
X124990000Y-288820000D01*
D56*
%TO.N,Net-(U1-CLK_P)*%
X134450000Y-316500000D02*
X131500000Y-316500000D01*
X131500000Y-316500000D02*
X131250000Y-316750000D01*
%TO.N,Net-(U1-CLK_N)*%
X131260000Y-314200000D02*
X131250000Y-314210000D01*
X134400000Y-314200000D02*
X131260000Y-314200000D01*
D57*
%TO.N,Net-(C5-Pad1)*%
X142450000Y-294000000D02*
X144400000Y-292050000D01*
X141450000Y-294000000D02*
X142450000Y-294000000D01*
X141450000Y-294000000D02*
X137150000Y-294000000D01*
X137150000Y-294000000D02*
X137050000Y-293900000D01*
X145150000Y-292050000D02*
X147287500Y-292050000D01*
X144400000Y-292050000D02*
X145150000Y-292050000D01*
X147287500Y-292050000D02*
X147337500Y-292100000D01*
%TO.N,Net-(C5-Pad2)*%
X140000000Y-288500000D02*
X139680000Y-288820000D01*
X141450000Y-288500000D02*
X140000000Y-288500000D01*
X143850000Y-290150000D02*
X145150000Y-290150000D01*
X141450000Y-288500000D02*
X142200000Y-288500000D01*
X145150000Y-290150000D02*
X147187500Y-290150000D01*
X139680000Y-288820000D02*
X137050000Y-288820000D01*
X147187500Y-290150000D02*
X147337500Y-290000000D01*
X142200000Y-288500000D02*
X143850000Y-290150000D01*
%TO.N,Net-(U2-VCM)*%
X151950000Y-294650000D02*
X149725000Y-294650000D01*
X153800000Y-294650000D02*
X154700000Y-293750000D01*
X149725000Y-294650000D02*
X149675000Y-294600000D01*
X154700000Y-293750000D02*
X156700000Y-293750000D01*
X156700000Y-293750000D02*
X156949999Y-293999999D01*
X151950000Y-294650000D02*
X153800000Y-294650000D01*
X156949999Y-293999999D02*
X156949999Y-295047599D01*
D56*
%TO.N,/Pulser Interface/tp_neg4*%
X227020000Y-269570000D02*
X244950000Y-287500000D01*
X227020000Y-268200000D02*
X227020000Y-269570000D01*
X244950000Y-319358000D02*
X243024000Y-321284000D01*
X244950000Y-287500000D02*
X244950000Y-319358000D01*
D57*
%TO.N,/adc/vcm*%
X140450000Y-291360000D02*
X140635000Y-291360000D01*
X147850000Y-294600000D02*
X145250000Y-294600000D01*
X140450000Y-291325000D02*
X141450000Y-290325000D01*
X140635000Y-291360000D02*
X141450000Y-292175000D01*
X142700000Y-292250000D02*
X141525000Y-292250000D01*
X141525000Y-292250000D02*
X141450000Y-292175000D01*
X137050000Y-291360000D02*
X140450000Y-291360000D01*
X143550000Y-294600000D02*
X143450000Y-294500000D01*
X140450000Y-291360000D02*
X140450000Y-291325000D01*
X145250000Y-294600000D02*
X143550000Y-294600000D01*
D56*
%TO.N,/Pulser Interface/tp_pos4*%
X241450000Y-295330000D02*
X241450000Y-318858000D01*
X214320000Y-268200000D02*
X241450000Y-295330000D01*
X241450000Y-318858000D02*
X240524000Y-319784000D01*
D57*
%TO.N,Net-(J4-In)*%
X118190000Y-288710000D02*
X118300000Y-288820000D01*
X110160000Y-288710000D02*
X118190000Y-288710000D01*
D56*
%TO.N,/adc/CSN*%
X162652401Y-297250000D02*
X163400000Y-297250000D01*
X163400000Y-297250000D02*
X163950000Y-296700000D01*
D59*
%TO.N,/adc/D6_N*%
X156880000Y-305667452D02*
X155440000Y-307107452D01*
X155000000Y-320700000D02*
X155300000Y-320700000D01*
X157540001Y-302646002D02*
X157540001Y-303133725D01*
X155300000Y-320700000D02*
X155440000Y-320560000D01*
X155440000Y-307107452D02*
X155440000Y-320000000D01*
X157450001Y-301952401D02*
X157450001Y-302556002D01*
X156880000Y-303793726D02*
X156880000Y-305667452D01*
X154324000Y-320024000D02*
X155000000Y-320700000D01*
X157450001Y-302556002D02*
X157540001Y-302646002D01*
X157540001Y-303133725D02*
X156880000Y-303793726D01*
X155440000Y-320560000D02*
X155440000Y-320000000D01*
X154324000Y-319784000D02*
X154324000Y-320024000D01*
%TO.N,/adc/D6_P*%
X157950000Y-302556002D02*
X157860000Y-302646002D01*
X157860000Y-302646002D02*
X157860000Y-303266274D01*
X157860000Y-303266274D02*
X157200000Y-303926274D01*
X155760000Y-307240000D02*
X155760000Y-320732548D01*
X155760000Y-320732548D02*
X155208548Y-321284000D01*
X157200000Y-303926274D02*
X157200000Y-305800000D01*
X157200000Y-305800000D02*
X155760000Y-307240000D01*
X157950000Y-301952401D02*
X157950000Y-302556002D01*
X155208548Y-321284000D02*
X154324000Y-321284000D01*
%TO.N,/adc/CLKOUT_P*%
X158260000Y-320600000D02*
X157576000Y-321284000D01*
X159800000Y-306900000D02*
X158260000Y-308440000D01*
X159800000Y-304226274D02*
X159800000Y-306900000D01*
X159860000Y-304166274D02*
X159800000Y-304226274D01*
X158260000Y-308440000D02*
X158260000Y-320600000D01*
X159950001Y-302556002D02*
X159860000Y-302646003D01*
X159950001Y-301952401D02*
X159950001Y-302556002D01*
X157576000Y-321284000D02*
X156824000Y-321284000D01*
X159860000Y-302646003D02*
X159860000Y-304166274D01*
%TO.N,/adc/OF_P*%
X164697838Y-316784000D02*
X164324000Y-316784000D01*
X164476274Y-299750000D02*
X162652401Y-299750000D01*
D56*
X162652401Y-299750000D02*
X162677401Y-299775000D01*
D59*
X165760000Y-315721838D02*
X165760000Y-301033726D01*
X165760000Y-315721838D02*
X164697838Y-316784000D01*
X165760000Y-301033726D02*
X164476274Y-299750000D01*
%TO.N,/adc/D8_N*%
X158449999Y-301952401D02*
X158449999Y-302556002D01*
X158041562Y-304232164D02*
X158041562Y-304781746D01*
X158449999Y-302556002D02*
X158540000Y-302646003D01*
X158041562Y-304781746D02*
X157826563Y-304996745D01*
X158540000Y-302646003D02*
X158540000Y-303733726D01*
X158540000Y-303733726D02*
X158041562Y-304232164D01*
%TO.N,/adc/D14_P*%
X163260000Y-320492548D02*
X162832548Y-320920000D01*
X162652401Y-300750001D02*
X162742401Y-300840001D01*
X163260000Y-310966274D02*
X163260000Y-320492548D01*
X165060000Y-309166274D02*
X163260000Y-310966274D01*
X164466275Y-300840001D02*
X165060000Y-301433726D01*
X162742401Y-300840001D02*
X164466275Y-300840001D01*
X162188000Y-320920000D02*
X161824000Y-321284000D01*
X162832548Y-320920000D02*
X162188000Y-320920000D01*
X165060000Y-301433726D02*
X165060000Y-309166274D01*
%TO.N,/adc/D8_P*%
X158950000Y-301952401D02*
X158950000Y-302556002D01*
X158859999Y-303866275D02*
X158361564Y-304364710D01*
X158361564Y-304781746D02*
X158576563Y-304996745D01*
X158859999Y-302646003D02*
X158859999Y-303866275D01*
X158950000Y-302556002D02*
X158859999Y-302646003D01*
X158361564Y-304364710D02*
X158361564Y-304781746D01*
%TO.N,/adc/D14_N*%
X164333727Y-301160001D02*
X164740000Y-301566274D01*
X162742400Y-301160001D02*
X164333727Y-301160001D01*
X164740000Y-309033726D02*
X162940000Y-310833726D01*
X162500000Y-320600000D02*
X161824000Y-319924000D01*
X161824000Y-319924000D02*
X161824000Y-319784000D01*
X162940000Y-320360000D02*
X162700000Y-320600000D01*
X162652401Y-301250000D02*
X162742400Y-301160001D01*
X162700000Y-320600000D02*
X162500000Y-320600000D01*
X164740000Y-301566274D02*
X164740000Y-309033726D01*
X162940000Y-310833726D02*
X162940000Y-320360000D01*
%TO.N,/adc/D2_N*%
X152540000Y-320500000D02*
X151824000Y-319784000D01*
X155143998Y-300750001D02*
X155053998Y-300840001D01*
X154080000Y-301393726D02*
X154080000Y-307767452D01*
X155053998Y-300840001D02*
X154633725Y-300840001D01*
X155747599Y-300750001D02*
X155143998Y-300750001D01*
X152940000Y-308907452D02*
X152940000Y-320300000D01*
X154080000Y-307767452D02*
X152940000Y-308907452D01*
X154633725Y-300840001D02*
X154080000Y-301393726D01*
X152940000Y-320300000D02*
X152740000Y-320500000D01*
X152740000Y-320500000D02*
X152540000Y-320500000D01*
%TO.N,/adc/D0_N*%
X152246982Y-306980210D02*
X152031983Y-307195209D01*
X155747599Y-299750000D02*
X155607200Y-299890399D01*
X153388020Y-305282906D02*
X152246982Y-306423944D01*
X154604720Y-299890399D02*
X153388020Y-301107099D01*
X155607200Y-299890399D02*
X154604720Y-299890399D01*
X153388020Y-301107099D02*
X153388020Y-305282906D01*
X152246982Y-306423944D02*
X152246982Y-306980210D01*
%TO.N,/adc/D4_P*%
X156859999Y-303166275D02*
X155960000Y-304066274D01*
X156859999Y-302646002D02*
X156859999Y-303166275D01*
X156949999Y-301952401D02*
X156949999Y-302556002D01*
X156949999Y-302556002D02*
X156859999Y-302646002D01*
X155960001Y-304500001D02*
X155960001Y-305177330D01*
X155960001Y-305177330D02*
X156175000Y-305392329D01*
X155960000Y-304066274D02*
X155960000Y-304500000D01*
X155960000Y-304500000D02*
X155960001Y-304500001D01*
D56*
%TO.N,/adc/SCK*%
X164199854Y-297303200D02*
X164196800Y-297303200D01*
X164196800Y-297303200D02*
X163750001Y-297749999D01*
X164450000Y-297350000D02*
X164246654Y-297350000D01*
X163750001Y-297749999D02*
X162652401Y-297749999D01*
X164246654Y-297350000D02*
X164199854Y-297303200D01*
D59*
%TO.N,/adc/D0_P*%
X154610066Y-300340401D02*
X153710000Y-301240467D01*
X152566984Y-306980210D02*
X152781983Y-307195209D01*
X153710000Y-301240467D02*
X153710000Y-305416274D01*
X155747599Y-300340401D02*
X154610066Y-300340401D01*
X155747599Y-300249999D02*
X155747599Y-300340401D01*
X152566984Y-306559290D02*
X152566984Y-306980210D01*
X153710000Y-305416274D02*
X152566984Y-306559290D01*
%TO.N,/adc/D10_N*%
X160418022Y-304654959D02*
X160538019Y-304774956D01*
X160085463Y-320385463D02*
X159925463Y-320385463D01*
X160538019Y-319932907D02*
X160085463Y-320385463D01*
X159925463Y-320385463D02*
X159324000Y-319784000D01*
X160538019Y-304774956D02*
X160538019Y-319932907D01*
X160450000Y-302556002D02*
X160418022Y-302587980D01*
X160418022Y-302587980D02*
X160418022Y-304654959D01*
X160450000Y-301952401D02*
X160450000Y-302556002D01*
D56*
%TO.N,/adc/SDI*%
X162652401Y-298250000D02*
X164350000Y-298250000D01*
D59*
%TO.N,/adc/D10_P*%
X160859999Y-304641588D02*
X160859999Y-320066275D01*
X159642274Y-321284000D02*
X159324000Y-321284000D01*
X160949999Y-302556002D02*
X160740001Y-302766000D01*
X160949999Y-301952401D02*
X160949999Y-302556002D01*
X160740001Y-304521590D02*
X160859999Y-304641588D01*
X160859999Y-320066275D02*
X159642274Y-321284000D01*
X160740001Y-302766000D02*
X160740001Y-304521590D01*
%TO.N,/adc/CLKOUT_N*%
X159540001Y-302646003D02*
X159540000Y-304033726D01*
X157800000Y-320600000D02*
X157640000Y-320600000D01*
X159480000Y-306767452D02*
X157940000Y-308307452D01*
X159540000Y-304033726D02*
X159480000Y-304093726D01*
X159480000Y-304093726D02*
X159480000Y-306767452D01*
X159450000Y-301952401D02*
X159450000Y-302556002D01*
X159450000Y-302556002D02*
X159540001Y-302646003D01*
X157640000Y-320600000D02*
X156824000Y-319784000D01*
X157940000Y-308307452D02*
X157940000Y-320460000D01*
X157940000Y-320460000D02*
X157800000Y-320600000D01*
%TO.N,/adc/SDO*%
X155747599Y-298250000D02*
X154550000Y-298250000D01*
X154550000Y-298250000D02*
X154400000Y-298100000D01*
%TO.N,/adc/D12_P*%
X161950000Y-301952401D02*
X161860001Y-302042400D01*
X161860002Y-304064276D02*
X162075001Y-304279275D01*
X161860001Y-303400000D02*
X161860002Y-303400001D01*
X161860001Y-302042400D02*
X161860001Y-303400000D01*
X161860002Y-303400001D02*
X161860002Y-304064276D01*
D56*
%TO.N,/adc/OF_N*%
X162652401Y-300249999D02*
X162677400Y-300225000D01*
D59*
X163220001Y-300249999D02*
X162652401Y-300249999D01*
X164324000Y-315524000D02*
X164800000Y-316000000D01*
X164324000Y-315284000D02*
X164324000Y-315524000D01*
X164800000Y-316000000D02*
X165000000Y-316000000D01*
X165440000Y-315560000D02*
X165440000Y-301166274D01*
X162652401Y-300249999D02*
X163256002Y-300249999D01*
X163400000Y-300070000D02*
X163220001Y-300249999D01*
X164343726Y-300070000D02*
X163400000Y-300070000D01*
X165000000Y-316000000D02*
X165440000Y-315560000D01*
X165440000Y-301166274D02*
X164343726Y-300070000D01*
%TO.N,/adc/D12_N*%
X161540000Y-304064276D02*
X161325001Y-304279275D01*
X161540000Y-303400001D02*
X161540000Y-304064276D01*
X161540001Y-303400000D02*
X161540000Y-303400001D01*
X161540001Y-302042401D02*
X161540001Y-303400000D01*
X161450001Y-301952401D02*
X161540001Y-302042401D01*
%TO.N,/adc/D4_N*%
X156540000Y-302646002D02*
X156540000Y-303033726D01*
X155640000Y-303933726D02*
X155640000Y-304500000D01*
X156450000Y-301952401D02*
X156450000Y-302556002D01*
X156540000Y-303033726D02*
X155640000Y-303933726D01*
X155639999Y-304500001D02*
X155639999Y-305177330D01*
X155639999Y-305177330D02*
X155425000Y-305392329D01*
X155640000Y-304500000D02*
X155639999Y-304500001D01*
X156450000Y-302556002D02*
X156540000Y-302646002D01*
%TO.N,/adc/D2_P*%
X154400000Y-301526274D02*
X154400000Y-307900000D01*
X155747599Y-301250000D02*
X155143998Y-301250000D01*
X155053998Y-301160000D02*
X154766274Y-301160000D01*
X155143998Y-301250000D02*
X155053998Y-301160000D01*
X153260000Y-320500000D02*
X152476000Y-321284000D01*
X152476000Y-321284000D02*
X151824000Y-321284000D01*
X153260000Y-309040000D02*
X153260000Y-320500000D01*
X154766274Y-301160000D02*
X154400000Y-301526274D01*
X154400000Y-307900000D02*
X153260000Y-309040000D01*
D56*
%TO.N,/Pulser Interface/tp_pos1*%
X239450000Y-319858000D02*
X239450000Y-300950000D01*
X239450000Y-300950000D02*
X206700000Y-268200000D01*
X238024000Y-321284000D02*
X239450000Y-319858000D01*
%TO.N,/Pulser Interface/tp_neg0*%
X241950000Y-319858000D02*
X240524000Y-321284000D01*
X216860000Y-268200000D02*
X241950000Y-293290000D01*
X241950000Y-293290000D02*
X241950000Y-319858000D01*
%TO.N,/Pulser Interface/tp_neg3*%
X224480000Y-268200000D02*
X224480000Y-269530000D01*
X244200000Y-289250000D02*
X244200000Y-318608000D01*
X224480000Y-269530000D02*
X244200000Y-289250000D01*
X244200000Y-318608000D02*
X243024000Y-319784000D01*
%TO.N,/Pulser Interface/tp_pos0*%
X238950000Y-303000000D02*
X238950000Y-318858000D01*
X204160000Y-268200000D02*
X204160000Y-268210000D01*
X204160000Y-268210000D02*
X238950000Y-303000000D01*
X238950000Y-318858000D02*
X238024000Y-319784000D01*
D57*
%TO.N,+3.3V*%
X254895000Y-306195000D02*
X254600000Y-305900000D01*
X260645000Y-278300000D02*
X258300000Y-278300000D01*
D56*
X254400000Y-296500000D02*
X255900000Y-296500000D01*
D57*
X260645000Y-283800000D02*
X258300000Y-283800000D01*
D63*
X185650000Y-288114322D02*
X185700000Y-288114322D01*
D56*
X254445000Y-299500000D02*
X256000000Y-299500000D01*
D63*
X184000200Y-300800000D02*
X185700000Y-300800000D01*
D61*
X182300000Y-298700000D02*
X180700000Y-298700000D01*
D57*
X129400000Y-311670000D02*
X127450000Y-311670000D01*
D63*
X183950200Y-288114322D02*
X185650000Y-288114322D01*
D57*
X131250000Y-311670000D02*
X129400000Y-311670000D01*
X256913800Y-306195000D02*
X254895000Y-306195000D01*
D56*
X262650000Y-305350000D02*
X262600000Y-305400000D01*
D63*
X184350200Y-286114322D02*
X186100000Y-286114322D01*
D56*
X263900000Y-305350000D02*
X262650000Y-305350000D01*
D57*
%TO.N,+1.8V*%
X253205000Y-278300000D02*
X255400000Y-278300000D01*
X255400000Y-278300000D02*
X255500000Y-278300000D01*
D56*
X163849999Y-299250001D02*
X164000000Y-299100000D01*
X155747599Y-299250001D02*
X153950001Y-299250001D01*
X162652401Y-299250001D02*
X163849999Y-299250001D01*
D57*
X164000000Y-299100000D02*
X166200000Y-299100000D01*
D61*
X166200000Y-299100000D02*
X167800000Y-299100000D01*
D57*
X253205000Y-283800000D02*
X255500000Y-283800000D01*
D56*
X166049999Y-299250001D02*
X166200000Y-299100000D01*
D61*
X167800000Y-299100000D02*
X168800000Y-299100000D01*
D56*
X153950001Y-299250001D02*
X153850000Y-299150000D01*
%TO.N,Net-(U3-NR{slash}SS)*%
X182300000Y-294799322D02*
X180785000Y-294799322D01*
X179185000Y-293914322D02*
X179900000Y-293914322D01*
X179900000Y-293914322D02*
X180785000Y-294799322D01*
%TO.N,Net-(U3-FB)*%
X175815000Y-293914322D02*
X175050000Y-293914322D01*
X175050000Y-293914322D02*
X173885000Y-295079322D01*
X172600000Y-295079322D02*
X173885000Y-295079322D01*
%TO.N,Net-(U5-NR{slash}SS)*%
X180900000Y-307400000D02*
X182300000Y-307400000D01*
X179185000Y-306800000D02*
X180300000Y-306800000D01*
X180300000Y-306800000D02*
X180900000Y-307400000D01*
%TO.N,Net-(U5-FB)*%
X175815000Y-306800000D02*
X175000000Y-306800000D01*
X175000000Y-306800000D02*
X173500000Y-308300000D01*
X172300000Y-308300000D02*
X173500000Y-308300000D01*
%TO.N,+5.0V*%
X272800000Y-306700000D02*
X272800000Y-308700000D01*
D57*
X282715000Y-316215000D02*
X282715000Y-319500000D01*
D56*
X284525000Y-307900000D02*
X284525000Y-305100000D01*
D64*
X283800000Y-316100000D02*
X284525000Y-315375000D01*
D56*
X273100000Y-316600000D02*
X273100000Y-318700000D01*
X282700000Y-316100000D02*
X282700000Y-316200000D01*
X282700000Y-316200000D02*
X282715000Y-316215000D01*
D64*
X282700000Y-316100000D02*
X283800000Y-316100000D01*
D56*
X272800000Y-308700000D02*
X272900000Y-308800000D01*
X273100000Y-318700000D02*
X274200000Y-318700000D01*
X274200000Y-318700000D02*
X274200000Y-319950000D01*
D64*
X284525000Y-315375000D02*
X284525000Y-307900000D01*
D56*
%TO.N,Net-(U4-VSET_MODE)*%
X270449998Y-319050002D02*
X270449998Y-316062502D01*
X270449998Y-316062502D02*
X270512500Y-316000000D01*
%TO.N,/Relay Board Interface/spare4*%
X229450000Y-296250000D02*
X229450000Y-313858000D01*
X229450000Y-313858000D02*
X228024000Y-315284000D01*
X204700000Y-271500000D02*
X229450000Y-296250000D01*
X138100000Y-271500000D02*
X204700000Y-271500000D01*
X134100000Y-267500000D02*
X138100000Y-271500000D01*
%TO.N,/Relay Board Interface/faultn*%
X248900000Y-296550000D02*
X248900000Y-299500000D01*
X248900000Y-296550000D02*
X246550000Y-296550000D01*
X246500000Y-294100000D02*
X246500000Y-296500000D01*
X246550000Y-296550000D02*
X246500000Y-296500000D01*
X246500000Y-296500000D02*
X246400000Y-296400000D01*
X248100000Y-292500000D02*
X246500000Y-294100000D01*
%TO.N,/Relay Board Interface/spare3*%
X203700000Y-272000000D02*
X226950000Y-295250000D01*
X226950000Y-295250000D02*
X226950000Y-319858000D01*
X226950000Y-319858000D02*
X225524000Y-321284000D01*
X131560000Y-267500000D02*
X136060000Y-272000000D01*
X136060000Y-272000000D02*
X203700000Y-272000000D01*
%TO.N,/Relay Board Interface/spare0*%
X226550000Y-296350000D02*
X226550000Y-314258000D01*
X129940000Y-273500000D02*
X203700000Y-273500000D01*
X226550000Y-314258000D02*
X225524000Y-315284000D01*
X203700000Y-273500000D02*
X226550000Y-296350000D01*
X123940000Y-267500000D02*
X129940000Y-273500000D01*
%TO.N,/Relay Board Interface/keylock*%
X203200000Y-274000000D02*
X224450000Y-295250000D01*
X121400000Y-267500000D02*
X127900000Y-274000000D01*
X127900000Y-274000000D02*
X203200000Y-274000000D01*
X223700000Y-321250000D02*
X223058000Y-321250000D01*
X223058000Y-321250000D02*
X223024000Y-321284000D01*
X224450000Y-320500000D02*
X223700000Y-321250000D01*
X224450000Y-295250000D02*
X224450000Y-320500000D01*
%TO.N,Net-(U6-DVDT)*%
X285200000Y-321000000D02*
X284685000Y-321000000D01*
X285450000Y-321250000D02*
X285200000Y-321000000D01*
X285450000Y-323850000D02*
X285450000Y-321250000D01*
%TO.N,Net-(D1-K)*%
X282650000Y-314175000D02*
X282700000Y-314225000D01*
X280100000Y-314175000D02*
X282650000Y-314175000D01*
D60*
%TO.N,Net-(D2-A)*%
X272240000Y-264950000D02*
X274200000Y-264950000D01*
%TO.N,Net-(D3-A)*%
X272250000Y-267050000D02*
X274200000Y-267050000D01*
%TO.N,Net-(D4-A)*%
X272250000Y-269150000D02*
X274200000Y-269150000D01*
%TO.N,Net-(D5-A)*%
X272250000Y-271250000D02*
X274200000Y-271250000D01*
%TO.N,Net-(D6-A)*%
X272250000Y-273350000D02*
X274200000Y-273350000D01*
%TO.N,Net-(D7-A)*%
X272250000Y-275450000D02*
X274200000Y-275450000D01*
%TO.N,Net-(D8-A)*%
X272250000Y-277550000D02*
X274200000Y-277550000D01*
%TO.N,Net-(D9-A)*%
X272250000Y-279650000D02*
X274200000Y-279650000D01*
%TO.N,Net-(D10-A)*%
X272250000Y-281750000D02*
X274200000Y-281750000D01*
%TO.N,Net-(D11-A)*%
X272250000Y-283850000D02*
X274200000Y-283850000D01*
%TO.N,Net-(D12-A)*%
X272250000Y-285950000D02*
X274200000Y-285950000D01*
%TO.N,Net-(D13-A)*%
X272250000Y-288050000D02*
X274200000Y-288050000D01*
D56*
%TO.N,Net-(D14-A)*%
X272250000Y-290150000D02*
X274200000Y-290150000D01*
D60*
%TO.N,Net-(D15-A)*%
X272250000Y-292250000D02*
X274200000Y-292250000D01*
%TO.N,Net-(D16-A)*%
X272250000Y-294350000D02*
X274200000Y-294350000D01*
%TO.N,Net-(D17-A)*%
X272250000Y-296450000D02*
X274200000Y-296450000D01*
D56*
%TO.N,/Fault LED's/fault_led4*%
X253205000Y-278800000D02*
X250750000Y-278800000D01*
X247450000Y-278750000D02*
X247500000Y-278800000D01*
X250750000Y-278800000D02*
X250450000Y-278500000D01*
X249581371Y-278500000D02*
X249281371Y-278800000D01*
X250450000Y-278500000D02*
X249581371Y-278500000D01*
X249281371Y-278800000D02*
X247500000Y-278800000D01*
%TO.N,/Fault LED's/fault_led3*%
X249150000Y-277800000D02*
X248950000Y-278000000D01*
X253205000Y-277800000D02*
X249150000Y-277800000D01*
%TO.N,/Fault LED's/fault_led15*%
X253205000Y-286300000D02*
X251900000Y-286300000D01*
X251900000Y-286300000D02*
X250700000Y-287500000D01*
%TO.N,/Fault LED's/fault_led9*%
X251400000Y-281800000D02*
X250950000Y-282250000D01*
X253205000Y-281800000D02*
X251400000Y-281800000D01*
%TO.N,/Fault LED's/fault_led12*%
X250200000Y-284500000D02*
X247950000Y-284500000D01*
X250400000Y-284300000D02*
X250200000Y-284500000D01*
X253205000Y-284300000D02*
X250400000Y-284300000D01*
X247950000Y-284500000D02*
X246950000Y-285500000D01*
%TO.N,/Fault LED's/fault_led10*%
X251439097Y-282896800D02*
X251535897Y-282800000D01*
X251535897Y-282800000D02*
X253205000Y-282800000D01*
X251273646Y-283053200D02*
X251430047Y-282896800D01*
X251430047Y-282896800D02*
X251439097Y-282896800D01*
X246046800Y-283050000D02*
X250614103Y-283050000D01*
X245900000Y-283196800D02*
X246046800Y-283050000D01*
X250614103Y-283050000D02*
X250617303Y-283053200D01*
X250617303Y-283053200D02*
X251273646Y-283053200D01*
%TO.N,/Fault LED's/fault_led1*%
X252000000Y-276300000D02*
X253205000Y-276300000D01*
X250150000Y-276200000D02*
X251900000Y-276200000D01*
X249200000Y-275250000D02*
X250150000Y-276200000D01*
X251900000Y-276200000D02*
X252000000Y-276300000D01*
X248200000Y-275250000D02*
X249200000Y-275250000D01*
%TO.N,/Fault LED's/fault_led7*%
X253205000Y-280800000D02*
X249900000Y-280800000D01*
X249900000Y-280800000D02*
X249450000Y-281250000D01*
%TO.N,/Fault LED's/fault_led14*%
X250375000Y-286075000D02*
X249700000Y-286750000D01*
X250375000Y-286075000D02*
X251525000Y-286075000D01*
X251525000Y-286075000D02*
X251800000Y-285800000D01*
X253205000Y-285800000D02*
X251800000Y-285800000D01*
%TO.N,/Fault LED's/fault_led6*%
X249000000Y-280300000D02*
X248700000Y-280000000D01*
X253205000Y-280300000D02*
X249000000Y-280300000D01*
%TO.N,/Fault LED's/fault_led5*%
X253205000Y-279300000D02*
X250150000Y-279300000D01*
X250150000Y-279300000D02*
X249950000Y-279500000D01*
%TO.N,/Fault LED's/fault_led13*%
X249450000Y-285000000D02*
X250265686Y-285000000D01*
X250265686Y-285000000D02*
X250565686Y-284700000D01*
X252200000Y-284800000D02*
X253205000Y-284800000D01*
X250565686Y-284700000D02*
X252100000Y-284700000D01*
X252100000Y-284700000D02*
X252200000Y-284800000D01*
X248450000Y-286000000D02*
X249450000Y-285000000D01*
%TO.N,/Fault LED's/fault_led8*%
X249781371Y-282050000D02*
X248000000Y-282050000D01*
X248000000Y-282050000D02*
X247700000Y-281750000D01*
X250531371Y-281300000D02*
X249781371Y-282050000D01*
X253205000Y-281300000D02*
X250531371Y-281300000D01*
%TO.N,/Fault LED's/fault_led2*%
X252200000Y-277300000D02*
X253205000Y-277300000D01*
X249600000Y-277400000D02*
X252100000Y-277400000D01*
X252100000Y-277400000D02*
X252200000Y-277300000D01*
X248950000Y-276750000D02*
X249600000Y-277400000D01*
%TO.N,/Fault LED's/fault_led11*%
X247200000Y-284000000D02*
X247700000Y-283500000D01*
X251597057Y-283300000D02*
X253205000Y-283300000D01*
X247700000Y-283500000D02*
X251397057Y-283500000D01*
X251397057Y-283500000D02*
X251597057Y-283300000D01*
%TO.N,/Fault LED's/fault_led0*%
X250750000Y-275800000D02*
X248950000Y-274000000D01*
X253205000Y-275800000D02*
X250750000Y-275800000D01*
%TO.N,/Regulators/afe_pwrenb*%
X286900000Y-326500000D02*
X286900000Y-322100000D01*
X286900000Y-322100000D02*
X285300000Y-320500000D01*
X285450000Y-329200000D02*
X287000000Y-329200000D01*
X285300000Y-320500000D02*
X284685000Y-320500000D01*
X285450000Y-327950000D02*
X286900000Y-326500000D01*
X285450000Y-329200000D02*
X285450000Y-327950000D01*
%TO.N,/Regulators/PG*%
X273100000Y-314775000D02*
X274225000Y-314775000D01*
X271700000Y-315100000D02*
X272025000Y-314775000D01*
X274400000Y-314600000D02*
X275762500Y-314600000D01*
X272025000Y-314775000D02*
X273100000Y-314775000D01*
X274225000Y-314775000D02*
X274400000Y-314600000D01*
X270950000Y-319050002D02*
X270950000Y-317850000D01*
X270950000Y-317850000D02*
X271700000Y-317100000D01*
X271700000Y-317100000D02*
X271700000Y-315100000D01*
%TO.N,Net-(Q1-D)*%
X279500000Y-316000000D02*
X280100000Y-316000000D01*
X278750000Y-315250000D02*
X279500000Y-316000000D01*
X277637500Y-315250000D02*
X278750000Y-315250000D01*
%TO.N,Net-(U6-ILM)*%
X281450000Y-320850000D02*
X281450000Y-323925000D01*
X282715000Y-320500000D02*
X281800000Y-320500000D01*
X281800000Y-320500000D02*
X281450000Y-320850000D01*
D60*
%TO.N,Net-(U7-1A1)*%
X263150000Y-270920000D02*
X269120000Y-264950000D01*
X260645000Y-275800000D02*
X262050000Y-275800000D01*
X262050000Y-275800000D02*
X263150000Y-274700000D01*
X263150000Y-274700000D02*
X263150000Y-270920000D01*
X269120000Y-264950000D02*
X270415000Y-264950000D01*
%TO.N,Net-(U7-1A2)*%
X268660000Y-267050000D02*
X270425000Y-267050000D01*
X262052894Y-276300000D02*
X263655600Y-274697294D01*
X263655600Y-274697294D02*
X263655600Y-272054400D01*
X263655600Y-272054400D02*
X268660000Y-267050000D01*
X260645000Y-276300000D02*
X262052894Y-276300000D01*
D56*
%TO.N,Net-(U7-1A3)*%
X262642286Y-277300000D02*
X267300000Y-272642286D01*
X260645000Y-277300000D02*
X262642286Y-277300000D01*
X267300000Y-272642286D02*
X267300000Y-270500000D01*
X267300000Y-270500000D02*
X268650000Y-269150000D01*
D60*
X268650000Y-269150000D02*
X270425000Y-269150000D01*
D56*
%TO.N,Net-(U7-1A4)*%
X260645000Y-277800000D02*
X262707972Y-277800000D01*
X262707972Y-277800000D02*
X269257972Y-271250000D01*
X269257972Y-271250000D02*
X270425000Y-271250000D01*
D60*
%TO.N,Net-(U7-1A5)*%
X267690000Y-273350000D02*
X270425000Y-273350000D01*
X262240000Y-278800000D02*
X267690000Y-273350000D01*
X260645000Y-278800000D02*
X262240000Y-278800000D01*
%TO.N,Net-(U7-1A6)*%
X266360000Y-275450000D02*
X262510000Y-279300000D01*
X262510000Y-279300000D02*
X260645000Y-279300000D01*
X270425000Y-275450000D02*
X266360000Y-275450000D01*
%TO.N,Net-(U7-1A7)*%
X263730000Y-280300000D02*
X266480000Y-277550000D01*
X260645000Y-280300000D02*
X263730000Y-280300000D01*
X266480000Y-277550000D02*
X270425000Y-277550000D01*
%TO.N,Net-(U7-1A8)*%
X266000000Y-279650000D02*
X270425000Y-279650000D01*
X265980000Y-279630000D02*
X266000000Y-279650000D01*
X260645000Y-280800000D02*
X264810000Y-280800000D01*
X264810000Y-280800000D02*
X265980000Y-279630000D01*
%TO.N,Net-(U7-2A1)*%
X270425000Y-281750000D02*
X265220000Y-281750000D01*
X265220000Y-281750000D02*
X264770000Y-281300000D01*
X264770000Y-281300000D02*
X260645000Y-281300000D01*
%TO.N,Net-(U7-2A2)*%
X264450000Y-281800000D02*
X266500000Y-283850000D01*
X266500000Y-283850000D02*
X270425000Y-283850000D01*
X260645000Y-281800000D02*
X264450000Y-281800000D01*
%TO.N,Net-(U7-2A3)*%
X263980000Y-282800000D02*
X267130000Y-285950000D01*
X267130000Y-285950000D02*
X270425000Y-285950000D01*
X260645000Y-282800000D02*
X263980000Y-282800000D01*
%TO.N,Net-(U7-2A4)*%
X267820000Y-288050000D02*
X270425000Y-288050000D01*
X260645000Y-283300000D02*
X263070000Y-283300000D01*
X263070000Y-283300000D02*
X267820000Y-288050000D01*
%TO.N,Net-(U7-2A5)*%
X267870000Y-290150000D02*
X270425000Y-290150000D01*
X260645000Y-284300000D02*
X262020000Y-284300000D01*
X262020000Y-284300000D02*
X267870000Y-290150000D01*
%TO.N,Net-(U7-2A6)*%
X260645000Y-284800000D02*
X261445600Y-284800000D01*
X261445600Y-284800000D02*
X268895600Y-292250000D01*
X268895600Y-292250000D02*
X270425000Y-292250000D01*
%TO.N,Net-(U7-2A7)*%
X267570000Y-294350000D02*
X270425000Y-294350000D01*
X265140000Y-291920000D02*
X267570000Y-294350000D01*
X261850000Y-285800000D02*
X265140000Y-289090000D01*
X260645000Y-285800000D02*
X261850000Y-285800000D01*
X265140000Y-289090000D02*
X265140000Y-291920000D01*
%TO.N,Net-(U7-2A8)*%
X263750000Y-291710000D02*
X268490000Y-296450000D01*
X263750000Y-288300000D02*
X263750000Y-291710000D01*
X268490000Y-296450000D02*
X270425000Y-296450000D01*
X261750000Y-286300000D02*
X263750000Y-288300000D01*
X260645000Y-286300000D02*
X261750000Y-286300000D01*
D56*
%TO.N,/EEPROM/wpn*%
X249300000Y-308800000D02*
X249365000Y-308735000D01*
X251986200Y-308735000D02*
X249365000Y-308735000D01*
%TO.N,/EEPROM/sck*%
X256913800Y-308735000D02*
X258835000Y-308735000D01*
X258835000Y-308735000D02*
X258900000Y-308800000D01*
%TO.N,/EEPROM/holdn*%
X258965000Y-307465000D02*
X259000000Y-307500000D01*
X256913800Y-307465000D02*
X258965000Y-307465000D01*
%TO.N,/EEPROM/sdi*%
X236100000Y-311500000D02*
X234500000Y-313100000D01*
X236800000Y-311500000D02*
X236100000Y-311500000D01*
X233024000Y-316784000D02*
X233024000Y-316676000D01*
X256913800Y-310005000D02*
X258995000Y-310005000D01*
X258995000Y-310005000D02*
X259000000Y-310000000D01*
X233024000Y-316676000D02*
X234500000Y-315200000D01*
X234500000Y-313100000D02*
X234500000Y-315200000D01*
%TO.N,/EEPROM/sdo*%
X251986200Y-307465000D02*
X249465000Y-307465000D01*
X231900000Y-311600000D02*
X231900000Y-319908000D01*
X237300000Y-309200000D02*
X235800000Y-310700000D01*
X232800000Y-310700000D02*
X231900000Y-311600000D01*
X231900000Y-319908000D02*
X230524000Y-321284000D01*
X249465000Y-307465000D02*
X249450000Y-307450000D01*
X249450000Y-307450000D02*
X249400000Y-307400000D01*
X235800000Y-310700000D02*
X232800000Y-310700000D01*
%TO.N,/EEPROM/csn*%
X249395000Y-306195000D02*
X249300000Y-306100000D01*
X251986200Y-306195000D02*
X249395000Y-306195000D01*
D59*
%TO.N,/adc/ADC_CLK_P*%
X155053997Y-296660000D02*
X154766274Y-296660000D01*
X137314999Y-315535001D02*
X136350000Y-316500000D01*
X140110000Y-311316274D02*
X140110000Y-313816274D01*
X155143998Y-296750001D02*
X155053997Y-296660000D01*
X138391273Y-315535001D02*
X137314999Y-315535001D01*
X154766274Y-296660000D02*
X140110000Y-311316274D01*
X155747599Y-296750001D02*
X155143998Y-296750001D01*
X140110000Y-313816274D02*
X138391273Y-315535001D01*
%TO.N,/adc/ADC_CLK_N*%
X137314999Y-315214999D02*
X136300000Y-314200000D01*
X155053997Y-296340000D02*
X154633726Y-296340000D01*
X155143998Y-296249999D02*
X155053997Y-296340000D01*
X138258727Y-315214999D02*
X137314999Y-315214999D01*
X139790000Y-313683726D02*
X138258727Y-315214999D01*
X139790000Y-311183726D02*
X139790000Y-313683726D01*
X155747599Y-296249999D02*
X155143998Y-296249999D01*
X154633726Y-296340000D02*
X139790000Y-311183726D01*
D56*
%TO.N,/adc/AIN_N*%
X151450000Y-291912500D02*
X152500001Y-291912500D01*
D57*
X149162500Y-292100000D02*
X151262500Y-292100000D01*
D56*
X157975000Y-293343198D02*
X157975000Y-294418998D01*
X153187501Y-291225000D02*
X155856802Y-291225000D01*
X152500001Y-291912500D02*
X153187501Y-291225000D01*
D57*
X151262500Y-292100000D02*
X151450000Y-291912500D01*
D56*
X157950000Y-294443998D02*
X157950000Y-295047599D01*
X155856802Y-291225000D02*
X157975000Y-293343198D01*
X157975000Y-294418998D02*
X157950000Y-294443998D01*
%TO.N,/adc/AIN_P*%
X158424999Y-293156801D02*
X158424999Y-294418998D01*
X158449999Y-294443998D02*
X158449999Y-295047599D01*
X158424999Y-294418998D02*
X158449999Y-294443998D01*
X151450000Y-290087500D02*
X152500001Y-290087500D01*
D57*
X151362500Y-290000000D02*
X151450000Y-290087500D01*
D56*
X152500001Y-290087500D02*
X153187501Y-290775000D01*
D57*
X149162500Y-290000000D02*
X151362500Y-290000000D01*
D56*
X156043198Y-290775000D02*
X158424999Y-293156801D01*
X153187501Y-290775000D02*
X156043198Y-290775000D01*
D57*
%TO.N,Net-(C40-Pad2)*%
X120350000Y-294000000D02*
X124890000Y-294000000D01*
X124890000Y-294000000D02*
X124990000Y-293900000D01*
D56*
%TO.N,Net-(U10-CWD)*%
X272800000Y-306200000D02*
X273200000Y-306200000D01*
X273900000Y-307400000D02*
X274400000Y-307900000D01*
X274400000Y-307900000D02*
X275350000Y-307900000D01*
X273200000Y-306200000D02*
X273900000Y-306900000D01*
X273900000Y-306900000D02*
X273900000Y-307400000D01*
%TO.N,/Relay Board Interface/wdi*%
X270000000Y-305200000D02*
X269300000Y-305200000D01*
X269300000Y-305200000D02*
X268800000Y-304700000D01*
%TO.N,Net-(U10-SET0)*%
X280500000Y-306500000D02*
X280912500Y-306912500D01*
X274200000Y-306500000D02*
X280500000Y-306500000D01*
X280912500Y-307900000D02*
X282700000Y-307900000D01*
X272800000Y-305700000D02*
X273400000Y-305700000D01*
X280912500Y-306912500D02*
X280912500Y-307900000D01*
X273400000Y-305700000D02*
X274200000Y-306500000D01*
%TO.N,Net-(U10-SENSE)*%
X265725000Y-305350000D02*
X266650000Y-305350000D01*
X265725000Y-305350000D02*
X265725000Y-306375000D01*
X263900000Y-307200000D02*
X263900000Y-308300000D01*
X265300000Y-306800000D02*
X264300000Y-306800000D01*
X266650000Y-305350000D02*
X268000000Y-306700000D01*
X268000000Y-306700000D02*
X270000000Y-306700000D01*
X264300000Y-306800000D02*
X263900000Y-307200000D01*
X265725000Y-306375000D02*
X265300000Y-306800000D01*
%TO.N,Net-(U10-SET1)*%
X280812500Y-303912500D02*
X280200000Y-303300000D01*
X280812500Y-305100000D02*
X280812500Y-303912500D01*
X280200000Y-303300000D02*
X270000000Y-303300000D01*
X280812500Y-305100000D02*
X282700000Y-305100000D01*
X270000000Y-303300000D02*
X270000000Y-304700000D01*
%TO.N,Net-(U10-RESET)*%
X266900000Y-302000000D02*
X265900000Y-301000000D01*
X265900000Y-301000000D02*
X252900000Y-301000000D01*
X252600000Y-300700000D02*
X252620000Y-300680000D01*
X252900000Y-301000000D02*
X252600000Y-300700000D01*
X266900000Y-305034315D02*
X266900000Y-302000000D01*
X252620000Y-300680000D02*
X252620000Y-299500000D01*
X268065686Y-306200000D02*
X266900000Y-305034315D01*
X270000000Y-306200000D02*
X268065686Y-306200000D01*
X250725000Y-299500000D02*
X252620000Y-299500000D01*
%TO.N,Net-(U10-WDO)*%
X252525000Y-296550000D02*
X252575000Y-296500000D01*
X267900000Y-305200000D02*
X268400000Y-305700000D01*
X252575000Y-297575000D02*
X252800000Y-297800000D01*
X263800000Y-297800000D02*
X267900000Y-301900000D01*
X252575000Y-296500000D02*
X252575000Y-297575000D01*
X267900000Y-301900000D02*
X267900000Y-305200000D01*
X252800000Y-297800000D02*
X263800000Y-297800000D01*
X268400000Y-305700000D02*
X270000000Y-305700000D01*
X250725000Y-296550000D02*
X252525000Y-296550000D01*
%TD*%
%TA.AperFunction,Conductor*%
%TO.N,+5.0V*%
G36*
X283043039Y-318294687D02*
G01*
X283088794Y-318347491D01*
X283100000Y-318399002D01*
X283100000Y-319281867D01*
X283083483Y-319338114D01*
X283083902Y-319338324D01*
X283082739Y-319340648D01*
X283080315Y-319348906D01*
X283077308Y-319351511D01*
X283060245Y-319385636D01*
X283057162Y-319392388D01*
X283057150Y-319392417D01*
X283054218Y-319398840D01*
X283053675Y-319400150D01*
X283048559Y-319413853D01*
X283048335Y-319414524D01*
X283048331Y-319414535D01*
X283047560Y-319416847D01*
X283047557Y-319416859D01*
X283039663Y-319448934D01*
X283039328Y-319450578D01*
X283039183Y-319451383D01*
X283038712Y-319453736D01*
X283038665Y-319453928D01*
X283038627Y-319454160D01*
X283038182Y-319456386D01*
X283038169Y-319456409D01*
X283038093Y-319456828D01*
X283037660Y-319458948D01*
X283037152Y-319462080D01*
X283037152Y-319462086D01*
X283034500Y-319494992D01*
X283034500Y-319550500D01*
X283014815Y-319617539D01*
X282962011Y-319663294D01*
X282910500Y-319674500D01*
X282473430Y-319674500D01*
X282422954Y-319684540D01*
X282405826Y-319687947D01*
X282405825Y-319687947D01*
X282405822Y-319687948D01*
X282399512Y-319690562D01*
X282352062Y-319700000D01*
X281899999Y-319700000D01*
X280986318Y-320613682D01*
X280924995Y-320647167D01*
X280898637Y-320650001D01*
X272361427Y-320650001D01*
X272294388Y-320630316D01*
X272292535Y-320629102D01*
X272228230Y-320586133D01*
X272228228Y-320586132D01*
X272169751Y-320574501D01*
X272169747Y-320574501D01*
X271675862Y-320574501D01*
X271608823Y-320554816D01*
X271588181Y-320538182D01*
X271336319Y-320286320D01*
X271302834Y-320224997D01*
X271300000Y-320198639D01*
X271300000Y-318399002D01*
X271319685Y-318331963D01*
X271372489Y-318286208D01*
X271424000Y-318275002D01*
X282976000Y-318275002D01*
X283043039Y-318294687D01*
G37*
%TD.AperFunction*%
%TD*%
%TA.AperFunction,Conductor*%
%TO.N,+3.3V*%
G36*
X271021825Y-322418982D02*
G01*
X271048921Y-322423349D01*
X271054872Y-322428685D01*
X271062539Y-322430937D01*
X271080504Y-322451670D01*
X271100940Y-322469995D01*
X271105561Y-322480587D01*
X271108294Y-322483741D01*
X271109643Y-322489942D01*
X271115054Y-322502344D01*
X271119499Y-322518496D01*
X271119500Y-322550001D01*
X271131031Y-322617868D01*
X271159187Y-322662681D01*
X271164032Y-322680282D01*
X271162844Y-322750142D01*
X271151866Y-322775188D01*
X271133610Y-322806809D01*
X271133608Y-322806814D01*
X271099500Y-322934108D01*
X271099500Y-323065892D01*
X271133608Y-323193186D01*
X271183387Y-323279406D01*
X271200000Y-323341405D01*
X271200000Y-325676000D01*
X271180315Y-325743039D01*
X271127511Y-325788794D01*
X271076000Y-325800000D01*
X260224000Y-325800000D01*
X260156961Y-325780315D01*
X260111206Y-325727511D01*
X260100000Y-325676000D01*
X260100000Y-323985023D01*
X260119685Y-323917984D01*
X260172489Y-323872229D01*
X260241647Y-323862285D01*
X260305203Y-323891310D01*
X260311681Y-323897342D01*
X260356654Y-323942315D01*
X260505875Y-324034356D01*
X260505880Y-324034358D01*
X260672302Y-324089505D01*
X260672309Y-324089506D01*
X260775019Y-324099999D01*
X261049999Y-324099999D01*
X261550000Y-324099999D01*
X261824972Y-324099999D01*
X261824986Y-324099998D01*
X261927697Y-324089505D01*
X262094119Y-324034358D01*
X262094124Y-324034356D01*
X262243345Y-323942315D01*
X262362319Y-323823342D01*
X262423642Y-323789857D01*
X262493334Y-323794841D01*
X262537681Y-323823342D01*
X262656654Y-323942315D01*
X262805875Y-324034356D01*
X262805880Y-324034358D01*
X262972302Y-324089505D01*
X262972309Y-324089506D01*
X263075019Y-324099999D01*
X263349999Y-324099999D01*
X263850000Y-324099999D01*
X264124972Y-324099999D01*
X264124986Y-324099998D01*
X264227697Y-324089505D01*
X264394119Y-324034358D01*
X264394124Y-324034356D01*
X264543345Y-323942315D01*
X264662319Y-323823342D01*
X264723642Y-323789857D01*
X264793334Y-323794841D01*
X264837681Y-323823342D01*
X264956654Y-323942315D01*
X265105875Y-324034356D01*
X265105880Y-324034358D01*
X265272302Y-324089505D01*
X265272309Y-324089506D01*
X265375019Y-324099999D01*
X265649999Y-324099999D01*
X266150000Y-324099999D01*
X266424972Y-324099999D01*
X266424986Y-324099998D01*
X266527697Y-324089505D01*
X266694119Y-324034358D01*
X266694124Y-324034356D01*
X266843345Y-323942315D01*
X266967315Y-323818345D01*
X267059356Y-323669124D01*
X267059358Y-323669119D01*
X267114505Y-323502697D01*
X267114506Y-323502690D01*
X267124999Y-323399986D01*
X267125000Y-323399973D01*
X267125000Y-323350000D01*
X266150000Y-323350000D01*
X266150000Y-324099999D01*
X265649999Y-324099999D01*
X265650000Y-324099998D01*
X265650000Y-323350000D01*
X263850000Y-323350000D01*
X263850000Y-324099999D01*
X263349999Y-324099999D01*
X263350000Y-324099998D01*
X263350000Y-323350000D01*
X261550000Y-323350000D01*
X261550000Y-324099999D01*
X261049999Y-324099999D01*
X261050000Y-324099998D01*
X261050000Y-323224000D01*
X261069685Y-323156961D01*
X261122489Y-323111206D01*
X261174000Y-323100000D01*
X261300000Y-323100000D01*
X261300000Y-322974000D01*
X261319685Y-322906961D01*
X261372489Y-322861206D01*
X261424000Y-322850000D01*
X267124999Y-322850000D01*
X267124999Y-322800028D01*
X267124998Y-322800013D01*
X267114505Y-322697302D01*
X267073732Y-322574256D01*
X267071330Y-322504428D01*
X267107062Y-322444386D01*
X267169582Y-322413193D01*
X267191438Y-322411252D01*
X270995500Y-322411252D01*
X271021825Y-322418982D01*
G37*
%TD.AperFunction*%
%TD*%
%TA.AperFunction,Conductor*%
%TO.N,GND*%
G36*
X156542538Y-294219685D02*
G01*
X156588293Y-294272489D01*
X156599499Y-294324000D01*
X156599499Y-295093742D01*
X156620674Y-295172769D01*
X156624899Y-295204862D01*
X156624899Y-295253109D01*
X156605214Y-295320148D01*
X156552410Y-295365903D01*
X156514157Y-295376398D01*
X156467626Y-295381401D01*
X156467620Y-295381403D01*
X156332913Y-295431645D01*
X156332906Y-295431649D01*
X156217812Y-295517809D01*
X156217809Y-295517812D01*
X156131649Y-295632906D01*
X156131645Y-295632913D01*
X156081403Y-295767620D01*
X156081401Y-295767627D01*
X156076399Y-295814155D01*
X156049661Y-295878706D01*
X155992268Y-295918554D01*
X155953110Y-295924899D01*
X155325446Y-295924899D01*
X155266969Y-295936530D01*
X155266968Y-295936531D01*
X155256388Y-295943601D01*
X155238341Y-295949251D01*
X155222432Y-295959476D01*
X155191470Y-295963927D01*
X155189710Y-295964479D01*
X155187497Y-295964499D01*
X155124000Y-295964499D01*
X155056961Y-295944814D01*
X155011206Y-295892010D01*
X155000000Y-295840499D01*
X155000000Y-294342562D01*
X155019685Y-294275523D01*
X155036319Y-294254881D01*
X155054881Y-294236319D01*
X155116204Y-294202834D01*
X155142562Y-294200000D01*
X156475499Y-294200000D01*
X156542538Y-294219685D01*
G37*
%TD.AperFunction*%
%TD*%
%TA.AperFunction,Conductor*%
%TO.N,/Regulators/+3.3v_U5*%
G36*
X183043039Y-300119685D02*
G01*
X183088794Y-300172489D01*
X183100000Y-300224000D01*
X183100000Y-300282300D01*
X183080315Y-300349339D01*
X183027511Y-300395094D01*
X182976000Y-300406300D01*
X182757100Y-300406300D01*
X182757100Y-301193700D01*
X182976000Y-301193700D01*
X183043039Y-301213385D01*
X183088794Y-301266189D01*
X183100000Y-301317700D01*
X183100000Y-306257386D01*
X183091355Y-306286826D01*
X183084832Y-306316813D01*
X183081077Y-306321828D01*
X183080315Y-306324425D01*
X183063681Y-306345067D01*
X183025067Y-306383681D01*
X182963744Y-306417166D01*
X182937386Y-306420000D01*
X179272219Y-306420000D01*
X179267312Y-306417759D01*
X179241961Y-306410315D01*
X179236033Y-306403474D01*
X179227797Y-306399713D01*
X179213507Y-306377478D01*
X179196206Y-306357511D01*
X179193918Y-306346996D01*
X179190023Y-306340935D01*
X179185000Y-306306000D01*
X179185000Y-306294000D01*
X179204685Y-306226961D01*
X179257489Y-306181206D01*
X179309000Y-306170000D01*
X180111484Y-306170000D01*
X180111484Y-306169999D01*
X180100790Y-306116241D01*
X180100789Y-306116237D01*
X180093009Y-306097455D01*
X180085539Y-306027986D01*
X180093009Y-306002545D01*
X180100789Y-305983762D01*
X180100790Y-305983758D01*
X180111484Y-305930000D01*
X179309000Y-305930000D01*
X179300314Y-305927449D01*
X179291353Y-305928738D01*
X179267312Y-305917759D01*
X179241961Y-305910315D01*
X179236033Y-305903474D01*
X179227797Y-305899713D01*
X179213507Y-305877478D01*
X179196206Y-305857511D01*
X179193918Y-305846996D01*
X179190023Y-305840935D01*
X179185000Y-305806000D01*
X179185000Y-305800000D01*
X179179000Y-305800000D01*
X179111961Y-305780315D01*
X179066206Y-305727511D01*
X179055000Y-305676000D01*
X179055000Y-305670000D01*
X179315000Y-305670000D01*
X180111484Y-305670000D01*
X180111484Y-305669999D01*
X180100790Y-305616241D01*
X180100789Y-305616237D01*
X180053298Y-305501584D01*
X179984351Y-305398396D01*
X179896603Y-305310648D01*
X179793415Y-305241701D01*
X179678764Y-305194211D01*
X179678758Y-305194209D01*
X179557052Y-305170000D01*
X179315000Y-305170000D01*
X179315000Y-305670000D01*
X179055000Y-305670000D01*
X179055000Y-305245000D01*
X178624000Y-305245000D01*
X178615314Y-305242449D01*
X178606353Y-305243738D01*
X178582312Y-305232759D01*
X178556961Y-305225315D01*
X178551033Y-305218474D01*
X178542797Y-305214713D01*
X178528507Y-305192478D01*
X178511206Y-305172511D01*
X178508918Y-305161996D01*
X178505023Y-305155935D01*
X178500000Y-305121000D01*
X178500000Y-305115000D01*
X178494000Y-305115000D01*
X178426961Y-305095315D01*
X178381206Y-305042511D01*
X178370000Y-304991000D01*
X178370000Y-304985000D01*
X178630000Y-304985000D01*
X179130000Y-304985000D01*
X179130000Y-304742947D01*
X179105790Y-304621241D01*
X179105788Y-304621235D01*
X179058298Y-304506584D01*
X178989351Y-304403396D01*
X178901603Y-304315648D01*
X178798415Y-304246701D01*
X178683762Y-304199210D01*
X178683758Y-304199209D01*
X178630000Y-304188515D01*
X178630000Y-304985000D01*
X178370000Y-304985000D01*
X178370000Y-304188516D01*
X178369999Y-304188515D01*
X178316241Y-304199209D01*
X178316236Y-304199210D01*
X178297450Y-304206992D01*
X178227980Y-304214459D01*
X178202550Y-304206992D01*
X178183763Y-304199210D01*
X178183758Y-304199209D01*
X178130000Y-304188515D01*
X178130000Y-304991000D01*
X178127449Y-304999685D01*
X178128738Y-305008647D01*
X178117759Y-305032687D01*
X178110315Y-305058039D01*
X178103474Y-305063966D01*
X178099713Y-305072203D01*
X178077478Y-305086492D01*
X178057511Y-305103794D01*
X178046996Y-305106081D01*
X178040935Y-305109977D01*
X178006000Y-305115000D01*
X177994000Y-305115000D01*
X177926961Y-305095315D01*
X177881206Y-305042511D01*
X177870000Y-304991000D01*
X177870000Y-304188516D01*
X177845336Y-304168275D01*
X177806001Y-304110529D01*
X177800000Y-304072421D01*
X177800000Y-300224000D01*
X177819685Y-300156961D01*
X177872489Y-300111206D01*
X177924000Y-300100000D01*
X182976000Y-300100000D01*
X183043039Y-300119685D01*
G37*
%TD.AperFunction*%
%TD*%
%TA.AperFunction,Conductor*%
%TO.N,/Regulators/+5VIN*%
G36*
X289543039Y-318519685D02*
G01*
X289588794Y-318572489D01*
X289600000Y-318624000D01*
X289600000Y-320976000D01*
X289580315Y-321043039D01*
X289527511Y-321088794D01*
X289476000Y-321100000D01*
X286851362Y-321100000D01*
X286784323Y-321080315D01*
X286763681Y-321063681D01*
X285895000Y-320195000D01*
X285035866Y-320195000D01*
X285023924Y-320194424D01*
X285000471Y-320192154D01*
X284994174Y-320187947D01*
X284926573Y-320174500D01*
X284818013Y-320174500D01*
X284812058Y-320173924D01*
X284784966Y-320163038D01*
X284756961Y-320154815D01*
X284752933Y-320150167D01*
X284747226Y-320147874D01*
X284730319Y-320124069D01*
X284711206Y-320102011D01*
X284709683Y-320095012D01*
X284706769Y-320090909D01*
X284706221Y-320079097D01*
X284700000Y-320050500D01*
X284700000Y-318624000D01*
X284719685Y-318556961D01*
X284772489Y-318511206D01*
X284824000Y-318500000D01*
X289476000Y-318500000D01*
X289543039Y-318519685D01*
G37*
%TD.AperFunction*%
%TD*%
%TA.AperFunction,Conductor*%
%TO.N,GND*%
G36*
X270092537Y-317519685D02*
G01*
X270138292Y-317572489D01*
X270149498Y-317624000D01*
X270149498Y-318564834D01*
X270140058Y-318612289D01*
X270136129Y-318621771D01*
X270124498Y-318680248D01*
X270124498Y-319226001D01*
X270104813Y-319293040D01*
X270052009Y-319338795D01*
X270000498Y-319350001D01*
X269900000Y-319350001D01*
X269900000Y-319996448D01*
X270174999Y-320271447D01*
X270174999Y-320562868D01*
X270172834Y-320565033D01*
X270149998Y-320620164D01*
X270149998Y-320679838D01*
X270172834Y-320734969D01*
X270174999Y-320737134D01*
X270174999Y-321028555D01*
X269914458Y-321289096D01*
X269853135Y-321322581D01*
X269783443Y-321317597D01*
X269759757Y-321302374D01*
X269777164Y-321284968D01*
X269800000Y-321229837D01*
X269800000Y-321170163D01*
X269777164Y-321115032D01*
X269734968Y-321072836D01*
X269679837Y-321050000D01*
X269620163Y-321050000D01*
X269565032Y-321072836D01*
X269522836Y-321115032D01*
X269500000Y-321170163D01*
X269500000Y-321229837D01*
X269522836Y-321284968D01*
X269538951Y-321301083D01*
X269499581Y-321322581D01*
X269429889Y-321317597D01*
X269385542Y-321289096D01*
X268996447Y-320900001D01*
X268244001Y-320900001D01*
X268176962Y-320880316D01*
X268147613Y-320846446D01*
X269650000Y-320846446D01*
X269846445Y-320650001D01*
X269650000Y-320650001D01*
X269650000Y-320846446D01*
X268147613Y-320846446D01*
X268131207Y-320827512D01*
X268120001Y-320776001D01*
X268120001Y-320775002D01*
X267702154Y-320775002D01*
X267642626Y-320781403D01*
X267642619Y-320781405D01*
X267507912Y-320831647D01*
X267507905Y-320831651D01*
X267392811Y-320917811D01*
X267348265Y-320977317D01*
X267292331Y-321019187D01*
X267222639Y-321024171D01*
X267161317Y-320990685D01*
X267127832Y-320929362D01*
X267124999Y-320903005D01*
X267124999Y-320900028D01*
X267124998Y-320900012D01*
X267114505Y-320797302D01*
X267061599Y-320637643D01*
X267061598Y-320637641D01*
X267059356Y-320630877D01*
X267059356Y-320630875D01*
X267052749Y-320620164D01*
X268849998Y-320620164D01*
X268849998Y-320679838D01*
X268872834Y-320734969D01*
X268915030Y-320777165D01*
X268970161Y-320800001D01*
X269029835Y-320800001D01*
X269084966Y-320777165D01*
X269127162Y-320734969D01*
X269149998Y-320679838D01*
X269149998Y-320620164D01*
X269127162Y-320565033D01*
X269084966Y-320522837D01*
X269029835Y-320500001D01*
X268970161Y-320500001D01*
X268915030Y-320522837D01*
X268872834Y-320565033D01*
X268849998Y-320620164D01*
X267052749Y-320620164D01*
X266967315Y-320481654D01*
X266843345Y-320357684D01*
X266694124Y-320265643D01*
X266694119Y-320265641D01*
X266527697Y-320210494D01*
X266527690Y-320210493D01*
X266424986Y-320200000D01*
X266150000Y-320200000D01*
X266150000Y-321076000D01*
X266130315Y-321143039D01*
X266077511Y-321188794D01*
X266026000Y-321200000D01*
X265900000Y-321200000D01*
X265900000Y-321326000D01*
X265880315Y-321393039D01*
X265827511Y-321438794D01*
X265776000Y-321450000D01*
X261424000Y-321450000D01*
X261356961Y-321430315D01*
X261311206Y-321377511D01*
X261300000Y-321326000D01*
X261300000Y-321200000D01*
X261174000Y-321200000D01*
X261106961Y-321180315D01*
X261061206Y-321127511D01*
X261050000Y-321076000D01*
X261050000Y-320950000D01*
X261550000Y-320950000D01*
X263350000Y-320950000D01*
X263850000Y-320950000D01*
X265650000Y-320950000D01*
X265650000Y-320200000D01*
X265375029Y-320200000D01*
X265375012Y-320200001D01*
X265272302Y-320210494D01*
X265105880Y-320265641D01*
X265105875Y-320265643D01*
X264956654Y-320357684D01*
X264837681Y-320476658D01*
X264776358Y-320510143D01*
X264706666Y-320505159D01*
X264662319Y-320476658D01*
X264543345Y-320357684D01*
X264394124Y-320265643D01*
X264394119Y-320265641D01*
X264227697Y-320210494D01*
X264227690Y-320210493D01*
X264124986Y-320200000D01*
X263850000Y-320200000D01*
X263850000Y-320950000D01*
X263350000Y-320950000D01*
X263350000Y-320200000D01*
X263075029Y-320200000D01*
X263075012Y-320200001D01*
X262972302Y-320210494D01*
X262805880Y-320265641D01*
X262805875Y-320265643D01*
X262656654Y-320357684D01*
X262537681Y-320476658D01*
X262476358Y-320510143D01*
X262406666Y-320505159D01*
X262362319Y-320476658D01*
X262243345Y-320357684D01*
X262094124Y-320265643D01*
X262094119Y-320265641D01*
X261927697Y-320210494D01*
X261927690Y-320210493D01*
X261824986Y-320200000D01*
X261550000Y-320200000D01*
X261550000Y-320950000D01*
X261050000Y-320950000D01*
X261050000Y-320200000D01*
X260775029Y-320200000D01*
X260775012Y-320200001D01*
X260672302Y-320210494D01*
X260505880Y-320265641D01*
X260505871Y-320265645D01*
X260389096Y-320337673D01*
X260321704Y-320356113D01*
X260255040Y-320335190D01*
X260210271Y-320281548D01*
X260200000Y-320232134D01*
X260200000Y-319324995D01*
X267544501Y-319324995D01*
X267544501Y-319474997D01*
X267544502Y-319475009D01*
X267556029Y-319542860D01*
X267556031Y-319542866D01*
X267604679Y-319620299D01*
X267604683Y-319620303D01*
X267654680Y-319670305D01*
X267710835Y-319710151D01*
X267799998Y-319730502D01*
X268126000Y-319730502D01*
X268193039Y-319750187D01*
X268238794Y-319802991D01*
X268250000Y-319854502D01*
X268250000Y-320400001D01*
X268996447Y-320400001D01*
X268996447Y-320400000D01*
X269326282Y-320070165D01*
X269500000Y-320070165D01*
X269500000Y-320129839D01*
X269522836Y-320184970D01*
X269565032Y-320227166D01*
X269620163Y-320250002D01*
X269679837Y-320250002D01*
X269734968Y-320227166D01*
X269777164Y-320184970D01*
X269800000Y-320129839D01*
X269800000Y-320070165D01*
X269777164Y-320015034D01*
X269734968Y-319972838D01*
X269679837Y-319950002D01*
X269620163Y-319950002D01*
X269565032Y-319972838D01*
X269522836Y-320015034D01*
X269500000Y-320070165D01*
X269326282Y-320070165D01*
X269400000Y-319996447D01*
X269400000Y-319350001D01*
X268904498Y-319350001D01*
X268837459Y-319330316D01*
X268791704Y-319277512D01*
X268780498Y-319226001D01*
X268780498Y-318750007D01*
X268780498Y-318750002D01*
X268768967Y-318682134D01*
X268768966Y-318682132D01*
X268768966Y-318682131D01*
X268768965Y-318682129D01*
X268720315Y-318604699D01*
X268720312Y-318604696D01*
X268720311Y-318604694D01*
X268670311Y-318554692D01*
X268614159Y-318514850D01*
X268614157Y-318514849D01*
X268614155Y-318514848D01*
X268525002Y-318494501D01*
X268524996Y-318494500D01*
X268524995Y-318494500D01*
X268524993Y-318494500D01*
X268375000Y-318494501D01*
X268374994Y-318494502D01*
X268307127Y-318506033D01*
X268307124Y-318506035D01*
X268229688Y-318554691D01*
X268179689Y-318604690D01*
X268139849Y-318660839D01*
X268119778Y-318748774D01*
X268085669Y-318809752D01*
X268064859Y-318826174D01*
X267979689Y-318879689D01*
X267929690Y-318929688D01*
X267889851Y-318985835D01*
X267884862Y-318996985D01*
X267881320Y-318995400D01*
X267857899Y-319037231D01*
X267796224Y-319070063D01*
X267791930Y-319070871D01*
X267787185Y-319071677D01*
X267732120Y-319081033D01*
X267732119Y-319081034D01*
X267654681Y-319129695D01*
X267654680Y-319129695D01*
X267604688Y-319179691D01*
X267564851Y-319235838D01*
X267544501Y-319324995D01*
X260200000Y-319324995D01*
X260200000Y-317624000D01*
X260219685Y-317556961D01*
X260272489Y-317511206D01*
X260324000Y-317500000D01*
X270025498Y-317500000D01*
X270092537Y-317519685D01*
G37*
%TD.AperFunction*%
%TD*%
%TA.AperFunction,Conductor*%
%TO.N,+1.8V*%
G36*
X177177333Y-301881328D02*
G01*
X177223444Y-301933822D01*
X177235000Y-301986094D01*
X177235000Y-304058307D01*
X177215315Y-304125346D01*
X177162511Y-304171101D01*
X177148823Y-304173069D01*
X177130000Y-304188516D01*
X177130000Y-304991000D01*
X177127449Y-304999685D01*
X177128738Y-305008647D01*
X177117759Y-305032687D01*
X177110315Y-305058039D01*
X177103474Y-305063966D01*
X177099713Y-305072203D01*
X177077478Y-305086492D01*
X177057511Y-305103794D01*
X177046996Y-305106081D01*
X177040935Y-305109977D01*
X177006000Y-305115000D01*
X176994000Y-305115000D01*
X176926961Y-305095315D01*
X176881206Y-305042511D01*
X176870000Y-304991000D01*
X176870000Y-304188516D01*
X176869999Y-304188515D01*
X176816241Y-304199209D01*
X176816236Y-304199210D01*
X176797450Y-304206992D01*
X176727980Y-304214459D01*
X176702550Y-304206992D01*
X176683763Y-304199210D01*
X176683758Y-304199209D01*
X176630000Y-304188515D01*
X176630000Y-304991000D01*
X176627449Y-304999685D01*
X176628738Y-305008647D01*
X176617759Y-305032687D01*
X176610315Y-305058039D01*
X176603474Y-305063966D01*
X176599713Y-305072203D01*
X176577478Y-305086492D01*
X176557511Y-305103794D01*
X176546996Y-305106081D01*
X176540935Y-305109977D01*
X176506000Y-305115000D01*
X176500000Y-305115000D01*
X176500000Y-305121000D01*
X176480315Y-305188039D01*
X176427511Y-305233794D01*
X176376000Y-305245000D01*
X175945000Y-305245000D01*
X175945000Y-305676000D01*
X175942449Y-305684685D01*
X175943738Y-305693647D01*
X175932759Y-305717687D01*
X175925315Y-305743039D01*
X175918474Y-305748966D01*
X175914713Y-305757203D01*
X175892478Y-305771492D01*
X175872511Y-305788794D01*
X175861996Y-305791081D01*
X175855935Y-305794977D01*
X175821000Y-305800000D01*
X175815000Y-305800000D01*
X175815000Y-305806000D01*
X175795315Y-305873039D01*
X175742511Y-305918794D01*
X175691000Y-305930000D01*
X174888515Y-305930000D01*
X174899209Y-305983758D01*
X174899210Y-305983763D01*
X174906992Y-306002550D01*
X174914459Y-306072020D01*
X174906992Y-306097450D01*
X174899210Y-306116236D01*
X174899209Y-306116241D01*
X174888515Y-306169999D01*
X174888516Y-306170000D01*
X175691000Y-306170000D01*
X175699685Y-306172550D01*
X175708647Y-306171262D01*
X175732687Y-306182240D01*
X175758039Y-306189685D01*
X175763966Y-306196525D01*
X175772203Y-306200287D01*
X175786492Y-306222521D01*
X175803794Y-306242489D01*
X175806081Y-306253003D01*
X175809977Y-306259065D01*
X175815000Y-306294000D01*
X175815000Y-306306000D01*
X175795315Y-306373039D01*
X175742511Y-306418794D01*
X175691000Y-306430000D01*
X174888517Y-306430000D01*
X174868276Y-306454664D01*
X174810531Y-306493999D01*
X174772422Y-306500000D01*
X171424000Y-306500000D01*
X171356961Y-306480315D01*
X171311206Y-306427511D01*
X171300000Y-306376000D01*
X171300000Y-305669999D01*
X174888515Y-305669999D01*
X174888516Y-305670000D01*
X175685000Y-305670000D01*
X175685000Y-305170000D01*
X175442948Y-305170000D01*
X175321241Y-305194209D01*
X175321235Y-305194211D01*
X175206584Y-305241701D01*
X175103396Y-305310648D01*
X175015648Y-305398396D01*
X174946701Y-305501584D01*
X174899210Y-305616237D01*
X174899209Y-305616241D01*
X174888515Y-305669999D01*
X171300000Y-305669999D01*
X171300000Y-304742947D01*
X175870000Y-304742947D01*
X175870000Y-304985000D01*
X176370000Y-304985000D01*
X176370000Y-304188516D01*
X176369999Y-304188515D01*
X176316241Y-304199209D01*
X176316237Y-304199210D01*
X176201584Y-304246701D01*
X176098396Y-304315648D01*
X176010648Y-304403396D01*
X175941701Y-304506584D01*
X175894211Y-304621235D01*
X175894209Y-304621241D01*
X175870000Y-304742947D01*
X171300000Y-304742947D01*
X171300000Y-302024000D01*
X171319685Y-301956961D01*
X171372489Y-301911206D01*
X171424000Y-301900000D01*
X171500025Y-301900000D01*
X173128610Y-301888997D01*
X177110163Y-301862097D01*
X177177333Y-301881328D01*
G37*
%TD.AperFunction*%
%TD*%
%TA.AperFunction,Conductor*%
%TO.N,+2.5V*%
G36*
X177178039Y-288169007D02*
G01*
X177223794Y-288221811D01*
X177235000Y-288273322D01*
X177235000Y-291684088D01*
X177218388Y-291746086D01*
X177192025Y-291791749D01*
X177192023Y-291791754D01*
X177169500Y-291875811D01*
X177169500Y-292276000D01*
X177149815Y-292343039D01*
X177097011Y-292388794D01*
X177045500Y-292400000D01*
X176299999Y-292400000D01*
X176100000Y-292599999D01*
X176100000Y-293459822D01*
X176080315Y-293526861D01*
X176027511Y-293572616D01*
X175976000Y-293583822D01*
X175461487Y-293583822D01*
X175416878Y-293595775D01*
X175384786Y-293600000D01*
X161199999Y-293600000D01*
X160700000Y-294099999D01*
X160700000Y-294434366D01*
X160680315Y-294501405D01*
X160679102Y-294503257D01*
X160636531Y-294566968D01*
X160636530Y-294566969D01*
X160624899Y-294625446D01*
X160624899Y-294890336D01*
X160620674Y-294922428D01*
X160610856Y-294959070D01*
X160599499Y-295001455D01*
X160599499Y-295276000D01*
X160579814Y-295343039D01*
X160527010Y-295388794D01*
X160475499Y-295400000D01*
X159800000Y-295400000D01*
X159399100Y-295400000D01*
X159332061Y-295380315D01*
X159286306Y-295327511D01*
X159275100Y-295276000D01*
X159275100Y-294625448D01*
X159275099Y-294625446D01*
X159263468Y-294566969D01*
X159263467Y-294566968D01*
X159260840Y-294563036D01*
X159255389Y-294545630D01*
X159245359Y-294530397D01*
X159240195Y-294497106D01*
X159239961Y-294496359D01*
X159239954Y-294495902D01*
X159237555Y-294280025D01*
X159256493Y-294212774D01*
X159299546Y-294171265D01*
X159335513Y-294150500D01*
X159428699Y-294057314D01*
X159494591Y-293943186D01*
X159528699Y-293815892D01*
X159528699Y-293684108D01*
X159494591Y-293556814D01*
X159428699Y-293442686D01*
X159335513Y-293349500D01*
X159287721Y-293321907D01*
X159239507Y-293271340D01*
X159225732Y-293215904D01*
X159202988Y-291168995D01*
X167999499Y-291168995D01*
X168026418Y-291304322D01*
X168026421Y-291304332D01*
X168079221Y-291431804D01*
X168079228Y-291431817D01*
X168155885Y-291546541D01*
X168155888Y-291546545D01*
X168253454Y-291644111D01*
X168253458Y-291644114D01*
X168368182Y-291720771D01*
X168368195Y-291720778D01*
X168429295Y-291746086D01*
X168495672Y-291773580D01*
X168495676Y-291773580D01*
X168495677Y-291773581D01*
X168631004Y-291800500D01*
X168631007Y-291800500D01*
X168768993Y-291800500D01*
X169994422Y-291800500D01*
X170061461Y-291820185D01*
X170094192Y-291850867D01*
X170127848Y-291896470D01*
X170127849Y-291896470D01*
X170127850Y-291896472D01*
X170237118Y-291977115D01*
X170279845Y-291992066D01*
X170365299Y-292021968D01*
X170395730Y-292024822D01*
X170395734Y-292024822D01*
X171004270Y-292024822D01*
X171034699Y-292021968D01*
X171034701Y-292021968D01*
X171098790Y-291999541D01*
X171162882Y-291977115D01*
X171272150Y-291896472D01*
X171352793Y-291787204D01*
X171388875Y-291684088D01*
X171397646Y-291659023D01*
X171397646Y-291659021D01*
X171400500Y-291628591D01*
X171400500Y-290570052D01*
X171397646Y-290539622D01*
X171397646Y-290539620D01*
X171352793Y-290411441D01*
X171352792Y-290411439D01*
X171337991Y-290391384D01*
X171272150Y-290302172D01*
X171162882Y-290221529D01*
X171162880Y-290221528D01*
X171034700Y-290176675D01*
X171004270Y-290173822D01*
X171004266Y-290173822D01*
X170395734Y-290173822D01*
X170395730Y-290173822D01*
X170365300Y-290176675D01*
X170365298Y-290176675D01*
X170237119Y-290221528D01*
X170237117Y-290221529D01*
X170127850Y-290302172D01*
X170093191Y-290349134D01*
X170037544Y-290391384D01*
X169993421Y-290399500D01*
X168631005Y-290399500D01*
X168495677Y-290426418D01*
X168495667Y-290426421D01*
X168368195Y-290479221D01*
X168368182Y-290479228D01*
X168253458Y-290555885D01*
X168253454Y-290555888D01*
X168155888Y-290653454D01*
X168155885Y-290653458D01*
X168079228Y-290768182D01*
X168079221Y-290768195D01*
X168026421Y-290895667D01*
X168026418Y-290895677D01*
X167999500Y-291031004D01*
X167999500Y-291031007D01*
X167999500Y-291168993D01*
X167999500Y-291168995D01*
X167999499Y-291168995D01*
X159202988Y-291168995D01*
X159201392Y-291025352D01*
X159220343Y-290958105D01*
X159272644Y-290911775D01*
X159325385Y-290900000D01*
X165400000Y-290900000D01*
X168114359Y-288185641D01*
X168175682Y-288152156D01*
X168202040Y-288149322D01*
X177111000Y-288149322D01*
X177178039Y-288169007D01*
G37*
%TD.AperFunction*%
%TD*%
%TA.AperFunction,Conductor*%
%TO.N,/Regulators/+3.3v_U3*%
G36*
X183093139Y-287384007D02*
G01*
X183138894Y-287436811D01*
X183150100Y-287488322D01*
X183150100Y-287596622D01*
X183130415Y-287663661D01*
X183077611Y-287709416D01*
X183026100Y-287720622D01*
X182807200Y-287720622D01*
X182807200Y-288508022D01*
X183026100Y-288508022D01*
X183093139Y-288527707D01*
X183138894Y-288580511D01*
X183150100Y-288632022D01*
X183150100Y-293533970D01*
X183130415Y-293601009D01*
X183077611Y-293646764D01*
X183026100Y-293657970D01*
X180090211Y-293657970D01*
X180028210Y-293641357D01*
X180015989Y-293634301D01*
X179939562Y-293613822D01*
X179939560Y-293613822D01*
X179665283Y-293613822D01*
X179630816Y-293606965D01*
X179630419Y-293608449D01*
X179622569Y-293606345D01*
X179622568Y-293606345D01*
X179538511Y-293583822D01*
X179005862Y-293583822D01*
X178976421Y-293575177D01*
X178946435Y-293568654D01*
X178941419Y-293564899D01*
X178938823Y-293564137D01*
X178918181Y-293547503D01*
X178886319Y-293515641D01*
X178852834Y-293454318D01*
X178850000Y-293427960D01*
X178850000Y-292864322D01*
X178600000Y-292614322D01*
X177974000Y-292614322D01*
X177906961Y-292594637D01*
X177861206Y-292541833D01*
X177850000Y-292490322D01*
X177850000Y-291264297D01*
X177815546Y-288508022D01*
X177802819Y-287489870D01*
X177821664Y-287422592D01*
X177873892Y-287376180D01*
X177926809Y-287364322D01*
X183026100Y-287364322D01*
X183093139Y-287384007D01*
G37*
%TD.AperFunction*%
%TD*%
M02*
