%TF.GenerationSoftware,KiCad,Pcbnew,9.0.9-9.0.9~ubuntu22.04.1*%
%TF.CreationDate,2026-05-26T13:00:12-04:00*%
%TF.ProjectId,acmi2-afe,61636d69-322d-4616-9665-2e6b69636164,rev?*%
%TF.SameCoordinates,Original*%
%TF.FileFunction,Soldermask,Top*%
%TF.FilePolarity,Negative*%
%FSLAX46Y46*%
G04 Gerber Fmt 4.6, Leading zero omitted, Abs format (unit mm)*
G04 Created by KiCad (PCBNEW 9.0.9-9.0.9~ubuntu22.04.1) date 2026-05-26 13:00:12*
%MOMM*%
%LPD*%
G01*
G04 APERTURE LIST*
G04 Aperture macros list*
%AMRoundRect*
0 Rectangle with rounded corners*
0 $1 Rounding radius*
0 $2 $3 $4 $5 $6 $7 $8 $9 X,Y pos of 4 corners*
0 Add a 4 corners polygon primitive as box body*
4,1,4,$2,$3,$4,$5,$6,$7,$8,$9,$2,$3,0*
0 Add four circle primitives for the rounded corners*
1,1,$1+$1,$2,$3*
1,1,$1+$1,$4,$5*
1,1,$1+$1,$6,$7*
1,1,$1+$1,$8,$9*
0 Add four rect primitives between the rounded corners*
20,1,$1+$1,$2,$3,$4,$5,0*
20,1,$1+$1,$4,$5,$6,$7,0*
20,1,$1+$1,$6,$7,$8,$9,0*
20,1,$1+$1,$8,$9,$2,$3,0*%
%AMFreePoly0*
4,1,17,0.275001,0.550001,0.275001,-0.174999,0.225001,-0.225001,-0.499999,-0.224999,-0.550001,-0.174999,-0.549999,-0.024999,-0.499999,0.025001,-0.275000,0.025001,-0.225001,0.075000,-0.225001,0.225000,-0.175001,0.275000,-0.025001,0.275000,0.024999,0.325000,0.024999,0.550001,0.074999,0.599998,0.224999,0.599998,0.275001,0.550001,0.275001,0.550001,$1*%
%AMFreePoly1*
4,1,17,0.275001,0.174999,0.275001,-0.550001,0.224999,-0.599998,0.074999,-0.599998,0.024999,-0.550001,0.025001,-0.325000,-0.025001,-0.275000,-0.175001,-0.275000,-0.225001,-0.225000,-0.224998,-0.075000,-0.275000,-0.025001,-0.499999,-0.025001,-0.549999,0.024999,-0.550001,0.174999,-0.499999,0.224999,0.225001,0.224999,0.275001,0.174999,0.275001,0.174999,$1*%
%AMFreePoly2*
4,1,17,0.499999,0.224999,0.550001,0.174999,0.549999,0.024999,0.499999,-0.025001,0.275000,-0.025001,0.224998,-0.075000,0.225001,-0.225000,0.175001,-0.275000,0.024998,-0.275000,-0.025001,-0.325000,-0.024999,-0.550001,-0.074999,-0.599998,-0.225001,-0.599998,-0.275001,-0.550001,-0.275001,0.174999,-0.225001,0.225001,0.499999,0.224999,0.499999,0.224999,$1*%
%AMFreePoly3*
4,1,17,-0.024999,0.550001,-0.025001,0.325000,0.024998,0.275000,0.175001,0.275000,0.225001,0.225000,0.224998,0.075000,0.275000,0.025001,0.499999,0.025001,0.549999,-0.024999,0.550001,-0.174999,0.499999,-0.224999,-0.225001,-0.225001,-0.275001,-0.175002,-0.275001,0.550001,-0.225001,0.599998,-0.074999,0.599998,-0.024999,0.550001,-0.024999,0.550001,$1*%
G04 Aperture macros list end*
%ADD10C,0.010000*%
%ADD11C,1.226200*%
%ADD12C,1.576200*%
%ADD13RoundRect,0.250000X-0.262500X-0.450000X0.262500X-0.450000X0.262500X0.450000X-0.262500X0.450000X0*%
%ADD14RoundRect,0.250000X-0.250000X-0.475000X0.250000X-0.475000X0.250000X0.475000X-0.250000X0.475000X0*%
%ADD15C,2.050000*%
%ADD16C,2.250000*%
%ADD17RoundRect,0.250000X0.262500X0.450000X-0.262500X0.450000X-0.262500X-0.450000X0.262500X-0.450000X0*%
%ADD18RoundRect,0.250000X0.450000X-0.262500X0.450000X0.262500X-0.450000X0.262500X-0.450000X-0.262500X0*%
%ADD19RoundRect,0.250000X0.475000X-0.250000X0.475000X0.250000X-0.475000X0.250000X-0.475000X-0.250000X0*%
%ADD20RoundRect,0.243750X0.243750X0.456250X-0.243750X0.456250X-0.243750X-0.456250X0.243750X-0.456250X0*%
%ADD21RoundRect,0.222222X-1.552778X-0.577778X1.552778X-0.577778X1.552778X0.577778X-1.552778X0.577778X0*%
%ADD22RoundRect,0.250000X-0.475000X0.250000X-0.475000X-0.250000X0.475000X-0.250000X0.475000X0.250000X0*%
%ADD23RoundRect,0.102000X-0.990600X-0.279400X0.990600X-0.279400X0.990600X0.279400X-0.990600X0.279400X0*%
%ADD24C,7.500000*%
%ADD25O,1.084000X0.464000*%
%ADD26O,0.464000X1.084000*%
%ADD27C,0.704000*%
%ADD28RoundRect,0.102000X-1.025000X-1.025000X1.025000X-1.025000X1.025000X1.025000X-1.025000X1.025000X0*%
%ADD29RoundRect,0.102000X-0.800000X0.800000X-0.800000X-0.800000X0.800000X-0.800000X0.800000X0.800000X0*%
%ADD30RoundRect,0.243750X-0.456250X0.243750X-0.456250X-0.243750X0.456250X-0.243750X0.456250X0.243750X0*%
%ADD31R,0.812800X0.889000*%
%ADD32FreePoly0,270.000000*%
%ADD33R,0.249999X0.700001*%
%ADD34FreePoly1,270.000000*%
%ADD35R,0.700001X0.249999*%
%ADD36FreePoly2,270.000000*%
%ADD37FreePoly3,270.000000*%
%ADD38C,0.500000*%
%ADD39R,1.799999X1.599999*%
%ADD40RoundRect,0.125000X-0.487500X-0.125000X0.487500X-0.125000X0.487500X0.125000X-0.487500X0.125000X0*%
%ADD41RoundRect,0.250000X0.250000X0.475000X-0.250000X0.475000X-0.250000X-0.475000X0.250000X-0.475000X0*%
%ADD42C,2.690000*%
%ADD43RoundRect,0.102000X-0.660000X-0.660000X0.660000X-0.660000X0.660000X0.660000X-0.660000X0.660000X0*%
%ADD44C,1.524000*%
%ADD45RoundRect,0.060500X-0.826500X-0.181500X0.826500X-0.181500X0.826500X0.181500X-0.826500X0.181500X0*%
%ADD46R,0.249200X0.804800*%
%ADD47R,0.804800X0.249200*%
%ADD48R,5.250000X5.250000*%
%ADD49RoundRect,0.102000X-0.500000X-0.500000X0.500000X-0.500000X0.500000X0.500000X-0.500000X0.500000X0*%
%ADD50C,1.204000*%
%ADD51C,3.000000*%
%ADD52RoundRect,0.102000X-1.590000X0.635000X-1.590000X-0.635000X1.590000X-0.635000X1.590000X0.635000X0*%
%ADD53RoundRect,0.250000X-0.450000X0.262500X-0.450000X-0.262500X0.450000X-0.262500X0.450000X0.262500X0*%
G04 APERTURE END LIST*
D10*
%TO.C,U6*%
X282993000Y-319306000D02*
X282995000Y-319306000D01*
X282998000Y-319307000D01*
X283000000Y-319307000D01*
X283003000Y-319308000D01*
X283005000Y-319309000D01*
X283008000Y-319310000D01*
X283010000Y-319312000D01*
X283012000Y-319313000D01*
X283014000Y-319315000D01*
X283016000Y-319316000D01*
X283018000Y-319318000D01*
X283020000Y-319320000D01*
X283022000Y-319322000D01*
X283024000Y-319324000D01*
X283025000Y-319326000D01*
X283027000Y-319328000D01*
X283028000Y-319330000D01*
X283030000Y-319332000D01*
X283031000Y-319335000D01*
X283032000Y-319337000D01*
X283033000Y-319340000D01*
X283033000Y-319342000D01*
X283034000Y-319345000D01*
X283034000Y-319347000D01*
X283035000Y-319350000D01*
X283035000Y-319352000D01*
X283035000Y-319355000D01*
X283035000Y-319645000D01*
X283035000Y-319648000D01*
X283035000Y-319650000D01*
X283034000Y-319653000D01*
X283034000Y-319655000D01*
X283033000Y-319658000D01*
X283033000Y-319660000D01*
X283032000Y-319663000D01*
X283031000Y-319665000D01*
X283030000Y-319668000D01*
X283028000Y-319670000D01*
X283027000Y-319672000D01*
X283025000Y-319674000D01*
X283024000Y-319676000D01*
X283022000Y-319678000D01*
X283020000Y-319680000D01*
X283018000Y-319682000D01*
X283016000Y-319684000D01*
X283014000Y-319685000D01*
X283012000Y-319687000D01*
X283010000Y-319688000D01*
X283008000Y-319690000D01*
X283005000Y-319691000D01*
X283003000Y-319692000D01*
X283000000Y-319693000D01*
X282998000Y-319693000D01*
X282995000Y-319694000D01*
X282993000Y-319694000D01*
X282990000Y-319695000D01*
X282988000Y-319695000D01*
X282985000Y-319695000D01*
X282445000Y-319695000D01*
X282442000Y-319695000D01*
X282440000Y-319695000D01*
X282437000Y-319694000D01*
X282435000Y-319694000D01*
X282432000Y-319693000D01*
X282430000Y-319693000D01*
X282427000Y-319692000D01*
X282425000Y-319691000D01*
X282422000Y-319690000D01*
X282420000Y-319688000D01*
X282418000Y-319687000D01*
X282416000Y-319685000D01*
X282414000Y-319684000D01*
X282412000Y-319682000D01*
X282410000Y-319680000D01*
X282408000Y-319678000D01*
X282406000Y-319676000D01*
X282405000Y-319674000D01*
X282403000Y-319672000D01*
X282402000Y-319670000D01*
X282400000Y-319668000D01*
X282399000Y-319665000D01*
X282398000Y-319663000D01*
X282397000Y-319660000D01*
X282397000Y-319658000D01*
X282396000Y-319655000D01*
X282396000Y-319653000D01*
X282395000Y-319650000D01*
X282395000Y-319648000D01*
X282395000Y-319645000D01*
X282395000Y-319355000D01*
X282395000Y-319352000D01*
X282395000Y-319350000D01*
X282396000Y-319347000D01*
X282396000Y-319345000D01*
X282397000Y-319342000D01*
X282397000Y-319340000D01*
X282398000Y-319337000D01*
X282399000Y-319335000D01*
X282400000Y-319332000D01*
X282402000Y-319330000D01*
X282403000Y-319328000D01*
X282405000Y-319326000D01*
X282406000Y-319324000D01*
X282408000Y-319322000D01*
X282410000Y-319320000D01*
X282412000Y-319318000D01*
X282414000Y-319316000D01*
X282416000Y-319315000D01*
X282418000Y-319313000D01*
X282420000Y-319312000D01*
X282422000Y-319310000D01*
X282425000Y-319309000D01*
X282427000Y-319308000D01*
X282430000Y-319307000D01*
X282432000Y-319307000D01*
X282435000Y-319306000D01*
X282437000Y-319306000D01*
X282440000Y-319305000D01*
X282442000Y-319305000D01*
X282445000Y-319305000D01*
X282985000Y-319305000D01*
X282988000Y-319305000D01*
X282990000Y-319305000D01*
X282993000Y-319306000D01*
G36*
X282993000Y-319306000D02*
G01*
X282995000Y-319306000D01*
X282998000Y-319307000D01*
X283000000Y-319307000D01*
X283003000Y-319308000D01*
X283005000Y-319309000D01*
X283008000Y-319310000D01*
X283010000Y-319312000D01*
X283012000Y-319313000D01*
X283014000Y-319315000D01*
X283016000Y-319316000D01*
X283018000Y-319318000D01*
X283020000Y-319320000D01*
X283022000Y-319322000D01*
X283024000Y-319324000D01*
X283025000Y-319326000D01*
X283027000Y-319328000D01*
X283028000Y-319330000D01*
X283030000Y-319332000D01*
X283031000Y-319335000D01*
X283032000Y-319337000D01*
X283033000Y-319340000D01*
X283033000Y-319342000D01*
X283034000Y-319345000D01*
X283034000Y-319347000D01*
X283035000Y-319350000D01*
X283035000Y-319352000D01*
X283035000Y-319355000D01*
X283035000Y-319645000D01*
X283035000Y-319648000D01*
X283035000Y-319650000D01*
X283034000Y-319653000D01*
X283034000Y-319655000D01*
X283033000Y-319658000D01*
X283033000Y-319660000D01*
X283032000Y-319663000D01*
X283031000Y-319665000D01*
X283030000Y-319668000D01*
X283028000Y-319670000D01*
X283027000Y-319672000D01*
X283025000Y-319674000D01*
X283024000Y-319676000D01*
X283022000Y-319678000D01*
X283020000Y-319680000D01*
X283018000Y-319682000D01*
X283016000Y-319684000D01*
X283014000Y-319685000D01*
X283012000Y-319687000D01*
X283010000Y-319688000D01*
X283008000Y-319690000D01*
X283005000Y-319691000D01*
X283003000Y-319692000D01*
X283000000Y-319693000D01*
X282998000Y-319693000D01*
X282995000Y-319694000D01*
X282993000Y-319694000D01*
X282990000Y-319695000D01*
X282988000Y-319695000D01*
X282985000Y-319695000D01*
X282445000Y-319695000D01*
X282442000Y-319695000D01*
X282440000Y-319695000D01*
X282437000Y-319694000D01*
X282435000Y-319694000D01*
X282432000Y-319693000D01*
X282430000Y-319693000D01*
X282427000Y-319692000D01*
X282425000Y-319691000D01*
X282422000Y-319690000D01*
X282420000Y-319688000D01*
X282418000Y-319687000D01*
X282416000Y-319685000D01*
X282414000Y-319684000D01*
X282412000Y-319682000D01*
X282410000Y-319680000D01*
X282408000Y-319678000D01*
X282406000Y-319676000D01*
X282405000Y-319674000D01*
X282403000Y-319672000D01*
X282402000Y-319670000D01*
X282400000Y-319668000D01*
X282399000Y-319665000D01*
X282398000Y-319663000D01*
X282397000Y-319660000D01*
X282397000Y-319658000D01*
X282396000Y-319655000D01*
X282396000Y-319653000D01*
X282395000Y-319650000D01*
X282395000Y-319648000D01*
X282395000Y-319645000D01*
X282395000Y-319355000D01*
X282395000Y-319352000D01*
X282395000Y-319350000D01*
X282396000Y-319347000D01*
X282396000Y-319345000D01*
X282397000Y-319342000D01*
X282397000Y-319340000D01*
X282398000Y-319337000D01*
X282399000Y-319335000D01*
X282400000Y-319332000D01*
X282402000Y-319330000D01*
X282403000Y-319328000D01*
X282405000Y-319326000D01*
X282406000Y-319324000D01*
X282408000Y-319322000D01*
X282410000Y-319320000D01*
X282412000Y-319318000D01*
X282414000Y-319316000D01*
X282416000Y-319315000D01*
X282418000Y-319313000D01*
X282420000Y-319312000D01*
X282422000Y-319310000D01*
X282425000Y-319309000D01*
X282427000Y-319308000D01*
X282430000Y-319307000D01*
X282432000Y-319307000D01*
X282435000Y-319306000D01*
X282437000Y-319306000D01*
X282440000Y-319305000D01*
X282442000Y-319305000D01*
X282445000Y-319305000D01*
X282985000Y-319305000D01*
X282988000Y-319305000D01*
X282990000Y-319305000D01*
X282993000Y-319306000D01*
G37*
X282993000Y-319806000D02*
X282995000Y-319806000D01*
X282998000Y-319807000D01*
X283000000Y-319807000D01*
X283003000Y-319808000D01*
X283005000Y-319809000D01*
X283008000Y-319810000D01*
X283010000Y-319812000D01*
X283012000Y-319813000D01*
X283014000Y-319815000D01*
X283016000Y-319816000D01*
X283018000Y-319818000D01*
X283020000Y-319820000D01*
X283022000Y-319822000D01*
X283024000Y-319824000D01*
X283025000Y-319826000D01*
X283027000Y-319828000D01*
X283028000Y-319830000D01*
X283030000Y-319832000D01*
X283031000Y-319835000D01*
X283032000Y-319837000D01*
X283033000Y-319840000D01*
X283033000Y-319842000D01*
X283034000Y-319845000D01*
X283034000Y-319847000D01*
X283035000Y-319850000D01*
X283035000Y-319852000D01*
X283035000Y-319855000D01*
X283035000Y-320145000D01*
X283035000Y-320148000D01*
X283035000Y-320150000D01*
X283034000Y-320153000D01*
X283034000Y-320155000D01*
X283033000Y-320158000D01*
X283033000Y-320160000D01*
X283032000Y-320163000D01*
X283031000Y-320165000D01*
X283030000Y-320168000D01*
X283028000Y-320170000D01*
X283027000Y-320172000D01*
X283025000Y-320174000D01*
X283024000Y-320176000D01*
X283022000Y-320178000D01*
X283020000Y-320180000D01*
X283018000Y-320182000D01*
X283016000Y-320184000D01*
X283014000Y-320185000D01*
X283012000Y-320187000D01*
X283010000Y-320188000D01*
X283008000Y-320190000D01*
X283005000Y-320191000D01*
X283003000Y-320192000D01*
X283000000Y-320193000D01*
X282998000Y-320193000D01*
X282995000Y-320194000D01*
X282993000Y-320194000D01*
X282990000Y-320195000D01*
X282988000Y-320195000D01*
X282985000Y-320195000D01*
X282445000Y-320195000D01*
X282442000Y-320195000D01*
X282440000Y-320195000D01*
X282437000Y-320194000D01*
X282435000Y-320194000D01*
X282432000Y-320193000D01*
X282430000Y-320193000D01*
X282427000Y-320192000D01*
X282425000Y-320191000D01*
X282422000Y-320190000D01*
X282420000Y-320188000D01*
X282418000Y-320187000D01*
X282416000Y-320185000D01*
X282414000Y-320184000D01*
X282412000Y-320182000D01*
X282410000Y-320180000D01*
X282408000Y-320178000D01*
X282406000Y-320176000D01*
X282405000Y-320174000D01*
X282403000Y-320172000D01*
X282402000Y-320170000D01*
X282400000Y-320168000D01*
X282399000Y-320165000D01*
X282398000Y-320163000D01*
X282397000Y-320160000D01*
X282397000Y-320158000D01*
X282396000Y-320155000D01*
X282396000Y-320153000D01*
X282395000Y-320150000D01*
X282395000Y-320148000D01*
X282395000Y-320145000D01*
X282395000Y-319855000D01*
X282395000Y-319852000D01*
X282395000Y-319850000D01*
X282396000Y-319847000D01*
X282396000Y-319845000D01*
X282397000Y-319842000D01*
X282397000Y-319840000D01*
X282398000Y-319837000D01*
X282399000Y-319835000D01*
X282400000Y-319832000D01*
X282402000Y-319830000D01*
X282403000Y-319828000D01*
X282405000Y-319826000D01*
X282406000Y-319824000D01*
X282408000Y-319822000D01*
X282410000Y-319820000D01*
X282412000Y-319818000D01*
X282414000Y-319816000D01*
X282416000Y-319815000D01*
X282418000Y-319813000D01*
X282420000Y-319812000D01*
X282422000Y-319810000D01*
X282425000Y-319809000D01*
X282427000Y-319808000D01*
X282430000Y-319807000D01*
X282432000Y-319807000D01*
X282435000Y-319806000D01*
X282437000Y-319806000D01*
X282440000Y-319805000D01*
X282442000Y-319805000D01*
X282445000Y-319805000D01*
X282985000Y-319805000D01*
X282988000Y-319805000D01*
X282990000Y-319805000D01*
X282993000Y-319806000D01*
G36*
X282993000Y-319806000D02*
G01*
X282995000Y-319806000D01*
X282998000Y-319807000D01*
X283000000Y-319807000D01*
X283003000Y-319808000D01*
X283005000Y-319809000D01*
X283008000Y-319810000D01*
X283010000Y-319812000D01*
X283012000Y-319813000D01*
X283014000Y-319815000D01*
X283016000Y-319816000D01*
X283018000Y-319818000D01*
X283020000Y-319820000D01*
X283022000Y-319822000D01*
X283024000Y-319824000D01*
X283025000Y-319826000D01*
X283027000Y-319828000D01*
X283028000Y-319830000D01*
X283030000Y-319832000D01*
X283031000Y-319835000D01*
X283032000Y-319837000D01*
X283033000Y-319840000D01*
X283033000Y-319842000D01*
X283034000Y-319845000D01*
X283034000Y-319847000D01*
X283035000Y-319850000D01*
X283035000Y-319852000D01*
X283035000Y-319855000D01*
X283035000Y-320145000D01*
X283035000Y-320148000D01*
X283035000Y-320150000D01*
X283034000Y-320153000D01*
X283034000Y-320155000D01*
X283033000Y-320158000D01*
X283033000Y-320160000D01*
X283032000Y-320163000D01*
X283031000Y-320165000D01*
X283030000Y-320168000D01*
X283028000Y-320170000D01*
X283027000Y-320172000D01*
X283025000Y-320174000D01*
X283024000Y-320176000D01*
X283022000Y-320178000D01*
X283020000Y-320180000D01*
X283018000Y-320182000D01*
X283016000Y-320184000D01*
X283014000Y-320185000D01*
X283012000Y-320187000D01*
X283010000Y-320188000D01*
X283008000Y-320190000D01*
X283005000Y-320191000D01*
X283003000Y-320192000D01*
X283000000Y-320193000D01*
X282998000Y-320193000D01*
X282995000Y-320194000D01*
X282993000Y-320194000D01*
X282990000Y-320195000D01*
X282988000Y-320195000D01*
X282985000Y-320195000D01*
X282445000Y-320195000D01*
X282442000Y-320195000D01*
X282440000Y-320195000D01*
X282437000Y-320194000D01*
X282435000Y-320194000D01*
X282432000Y-320193000D01*
X282430000Y-320193000D01*
X282427000Y-320192000D01*
X282425000Y-320191000D01*
X282422000Y-320190000D01*
X282420000Y-320188000D01*
X282418000Y-320187000D01*
X282416000Y-320185000D01*
X282414000Y-320184000D01*
X282412000Y-320182000D01*
X282410000Y-320180000D01*
X282408000Y-320178000D01*
X282406000Y-320176000D01*
X282405000Y-320174000D01*
X282403000Y-320172000D01*
X282402000Y-320170000D01*
X282400000Y-320168000D01*
X282399000Y-320165000D01*
X282398000Y-320163000D01*
X282397000Y-320160000D01*
X282397000Y-320158000D01*
X282396000Y-320155000D01*
X282396000Y-320153000D01*
X282395000Y-320150000D01*
X282395000Y-320148000D01*
X282395000Y-320145000D01*
X282395000Y-319855000D01*
X282395000Y-319852000D01*
X282395000Y-319850000D01*
X282396000Y-319847000D01*
X282396000Y-319845000D01*
X282397000Y-319842000D01*
X282397000Y-319840000D01*
X282398000Y-319837000D01*
X282399000Y-319835000D01*
X282400000Y-319832000D01*
X282402000Y-319830000D01*
X282403000Y-319828000D01*
X282405000Y-319826000D01*
X282406000Y-319824000D01*
X282408000Y-319822000D01*
X282410000Y-319820000D01*
X282412000Y-319818000D01*
X282414000Y-319816000D01*
X282416000Y-319815000D01*
X282418000Y-319813000D01*
X282420000Y-319812000D01*
X282422000Y-319810000D01*
X282425000Y-319809000D01*
X282427000Y-319808000D01*
X282430000Y-319807000D01*
X282432000Y-319807000D01*
X282435000Y-319806000D01*
X282437000Y-319806000D01*
X282440000Y-319805000D01*
X282442000Y-319805000D01*
X282445000Y-319805000D01*
X282985000Y-319805000D01*
X282988000Y-319805000D01*
X282990000Y-319805000D01*
X282993000Y-319806000D01*
G37*
X282993000Y-320306000D02*
X282995000Y-320306000D01*
X282998000Y-320307000D01*
X283000000Y-320307000D01*
X283003000Y-320308000D01*
X283005000Y-320309000D01*
X283008000Y-320310000D01*
X283010000Y-320312000D01*
X283012000Y-320313000D01*
X283014000Y-320315000D01*
X283016000Y-320316000D01*
X283018000Y-320318000D01*
X283020000Y-320320000D01*
X283022000Y-320322000D01*
X283024000Y-320324000D01*
X283025000Y-320326000D01*
X283027000Y-320328000D01*
X283028000Y-320330000D01*
X283030000Y-320332000D01*
X283031000Y-320335000D01*
X283032000Y-320337000D01*
X283033000Y-320340000D01*
X283033000Y-320342000D01*
X283034000Y-320345000D01*
X283034000Y-320347000D01*
X283035000Y-320350000D01*
X283035000Y-320352000D01*
X283035000Y-320355000D01*
X283035000Y-320645000D01*
X283035000Y-320648000D01*
X283035000Y-320650000D01*
X283034000Y-320653000D01*
X283034000Y-320655000D01*
X283033000Y-320658000D01*
X283033000Y-320660000D01*
X283032000Y-320663000D01*
X283031000Y-320665000D01*
X283030000Y-320668000D01*
X283028000Y-320670000D01*
X283027000Y-320672000D01*
X283025000Y-320674000D01*
X283024000Y-320676000D01*
X283022000Y-320678000D01*
X283020000Y-320680000D01*
X283018000Y-320682000D01*
X283016000Y-320684000D01*
X283014000Y-320685000D01*
X283012000Y-320687000D01*
X283010000Y-320688000D01*
X283008000Y-320690000D01*
X283005000Y-320691000D01*
X283003000Y-320692000D01*
X283000000Y-320693000D01*
X282998000Y-320693000D01*
X282995000Y-320694000D01*
X282993000Y-320694000D01*
X282990000Y-320695000D01*
X282988000Y-320695000D01*
X282985000Y-320695000D01*
X282445000Y-320695000D01*
X282442000Y-320695000D01*
X282440000Y-320695000D01*
X282437000Y-320694000D01*
X282435000Y-320694000D01*
X282432000Y-320693000D01*
X282430000Y-320693000D01*
X282427000Y-320692000D01*
X282425000Y-320691000D01*
X282422000Y-320690000D01*
X282420000Y-320688000D01*
X282418000Y-320687000D01*
X282416000Y-320685000D01*
X282414000Y-320684000D01*
X282412000Y-320682000D01*
X282410000Y-320680000D01*
X282408000Y-320678000D01*
X282406000Y-320676000D01*
X282405000Y-320674000D01*
X282403000Y-320672000D01*
X282402000Y-320670000D01*
X282400000Y-320668000D01*
X282399000Y-320665000D01*
X282398000Y-320663000D01*
X282397000Y-320660000D01*
X282397000Y-320658000D01*
X282396000Y-320655000D01*
X282396000Y-320653000D01*
X282395000Y-320650000D01*
X282395000Y-320648000D01*
X282395000Y-320645000D01*
X282395000Y-320355000D01*
X282395000Y-320352000D01*
X282395000Y-320350000D01*
X282396000Y-320347000D01*
X282396000Y-320345000D01*
X282397000Y-320342000D01*
X282397000Y-320340000D01*
X282398000Y-320337000D01*
X282399000Y-320335000D01*
X282400000Y-320332000D01*
X282402000Y-320330000D01*
X282403000Y-320328000D01*
X282405000Y-320326000D01*
X282406000Y-320324000D01*
X282408000Y-320322000D01*
X282410000Y-320320000D01*
X282412000Y-320318000D01*
X282414000Y-320316000D01*
X282416000Y-320315000D01*
X282418000Y-320313000D01*
X282420000Y-320312000D01*
X282422000Y-320310000D01*
X282425000Y-320309000D01*
X282427000Y-320308000D01*
X282430000Y-320307000D01*
X282432000Y-320307000D01*
X282435000Y-320306000D01*
X282437000Y-320306000D01*
X282440000Y-320305000D01*
X282442000Y-320305000D01*
X282445000Y-320305000D01*
X282985000Y-320305000D01*
X282988000Y-320305000D01*
X282990000Y-320305000D01*
X282993000Y-320306000D01*
G36*
X282993000Y-320306000D02*
G01*
X282995000Y-320306000D01*
X282998000Y-320307000D01*
X283000000Y-320307000D01*
X283003000Y-320308000D01*
X283005000Y-320309000D01*
X283008000Y-320310000D01*
X283010000Y-320312000D01*
X283012000Y-320313000D01*
X283014000Y-320315000D01*
X283016000Y-320316000D01*
X283018000Y-320318000D01*
X283020000Y-320320000D01*
X283022000Y-320322000D01*
X283024000Y-320324000D01*
X283025000Y-320326000D01*
X283027000Y-320328000D01*
X283028000Y-320330000D01*
X283030000Y-320332000D01*
X283031000Y-320335000D01*
X283032000Y-320337000D01*
X283033000Y-320340000D01*
X283033000Y-320342000D01*
X283034000Y-320345000D01*
X283034000Y-320347000D01*
X283035000Y-320350000D01*
X283035000Y-320352000D01*
X283035000Y-320355000D01*
X283035000Y-320645000D01*
X283035000Y-320648000D01*
X283035000Y-320650000D01*
X283034000Y-320653000D01*
X283034000Y-320655000D01*
X283033000Y-320658000D01*
X283033000Y-320660000D01*
X283032000Y-320663000D01*
X283031000Y-320665000D01*
X283030000Y-320668000D01*
X283028000Y-320670000D01*
X283027000Y-320672000D01*
X283025000Y-320674000D01*
X283024000Y-320676000D01*
X283022000Y-320678000D01*
X283020000Y-320680000D01*
X283018000Y-320682000D01*
X283016000Y-320684000D01*
X283014000Y-320685000D01*
X283012000Y-320687000D01*
X283010000Y-320688000D01*
X283008000Y-320690000D01*
X283005000Y-320691000D01*
X283003000Y-320692000D01*
X283000000Y-320693000D01*
X282998000Y-320693000D01*
X282995000Y-320694000D01*
X282993000Y-320694000D01*
X282990000Y-320695000D01*
X282988000Y-320695000D01*
X282985000Y-320695000D01*
X282445000Y-320695000D01*
X282442000Y-320695000D01*
X282440000Y-320695000D01*
X282437000Y-320694000D01*
X282435000Y-320694000D01*
X282432000Y-320693000D01*
X282430000Y-320693000D01*
X282427000Y-320692000D01*
X282425000Y-320691000D01*
X282422000Y-320690000D01*
X282420000Y-320688000D01*
X282418000Y-320687000D01*
X282416000Y-320685000D01*
X282414000Y-320684000D01*
X282412000Y-320682000D01*
X282410000Y-320680000D01*
X282408000Y-320678000D01*
X282406000Y-320676000D01*
X282405000Y-320674000D01*
X282403000Y-320672000D01*
X282402000Y-320670000D01*
X282400000Y-320668000D01*
X282399000Y-320665000D01*
X282398000Y-320663000D01*
X282397000Y-320660000D01*
X282397000Y-320658000D01*
X282396000Y-320655000D01*
X282396000Y-320653000D01*
X282395000Y-320650000D01*
X282395000Y-320648000D01*
X282395000Y-320645000D01*
X282395000Y-320355000D01*
X282395000Y-320352000D01*
X282395000Y-320350000D01*
X282396000Y-320347000D01*
X282396000Y-320345000D01*
X282397000Y-320342000D01*
X282397000Y-320340000D01*
X282398000Y-320337000D01*
X282399000Y-320335000D01*
X282400000Y-320332000D01*
X282402000Y-320330000D01*
X282403000Y-320328000D01*
X282405000Y-320326000D01*
X282406000Y-320324000D01*
X282408000Y-320322000D01*
X282410000Y-320320000D01*
X282412000Y-320318000D01*
X282414000Y-320316000D01*
X282416000Y-320315000D01*
X282418000Y-320313000D01*
X282420000Y-320312000D01*
X282422000Y-320310000D01*
X282425000Y-320309000D01*
X282427000Y-320308000D01*
X282430000Y-320307000D01*
X282432000Y-320307000D01*
X282435000Y-320306000D01*
X282437000Y-320306000D01*
X282440000Y-320305000D01*
X282442000Y-320305000D01*
X282445000Y-320305000D01*
X282985000Y-320305000D01*
X282988000Y-320305000D01*
X282990000Y-320305000D01*
X282993000Y-320306000D01*
G37*
X282993000Y-320806000D02*
X282995000Y-320806000D01*
X282998000Y-320807000D01*
X283000000Y-320807000D01*
X283003000Y-320808000D01*
X283005000Y-320809000D01*
X283008000Y-320810000D01*
X283010000Y-320812000D01*
X283012000Y-320813000D01*
X283014000Y-320815000D01*
X283016000Y-320816000D01*
X283018000Y-320818000D01*
X283020000Y-320820000D01*
X283022000Y-320822000D01*
X283024000Y-320824000D01*
X283025000Y-320826000D01*
X283027000Y-320828000D01*
X283028000Y-320830000D01*
X283030000Y-320832000D01*
X283031000Y-320835000D01*
X283032000Y-320837000D01*
X283033000Y-320840000D01*
X283033000Y-320842000D01*
X283034000Y-320845000D01*
X283034000Y-320847000D01*
X283035000Y-320850000D01*
X283035000Y-320852000D01*
X283035000Y-320855000D01*
X283035000Y-321145000D01*
X283035000Y-321148000D01*
X283035000Y-321150000D01*
X283034000Y-321153000D01*
X283034000Y-321155000D01*
X283033000Y-321158000D01*
X283033000Y-321160000D01*
X283032000Y-321163000D01*
X283031000Y-321165000D01*
X283030000Y-321168000D01*
X283028000Y-321170000D01*
X283027000Y-321172000D01*
X283025000Y-321174000D01*
X283024000Y-321176000D01*
X283022000Y-321178000D01*
X283020000Y-321180000D01*
X283018000Y-321182000D01*
X283016000Y-321184000D01*
X283014000Y-321185000D01*
X283012000Y-321187000D01*
X283010000Y-321188000D01*
X283008000Y-321190000D01*
X283005000Y-321191000D01*
X283003000Y-321192000D01*
X283000000Y-321193000D01*
X282998000Y-321193000D01*
X282995000Y-321194000D01*
X282993000Y-321194000D01*
X282990000Y-321195000D01*
X282988000Y-321195000D01*
X282985000Y-321195000D01*
X282445000Y-321195000D01*
X282442000Y-321195000D01*
X282440000Y-321195000D01*
X282437000Y-321194000D01*
X282435000Y-321194000D01*
X282432000Y-321193000D01*
X282430000Y-321193000D01*
X282427000Y-321192000D01*
X282425000Y-321191000D01*
X282422000Y-321190000D01*
X282420000Y-321188000D01*
X282418000Y-321187000D01*
X282416000Y-321185000D01*
X282414000Y-321184000D01*
X282412000Y-321182000D01*
X282410000Y-321180000D01*
X282408000Y-321178000D01*
X282406000Y-321176000D01*
X282405000Y-321174000D01*
X282403000Y-321172000D01*
X282402000Y-321170000D01*
X282400000Y-321168000D01*
X282399000Y-321165000D01*
X282398000Y-321163000D01*
X282397000Y-321160000D01*
X282397000Y-321158000D01*
X282396000Y-321155000D01*
X282396000Y-321153000D01*
X282395000Y-321150000D01*
X282395000Y-321148000D01*
X282395000Y-321145000D01*
X282395000Y-320855000D01*
X282395000Y-320852000D01*
X282395000Y-320850000D01*
X282396000Y-320847000D01*
X282396000Y-320845000D01*
X282397000Y-320842000D01*
X282397000Y-320840000D01*
X282398000Y-320837000D01*
X282399000Y-320835000D01*
X282400000Y-320832000D01*
X282402000Y-320830000D01*
X282403000Y-320828000D01*
X282405000Y-320826000D01*
X282406000Y-320824000D01*
X282408000Y-320822000D01*
X282410000Y-320820000D01*
X282412000Y-320818000D01*
X282414000Y-320816000D01*
X282416000Y-320815000D01*
X282418000Y-320813000D01*
X282420000Y-320812000D01*
X282422000Y-320810000D01*
X282425000Y-320809000D01*
X282427000Y-320808000D01*
X282430000Y-320807000D01*
X282432000Y-320807000D01*
X282435000Y-320806000D01*
X282437000Y-320806000D01*
X282440000Y-320805000D01*
X282442000Y-320805000D01*
X282445000Y-320805000D01*
X282985000Y-320805000D01*
X282988000Y-320805000D01*
X282990000Y-320805000D01*
X282993000Y-320806000D01*
G36*
X282993000Y-320806000D02*
G01*
X282995000Y-320806000D01*
X282998000Y-320807000D01*
X283000000Y-320807000D01*
X283003000Y-320808000D01*
X283005000Y-320809000D01*
X283008000Y-320810000D01*
X283010000Y-320812000D01*
X283012000Y-320813000D01*
X283014000Y-320815000D01*
X283016000Y-320816000D01*
X283018000Y-320818000D01*
X283020000Y-320820000D01*
X283022000Y-320822000D01*
X283024000Y-320824000D01*
X283025000Y-320826000D01*
X283027000Y-320828000D01*
X283028000Y-320830000D01*
X283030000Y-320832000D01*
X283031000Y-320835000D01*
X283032000Y-320837000D01*
X283033000Y-320840000D01*
X283033000Y-320842000D01*
X283034000Y-320845000D01*
X283034000Y-320847000D01*
X283035000Y-320850000D01*
X283035000Y-320852000D01*
X283035000Y-320855000D01*
X283035000Y-321145000D01*
X283035000Y-321148000D01*
X283035000Y-321150000D01*
X283034000Y-321153000D01*
X283034000Y-321155000D01*
X283033000Y-321158000D01*
X283033000Y-321160000D01*
X283032000Y-321163000D01*
X283031000Y-321165000D01*
X283030000Y-321168000D01*
X283028000Y-321170000D01*
X283027000Y-321172000D01*
X283025000Y-321174000D01*
X283024000Y-321176000D01*
X283022000Y-321178000D01*
X283020000Y-321180000D01*
X283018000Y-321182000D01*
X283016000Y-321184000D01*
X283014000Y-321185000D01*
X283012000Y-321187000D01*
X283010000Y-321188000D01*
X283008000Y-321190000D01*
X283005000Y-321191000D01*
X283003000Y-321192000D01*
X283000000Y-321193000D01*
X282998000Y-321193000D01*
X282995000Y-321194000D01*
X282993000Y-321194000D01*
X282990000Y-321195000D01*
X282988000Y-321195000D01*
X282985000Y-321195000D01*
X282445000Y-321195000D01*
X282442000Y-321195000D01*
X282440000Y-321195000D01*
X282437000Y-321194000D01*
X282435000Y-321194000D01*
X282432000Y-321193000D01*
X282430000Y-321193000D01*
X282427000Y-321192000D01*
X282425000Y-321191000D01*
X282422000Y-321190000D01*
X282420000Y-321188000D01*
X282418000Y-321187000D01*
X282416000Y-321185000D01*
X282414000Y-321184000D01*
X282412000Y-321182000D01*
X282410000Y-321180000D01*
X282408000Y-321178000D01*
X282406000Y-321176000D01*
X282405000Y-321174000D01*
X282403000Y-321172000D01*
X282402000Y-321170000D01*
X282400000Y-321168000D01*
X282399000Y-321165000D01*
X282398000Y-321163000D01*
X282397000Y-321160000D01*
X282397000Y-321158000D01*
X282396000Y-321155000D01*
X282396000Y-321153000D01*
X282395000Y-321150000D01*
X282395000Y-321148000D01*
X282395000Y-321145000D01*
X282395000Y-320855000D01*
X282395000Y-320852000D01*
X282395000Y-320850000D01*
X282396000Y-320847000D01*
X282396000Y-320845000D01*
X282397000Y-320842000D01*
X282397000Y-320840000D01*
X282398000Y-320837000D01*
X282399000Y-320835000D01*
X282400000Y-320832000D01*
X282402000Y-320830000D01*
X282403000Y-320828000D01*
X282405000Y-320826000D01*
X282406000Y-320824000D01*
X282408000Y-320822000D01*
X282410000Y-320820000D01*
X282412000Y-320818000D01*
X282414000Y-320816000D01*
X282416000Y-320815000D01*
X282418000Y-320813000D01*
X282420000Y-320812000D01*
X282422000Y-320810000D01*
X282425000Y-320809000D01*
X282427000Y-320808000D01*
X282430000Y-320807000D01*
X282432000Y-320807000D01*
X282435000Y-320806000D01*
X282437000Y-320806000D01*
X282440000Y-320805000D01*
X282442000Y-320805000D01*
X282445000Y-320805000D01*
X282985000Y-320805000D01*
X282988000Y-320805000D01*
X282990000Y-320805000D01*
X282993000Y-320806000D01*
G37*
X284178000Y-319381000D02*
X284180000Y-319381000D01*
X284183000Y-319382000D01*
X284185000Y-319382000D01*
X284188000Y-319383000D01*
X284190000Y-319384000D01*
X284193000Y-319385000D01*
X284195000Y-319387000D01*
X284197000Y-319388000D01*
X284199000Y-319390000D01*
X284201000Y-319391000D01*
X284203000Y-319393000D01*
X284205000Y-319395000D01*
X284207000Y-319397000D01*
X284209000Y-319399000D01*
X284210000Y-319401000D01*
X284212000Y-319403000D01*
X284213000Y-319405000D01*
X284215000Y-319407000D01*
X284216000Y-319410000D01*
X284217000Y-319412000D01*
X284218000Y-319415000D01*
X284218000Y-319417000D01*
X284219000Y-319420000D01*
X284219000Y-319422000D01*
X284220000Y-319425000D01*
X284220000Y-319427000D01*
X284220000Y-319430000D01*
X284220000Y-321070000D01*
X284220000Y-321073000D01*
X284220000Y-321075000D01*
X284219000Y-321078000D01*
X284219000Y-321080000D01*
X284218000Y-321083000D01*
X284218000Y-321085000D01*
X284217000Y-321088000D01*
X284216000Y-321090000D01*
X284215000Y-321093000D01*
X284213000Y-321095000D01*
X284212000Y-321097000D01*
X284210000Y-321099000D01*
X284209000Y-321101000D01*
X284207000Y-321103000D01*
X284205000Y-321105000D01*
X284203000Y-321107000D01*
X284201000Y-321109000D01*
X284199000Y-321110000D01*
X284197000Y-321112000D01*
X284195000Y-321113000D01*
X284193000Y-321115000D01*
X284190000Y-321116000D01*
X284188000Y-321117000D01*
X284185000Y-321118000D01*
X284183000Y-321118000D01*
X284180000Y-321119000D01*
X284178000Y-321119000D01*
X284175000Y-321120000D01*
X284173000Y-321120000D01*
X284170000Y-321120000D01*
X283230000Y-321120000D01*
X283227000Y-321120000D01*
X283225000Y-321120000D01*
X283222000Y-321119000D01*
X283220000Y-321119000D01*
X283217000Y-321118000D01*
X283215000Y-321118000D01*
X283212000Y-321117000D01*
X283210000Y-321116000D01*
X283207000Y-321115000D01*
X283205000Y-321113000D01*
X283203000Y-321112000D01*
X283201000Y-321110000D01*
X283199000Y-321109000D01*
X283197000Y-321107000D01*
X283195000Y-321105000D01*
X283193000Y-321103000D01*
X283191000Y-321101000D01*
X283190000Y-321099000D01*
X283188000Y-321097000D01*
X283187000Y-321095000D01*
X283185000Y-321093000D01*
X283184000Y-321090000D01*
X283183000Y-321088000D01*
X283182000Y-321085000D01*
X283182000Y-321083000D01*
X283181000Y-321080000D01*
X283181000Y-321078000D01*
X283180000Y-321075000D01*
X283180000Y-321073000D01*
X283180000Y-321070000D01*
X283180000Y-319430000D01*
X283180000Y-319427000D01*
X283180000Y-319425000D01*
X283181000Y-319422000D01*
X283181000Y-319420000D01*
X283182000Y-319417000D01*
X283182000Y-319415000D01*
X283183000Y-319412000D01*
X283184000Y-319410000D01*
X283185000Y-319407000D01*
X283187000Y-319405000D01*
X283188000Y-319403000D01*
X283190000Y-319401000D01*
X283191000Y-319399000D01*
X283193000Y-319397000D01*
X283195000Y-319395000D01*
X283197000Y-319393000D01*
X283199000Y-319391000D01*
X283201000Y-319390000D01*
X283203000Y-319388000D01*
X283205000Y-319387000D01*
X283207000Y-319385000D01*
X283210000Y-319384000D01*
X283212000Y-319383000D01*
X283215000Y-319382000D01*
X283217000Y-319382000D01*
X283220000Y-319381000D01*
X283222000Y-319381000D01*
X283225000Y-319380000D01*
X283227000Y-319380000D01*
X283230000Y-319380000D01*
X284170000Y-319380000D01*
X284173000Y-319380000D01*
X284175000Y-319380000D01*
X284178000Y-319381000D01*
G36*
X284178000Y-319381000D02*
G01*
X284180000Y-319381000D01*
X284183000Y-319382000D01*
X284185000Y-319382000D01*
X284188000Y-319383000D01*
X284190000Y-319384000D01*
X284193000Y-319385000D01*
X284195000Y-319387000D01*
X284197000Y-319388000D01*
X284199000Y-319390000D01*
X284201000Y-319391000D01*
X284203000Y-319393000D01*
X284205000Y-319395000D01*
X284207000Y-319397000D01*
X284209000Y-319399000D01*
X284210000Y-319401000D01*
X284212000Y-319403000D01*
X284213000Y-319405000D01*
X284215000Y-319407000D01*
X284216000Y-319410000D01*
X284217000Y-319412000D01*
X284218000Y-319415000D01*
X284218000Y-319417000D01*
X284219000Y-319420000D01*
X284219000Y-319422000D01*
X284220000Y-319425000D01*
X284220000Y-319427000D01*
X284220000Y-319430000D01*
X284220000Y-321070000D01*
X284220000Y-321073000D01*
X284220000Y-321075000D01*
X284219000Y-321078000D01*
X284219000Y-321080000D01*
X284218000Y-321083000D01*
X284218000Y-321085000D01*
X284217000Y-321088000D01*
X284216000Y-321090000D01*
X284215000Y-321093000D01*
X284213000Y-321095000D01*
X284212000Y-321097000D01*
X284210000Y-321099000D01*
X284209000Y-321101000D01*
X284207000Y-321103000D01*
X284205000Y-321105000D01*
X284203000Y-321107000D01*
X284201000Y-321109000D01*
X284199000Y-321110000D01*
X284197000Y-321112000D01*
X284195000Y-321113000D01*
X284193000Y-321115000D01*
X284190000Y-321116000D01*
X284188000Y-321117000D01*
X284185000Y-321118000D01*
X284183000Y-321118000D01*
X284180000Y-321119000D01*
X284178000Y-321119000D01*
X284175000Y-321120000D01*
X284173000Y-321120000D01*
X284170000Y-321120000D01*
X283230000Y-321120000D01*
X283227000Y-321120000D01*
X283225000Y-321120000D01*
X283222000Y-321119000D01*
X283220000Y-321119000D01*
X283217000Y-321118000D01*
X283215000Y-321118000D01*
X283212000Y-321117000D01*
X283210000Y-321116000D01*
X283207000Y-321115000D01*
X283205000Y-321113000D01*
X283203000Y-321112000D01*
X283201000Y-321110000D01*
X283199000Y-321109000D01*
X283197000Y-321107000D01*
X283195000Y-321105000D01*
X283193000Y-321103000D01*
X283191000Y-321101000D01*
X283190000Y-321099000D01*
X283188000Y-321097000D01*
X283187000Y-321095000D01*
X283185000Y-321093000D01*
X283184000Y-321090000D01*
X283183000Y-321088000D01*
X283182000Y-321085000D01*
X283182000Y-321083000D01*
X283181000Y-321080000D01*
X283181000Y-321078000D01*
X283180000Y-321075000D01*
X283180000Y-321073000D01*
X283180000Y-321070000D01*
X283180000Y-319430000D01*
X283180000Y-319427000D01*
X283180000Y-319425000D01*
X283181000Y-319422000D01*
X283181000Y-319420000D01*
X283182000Y-319417000D01*
X283182000Y-319415000D01*
X283183000Y-319412000D01*
X283184000Y-319410000D01*
X283185000Y-319407000D01*
X283187000Y-319405000D01*
X283188000Y-319403000D01*
X283190000Y-319401000D01*
X283191000Y-319399000D01*
X283193000Y-319397000D01*
X283195000Y-319395000D01*
X283197000Y-319393000D01*
X283199000Y-319391000D01*
X283201000Y-319390000D01*
X283203000Y-319388000D01*
X283205000Y-319387000D01*
X283207000Y-319385000D01*
X283210000Y-319384000D01*
X283212000Y-319383000D01*
X283215000Y-319382000D01*
X283217000Y-319382000D01*
X283220000Y-319381000D01*
X283222000Y-319381000D01*
X283225000Y-319380000D01*
X283227000Y-319380000D01*
X283230000Y-319380000D01*
X284170000Y-319380000D01*
X284173000Y-319380000D01*
X284175000Y-319380000D01*
X284178000Y-319381000D01*
G37*
X284963000Y-319306000D02*
X284965000Y-319306000D01*
X284968000Y-319307000D01*
X284970000Y-319307000D01*
X284973000Y-319308000D01*
X284975000Y-319309000D01*
X284978000Y-319310000D01*
X284980000Y-319312000D01*
X284982000Y-319313000D01*
X284984000Y-319315000D01*
X284986000Y-319316000D01*
X284988000Y-319318000D01*
X284990000Y-319320000D01*
X284992000Y-319322000D01*
X284994000Y-319324000D01*
X284995000Y-319326000D01*
X284997000Y-319328000D01*
X284998000Y-319330000D01*
X285000000Y-319332000D01*
X285001000Y-319335000D01*
X285002000Y-319337000D01*
X285003000Y-319340000D01*
X285003000Y-319342000D01*
X285004000Y-319345000D01*
X285004000Y-319347000D01*
X285005000Y-319350000D01*
X285005000Y-319352000D01*
X285005000Y-319355000D01*
X285005000Y-319645000D01*
X285005000Y-319648000D01*
X285005000Y-319650000D01*
X285004000Y-319653000D01*
X285004000Y-319655000D01*
X285003000Y-319658000D01*
X285003000Y-319660000D01*
X285002000Y-319663000D01*
X285001000Y-319665000D01*
X285000000Y-319668000D01*
X284998000Y-319670000D01*
X284997000Y-319672000D01*
X284995000Y-319674000D01*
X284994000Y-319676000D01*
X284992000Y-319678000D01*
X284990000Y-319680000D01*
X284988000Y-319682000D01*
X284986000Y-319684000D01*
X284984000Y-319685000D01*
X284982000Y-319687000D01*
X284980000Y-319688000D01*
X284978000Y-319690000D01*
X284975000Y-319691000D01*
X284973000Y-319692000D01*
X284970000Y-319693000D01*
X284968000Y-319693000D01*
X284965000Y-319694000D01*
X284963000Y-319694000D01*
X284960000Y-319695000D01*
X284958000Y-319695000D01*
X284955000Y-319695000D01*
X284415000Y-319695000D01*
X284412000Y-319695000D01*
X284410000Y-319695000D01*
X284407000Y-319694000D01*
X284405000Y-319694000D01*
X284402000Y-319693000D01*
X284400000Y-319693000D01*
X284397000Y-319692000D01*
X284395000Y-319691000D01*
X284392000Y-319690000D01*
X284390000Y-319688000D01*
X284388000Y-319687000D01*
X284386000Y-319685000D01*
X284384000Y-319684000D01*
X284382000Y-319682000D01*
X284380000Y-319680000D01*
X284378000Y-319678000D01*
X284376000Y-319676000D01*
X284375000Y-319674000D01*
X284373000Y-319672000D01*
X284372000Y-319670000D01*
X284370000Y-319668000D01*
X284369000Y-319665000D01*
X284368000Y-319663000D01*
X284367000Y-319660000D01*
X284367000Y-319658000D01*
X284366000Y-319655000D01*
X284366000Y-319653000D01*
X284365000Y-319650000D01*
X284365000Y-319648000D01*
X284365000Y-319645000D01*
X284365000Y-319355000D01*
X284365000Y-319352000D01*
X284365000Y-319350000D01*
X284366000Y-319347000D01*
X284366000Y-319345000D01*
X284367000Y-319342000D01*
X284367000Y-319340000D01*
X284368000Y-319337000D01*
X284369000Y-319335000D01*
X284370000Y-319332000D01*
X284372000Y-319330000D01*
X284373000Y-319328000D01*
X284375000Y-319326000D01*
X284376000Y-319324000D01*
X284378000Y-319322000D01*
X284380000Y-319320000D01*
X284382000Y-319318000D01*
X284384000Y-319316000D01*
X284386000Y-319315000D01*
X284388000Y-319313000D01*
X284390000Y-319312000D01*
X284392000Y-319310000D01*
X284395000Y-319309000D01*
X284397000Y-319308000D01*
X284400000Y-319307000D01*
X284402000Y-319307000D01*
X284405000Y-319306000D01*
X284407000Y-319306000D01*
X284410000Y-319305000D01*
X284412000Y-319305000D01*
X284415000Y-319305000D01*
X284955000Y-319305000D01*
X284958000Y-319305000D01*
X284960000Y-319305000D01*
X284963000Y-319306000D01*
G36*
X284963000Y-319306000D02*
G01*
X284965000Y-319306000D01*
X284968000Y-319307000D01*
X284970000Y-319307000D01*
X284973000Y-319308000D01*
X284975000Y-319309000D01*
X284978000Y-319310000D01*
X284980000Y-319312000D01*
X284982000Y-319313000D01*
X284984000Y-319315000D01*
X284986000Y-319316000D01*
X284988000Y-319318000D01*
X284990000Y-319320000D01*
X284992000Y-319322000D01*
X284994000Y-319324000D01*
X284995000Y-319326000D01*
X284997000Y-319328000D01*
X284998000Y-319330000D01*
X285000000Y-319332000D01*
X285001000Y-319335000D01*
X285002000Y-319337000D01*
X285003000Y-319340000D01*
X285003000Y-319342000D01*
X285004000Y-319345000D01*
X285004000Y-319347000D01*
X285005000Y-319350000D01*
X285005000Y-319352000D01*
X285005000Y-319355000D01*
X285005000Y-319645000D01*
X285005000Y-319648000D01*
X285005000Y-319650000D01*
X285004000Y-319653000D01*
X285004000Y-319655000D01*
X285003000Y-319658000D01*
X285003000Y-319660000D01*
X285002000Y-319663000D01*
X285001000Y-319665000D01*
X285000000Y-319668000D01*
X284998000Y-319670000D01*
X284997000Y-319672000D01*
X284995000Y-319674000D01*
X284994000Y-319676000D01*
X284992000Y-319678000D01*
X284990000Y-319680000D01*
X284988000Y-319682000D01*
X284986000Y-319684000D01*
X284984000Y-319685000D01*
X284982000Y-319687000D01*
X284980000Y-319688000D01*
X284978000Y-319690000D01*
X284975000Y-319691000D01*
X284973000Y-319692000D01*
X284970000Y-319693000D01*
X284968000Y-319693000D01*
X284965000Y-319694000D01*
X284963000Y-319694000D01*
X284960000Y-319695000D01*
X284958000Y-319695000D01*
X284955000Y-319695000D01*
X284415000Y-319695000D01*
X284412000Y-319695000D01*
X284410000Y-319695000D01*
X284407000Y-319694000D01*
X284405000Y-319694000D01*
X284402000Y-319693000D01*
X284400000Y-319693000D01*
X284397000Y-319692000D01*
X284395000Y-319691000D01*
X284392000Y-319690000D01*
X284390000Y-319688000D01*
X284388000Y-319687000D01*
X284386000Y-319685000D01*
X284384000Y-319684000D01*
X284382000Y-319682000D01*
X284380000Y-319680000D01*
X284378000Y-319678000D01*
X284376000Y-319676000D01*
X284375000Y-319674000D01*
X284373000Y-319672000D01*
X284372000Y-319670000D01*
X284370000Y-319668000D01*
X284369000Y-319665000D01*
X284368000Y-319663000D01*
X284367000Y-319660000D01*
X284367000Y-319658000D01*
X284366000Y-319655000D01*
X284366000Y-319653000D01*
X284365000Y-319650000D01*
X284365000Y-319648000D01*
X284365000Y-319645000D01*
X284365000Y-319355000D01*
X284365000Y-319352000D01*
X284365000Y-319350000D01*
X284366000Y-319347000D01*
X284366000Y-319345000D01*
X284367000Y-319342000D01*
X284367000Y-319340000D01*
X284368000Y-319337000D01*
X284369000Y-319335000D01*
X284370000Y-319332000D01*
X284372000Y-319330000D01*
X284373000Y-319328000D01*
X284375000Y-319326000D01*
X284376000Y-319324000D01*
X284378000Y-319322000D01*
X284380000Y-319320000D01*
X284382000Y-319318000D01*
X284384000Y-319316000D01*
X284386000Y-319315000D01*
X284388000Y-319313000D01*
X284390000Y-319312000D01*
X284392000Y-319310000D01*
X284395000Y-319309000D01*
X284397000Y-319308000D01*
X284400000Y-319307000D01*
X284402000Y-319307000D01*
X284405000Y-319306000D01*
X284407000Y-319306000D01*
X284410000Y-319305000D01*
X284412000Y-319305000D01*
X284415000Y-319305000D01*
X284955000Y-319305000D01*
X284958000Y-319305000D01*
X284960000Y-319305000D01*
X284963000Y-319306000D01*
G37*
X284963000Y-319806000D02*
X284965000Y-319806000D01*
X284968000Y-319807000D01*
X284970000Y-319807000D01*
X284973000Y-319808000D01*
X284975000Y-319809000D01*
X284978000Y-319810000D01*
X284980000Y-319812000D01*
X284982000Y-319813000D01*
X284984000Y-319815000D01*
X284986000Y-319816000D01*
X284988000Y-319818000D01*
X284990000Y-319820000D01*
X284992000Y-319822000D01*
X284994000Y-319824000D01*
X284995000Y-319826000D01*
X284997000Y-319828000D01*
X284998000Y-319830000D01*
X285000000Y-319832000D01*
X285001000Y-319835000D01*
X285002000Y-319837000D01*
X285003000Y-319840000D01*
X285003000Y-319842000D01*
X285004000Y-319845000D01*
X285004000Y-319847000D01*
X285005000Y-319850000D01*
X285005000Y-319852000D01*
X285005000Y-319855000D01*
X285005000Y-320145000D01*
X285005000Y-320148000D01*
X285005000Y-320150000D01*
X285004000Y-320153000D01*
X285004000Y-320155000D01*
X285003000Y-320158000D01*
X285003000Y-320160000D01*
X285002000Y-320163000D01*
X285001000Y-320165000D01*
X285000000Y-320168000D01*
X284998000Y-320170000D01*
X284997000Y-320172000D01*
X284995000Y-320174000D01*
X284994000Y-320176000D01*
X284992000Y-320178000D01*
X284990000Y-320180000D01*
X284988000Y-320182000D01*
X284986000Y-320184000D01*
X284984000Y-320185000D01*
X284982000Y-320187000D01*
X284980000Y-320188000D01*
X284978000Y-320190000D01*
X284975000Y-320191000D01*
X284973000Y-320192000D01*
X284970000Y-320193000D01*
X284968000Y-320193000D01*
X284965000Y-320194000D01*
X284963000Y-320194000D01*
X284960000Y-320195000D01*
X284958000Y-320195000D01*
X284955000Y-320195000D01*
X284415000Y-320195000D01*
X284412000Y-320195000D01*
X284410000Y-320195000D01*
X284407000Y-320194000D01*
X284405000Y-320194000D01*
X284402000Y-320193000D01*
X284400000Y-320193000D01*
X284397000Y-320192000D01*
X284395000Y-320191000D01*
X284392000Y-320190000D01*
X284390000Y-320188000D01*
X284388000Y-320187000D01*
X284386000Y-320185000D01*
X284384000Y-320184000D01*
X284382000Y-320182000D01*
X284380000Y-320180000D01*
X284378000Y-320178000D01*
X284376000Y-320176000D01*
X284375000Y-320174000D01*
X284373000Y-320172000D01*
X284372000Y-320170000D01*
X284370000Y-320168000D01*
X284369000Y-320165000D01*
X284368000Y-320163000D01*
X284367000Y-320160000D01*
X284367000Y-320158000D01*
X284366000Y-320155000D01*
X284366000Y-320153000D01*
X284365000Y-320150000D01*
X284365000Y-320148000D01*
X284365000Y-320145000D01*
X284365000Y-319855000D01*
X284365000Y-319852000D01*
X284365000Y-319850000D01*
X284366000Y-319847000D01*
X284366000Y-319845000D01*
X284367000Y-319842000D01*
X284367000Y-319840000D01*
X284368000Y-319837000D01*
X284369000Y-319835000D01*
X284370000Y-319832000D01*
X284372000Y-319830000D01*
X284373000Y-319828000D01*
X284375000Y-319826000D01*
X284376000Y-319824000D01*
X284378000Y-319822000D01*
X284380000Y-319820000D01*
X284382000Y-319818000D01*
X284384000Y-319816000D01*
X284386000Y-319815000D01*
X284388000Y-319813000D01*
X284390000Y-319812000D01*
X284392000Y-319810000D01*
X284395000Y-319809000D01*
X284397000Y-319808000D01*
X284400000Y-319807000D01*
X284402000Y-319807000D01*
X284405000Y-319806000D01*
X284407000Y-319806000D01*
X284410000Y-319805000D01*
X284412000Y-319805000D01*
X284415000Y-319805000D01*
X284955000Y-319805000D01*
X284958000Y-319805000D01*
X284960000Y-319805000D01*
X284963000Y-319806000D01*
G36*
X284963000Y-319806000D02*
G01*
X284965000Y-319806000D01*
X284968000Y-319807000D01*
X284970000Y-319807000D01*
X284973000Y-319808000D01*
X284975000Y-319809000D01*
X284978000Y-319810000D01*
X284980000Y-319812000D01*
X284982000Y-319813000D01*
X284984000Y-319815000D01*
X284986000Y-319816000D01*
X284988000Y-319818000D01*
X284990000Y-319820000D01*
X284992000Y-319822000D01*
X284994000Y-319824000D01*
X284995000Y-319826000D01*
X284997000Y-319828000D01*
X284998000Y-319830000D01*
X285000000Y-319832000D01*
X285001000Y-319835000D01*
X285002000Y-319837000D01*
X285003000Y-319840000D01*
X285003000Y-319842000D01*
X285004000Y-319845000D01*
X285004000Y-319847000D01*
X285005000Y-319850000D01*
X285005000Y-319852000D01*
X285005000Y-319855000D01*
X285005000Y-320145000D01*
X285005000Y-320148000D01*
X285005000Y-320150000D01*
X285004000Y-320153000D01*
X285004000Y-320155000D01*
X285003000Y-320158000D01*
X285003000Y-320160000D01*
X285002000Y-320163000D01*
X285001000Y-320165000D01*
X285000000Y-320168000D01*
X284998000Y-320170000D01*
X284997000Y-320172000D01*
X284995000Y-320174000D01*
X284994000Y-320176000D01*
X284992000Y-320178000D01*
X284990000Y-320180000D01*
X284988000Y-320182000D01*
X284986000Y-320184000D01*
X284984000Y-320185000D01*
X284982000Y-320187000D01*
X284980000Y-320188000D01*
X284978000Y-320190000D01*
X284975000Y-320191000D01*
X284973000Y-320192000D01*
X284970000Y-320193000D01*
X284968000Y-320193000D01*
X284965000Y-320194000D01*
X284963000Y-320194000D01*
X284960000Y-320195000D01*
X284958000Y-320195000D01*
X284955000Y-320195000D01*
X284415000Y-320195000D01*
X284412000Y-320195000D01*
X284410000Y-320195000D01*
X284407000Y-320194000D01*
X284405000Y-320194000D01*
X284402000Y-320193000D01*
X284400000Y-320193000D01*
X284397000Y-320192000D01*
X284395000Y-320191000D01*
X284392000Y-320190000D01*
X284390000Y-320188000D01*
X284388000Y-320187000D01*
X284386000Y-320185000D01*
X284384000Y-320184000D01*
X284382000Y-320182000D01*
X284380000Y-320180000D01*
X284378000Y-320178000D01*
X284376000Y-320176000D01*
X284375000Y-320174000D01*
X284373000Y-320172000D01*
X284372000Y-320170000D01*
X284370000Y-320168000D01*
X284369000Y-320165000D01*
X284368000Y-320163000D01*
X284367000Y-320160000D01*
X284367000Y-320158000D01*
X284366000Y-320155000D01*
X284366000Y-320153000D01*
X284365000Y-320150000D01*
X284365000Y-320148000D01*
X284365000Y-320145000D01*
X284365000Y-319855000D01*
X284365000Y-319852000D01*
X284365000Y-319850000D01*
X284366000Y-319847000D01*
X284366000Y-319845000D01*
X284367000Y-319842000D01*
X284367000Y-319840000D01*
X284368000Y-319837000D01*
X284369000Y-319835000D01*
X284370000Y-319832000D01*
X284372000Y-319830000D01*
X284373000Y-319828000D01*
X284375000Y-319826000D01*
X284376000Y-319824000D01*
X284378000Y-319822000D01*
X284380000Y-319820000D01*
X284382000Y-319818000D01*
X284384000Y-319816000D01*
X284386000Y-319815000D01*
X284388000Y-319813000D01*
X284390000Y-319812000D01*
X284392000Y-319810000D01*
X284395000Y-319809000D01*
X284397000Y-319808000D01*
X284400000Y-319807000D01*
X284402000Y-319807000D01*
X284405000Y-319806000D01*
X284407000Y-319806000D01*
X284410000Y-319805000D01*
X284412000Y-319805000D01*
X284415000Y-319805000D01*
X284955000Y-319805000D01*
X284958000Y-319805000D01*
X284960000Y-319805000D01*
X284963000Y-319806000D01*
G37*
X284963000Y-320306000D02*
X284965000Y-320306000D01*
X284968000Y-320307000D01*
X284970000Y-320307000D01*
X284973000Y-320308000D01*
X284975000Y-320309000D01*
X284978000Y-320310000D01*
X284980000Y-320312000D01*
X284982000Y-320313000D01*
X284984000Y-320315000D01*
X284986000Y-320316000D01*
X284988000Y-320318000D01*
X284990000Y-320320000D01*
X284992000Y-320322000D01*
X284994000Y-320324000D01*
X284995000Y-320326000D01*
X284997000Y-320328000D01*
X284998000Y-320330000D01*
X285000000Y-320332000D01*
X285001000Y-320335000D01*
X285002000Y-320337000D01*
X285003000Y-320340000D01*
X285003000Y-320342000D01*
X285004000Y-320345000D01*
X285004000Y-320347000D01*
X285005000Y-320350000D01*
X285005000Y-320352000D01*
X285005000Y-320355000D01*
X285005000Y-320645000D01*
X285005000Y-320648000D01*
X285005000Y-320650000D01*
X285004000Y-320653000D01*
X285004000Y-320655000D01*
X285003000Y-320658000D01*
X285003000Y-320660000D01*
X285002000Y-320663000D01*
X285001000Y-320665000D01*
X285000000Y-320668000D01*
X284998000Y-320670000D01*
X284997000Y-320672000D01*
X284995000Y-320674000D01*
X284994000Y-320676000D01*
X284992000Y-320678000D01*
X284990000Y-320680000D01*
X284988000Y-320682000D01*
X284986000Y-320684000D01*
X284984000Y-320685000D01*
X284982000Y-320687000D01*
X284980000Y-320688000D01*
X284978000Y-320690000D01*
X284975000Y-320691000D01*
X284973000Y-320692000D01*
X284970000Y-320693000D01*
X284968000Y-320693000D01*
X284965000Y-320694000D01*
X284963000Y-320694000D01*
X284960000Y-320695000D01*
X284958000Y-320695000D01*
X284955000Y-320695000D01*
X284415000Y-320695000D01*
X284412000Y-320695000D01*
X284410000Y-320695000D01*
X284407000Y-320694000D01*
X284405000Y-320694000D01*
X284402000Y-320693000D01*
X284400000Y-320693000D01*
X284397000Y-320692000D01*
X284395000Y-320691000D01*
X284392000Y-320690000D01*
X284390000Y-320688000D01*
X284388000Y-320687000D01*
X284386000Y-320685000D01*
X284384000Y-320684000D01*
X284382000Y-320682000D01*
X284380000Y-320680000D01*
X284378000Y-320678000D01*
X284376000Y-320676000D01*
X284375000Y-320674000D01*
X284373000Y-320672000D01*
X284372000Y-320670000D01*
X284370000Y-320668000D01*
X284369000Y-320665000D01*
X284368000Y-320663000D01*
X284367000Y-320660000D01*
X284367000Y-320658000D01*
X284366000Y-320655000D01*
X284366000Y-320653000D01*
X284365000Y-320650000D01*
X284365000Y-320648000D01*
X284365000Y-320645000D01*
X284365000Y-320355000D01*
X284365000Y-320352000D01*
X284365000Y-320350000D01*
X284366000Y-320347000D01*
X284366000Y-320345000D01*
X284367000Y-320342000D01*
X284367000Y-320340000D01*
X284368000Y-320337000D01*
X284369000Y-320335000D01*
X284370000Y-320332000D01*
X284372000Y-320330000D01*
X284373000Y-320328000D01*
X284375000Y-320326000D01*
X284376000Y-320324000D01*
X284378000Y-320322000D01*
X284380000Y-320320000D01*
X284382000Y-320318000D01*
X284384000Y-320316000D01*
X284386000Y-320315000D01*
X284388000Y-320313000D01*
X284390000Y-320312000D01*
X284392000Y-320310000D01*
X284395000Y-320309000D01*
X284397000Y-320308000D01*
X284400000Y-320307000D01*
X284402000Y-320307000D01*
X284405000Y-320306000D01*
X284407000Y-320306000D01*
X284410000Y-320305000D01*
X284412000Y-320305000D01*
X284415000Y-320305000D01*
X284955000Y-320305000D01*
X284958000Y-320305000D01*
X284960000Y-320305000D01*
X284963000Y-320306000D01*
G36*
X284963000Y-320306000D02*
G01*
X284965000Y-320306000D01*
X284968000Y-320307000D01*
X284970000Y-320307000D01*
X284973000Y-320308000D01*
X284975000Y-320309000D01*
X284978000Y-320310000D01*
X284980000Y-320312000D01*
X284982000Y-320313000D01*
X284984000Y-320315000D01*
X284986000Y-320316000D01*
X284988000Y-320318000D01*
X284990000Y-320320000D01*
X284992000Y-320322000D01*
X284994000Y-320324000D01*
X284995000Y-320326000D01*
X284997000Y-320328000D01*
X284998000Y-320330000D01*
X285000000Y-320332000D01*
X285001000Y-320335000D01*
X285002000Y-320337000D01*
X285003000Y-320340000D01*
X285003000Y-320342000D01*
X285004000Y-320345000D01*
X285004000Y-320347000D01*
X285005000Y-320350000D01*
X285005000Y-320352000D01*
X285005000Y-320355000D01*
X285005000Y-320645000D01*
X285005000Y-320648000D01*
X285005000Y-320650000D01*
X285004000Y-320653000D01*
X285004000Y-320655000D01*
X285003000Y-320658000D01*
X285003000Y-320660000D01*
X285002000Y-320663000D01*
X285001000Y-320665000D01*
X285000000Y-320668000D01*
X284998000Y-320670000D01*
X284997000Y-320672000D01*
X284995000Y-320674000D01*
X284994000Y-320676000D01*
X284992000Y-320678000D01*
X284990000Y-320680000D01*
X284988000Y-320682000D01*
X284986000Y-320684000D01*
X284984000Y-320685000D01*
X284982000Y-320687000D01*
X284980000Y-320688000D01*
X284978000Y-320690000D01*
X284975000Y-320691000D01*
X284973000Y-320692000D01*
X284970000Y-320693000D01*
X284968000Y-320693000D01*
X284965000Y-320694000D01*
X284963000Y-320694000D01*
X284960000Y-320695000D01*
X284958000Y-320695000D01*
X284955000Y-320695000D01*
X284415000Y-320695000D01*
X284412000Y-320695000D01*
X284410000Y-320695000D01*
X284407000Y-320694000D01*
X284405000Y-320694000D01*
X284402000Y-320693000D01*
X284400000Y-320693000D01*
X284397000Y-320692000D01*
X284395000Y-320691000D01*
X284392000Y-320690000D01*
X284390000Y-320688000D01*
X284388000Y-320687000D01*
X284386000Y-320685000D01*
X284384000Y-320684000D01*
X284382000Y-320682000D01*
X284380000Y-320680000D01*
X284378000Y-320678000D01*
X284376000Y-320676000D01*
X284375000Y-320674000D01*
X284373000Y-320672000D01*
X284372000Y-320670000D01*
X284370000Y-320668000D01*
X284369000Y-320665000D01*
X284368000Y-320663000D01*
X284367000Y-320660000D01*
X284367000Y-320658000D01*
X284366000Y-320655000D01*
X284366000Y-320653000D01*
X284365000Y-320650000D01*
X284365000Y-320648000D01*
X284365000Y-320645000D01*
X284365000Y-320355000D01*
X284365000Y-320352000D01*
X284365000Y-320350000D01*
X284366000Y-320347000D01*
X284366000Y-320345000D01*
X284367000Y-320342000D01*
X284367000Y-320340000D01*
X284368000Y-320337000D01*
X284369000Y-320335000D01*
X284370000Y-320332000D01*
X284372000Y-320330000D01*
X284373000Y-320328000D01*
X284375000Y-320326000D01*
X284376000Y-320324000D01*
X284378000Y-320322000D01*
X284380000Y-320320000D01*
X284382000Y-320318000D01*
X284384000Y-320316000D01*
X284386000Y-320315000D01*
X284388000Y-320313000D01*
X284390000Y-320312000D01*
X284392000Y-320310000D01*
X284395000Y-320309000D01*
X284397000Y-320308000D01*
X284400000Y-320307000D01*
X284402000Y-320307000D01*
X284405000Y-320306000D01*
X284407000Y-320306000D01*
X284410000Y-320305000D01*
X284412000Y-320305000D01*
X284415000Y-320305000D01*
X284955000Y-320305000D01*
X284958000Y-320305000D01*
X284960000Y-320305000D01*
X284963000Y-320306000D01*
G37*
X284963000Y-320806000D02*
X284965000Y-320806000D01*
X284968000Y-320807000D01*
X284970000Y-320807000D01*
X284973000Y-320808000D01*
X284975000Y-320809000D01*
X284978000Y-320810000D01*
X284980000Y-320812000D01*
X284982000Y-320813000D01*
X284984000Y-320815000D01*
X284986000Y-320816000D01*
X284988000Y-320818000D01*
X284990000Y-320820000D01*
X284992000Y-320822000D01*
X284994000Y-320824000D01*
X284995000Y-320826000D01*
X284997000Y-320828000D01*
X284998000Y-320830000D01*
X285000000Y-320832000D01*
X285001000Y-320835000D01*
X285002000Y-320837000D01*
X285003000Y-320840000D01*
X285003000Y-320842000D01*
X285004000Y-320845000D01*
X285004000Y-320847000D01*
X285005000Y-320850000D01*
X285005000Y-320852000D01*
X285005000Y-320855000D01*
X285005000Y-321145000D01*
X285005000Y-321148000D01*
X285005000Y-321150000D01*
X285004000Y-321153000D01*
X285004000Y-321155000D01*
X285003000Y-321158000D01*
X285003000Y-321160000D01*
X285002000Y-321163000D01*
X285001000Y-321165000D01*
X285000000Y-321168000D01*
X284998000Y-321170000D01*
X284997000Y-321172000D01*
X284995000Y-321174000D01*
X284994000Y-321176000D01*
X284992000Y-321178000D01*
X284990000Y-321180000D01*
X284988000Y-321182000D01*
X284986000Y-321184000D01*
X284984000Y-321185000D01*
X284982000Y-321187000D01*
X284980000Y-321188000D01*
X284978000Y-321190000D01*
X284975000Y-321191000D01*
X284973000Y-321192000D01*
X284970000Y-321193000D01*
X284968000Y-321193000D01*
X284965000Y-321194000D01*
X284963000Y-321194000D01*
X284960000Y-321195000D01*
X284958000Y-321195000D01*
X284955000Y-321195000D01*
X284415000Y-321195000D01*
X284412000Y-321195000D01*
X284410000Y-321195000D01*
X284407000Y-321194000D01*
X284405000Y-321194000D01*
X284402000Y-321193000D01*
X284400000Y-321193000D01*
X284397000Y-321192000D01*
X284395000Y-321191000D01*
X284392000Y-321190000D01*
X284390000Y-321188000D01*
X284388000Y-321187000D01*
X284386000Y-321185000D01*
X284384000Y-321184000D01*
X284382000Y-321182000D01*
X284380000Y-321180000D01*
X284378000Y-321178000D01*
X284376000Y-321176000D01*
X284375000Y-321174000D01*
X284373000Y-321172000D01*
X284372000Y-321170000D01*
X284370000Y-321168000D01*
X284369000Y-321165000D01*
X284368000Y-321163000D01*
X284367000Y-321160000D01*
X284367000Y-321158000D01*
X284366000Y-321155000D01*
X284366000Y-321153000D01*
X284365000Y-321150000D01*
X284365000Y-321148000D01*
X284365000Y-321145000D01*
X284365000Y-320855000D01*
X284365000Y-320852000D01*
X284365000Y-320850000D01*
X284366000Y-320847000D01*
X284366000Y-320845000D01*
X284367000Y-320842000D01*
X284367000Y-320840000D01*
X284368000Y-320837000D01*
X284369000Y-320835000D01*
X284370000Y-320832000D01*
X284372000Y-320830000D01*
X284373000Y-320828000D01*
X284375000Y-320826000D01*
X284376000Y-320824000D01*
X284378000Y-320822000D01*
X284380000Y-320820000D01*
X284382000Y-320818000D01*
X284384000Y-320816000D01*
X284386000Y-320815000D01*
X284388000Y-320813000D01*
X284390000Y-320812000D01*
X284392000Y-320810000D01*
X284395000Y-320809000D01*
X284397000Y-320808000D01*
X284400000Y-320807000D01*
X284402000Y-320807000D01*
X284405000Y-320806000D01*
X284407000Y-320806000D01*
X284410000Y-320805000D01*
X284412000Y-320805000D01*
X284415000Y-320805000D01*
X284955000Y-320805000D01*
X284958000Y-320805000D01*
X284960000Y-320805000D01*
X284963000Y-320806000D01*
G36*
X284963000Y-320806000D02*
G01*
X284965000Y-320806000D01*
X284968000Y-320807000D01*
X284970000Y-320807000D01*
X284973000Y-320808000D01*
X284975000Y-320809000D01*
X284978000Y-320810000D01*
X284980000Y-320812000D01*
X284982000Y-320813000D01*
X284984000Y-320815000D01*
X284986000Y-320816000D01*
X284988000Y-320818000D01*
X284990000Y-320820000D01*
X284992000Y-320822000D01*
X284994000Y-320824000D01*
X284995000Y-320826000D01*
X284997000Y-320828000D01*
X284998000Y-320830000D01*
X285000000Y-320832000D01*
X285001000Y-320835000D01*
X285002000Y-320837000D01*
X285003000Y-320840000D01*
X285003000Y-320842000D01*
X285004000Y-320845000D01*
X285004000Y-320847000D01*
X285005000Y-320850000D01*
X285005000Y-320852000D01*
X285005000Y-320855000D01*
X285005000Y-321145000D01*
X285005000Y-321148000D01*
X285005000Y-321150000D01*
X285004000Y-321153000D01*
X285004000Y-321155000D01*
X285003000Y-321158000D01*
X285003000Y-321160000D01*
X285002000Y-321163000D01*
X285001000Y-321165000D01*
X285000000Y-321168000D01*
X284998000Y-321170000D01*
X284997000Y-321172000D01*
X284995000Y-321174000D01*
X284994000Y-321176000D01*
X284992000Y-321178000D01*
X284990000Y-321180000D01*
X284988000Y-321182000D01*
X284986000Y-321184000D01*
X284984000Y-321185000D01*
X284982000Y-321187000D01*
X284980000Y-321188000D01*
X284978000Y-321190000D01*
X284975000Y-321191000D01*
X284973000Y-321192000D01*
X284970000Y-321193000D01*
X284968000Y-321193000D01*
X284965000Y-321194000D01*
X284963000Y-321194000D01*
X284960000Y-321195000D01*
X284958000Y-321195000D01*
X284955000Y-321195000D01*
X284415000Y-321195000D01*
X284412000Y-321195000D01*
X284410000Y-321195000D01*
X284407000Y-321194000D01*
X284405000Y-321194000D01*
X284402000Y-321193000D01*
X284400000Y-321193000D01*
X284397000Y-321192000D01*
X284395000Y-321191000D01*
X284392000Y-321190000D01*
X284390000Y-321188000D01*
X284388000Y-321187000D01*
X284386000Y-321185000D01*
X284384000Y-321184000D01*
X284382000Y-321182000D01*
X284380000Y-321180000D01*
X284378000Y-321178000D01*
X284376000Y-321176000D01*
X284375000Y-321174000D01*
X284373000Y-321172000D01*
X284372000Y-321170000D01*
X284370000Y-321168000D01*
X284369000Y-321165000D01*
X284368000Y-321163000D01*
X284367000Y-321160000D01*
X284367000Y-321158000D01*
X284366000Y-321155000D01*
X284366000Y-321153000D01*
X284365000Y-321150000D01*
X284365000Y-321148000D01*
X284365000Y-321145000D01*
X284365000Y-320855000D01*
X284365000Y-320852000D01*
X284365000Y-320850000D01*
X284366000Y-320847000D01*
X284366000Y-320845000D01*
X284367000Y-320842000D01*
X284367000Y-320840000D01*
X284368000Y-320837000D01*
X284369000Y-320835000D01*
X284370000Y-320832000D01*
X284372000Y-320830000D01*
X284373000Y-320828000D01*
X284375000Y-320826000D01*
X284376000Y-320824000D01*
X284378000Y-320822000D01*
X284380000Y-320820000D01*
X284382000Y-320818000D01*
X284384000Y-320816000D01*
X284386000Y-320815000D01*
X284388000Y-320813000D01*
X284390000Y-320812000D01*
X284392000Y-320810000D01*
X284395000Y-320809000D01*
X284397000Y-320808000D01*
X284400000Y-320807000D01*
X284402000Y-320807000D01*
X284405000Y-320806000D01*
X284407000Y-320806000D01*
X284410000Y-320805000D01*
X284412000Y-320805000D01*
X284415000Y-320805000D01*
X284955000Y-320805000D01*
X284958000Y-320805000D01*
X284960000Y-320805000D01*
X284963000Y-320806000D01*
G37*
%TO.C,U10*%
X270370000Y-304890000D02*
X269630000Y-304890000D01*
X269630000Y-304510000D01*
X270370000Y-304510000D01*
X270370000Y-304890000D01*
G36*
X270370000Y-304890000D02*
G01*
X269630000Y-304890000D01*
X269630000Y-304510000D01*
X270370000Y-304510000D01*
X270370000Y-304890000D01*
G37*
X270370000Y-305390000D02*
X269630000Y-305390000D01*
X269630000Y-305010000D01*
X270370000Y-305010000D01*
X270370000Y-305390000D01*
G36*
X270370000Y-305390000D02*
G01*
X269630000Y-305390000D01*
X269630000Y-305010000D01*
X270370000Y-305010000D01*
X270370000Y-305390000D01*
G37*
X270370000Y-305890000D02*
X269630000Y-305890000D01*
X269630000Y-305510000D01*
X270370000Y-305510000D01*
X270370000Y-305890000D01*
G36*
X270370000Y-305890000D02*
G01*
X269630000Y-305890000D01*
X269630000Y-305510000D01*
X270370000Y-305510000D01*
X270370000Y-305890000D01*
G37*
X270370000Y-306390000D02*
X269630000Y-306390000D01*
X269630000Y-306010000D01*
X270370000Y-306010000D01*
X270370000Y-306390000D01*
G36*
X270370000Y-306390000D02*
G01*
X269630000Y-306390000D01*
X269630000Y-306010000D01*
X270370000Y-306010000D01*
X270370000Y-306390000D01*
G37*
X270370000Y-306890000D02*
X269630000Y-306890000D01*
X269630000Y-306510000D01*
X270370000Y-306510000D01*
X270370000Y-306890000D01*
G36*
X270370000Y-306890000D02*
G01*
X269630000Y-306890000D01*
X269630000Y-306510000D01*
X270370000Y-306510000D01*
X270370000Y-306890000D01*
G37*
X273170000Y-304890000D02*
X272430000Y-304890000D01*
X272430000Y-304510000D01*
X273170000Y-304510000D01*
X273170000Y-304890000D01*
G36*
X273170000Y-304890000D02*
G01*
X272430000Y-304890000D01*
X272430000Y-304510000D01*
X273170000Y-304510000D01*
X273170000Y-304890000D01*
G37*
X273170000Y-305390000D02*
X272430000Y-305390000D01*
X272430000Y-305010000D01*
X273170000Y-305010000D01*
X273170000Y-305390000D01*
G36*
X273170000Y-305390000D02*
G01*
X272430000Y-305390000D01*
X272430000Y-305010000D01*
X273170000Y-305010000D01*
X273170000Y-305390000D01*
G37*
X273170000Y-305890000D02*
X272430000Y-305890000D01*
X272430000Y-305510000D01*
X273170000Y-305510000D01*
X273170000Y-305890000D01*
G36*
X273170000Y-305890000D02*
G01*
X272430000Y-305890000D01*
X272430000Y-305510000D01*
X273170000Y-305510000D01*
X273170000Y-305890000D01*
G37*
X273170000Y-306390000D02*
X272430000Y-306390000D01*
X272430000Y-306010000D01*
X273170000Y-306010000D01*
X273170000Y-306390000D01*
G36*
X273170000Y-306390000D02*
G01*
X272430000Y-306390000D01*
X272430000Y-306010000D01*
X273170000Y-306010000D01*
X273170000Y-306390000D01*
G37*
X273170000Y-306890000D02*
X272430000Y-306890000D01*
X272430000Y-306510000D01*
X273170000Y-306510000D01*
X273170000Y-306890000D01*
G36*
X273170000Y-306890000D02*
G01*
X272430000Y-306890000D01*
X272430000Y-306510000D01*
X273170000Y-306510000D01*
X273170000Y-306890000D01*
G37*
X271345000Y-304430000D02*
X271455000Y-304430000D01*
X271455000Y-303930000D01*
X271845000Y-303930000D01*
X271845000Y-304430000D01*
X272295000Y-304430000D01*
X272295000Y-306970000D01*
X271845000Y-306970000D01*
X271845000Y-307470000D01*
X271455000Y-307470000D01*
X271455000Y-306970000D01*
X271345000Y-306970000D01*
X271345000Y-307470000D01*
X270955000Y-307470000D01*
X270955000Y-306970000D01*
X270505000Y-306970000D01*
X270505000Y-304430000D01*
X270955000Y-304430000D01*
X270955000Y-303930000D01*
X271345000Y-303930000D01*
X271345000Y-304430000D01*
G36*
X271345000Y-304430000D02*
G01*
X271455000Y-304430000D01*
X271455000Y-303930000D01*
X271845000Y-303930000D01*
X271845000Y-304430000D01*
X272295000Y-304430000D01*
X272295000Y-306970000D01*
X271845000Y-306970000D01*
X271845000Y-307470000D01*
X271455000Y-307470000D01*
X271455000Y-306970000D01*
X271345000Y-306970000D01*
X271345000Y-307470000D01*
X270955000Y-307470000D01*
X270955000Y-306970000D01*
X270505000Y-306970000D01*
X270505000Y-304430000D01*
X270955000Y-304430000D01*
X270955000Y-303930000D01*
X271345000Y-303930000D01*
X271345000Y-304430000D01*
G37*
D11*
%TO.C,J6*%
X288883100Y-319750000D02*
G75*
G02*
X287656900Y-319750000I-613100J0D01*
G01*
X287656900Y-319750000D02*
G75*
G02*
X288883100Y-319750000I613100J0D01*
G01*
D12*
X301858100Y-319750000D02*
G75*
G02*
X300281900Y-319750000I-788100J0D01*
G01*
X300281900Y-319750000D02*
G75*
G02*
X301858100Y-319750000I788100J0D01*
G01*
D10*
X294996200Y-320976200D02*
X292543800Y-320976200D01*
X292543800Y-318523800D01*
X294996200Y-318523800D01*
X294996200Y-320976200D01*
G36*
X294996200Y-320976200D02*
G01*
X292543800Y-320976200D01*
X292543800Y-318523800D01*
X294996200Y-318523800D01*
X294996200Y-320976200D01*
G37*
%TD*%
D13*
%TO.C,R15*%
X270425000Y-273350000D03*
X272250000Y-273350000D03*
%TD*%
%TO.C,R39*%
X263900000Y-308300000D03*
X265725000Y-308300000D03*
%TD*%
D14*
%TO.C,C21*%
X182300000Y-302900000D03*
X184200000Y-302900000D03*
%TD*%
D15*
%TO.C,J4*%
X110160000Y-288710000D03*
D16*
X112700000Y-291250000D03*
X112700000Y-286170000D03*
X107620000Y-291250000D03*
X107620000Y-286170000D03*
%TD*%
D17*
%TO.C,R42*%
X254445000Y-299500000D03*
X252620000Y-299500000D03*
%TD*%
D18*
%TO.C,R1*%
X141450000Y-294000000D03*
X141450000Y-292175000D03*
%TD*%
D19*
%TO.C,C5*%
X145150000Y-292050000D03*
X145150000Y-290150000D03*
%TD*%
D20*
%TO.C,D13*%
X276075000Y-288050000D03*
X274200000Y-288050000D03*
%TD*%
D21*
%TO.C,TP3*%
X81000000Y-326400000D03*
%TD*%
D17*
%TO.C,R7*%
X270512500Y-316000000D03*
X268687500Y-316000000D03*
%TD*%
D22*
%TO.C,C33*%
X285450000Y-323850000D03*
X285450000Y-325750000D03*
%TD*%
D21*
%TO.C,TP1*%
X300200000Y-273750000D03*
%TD*%
D23*
%TO.C,U8*%
X251986200Y-306195000D03*
X251986200Y-307465000D03*
X251986200Y-308735000D03*
X251986200Y-310005000D03*
X256913800Y-310005000D03*
X256913800Y-308735000D03*
X256913800Y-307465000D03*
X256913800Y-306195000D03*
%TD*%
D13*
%TO.C,R17*%
X270425000Y-277550000D03*
X272250000Y-277550000D03*
%TD*%
D24*
%TO.C,MT2*%
X111960000Y-329920000D03*
%TD*%
D22*
%TO.C,C6*%
X145250000Y-294600000D03*
X145250000Y-296500000D03*
%TD*%
D25*
%TO.C,U3*%
X175815000Y-292914322D03*
X175815000Y-293414322D03*
X175815000Y-293914322D03*
X175815000Y-294414322D03*
X175815000Y-294914322D03*
D26*
X176500000Y-295599322D03*
X177000000Y-295599322D03*
X177500000Y-295599322D03*
X178000000Y-295599322D03*
X178500000Y-295599322D03*
D25*
X179185000Y-294914322D03*
X179185000Y-294414322D03*
X179185000Y-293914322D03*
X179185000Y-293414322D03*
X179185000Y-292914322D03*
D26*
X178500000Y-292229322D03*
X178000000Y-292229322D03*
X177500000Y-292229322D03*
X177000000Y-292229322D03*
X176500000Y-292229322D03*
D27*
X177000000Y-293914322D03*
X177500000Y-293414322D03*
D28*
X177500000Y-293914322D03*
D27*
X177500000Y-294414322D03*
X178000000Y-293914322D03*
%TD*%
D20*
%TO.C,D12*%
X276075000Y-285950000D03*
X274200000Y-285950000D03*
%TD*%
%TO.C,D9*%
X276075000Y-279650000D03*
X274200000Y-279650000D03*
%TD*%
D29*
%TO.C,U1*%
X127450000Y-311670000D03*
X127450000Y-314210000D03*
X127450000Y-316750000D03*
X131250000Y-316750000D03*
X131250000Y-314210000D03*
X131250000Y-311670000D03*
%TD*%
D21*
%TO.C,TP4*%
X79052280Y-265600000D03*
%TD*%
D17*
%TO.C,R4*%
X149162500Y-290000000D03*
X147337500Y-290000000D03*
%TD*%
D30*
%TO.C,D1*%
X282700000Y-314225000D03*
X282700000Y-316100000D03*
%TD*%
D13*
%TO.C,R18*%
X270425000Y-279650000D03*
X272250000Y-279650000D03*
%TD*%
D31*
%TO.C,L2*%
X182299900Y-300800000D03*
X183900100Y-300800000D03*
%TD*%
D17*
%TO.C,R44*%
X250725000Y-296550000D03*
X248900000Y-296550000D03*
%TD*%
D13*
%TO.C,R23*%
X270425000Y-290150000D03*
X272250000Y-290150000D03*
%TD*%
D20*
%TO.C,D8*%
X276075000Y-277550000D03*
X274200000Y-277550000D03*
%TD*%
D14*
%TO.C,C2*%
X118300000Y-288820000D03*
X120200000Y-288820000D03*
%TD*%
D13*
%TO.C,R25*%
X270425000Y-294350000D03*
X272250000Y-294350000D03*
%TD*%
D14*
%TO.C,C45*%
X275350000Y-307900000D03*
X277250000Y-307900000D03*
%TD*%
%TO.C,C12*%
X182350000Y-292499322D03*
X184250000Y-292499322D03*
%TD*%
D32*
%TO.C,U4*%
X271549999Y-319250001D03*
D33*
X270950000Y-319050002D03*
X270449998Y-319050002D03*
X269949999Y-319050002D03*
X269450000Y-319050002D03*
X268949998Y-319050002D03*
D34*
X268349999Y-319250001D03*
D35*
X268100000Y-319900000D03*
X268100000Y-320400001D03*
X268100000Y-320900001D03*
X268100000Y-321400002D03*
D36*
X268349999Y-322050001D03*
D33*
X268949998Y-322250000D03*
X269450000Y-322250000D03*
X269949999Y-322250000D03*
X270449998Y-322250000D03*
X270950000Y-322250000D03*
D37*
X271549999Y-322050001D03*
D35*
X271799998Y-321400002D03*
X271799998Y-320900001D03*
X271799998Y-320400001D03*
X271799998Y-319900000D03*
D38*
X269650000Y-320100002D03*
X270299998Y-320650001D03*
D39*
X269650000Y-320650001D03*
D38*
X268999998Y-320650001D03*
X269650000Y-321200000D03*
%TD*%
D17*
%TO.C,R43*%
X254400000Y-296500000D03*
X252575000Y-296500000D03*
%TD*%
D13*
%TO.C,R21*%
X270425000Y-285950000D03*
X272250000Y-285950000D03*
%TD*%
D19*
%TO.C,C16*%
X176500000Y-289099322D03*
X176500000Y-287199322D03*
%TD*%
D14*
%TO.C,C3*%
X134450000Y-316500000D03*
X136350000Y-316500000D03*
%TD*%
D40*
%TO.C,Q1*%
X275762500Y-314600000D03*
X275762500Y-315900000D03*
X277637500Y-315250000D03*
%TD*%
D21*
%TO.C,TP5*%
X248100000Y-292500000D03*
%TD*%
D22*
%TO.C,C15*%
X172600000Y-293179322D03*
X172600000Y-295079322D03*
%TD*%
D20*
%TO.C,D6*%
X276075000Y-273350000D03*
X274200000Y-273350000D03*
%TD*%
D17*
%TO.C,R3*%
X149162500Y-292100000D03*
X147337500Y-292100000D03*
%TD*%
D13*
%TO.C,R38*%
X263900000Y-305350000D03*
X265725000Y-305350000D03*
%TD*%
D20*
%TO.C,D5*%
X276075000Y-271250000D03*
X274200000Y-271250000D03*
%TD*%
D19*
%TO.C,C25*%
X263600000Y-323100000D03*
X263600000Y-321200000D03*
%TD*%
D24*
%TO.C,MT4*%
X246580000Y-263880000D03*
%TD*%
D13*
%TO.C,R12*%
X270425000Y-267050000D03*
X272250000Y-267050000D03*
%TD*%
%TO.C,R26*%
X270425000Y-296450000D03*
X272250000Y-296450000D03*
%TD*%
D22*
%TO.C,C19*%
X276400000Y-319950000D03*
X276400000Y-321850000D03*
%TD*%
%TO.C,C17*%
X278600000Y-319950000D03*
X278600000Y-321850000D03*
%TD*%
D41*
%TO.C,C31*%
X184300000Y-286014322D03*
X182400000Y-286014322D03*
%TD*%
D13*
%TO.C,R13*%
X270425000Y-269150000D03*
X272250000Y-269150000D03*
%TD*%
D14*
%TO.C,C13*%
X182400000Y-290199322D03*
X184300000Y-290199322D03*
%TD*%
D17*
%TO.C,R41*%
X280812500Y-305100000D03*
X278987500Y-305100000D03*
%TD*%
D20*
%TO.C,D10*%
X276075000Y-281750000D03*
X274200000Y-281750000D03*
%TD*%
D42*
%TO.C,J5*%
X195270000Y-266480000D03*
X235910000Y-266480000D03*
D43*
X204160000Y-267500000D03*
D44*
X204160000Y-264960000D03*
X206700000Y-267500000D03*
X206700000Y-264960000D03*
X209240000Y-267500000D03*
X209240000Y-264960000D03*
X211780000Y-267500000D03*
X211780000Y-264960000D03*
X214320000Y-267500000D03*
X214320000Y-264960000D03*
X216860000Y-267500000D03*
X216860000Y-264960000D03*
X219400000Y-267500000D03*
X219400000Y-264960000D03*
X221940000Y-267500000D03*
X221940000Y-264960000D03*
X224480000Y-267500000D03*
X224480000Y-264960000D03*
X227020000Y-267500000D03*
X227020000Y-264960000D03*
%TD*%
D24*
%TO.C,MT5*%
X299920000Y-329920000D03*
%TD*%
%TO.C,MT8*%
X68780000Y-263880000D03*
%TD*%
%TO.C,MT6*%
X164738974Y-263880000D03*
%TD*%
D14*
%TO.C,C14*%
X182300000Y-294799322D03*
X184200000Y-294799322D03*
%TD*%
D45*
%TO.C,U7*%
X253205000Y-275300000D03*
X253205000Y-275800000D03*
X253205000Y-276300000D03*
X253205000Y-276800000D03*
X253205000Y-277300000D03*
X253205000Y-277800000D03*
X253205000Y-278300000D03*
X253205000Y-278800000D03*
X253205000Y-279300000D03*
X253205000Y-279800000D03*
X253205000Y-280300000D03*
X253205000Y-280800000D03*
X253205000Y-281300000D03*
X253205000Y-281800000D03*
X253205000Y-282300000D03*
X253205000Y-282800000D03*
X253205000Y-283300000D03*
X253205000Y-283800000D03*
X253205000Y-284300000D03*
X253205000Y-284800000D03*
X253205000Y-285300000D03*
X253205000Y-285800000D03*
X253205000Y-286300000D03*
X253205000Y-286800000D03*
X260645000Y-286800000D03*
X260645000Y-286300000D03*
X260645000Y-285800000D03*
X260645000Y-285300000D03*
X260645000Y-284800000D03*
X260645000Y-284300000D03*
X260645000Y-283800000D03*
X260645000Y-283300000D03*
X260645000Y-282800000D03*
X260645000Y-282300000D03*
X260645000Y-281800000D03*
X260645000Y-281300000D03*
X260645000Y-280800000D03*
X260645000Y-280300000D03*
X260645000Y-279800000D03*
X260645000Y-279300000D03*
X260645000Y-278800000D03*
X260645000Y-278300000D03*
X260645000Y-277800000D03*
X260645000Y-277300000D03*
X260645000Y-276800000D03*
X260645000Y-276300000D03*
X260645000Y-275800000D03*
X260645000Y-275300000D03*
%TD*%
D19*
%TO.C,C9*%
X160500000Y-291700000D03*
X160500000Y-289800000D03*
%TD*%
D13*
%TO.C,R20*%
X270425000Y-283850000D03*
X272250000Y-283850000D03*
%TD*%
D18*
%TO.C,R10*%
X273100000Y-316600000D03*
X273100000Y-314775000D03*
%TD*%
D19*
%TO.C,C28*%
X174350000Y-302550000D03*
X174350000Y-300650000D03*
%TD*%
D41*
%TO.C,C30*%
X172450000Y-304500000D03*
X170550000Y-304500000D03*
%TD*%
D13*
%TO.C,R16*%
X270425000Y-275450000D03*
X272250000Y-275450000D03*
%TD*%
D19*
%TO.C,C8*%
X162600000Y-291700000D03*
X162600000Y-289800000D03*
%TD*%
D22*
%TO.C,C7*%
X151950000Y-294650000D03*
X151950000Y-296550000D03*
%TD*%
D17*
%TO.C,R40*%
X284525000Y-305100000D03*
X282700000Y-305100000D03*
%TD*%
D46*
%TO.C,U2*%
X161950000Y-295047599D03*
X161450001Y-295047599D03*
X160949999Y-295047599D03*
X160450000Y-295047599D03*
X159950001Y-295047599D03*
X159450000Y-295047599D03*
X158950000Y-295047599D03*
X158449999Y-295047599D03*
X157950000Y-295047599D03*
X157450001Y-295047599D03*
X156949999Y-295047599D03*
X156450000Y-295047599D03*
D47*
X155747599Y-295750000D03*
X155747599Y-296249999D03*
X155747599Y-296750001D03*
X155747599Y-297250000D03*
X155747599Y-297749999D03*
X155747599Y-298250000D03*
X155747599Y-298750000D03*
X155747599Y-299250001D03*
X155747599Y-299750000D03*
X155747599Y-300249999D03*
X155747599Y-300750001D03*
X155747599Y-301250000D03*
D46*
X156450000Y-301952401D03*
X156949999Y-301952401D03*
X157450001Y-301952401D03*
X157950000Y-301952401D03*
X158449999Y-301952401D03*
X158950000Y-301952401D03*
X159450000Y-301952401D03*
X159950001Y-301952401D03*
X160450000Y-301952401D03*
X160949999Y-301952401D03*
X161450001Y-301952401D03*
X161950000Y-301952401D03*
D47*
X162652401Y-301250000D03*
X162652401Y-300750001D03*
X162652401Y-300249999D03*
X162652401Y-299750000D03*
X162652401Y-299250001D03*
X162652401Y-298750000D03*
X162652401Y-298250000D03*
X162652401Y-297749999D03*
X162652401Y-297250000D03*
X162652401Y-296750001D03*
X162652401Y-296249999D03*
X162652401Y-295750000D03*
D38*
X160950000Y-296500000D03*
X159700000Y-296500000D03*
X158450000Y-296500000D03*
X157200000Y-296500000D03*
X160950000Y-298000000D03*
X159700000Y-298000000D03*
X158450000Y-298000000D03*
X157200000Y-298000000D03*
D48*
X159200000Y-298500000D03*
D38*
X160950000Y-299250000D03*
X159700000Y-299250000D03*
X158450000Y-299250000D03*
X157200000Y-299250000D03*
X160950000Y-300500000D03*
X159700000Y-300500000D03*
X158450000Y-300500000D03*
X157200000Y-300500000D03*
%TD*%
D22*
%TO.C,C38*%
X274200000Y-319950000D03*
X274200000Y-321850000D03*
%TD*%
D17*
%TO.C,R45*%
X250725000Y-299500000D03*
X248900000Y-299500000D03*
%TD*%
D19*
%TO.C,C18*%
X174350000Y-289114322D03*
X174350000Y-287214322D03*
%TD*%
D14*
%TO.C,C40*%
X118450000Y-294000000D03*
X120350000Y-294000000D03*
%TD*%
D49*
%TO.C,J2*%
X217624000Y-321284000D03*
D50*
X215124000Y-321284000D03*
X212624000Y-321284000D03*
X210124000Y-321284000D03*
X207624000Y-321284000D03*
X205124000Y-321284000D03*
X202624000Y-321284000D03*
X200124000Y-321284000D03*
X197624000Y-321284000D03*
X195124000Y-321284000D03*
X217624000Y-319784000D03*
X215124000Y-319784000D03*
X212624000Y-319784000D03*
X210124000Y-319784000D03*
X207624000Y-319784000D03*
X205124000Y-319784000D03*
X202624000Y-319784000D03*
X200124000Y-319784000D03*
X197624000Y-319784000D03*
X195124000Y-319784000D03*
X217624000Y-318284000D03*
X215124000Y-318284000D03*
X212624000Y-318284000D03*
X210124000Y-318284000D03*
X207624000Y-318284000D03*
X205124000Y-318284000D03*
X202624000Y-318284000D03*
X200124000Y-318284000D03*
X197624000Y-318284000D03*
X195124000Y-318284000D03*
X217624000Y-316784000D03*
X215124000Y-316784000D03*
X212624000Y-316784000D03*
X210124000Y-316784000D03*
X207624000Y-316784000D03*
X205124000Y-316784000D03*
X202624000Y-316784000D03*
X200124000Y-316784000D03*
X197624000Y-316784000D03*
X195124000Y-316784000D03*
X217624000Y-315284000D03*
X215124000Y-315284000D03*
X212624000Y-315284000D03*
X210124000Y-315284000D03*
X207624000Y-315284000D03*
X205124000Y-315284000D03*
X202624000Y-315284000D03*
X200124000Y-315284000D03*
X197624000Y-315284000D03*
X195124000Y-315284000D03*
X217624000Y-313784000D03*
X215124000Y-313784000D03*
X212624000Y-313784000D03*
X210124000Y-313784000D03*
X207624000Y-313784000D03*
X205124000Y-313784000D03*
X202624000Y-313784000D03*
X200124000Y-313784000D03*
X197624000Y-313784000D03*
X195124000Y-313784000D03*
%TD*%
D51*
%TO.C,J6*%
X301070000Y-319750000D03*
%TD*%
D49*
%TO.C,J1*%
X166824000Y-321284000D03*
D50*
X164324000Y-321284000D03*
X161824000Y-321284000D03*
X159324000Y-321284000D03*
X156824000Y-321284000D03*
X154324000Y-321284000D03*
X151824000Y-321284000D03*
X149324000Y-321284000D03*
X146824000Y-321284000D03*
X144324000Y-321284000D03*
X166824000Y-319784000D03*
X164324000Y-319784000D03*
X161824000Y-319784000D03*
X159324000Y-319784000D03*
X156824000Y-319784000D03*
X154324000Y-319784000D03*
X151824000Y-319784000D03*
X149324000Y-319784000D03*
X146824000Y-319784000D03*
X144324000Y-319784000D03*
X166824000Y-318284000D03*
X164324000Y-318284000D03*
X161824000Y-318284000D03*
X159324000Y-318284000D03*
X156824000Y-318284000D03*
X154324000Y-318284000D03*
X151824000Y-318284000D03*
X149324000Y-318284000D03*
X146824000Y-318284000D03*
X144324000Y-318284000D03*
X166824000Y-316784000D03*
X164324000Y-316784000D03*
X161824000Y-316784000D03*
X159324000Y-316784000D03*
X156824000Y-316784000D03*
X154324000Y-316784000D03*
X151824000Y-316784000D03*
X149324000Y-316784000D03*
X146824000Y-316784000D03*
X144324000Y-316784000D03*
X166824000Y-315284000D03*
X164324000Y-315284000D03*
X161824000Y-315284000D03*
X159324000Y-315284000D03*
X156824000Y-315284000D03*
X154324000Y-315284000D03*
X151824000Y-315284000D03*
X149324000Y-315284000D03*
X146824000Y-315284000D03*
X144324000Y-315284000D03*
X166824000Y-313784000D03*
X164324000Y-313784000D03*
X161824000Y-313784000D03*
X159324000Y-313784000D03*
X156824000Y-313784000D03*
X154324000Y-313784000D03*
X151824000Y-313784000D03*
X149324000Y-313784000D03*
X146824000Y-313784000D03*
X144324000Y-313784000D03*
%TD*%
D14*
%TO.C,C23*%
X182300000Y-307400000D03*
X184200000Y-307400000D03*
%TD*%
%TO.C,C22*%
X182300000Y-305100000D03*
X184200000Y-305100000D03*
%TD*%
D20*
%TO.C,D16*%
X276075000Y-294350000D03*
X274200000Y-294350000D03*
%TD*%
D42*
%TO.C,J7*%
X102350000Y-266480000D03*
X142990000Y-266480000D03*
D43*
X111240000Y-267500000D03*
D44*
X111240000Y-264960000D03*
X113780000Y-267500000D03*
X113780000Y-264960000D03*
X116320000Y-267500000D03*
X116320000Y-264960000D03*
X118860000Y-267500000D03*
X118860000Y-264960000D03*
X121400000Y-267500000D03*
X121400000Y-264960000D03*
X123940000Y-267500000D03*
X123940000Y-264960000D03*
X126480000Y-267500000D03*
X126480000Y-264960000D03*
X129020000Y-267500000D03*
X129020000Y-264960000D03*
X131560000Y-267500000D03*
X131560000Y-264960000D03*
X134100000Y-267500000D03*
X134100000Y-264960000D03*
%TD*%
D13*
%TO.C,R24*%
X270425000Y-292250000D03*
X272250000Y-292250000D03*
%TD*%
D25*
%TO.C,U5*%
X175815000Y-305800000D03*
X175815000Y-306300000D03*
X175815000Y-306800000D03*
X175815000Y-307300000D03*
X175815000Y-307800000D03*
D26*
X176500000Y-308485000D03*
X177000000Y-308485000D03*
X177500000Y-308485000D03*
X178000000Y-308485000D03*
X178500000Y-308485000D03*
D25*
X179185000Y-307800000D03*
X179185000Y-307300000D03*
X179185000Y-306800000D03*
X179185000Y-306300000D03*
X179185000Y-305800000D03*
D26*
X178500000Y-305115000D03*
X178000000Y-305115000D03*
X177500000Y-305115000D03*
X177000000Y-305115000D03*
X176500000Y-305115000D03*
D27*
X177000000Y-306800000D03*
X177500000Y-306300000D03*
D28*
X177500000Y-306800000D03*
D27*
X177500000Y-307300000D03*
X178000000Y-306800000D03*
%TD*%
D17*
%TO.C,R36*%
X284525000Y-307900000D03*
X282700000Y-307900000D03*
%TD*%
D22*
%TO.C,C26*%
X172300000Y-306400000D03*
X172300000Y-308300000D03*
%TD*%
D19*
%TO.C,C24*%
X265900000Y-323100000D03*
X265900000Y-321200000D03*
%TD*%
D13*
%TO.C,R14*%
X270425000Y-271250000D03*
X272250000Y-271250000D03*
%TD*%
D20*
%TO.C,D4*%
X276075000Y-269150000D03*
X274200000Y-269150000D03*
%TD*%
%TO.C,D7*%
X276075000Y-275450000D03*
X274200000Y-275450000D03*
%TD*%
D41*
%TO.C,C20*%
X172600000Y-291099322D03*
X170700000Y-291099322D03*
%TD*%
D18*
%TO.C,R2*%
X141450000Y-290325000D03*
X141450000Y-288500000D03*
%TD*%
D24*
%TO.C,MT3*%
X250644000Y-329920000D03*
%TD*%
D13*
%TO.C,R19*%
X270425000Y-281750000D03*
X272250000Y-281750000D03*
%TD*%
%TO.C,R22*%
X270425000Y-288050000D03*
X272250000Y-288050000D03*
%TD*%
D20*
%TO.C,D2*%
X276075000Y-264950000D03*
X274200000Y-264950000D03*
%TD*%
D52*
%TO.C,T1*%
X137050000Y-288820000D03*
X137050000Y-291360000D03*
X137050000Y-293900000D03*
X124990000Y-293900000D03*
X124990000Y-291360000D03*
X124990000Y-288820000D03*
%TD*%
D20*
%TO.C,D11*%
X276075000Y-283850000D03*
X274200000Y-283850000D03*
%TD*%
D14*
%TO.C,C32*%
X182300000Y-298700000D03*
X184200000Y-298700000D03*
%TD*%
D20*
%TO.C,D17*%
X276075000Y-296450000D03*
X274200000Y-296450000D03*
%TD*%
D53*
%TO.C,R8*%
X281450000Y-323925000D03*
X281450000Y-325750000D03*
%TD*%
D49*
%TO.C,J3*%
X243024000Y-321284000D03*
D50*
X240524000Y-321284000D03*
X238024000Y-321284000D03*
X235524000Y-321284000D03*
X233024000Y-321284000D03*
X230524000Y-321284000D03*
X228024000Y-321284000D03*
X225524000Y-321284000D03*
X223024000Y-321284000D03*
X220524000Y-321284000D03*
X243024000Y-319784000D03*
X240524000Y-319784000D03*
X238024000Y-319784000D03*
X235524000Y-319784000D03*
X233024000Y-319784000D03*
X230524000Y-319784000D03*
X228024000Y-319784000D03*
X225524000Y-319784000D03*
X223024000Y-319784000D03*
X220524000Y-319784000D03*
X243024000Y-318284000D03*
X240524000Y-318284000D03*
X238024000Y-318284000D03*
X235524000Y-318284000D03*
X233024000Y-318284000D03*
X230524000Y-318284000D03*
X228024000Y-318284000D03*
X225524000Y-318284000D03*
X223024000Y-318284000D03*
X220524000Y-318284000D03*
X243024000Y-316784000D03*
X240524000Y-316784000D03*
X238024000Y-316784000D03*
X235524000Y-316784000D03*
X233024000Y-316784000D03*
X230524000Y-316784000D03*
X228024000Y-316784000D03*
X225524000Y-316784000D03*
X223024000Y-316784000D03*
X220524000Y-316784000D03*
X243024000Y-315284000D03*
X240524000Y-315284000D03*
X238024000Y-315284000D03*
X235524000Y-315284000D03*
X233024000Y-315284000D03*
X230524000Y-315284000D03*
X228024000Y-315284000D03*
X225524000Y-315284000D03*
X223024000Y-315284000D03*
X220524000Y-315284000D03*
X243024000Y-313784000D03*
X240524000Y-313784000D03*
X238024000Y-313784000D03*
X235524000Y-313784000D03*
X233024000Y-313784000D03*
X230524000Y-313784000D03*
X228024000Y-313784000D03*
X225524000Y-313784000D03*
X223024000Y-313784000D03*
X220524000Y-313784000D03*
%TD*%
D19*
%TO.C,C27*%
X261300000Y-323100000D03*
X261300000Y-321200000D03*
%TD*%
D20*
%TO.C,D3*%
X276075000Y-267050000D03*
X274200000Y-267050000D03*
%TD*%
D18*
%TO.C,R6*%
X151450000Y-291912500D03*
X151450000Y-290087500D03*
%TD*%
D19*
%TO.C,C29*%
X176500000Y-302550000D03*
X176500000Y-300650000D03*
%TD*%
D31*
%TO.C,L1*%
X182350000Y-288114322D03*
X183950200Y-288114322D03*
%TD*%
D21*
%TO.C,TP2*%
X259450000Y-332000000D03*
%TD*%
D24*
%TO.C,MT7*%
X299920000Y-263880000D03*
%TD*%
D13*
%TO.C,R11*%
X270415000Y-264950000D03*
X272240000Y-264950000D03*
%TD*%
D19*
%TO.C,C10*%
X166200000Y-299100000D03*
X166200000Y-297200000D03*
%TD*%
D53*
%TO.C,R9*%
X285450000Y-329200000D03*
X285450000Y-331025000D03*
%TD*%
D14*
%TO.C,C44*%
X275300000Y-305100000D03*
X277200000Y-305100000D03*
%TD*%
D17*
%TO.C,R37*%
X280912500Y-307900000D03*
X279087500Y-307900000D03*
%TD*%
D20*
%TO.C,D15*%
X276075000Y-292250000D03*
X274200000Y-292250000D03*
%TD*%
D53*
%TO.C,R27*%
X280100000Y-314175000D03*
X280100000Y-316000000D03*
%TD*%
D17*
%TO.C,R5*%
X149675000Y-294600000D03*
X147850000Y-294600000D03*
%TD*%
D20*
%TO.C,D14*%
X276075000Y-290150000D03*
X274200000Y-290150000D03*
%TD*%
D24*
%TO.C,MT1*%
X68780000Y-329920000D03*
%TD*%
D14*
%TO.C,C4*%
X134400000Y-314200000D03*
X136300000Y-314200000D03*
%TD*%
M02*
