%TF.GenerationSoftware,KiCad,Pcbnew,9.0.9-9.0.9~ubuntu22.04.1*%
%TF.CreationDate,2026-05-26T13:00:12-04:00*%
%TF.ProjectId,acmi2-afe,61636d69-322d-4616-9665-2e6b69636164,rev?*%
%TF.SameCoordinates,Original*%
%TF.FileFunction,Paste,Top*%
%TF.FilePolarity,Positive*%
%FSLAX46Y46*%
G04 Gerber Fmt 4.6, Leading zero omitted, Abs format (unit mm)*
G04 Created by KiCad (PCBNEW 9.0.9-9.0.9~ubuntu22.04.1) date 2026-05-26 13:00:12*
%MOMM*%
%LPD*%
G01*
G04 APERTURE LIST*
G04 Aperture macros list*
%AMRoundRect*
0 Rectangle with rounded corners*
0 $1 Rounding radius*
0 $2 $3 $4 $5 $6 $7 $8 $9 X,Y pos of 4 corners*
0 Add a 4 corners polygon primitive as box body*
4,1,4,$2,$3,$4,$5,$6,$7,$8,$9,$2,$3,0*
0 Add four circle primitives for the rounded corners*
1,1,$1+$1,$2,$3*
1,1,$1+$1,$4,$5*
1,1,$1+$1,$6,$7*
1,1,$1+$1,$8,$9*
0 Add four rect primitives between the rounded corners*
20,1,$1+$1,$2,$3,$4,$5,0*
20,1,$1+$1,$4,$5,$6,$7,0*
20,1,$1+$1,$6,$7,$8,$9,0*
20,1,$1+$1,$8,$9,$2,$3,0*%
%AMFreePoly0*
4,1,17,0.275001,0.550001,0.275001,-0.174999,0.225001,-0.225001,-0.499999,-0.224999,-0.550001,-0.174999,-0.549999,-0.024999,-0.499999,0.025001,-0.275000,0.025001,-0.225001,0.075000,-0.225001,0.225000,-0.175001,0.275000,-0.025001,0.275000,0.024999,0.325000,0.024999,0.550001,0.074999,0.599998,0.224999,0.599998,0.275001,0.550001,0.275001,0.550001,$1*%
%AMFreePoly1*
4,1,17,0.275001,0.174999,0.275001,-0.550001,0.224999,-0.599998,0.074999,-0.599998,0.024999,-0.550001,0.025001,-0.325000,-0.025001,-0.275000,-0.175001,-0.275000,-0.225001,-0.225000,-0.224998,-0.075000,-0.275000,-0.025001,-0.499999,-0.025001,-0.549999,0.024999,-0.550001,0.174999,-0.499999,0.224999,0.225001,0.224999,0.275001,0.174999,0.275001,0.174999,$1*%
%AMFreePoly2*
4,1,17,0.499999,0.224999,0.550001,0.174999,0.549999,0.024999,0.499999,-0.025001,0.275000,-0.025001,0.224998,-0.075000,0.225001,-0.225000,0.175001,-0.275000,0.024998,-0.275000,-0.025001,-0.325000,-0.024999,-0.550001,-0.074999,-0.599998,-0.225001,-0.599998,-0.275001,-0.550001,-0.275001,0.174999,-0.225001,0.225001,0.499999,0.224999,0.499999,0.224999,$1*%
%AMFreePoly3*
4,1,17,-0.024999,0.550001,-0.025001,0.325000,0.024998,0.275000,0.175001,0.275000,0.225001,0.225000,0.224998,0.075000,0.275000,0.025001,0.499999,0.025001,0.549999,-0.024999,0.550001,-0.174999,0.499999,-0.224999,-0.225001,-0.225001,-0.275001,-0.175002,-0.275001,0.550001,-0.225001,0.599998,-0.074999,0.599998,-0.024999,0.550001,-0.024999,0.550001,$1*%
G04 Aperture macros list end*
%ADD10C,0.010000*%
%ADD11C,0.000000*%
%ADD12RoundRect,0.250000X-0.262500X-0.450000X0.262500X-0.450000X0.262500X0.450000X-0.262500X0.450000X0*%
%ADD13RoundRect,0.250000X-0.250000X-0.475000X0.250000X-0.475000X0.250000X0.475000X-0.250000X0.475000X0*%
%ADD14RoundRect,0.250000X0.262500X0.450000X-0.262500X0.450000X-0.262500X-0.450000X0.262500X-0.450000X0*%
%ADD15RoundRect,0.250000X0.450000X-0.262500X0.450000X0.262500X-0.450000X0.262500X-0.450000X-0.262500X0*%
%ADD16RoundRect,0.250000X0.475000X-0.250000X0.475000X0.250000X-0.475000X0.250000X-0.475000X-0.250000X0*%
%ADD17RoundRect,0.243750X0.243750X0.456250X-0.243750X0.456250X-0.243750X-0.456250X0.243750X-0.456250X0*%
%ADD18RoundRect,0.222222X-1.552778X-0.577778X1.552778X-0.577778X1.552778X0.577778X-1.552778X0.577778X0*%
%ADD19RoundRect,0.250000X-0.475000X0.250000X-0.475000X-0.250000X0.475000X-0.250000X0.475000X0.250000X0*%
%ADD20R,1.981200X0.558800*%
%ADD21O,0.880000X0.260000*%
%ADD22O,0.260000X0.880000*%
%ADD23RoundRect,0.031250X0.218750X0.093750X-0.218750X0.093750X-0.218750X-0.093750X0.218750X-0.093750X0*%
%ADD24R,1.600000X1.600000*%
%ADD25RoundRect,0.243750X-0.456250X0.243750X-0.456250X-0.243750X0.456250X-0.243750X0.456250X0.243750X0*%
%ADD26R,0.812800X0.889000*%
%ADD27FreePoly0,270.000000*%
%ADD28R,0.249999X0.700001*%
%ADD29FreePoly1,270.000000*%
%ADD30R,0.700001X0.249999*%
%ADD31FreePoly2,270.000000*%
%ADD32FreePoly3,270.000000*%
%ADD33RoundRect,0.125000X-0.487500X-0.125000X0.487500X-0.125000X0.487500X0.125000X-0.487500X0.125000X0*%
%ADD34RoundRect,0.250000X0.250000X0.475000X-0.250000X0.475000X-0.250000X-0.475000X0.250000X-0.475000X0*%
%ADD35RoundRect,0.035000X-0.750000X-0.105000X0.750000X-0.105000X0.750000X0.105000X-0.750000X0.105000X0*%
%ADD36RoundRect,0.030000X0.270000X0.090000X-0.270000X0.090000X-0.270000X-0.090000X0.270000X-0.090000X0*%
%ADD37R,0.249200X0.804800*%
%ADD38R,0.804800X0.249200*%
%ADD39R,5.250000X5.250000*%
%ADD40R,3.180000X1.270000*%
%ADD41RoundRect,0.250000X-0.450000X0.262500X-0.450000X-0.262500X0.450000X-0.262500X0.450000X0.262500X0*%
G04 APERTURE END LIST*
D10*
%TO.C,U3*%
X177350000Y-293764322D02*
X176530000Y-293764322D01*
X176530000Y-292944322D01*
X177350000Y-292944322D01*
X177350000Y-293764322D01*
G36*
X177350000Y-293764322D02*
G01*
X176530000Y-293764322D01*
X176530000Y-292944322D01*
X177350000Y-292944322D01*
X177350000Y-293764322D01*
G37*
X177350000Y-294884322D02*
X176530000Y-294884322D01*
X176530000Y-294064322D01*
X177350000Y-294064322D01*
X177350000Y-294884322D01*
G36*
X177350000Y-294884322D02*
G01*
X176530000Y-294884322D01*
X176530000Y-294064322D01*
X177350000Y-294064322D01*
X177350000Y-294884322D01*
G37*
X178470000Y-293764322D02*
X177650000Y-293764322D01*
X177650000Y-292944322D01*
X178470000Y-292944322D01*
X178470000Y-293764322D01*
G36*
X178470000Y-293764322D02*
G01*
X177650000Y-293764322D01*
X177650000Y-292944322D01*
X178470000Y-292944322D01*
X178470000Y-293764322D01*
G37*
X178470000Y-294884322D02*
X177650000Y-294884322D01*
X177650000Y-294064322D01*
X178470000Y-294064322D01*
X178470000Y-294884322D01*
G36*
X178470000Y-294884322D02*
G01*
X177650000Y-294884322D01*
X177650000Y-294064322D01*
X178470000Y-294064322D01*
X178470000Y-294884322D01*
G37*
%TO.C,U6*%
X284108000Y-319451000D02*
X284110000Y-319451000D01*
X284113000Y-319452000D01*
X284115000Y-319452000D01*
X284118000Y-319453000D01*
X284120000Y-319454000D01*
X284123000Y-319455000D01*
X284125000Y-319457000D01*
X284127000Y-319458000D01*
X284129000Y-319460000D01*
X284131000Y-319461000D01*
X284133000Y-319463000D01*
X284135000Y-319465000D01*
X284137000Y-319467000D01*
X284139000Y-319469000D01*
X284140000Y-319471000D01*
X284142000Y-319473000D01*
X284143000Y-319475000D01*
X284145000Y-319477000D01*
X284146000Y-319480000D01*
X284147000Y-319482000D01*
X284148000Y-319485000D01*
X284148000Y-319487000D01*
X284149000Y-319490000D01*
X284149000Y-319492000D01*
X284150000Y-319495000D01*
X284150000Y-319497000D01*
X284150000Y-319500000D01*
X284150000Y-320100000D01*
X284150000Y-320103000D01*
X284150000Y-320105000D01*
X284149000Y-320108000D01*
X284149000Y-320110000D01*
X284148000Y-320113000D01*
X284148000Y-320115000D01*
X284147000Y-320118000D01*
X284146000Y-320120000D01*
X284145000Y-320123000D01*
X284143000Y-320125000D01*
X284142000Y-320127000D01*
X284140000Y-320129000D01*
X284139000Y-320131000D01*
X284137000Y-320133000D01*
X284135000Y-320135000D01*
X284133000Y-320137000D01*
X284131000Y-320139000D01*
X284129000Y-320140000D01*
X284127000Y-320142000D01*
X284125000Y-320143000D01*
X284123000Y-320145000D01*
X284120000Y-320146000D01*
X284118000Y-320147000D01*
X284115000Y-320148000D01*
X284113000Y-320148000D01*
X284110000Y-320149000D01*
X284108000Y-320149000D01*
X284105000Y-320150000D01*
X284103000Y-320150000D01*
X284100000Y-320150000D01*
X283300000Y-320150000D01*
X283297000Y-320150000D01*
X283295000Y-320150000D01*
X283292000Y-320149000D01*
X283290000Y-320149000D01*
X283287000Y-320148000D01*
X283285000Y-320148000D01*
X283282000Y-320147000D01*
X283280000Y-320146000D01*
X283277000Y-320145000D01*
X283275000Y-320143000D01*
X283273000Y-320142000D01*
X283271000Y-320140000D01*
X283269000Y-320139000D01*
X283267000Y-320137000D01*
X283265000Y-320135000D01*
X283263000Y-320133000D01*
X283261000Y-320131000D01*
X283260000Y-320129000D01*
X283258000Y-320127000D01*
X283257000Y-320125000D01*
X283255000Y-320123000D01*
X283254000Y-320120000D01*
X283253000Y-320118000D01*
X283252000Y-320115000D01*
X283252000Y-320113000D01*
X283251000Y-320110000D01*
X283251000Y-320108000D01*
X283250000Y-320105000D01*
X283250000Y-320103000D01*
X283250000Y-320100000D01*
X283250000Y-319500000D01*
X283250000Y-319497000D01*
X283250000Y-319495000D01*
X283251000Y-319492000D01*
X283251000Y-319490000D01*
X283252000Y-319487000D01*
X283252000Y-319485000D01*
X283253000Y-319482000D01*
X283254000Y-319480000D01*
X283255000Y-319477000D01*
X283257000Y-319475000D01*
X283258000Y-319473000D01*
X283260000Y-319471000D01*
X283261000Y-319469000D01*
X283263000Y-319467000D01*
X283265000Y-319465000D01*
X283267000Y-319463000D01*
X283269000Y-319461000D01*
X283271000Y-319460000D01*
X283273000Y-319458000D01*
X283275000Y-319457000D01*
X283277000Y-319455000D01*
X283280000Y-319454000D01*
X283282000Y-319453000D01*
X283285000Y-319452000D01*
X283287000Y-319452000D01*
X283290000Y-319451000D01*
X283292000Y-319451000D01*
X283295000Y-319450000D01*
X283297000Y-319450000D01*
X283300000Y-319450000D01*
X284100000Y-319450000D01*
X284103000Y-319450000D01*
X284105000Y-319450000D01*
X284108000Y-319451000D01*
G36*
X284108000Y-319451000D02*
G01*
X284110000Y-319451000D01*
X284113000Y-319452000D01*
X284115000Y-319452000D01*
X284118000Y-319453000D01*
X284120000Y-319454000D01*
X284123000Y-319455000D01*
X284125000Y-319457000D01*
X284127000Y-319458000D01*
X284129000Y-319460000D01*
X284131000Y-319461000D01*
X284133000Y-319463000D01*
X284135000Y-319465000D01*
X284137000Y-319467000D01*
X284139000Y-319469000D01*
X284140000Y-319471000D01*
X284142000Y-319473000D01*
X284143000Y-319475000D01*
X284145000Y-319477000D01*
X284146000Y-319480000D01*
X284147000Y-319482000D01*
X284148000Y-319485000D01*
X284148000Y-319487000D01*
X284149000Y-319490000D01*
X284149000Y-319492000D01*
X284150000Y-319495000D01*
X284150000Y-319497000D01*
X284150000Y-319500000D01*
X284150000Y-320100000D01*
X284150000Y-320103000D01*
X284150000Y-320105000D01*
X284149000Y-320108000D01*
X284149000Y-320110000D01*
X284148000Y-320113000D01*
X284148000Y-320115000D01*
X284147000Y-320118000D01*
X284146000Y-320120000D01*
X284145000Y-320123000D01*
X284143000Y-320125000D01*
X284142000Y-320127000D01*
X284140000Y-320129000D01*
X284139000Y-320131000D01*
X284137000Y-320133000D01*
X284135000Y-320135000D01*
X284133000Y-320137000D01*
X284131000Y-320139000D01*
X284129000Y-320140000D01*
X284127000Y-320142000D01*
X284125000Y-320143000D01*
X284123000Y-320145000D01*
X284120000Y-320146000D01*
X284118000Y-320147000D01*
X284115000Y-320148000D01*
X284113000Y-320148000D01*
X284110000Y-320149000D01*
X284108000Y-320149000D01*
X284105000Y-320150000D01*
X284103000Y-320150000D01*
X284100000Y-320150000D01*
X283300000Y-320150000D01*
X283297000Y-320150000D01*
X283295000Y-320150000D01*
X283292000Y-320149000D01*
X283290000Y-320149000D01*
X283287000Y-320148000D01*
X283285000Y-320148000D01*
X283282000Y-320147000D01*
X283280000Y-320146000D01*
X283277000Y-320145000D01*
X283275000Y-320143000D01*
X283273000Y-320142000D01*
X283271000Y-320140000D01*
X283269000Y-320139000D01*
X283267000Y-320137000D01*
X283265000Y-320135000D01*
X283263000Y-320133000D01*
X283261000Y-320131000D01*
X283260000Y-320129000D01*
X283258000Y-320127000D01*
X283257000Y-320125000D01*
X283255000Y-320123000D01*
X283254000Y-320120000D01*
X283253000Y-320118000D01*
X283252000Y-320115000D01*
X283252000Y-320113000D01*
X283251000Y-320110000D01*
X283251000Y-320108000D01*
X283250000Y-320105000D01*
X283250000Y-320103000D01*
X283250000Y-320100000D01*
X283250000Y-319500000D01*
X283250000Y-319497000D01*
X283250000Y-319495000D01*
X283251000Y-319492000D01*
X283251000Y-319490000D01*
X283252000Y-319487000D01*
X283252000Y-319485000D01*
X283253000Y-319482000D01*
X283254000Y-319480000D01*
X283255000Y-319477000D01*
X283257000Y-319475000D01*
X283258000Y-319473000D01*
X283260000Y-319471000D01*
X283261000Y-319469000D01*
X283263000Y-319467000D01*
X283265000Y-319465000D01*
X283267000Y-319463000D01*
X283269000Y-319461000D01*
X283271000Y-319460000D01*
X283273000Y-319458000D01*
X283275000Y-319457000D01*
X283277000Y-319455000D01*
X283280000Y-319454000D01*
X283282000Y-319453000D01*
X283285000Y-319452000D01*
X283287000Y-319452000D01*
X283290000Y-319451000D01*
X283292000Y-319451000D01*
X283295000Y-319450000D01*
X283297000Y-319450000D01*
X283300000Y-319450000D01*
X284100000Y-319450000D01*
X284103000Y-319450000D01*
X284105000Y-319450000D01*
X284108000Y-319451000D01*
G37*
X284108000Y-320351000D02*
X284110000Y-320351000D01*
X284113000Y-320352000D01*
X284115000Y-320352000D01*
X284118000Y-320353000D01*
X284120000Y-320354000D01*
X284123000Y-320355000D01*
X284125000Y-320357000D01*
X284127000Y-320358000D01*
X284129000Y-320360000D01*
X284131000Y-320361000D01*
X284133000Y-320363000D01*
X284135000Y-320365000D01*
X284137000Y-320367000D01*
X284139000Y-320369000D01*
X284140000Y-320371000D01*
X284142000Y-320373000D01*
X284143000Y-320375000D01*
X284145000Y-320377000D01*
X284146000Y-320380000D01*
X284147000Y-320382000D01*
X284148000Y-320385000D01*
X284148000Y-320387000D01*
X284149000Y-320390000D01*
X284149000Y-320392000D01*
X284150000Y-320395000D01*
X284150000Y-320397000D01*
X284150000Y-320400000D01*
X284150000Y-321000000D01*
X284150000Y-321003000D01*
X284150000Y-321005000D01*
X284149000Y-321008000D01*
X284149000Y-321010000D01*
X284148000Y-321013000D01*
X284148000Y-321015000D01*
X284147000Y-321018000D01*
X284146000Y-321020000D01*
X284145000Y-321023000D01*
X284143000Y-321025000D01*
X284142000Y-321027000D01*
X284140000Y-321029000D01*
X284139000Y-321031000D01*
X284137000Y-321033000D01*
X284135000Y-321035000D01*
X284133000Y-321037000D01*
X284131000Y-321039000D01*
X284129000Y-321040000D01*
X284127000Y-321042000D01*
X284125000Y-321043000D01*
X284123000Y-321045000D01*
X284120000Y-321046000D01*
X284118000Y-321047000D01*
X284115000Y-321048000D01*
X284113000Y-321048000D01*
X284110000Y-321049000D01*
X284108000Y-321049000D01*
X284105000Y-321050000D01*
X284103000Y-321050000D01*
X284100000Y-321050000D01*
X283300000Y-321050000D01*
X283297000Y-321050000D01*
X283295000Y-321050000D01*
X283292000Y-321049000D01*
X283290000Y-321049000D01*
X283287000Y-321048000D01*
X283285000Y-321048000D01*
X283282000Y-321047000D01*
X283280000Y-321046000D01*
X283277000Y-321045000D01*
X283275000Y-321043000D01*
X283273000Y-321042000D01*
X283271000Y-321040000D01*
X283269000Y-321039000D01*
X283267000Y-321037000D01*
X283265000Y-321035000D01*
X283263000Y-321033000D01*
X283261000Y-321031000D01*
X283260000Y-321029000D01*
X283258000Y-321027000D01*
X283257000Y-321025000D01*
X283255000Y-321023000D01*
X283254000Y-321020000D01*
X283253000Y-321018000D01*
X283252000Y-321015000D01*
X283252000Y-321013000D01*
X283251000Y-321010000D01*
X283251000Y-321008000D01*
X283250000Y-321005000D01*
X283250000Y-321003000D01*
X283250000Y-321000000D01*
X283250000Y-320400000D01*
X283250000Y-320397000D01*
X283250000Y-320395000D01*
X283251000Y-320392000D01*
X283251000Y-320390000D01*
X283252000Y-320387000D01*
X283252000Y-320385000D01*
X283253000Y-320382000D01*
X283254000Y-320380000D01*
X283255000Y-320377000D01*
X283257000Y-320375000D01*
X283258000Y-320373000D01*
X283260000Y-320371000D01*
X283261000Y-320369000D01*
X283263000Y-320367000D01*
X283265000Y-320365000D01*
X283267000Y-320363000D01*
X283269000Y-320361000D01*
X283271000Y-320360000D01*
X283273000Y-320358000D01*
X283275000Y-320357000D01*
X283277000Y-320355000D01*
X283280000Y-320354000D01*
X283282000Y-320353000D01*
X283285000Y-320352000D01*
X283287000Y-320352000D01*
X283290000Y-320351000D01*
X283292000Y-320351000D01*
X283295000Y-320350000D01*
X283297000Y-320350000D01*
X283300000Y-320350000D01*
X284100000Y-320350000D01*
X284103000Y-320350000D01*
X284105000Y-320350000D01*
X284108000Y-320351000D01*
G36*
X284108000Y-320351000D02*
G01*
X284110000Y-320351000D01*
X284113000Y-320352000D01*
X284115000Y-320352000D01*
X284118000Y-320353000D01*
X284120000Y-320354000D01*
X284123000Y-320355000D01*
X284125000Y-320357000D01*
X284127000Y-320358000D01*
X284129000Y-320360000D01*
X284131000Y-320361000D01*
X284133000Y-320363000D01*
X284135000Y-320365000D01*
X284137000Y-320367000D01*
X284139000Y-320369000D01*
X284140000Y-320371000D01*
X284142000Y-320373000D01*
X284143000Y-320375000D01*
X284145000Y-320377000D01*
X284146000Y-320380000D01*
X284147000Y-320382000D01*
X284148000Y-320385000D01*
X284148000Y-320387000D01*
X284149000Y-320390000D01*
X284149000Y-320392000D01*
X284150000Y-320395000D01*
X284150000Y-320397000D01*
X284150000Y-320400000D01*
X284150000Y-321000000D01*
X284150000Y-321003000D01*
X284150000Y-321005000D01*
X284149000Y-321008000D01*
X284149000Y-321010000D01*
X284148000Y-321013000D01*
X284148000Y-321015000D01*
X284147000Y-321018000D01*
X284146000Y-321020000D01*
X284145000Y-321023000D01*
X284143000Y-321025000D01*
X284142000Y-321027000D01*
X284140000Y-321029000D01*
X284139000Y-321031000D01*
X284137000Y-321033000D01*
X284135000Y-321035000D01*
X284133000Y-321037000D01*
X284131000Y-321039000D01*
X284129000Y-321040000D01*
X284127000Y-321042000D01*
X284125000Y-321043000D01*
X284123000Y-321045000D01*
X284120000Y-321046000D01*
X284118000Y-321047000D01*
X284115000Y-321048000D01*
X284113000Y-321048000D01*
X284110000Y-321049000D01*
X284108000Y-321049000D01*
X284105000Y-321050000D01*
X284103000Y-321050000D01*
X284100000Y-321050000D01*
X283300000Y-321050000D01*
X283297000Y-321050000D01*
X283295000Y-321050000D01*
X283292000Y-321049000D01*
X283290000Y-321049000D01*
X283287000Y-321048000D01*
X283285000Y-321048000D01*
X283282000Y-321047000D01*
X283280000Y-321046000D01*
X283277000Y-321045000D01*
X283275000Y-321043000D01*
X283273000Y-321042000D01*
X283271000Y-321040000D01*
X283269000Y-321039000D01*
X283267000Y-321037000D01*
X283265000Y-321035000D01*
X283263000Y-321033000D01*
X283261000Y-321031000D01*
X283260000Y-321029000D01*
X283258000Y-321027000D01*
X283257000Y-321025000D01*
X283255000Y-321023000D01*
X283254000Y-321020000D01*
X283253000Y-321018000D01*
X283252000Y-321015000D01*
X283252000Y-321013000D01*
X283251000Y-321010000D01*
X283251000Y-321008000D01*
X283250000Y-321005000D01*
X283250000Y-321003000D01*
X283250000Y-321000000D01*
X283250000Y-320400000D01*
X283250000Y-320397000D01*
X283250000Y-320395000D01*
X283251000Y-320392000D01*
X283251000Y-320390000D01*
X283252000Y-320387000D01*
X283252000Y-320385000D01*
X283253000Y-320382000D01*
X283254000Y-320380000D01*
X283255000Y-320377000D01*
X283257000Y-320375000D01*
X283258000Y-320373000D01*
X283260000Y-320371000D01*
X283261000Y-320369000D01*
X283263000Y-320367000D01*
X283265000Y-320365000D01*
X283267000Y-320363000D01*
X283269000Y-320361000D01*
X283271000Y-320360000D01*
X283273000Y-320358000D01*
X283275000Y-320357000D01*
X283277000Y-320355000D01*
X283280000Y-320354000D01*
X283282000Y-320353000D01*
X283285000Y-320352000D01*
X283287000Y-320352000D01*
X283290000Y-320351000D01*
X283292000Y-320351000D01*
X283295000Y-320350000D01*
X283297000Y-320350000D01*
X283300000Y-320350000D01*
X284100000Y-320350000D01*
X284103000Y-320350000D01*
X284105000Y-320350000D01*
X284108000Y-320351000D01*
G37*
D11*
%TO.C,U4*%
G36*
X270464999Y-319965001D02*
G01*
X270464999Y-321335001D01*
X270414999Y-321385001D01*
X268885000Y-321385001D01*
X268835000Y-321335001D01*
X268835000Y-319965001D01*
X268885000Y-319915001D01*
X270414999Y-319915001D01*
X270464999Y-319965001D01*
G37*
D10*
%TO.C,U10*%
X271275000Y-304340000D02*
X271025000Y-304340000D01*
X271025000Y-304000000D01*
X271275000Y-304000000D01*
X271275000Y-304340000D01*
G36*
X271275000Y-304340000D02*
G01*
X271025000Y-304340000D01*
X271025000Y-304000000D01*
X271275000Y-304000000D01*
X271275000Y-304340000D01*
G37*
X271275000Y-307400000D02*
X271025000Y-307400000D01*
X271025000Y-307060000D01*
X271275000Y-307060000D01*
X271275000Y-307400000D01*
G36*
X271275000Y-307400000D02*
G01*
X271025000Y-307400000D01*
X271025000Y-307060000D01*
X271275000Y-307060000D01*
X271275000Y-307400000D01*
G37*
X271775000Y-304340000D02*
X271525000Y-304340000D01*
X271525000Y-304000000D01*
X271775000Y-304000000D01*
X271775000Y-304340000D01*
G36*
X271775000Y-304340000D02*
G01*
X271525000Y-304340000D01*
X271525000Y-304000000D01*
X271775000Y-304000000D01*
X271775000Y-304340000D01*
G37*
X271775000Y-307400000D02*
X271525000Y-307400000D01*
X271525000Y-307060000D01*
X271775000Y-307060000D01*
X271775000Y-307400000D01*
G36*
X271775000Y-307400000D02*
G01*
X271525000Y-307400000D01*
X271525000Y-307060000D01*
X271775000Y-307060000D01*
X271775000Y-307400000D01*
G37*
X272150000Y-305600000D02*
X270650000Y-305600000D01*
X270650000Y-304540000D01*
X272150000Y-304540000D01*
X272150000Y-305600000D01*
G36*
X272150000Y-305600000D02*
G01*
X270650000Y-305600000D01*
X270650000Y-304540000D01*
X272150000Y-304540000D01*
X272150000Y-305600000D01*
G37*
X272150000Y-306860000D02*
X270650000Y-306860000D01*
X270650000Y-305800000D01*
X272150000Y-305800000D01*
X272150000Y-306860000D01*
G36*
X272150000Y-306860000D02*
G01*
X270650000Y-306860000D01*
X270650000Y-305800000D01*
X272150000Y-305800000D01*
X272150000Y-306860000D01*
G37*
D11*
%TO.C,U2*%
G36*
X157787500Y-297087500D02*
G01*
X156675000Y-297087500D01*
X156675000Y-295975000D01*
X157787500Y-295975000D01*
X157787500Y-297087500D01*
G37*
G36*
X157787500Y-298400000D02*
G01*
X156675000Y-298400000D01*
X156675000Y-297287500D01*
X157787500Y-297287500D01*
X157787500Y-298400000D01*
G37*
G36*
X157787500Y-299712500D02*
G01*
X156675000Y-299712500D01*
X156675000Y-298600000D01*
X157787500Y-298600000D01*
X157787500Y-299712500D01*
G37*
G36*
X157787500Y-301025000D02*
G01*
X156675000Y-301025000D01*
X156675000Y-299912500D01*
X157787500Y-299912500D01*
X157787500Y-301025000D01*
G37*
G36*
X159100000Y-297087500D02*
G01*
X157987500Y-297087500D01*
X157987500Y-295975000D01*
X159100000Y-295975000D01*
X159100000Y-297087500D01*
G37*
G36*
X159100000Y-298400000D02*
G01*
X157987500Y-298400000D01*
X157987500Y-297287500D01*
X159100000Y-297287500D01*
X159100000Y-298400000D01*
G37*
G36*
X159100000Y-299712500D02*
G01*
X157987500Y-299712500D01*
X157987500Y-298600000D01*
X159100000Y-298600000D01*
X159100000Y-299712500D01*
G37*
G36*
X159100000Y-301025000D02*
G01*
X157987500Y-301025000D01*
X157987500Y-299912500D01*
X159100000Y-299912500D01*
X159100000Y-301025000D01*
G37*
G36*
X160412500Y-297087500D02*
G01*
X159300000Y-297087500D01*
X159300000Y-295975000D01*
X160412500Y-295975000D01*
X160412500Y-297087500D01*
G37*
G36*
X160412500Y-298400000D02*
G01*
X159300000Y-298400000D01*
X159300000Y-297287500D01*
X160412500Y-297287500D01*
X160412500Y-298400000D01*
G37*
G36*
X160412500Y-299712500D02*
G01*
X159300000Y-299712500D01*
X159300000Y-298600000D01*
X160412500Y-298600000D01*
X160412500Y-299712500D01*
G37*
G36*
X160412500Y-301025000D02*
G01*
X159300000Y-301025000D01*
X159300000Y-299912500D01*
X160412500Y-299912500D01*
X160412500Y-301025000D01*
G37*
G36*
X161725000Y-297087500D02*
G01*
X160612500Y-297087500D01*
X160612500Y-295975000D01*
X161725000Y-295975000D01*
X161725000Y-297087500D01*
G37*
G36*
X161725000Y-298400000D02*
G01*
X160612500Y-298400000D01*
X160612500Y-297287500D01*
X161725000Y-297287500D01*
X161725000Y-298400000D01*
G37*
G36*
X161725000Y-299712500D02*
G01*
X160612500Y-299712500D01*
X160612500Y-298600000D01*
X161725000Y-298600000D01*
X161725000Y-299712500D01*
G37*
G36*
X161725000Y-301025000D02*
G01*
X160612500Y-301025000D01*
X160612500Y-299912500D01*
X161725000Y-299912500D01*
X161725000Y-301025000D01*
G37*
D10*
%TO.C,U5*%
X177350000Y-306650000D02*
X176530000Y-306650000D01*
X176530000Y-305830000D01*
X177350000Y-305830000D01*
X177350000Y-306650000D01*
G36*
X177350000Y-306650000D02*
G01*
X176530000Y-306650000D01*
X176530000Y-305830000D01*
X177350000Y-305830000D01*
X177350000Y-306650000D01*
G37*
X177350000Y-307770000D02*
X176530000Y-307770000D01*
X176530000Y-306950000D01*
X177350000Y-306950000D01*
X177350000Y-307770000D01*
G36*
X177350000Y-307770000D02*
G01*
X176530000Y-307770000D01*
X176530000Y-306950000D01*
X177350000Y-306950000D01*
X177350000Y-307770000D01*
G37*
X178470000Y-306650000D02*
X177650000Y-306650000D01*
X177650000Y-305830000D01*
X178470000Y-305830000D01*
X178470000Y-306650000D01*
G36*
X178470000Y-306650000D02*
G01*
X177650000Y-306650000D01*
X177650000Y-305830000D01*
X178470000Y-305830000D01*
X178470000Y-306650000D01*
G37*
X178470000Y-307770000D02*
X177650000Y-307770000D01*
X177650000Y-306950000D01*
X178470000Y-306950000D01*
X178470000Y-307770000D01*
G36*
X178470000Y-307770000D02*
G01*
X177650000Y-307770000D01*
X177650000Y-306950000D01*
X178470000Y-306950000D01*
X178470000Y-307770000D01*
G37*
%TD*%
D12*
%TO.C,R15*%
X270425000Y-273350000D03*
X272250000Y-273350000D03*
%TD*%
%TO.C,R39*%
X263900000Y-308300000D03*
X265725000Y-308300000D03*
%TD*%
D13*
%TO.C,C21*%
X182300000Y-302900000D03*
X184200000Y-302900000D03*
%TD*%
D14*
%TO.C,R42*%
X254445000Y-299500000D03*
X252620000Y-299500000D03*
%TD*%
D15*
%TO.C,R1*%
X141450000Y-294000000D03*
X141450000Y-292175000D03*
%TD*%
D16*
%TO.C,C5*%
X145150000Y-292050000D03*
X145150000Y-290150000D03*
%TD*%
D17*
%TO.C,D13*%
X276075000Y-288050000D03*
X274200000Y-288050000D03*
%TD*%
D18*
%TO.C,TP3*%
X81000000Y-326400000D03*
%TD*%
D14*
%TO.C,R7*%
X270512500Y-316000000D03*
X268687500Y-316000000D03*
%TD*%
D19*
%TO.C,C33*%
X285450000Y-323850000D03*
X285450000Y-325750000D03*
%TD*%
D18*
%TO.C,TP1*%
X300200000Y-273750000D03*
%TD*%
D20*
%TO.C,U8*%
X251986200Y-306195000D03*
X251986200Y-307465000D03*
X251986200Y-308735000D03*
X251986200Y-310005000D03*
X256913800Y-310005000D03*
X256913800Y-308735000D03*
X256913800Y-307465000D03*
X256913800Y-306195000D03*
%TD*%
D12*
%TO.C,R17*%
X270425000Y-277550000D03*
X272250000Y-277550000D03*
%TD*%
D19*
%TO.C,C6*%
X145250000Y-294600000D03*
X145250000Y-296500000D03*
%TD*%
D21*
%TO.C,U3*%
X175815000Y-292914322D03*
X175815000Y-293414322D03*
X175815000Y-293914322D03*
X175815000Y-294414322D03*
X175815000Y-294914322D03*
D22*
X176500000Y-295599322D03*
X177000000Y-295599322D03*
X177500000Y-295599322D03*
X178000000Y-295599322D03*
X178500000Y-295599322D03*
D21*
X179185000Y-294914322D03*
X179185000Y-294414322D03*
X179185000Y-293914322D03*
X179185000Y-293414322D03*
X179185000Y-292914322D03*
D22*
X178500000Y-292229322D03*
X178000000Y-292229322D03*
X177500000Y-292229322D03*
X177000000Y-292229322D03*
X176500000Y-292229322D03*
%TD*%
D17*
%TO.C,D12*%
X276075000Y-285950000D03*
X274200000Y-285950000D03*
%TD*%
%TO.C,D9*%
X276075000Y-279650000D03*
X274200000Y-279650000D03*
%TD*%
D23*
%TO.C,U6*%
X284685000Y-321000000D03*
X284685000Y-320500000D03*
X284685000Y-320000000D03*
X284685000Y-319500000D03*
X282715000Y-319500000D03*
X282715000Y-320000000D03*
X282715000Y-320500000D03*
X282715000Y-321000000D03*
%TD*%
D24*
%TO.C,U1*%
X127450000Y-311670000D03*
X127450000Y-314210000D03*
X127450000Y-316750000D03*
X131250000Y-316750000D03*
X131250000Y-314210000D03*
X131250000Y-311670000D03*
%TD*%
D18*
%TO.C,TP4*%
X79052280Y-265600000D03*
%TD*%
D14*
%TO.C,R4*%
X149162500Y-290000000D03*
X147337500Y-290000000D03*
%TD*%
D25*
%TO.C,D1*%
X282700000Y-314225000D03*
X282700000Y-316100000D03*
%TD*%
D12*
%TO.C,R18*%
X270425000Y-279650000D03*
X272250000Y-279650000D03*
%TD*%
D26*
%TO.C,L2*%
X182299900Y-300800000D03*
X183900100Y-300800000D03*
%TD*%
D14*
%TO.C,R44*%
X250725000Y-296550000D03*
X248900000Y-296550000D03*
%TD*%
D12*
%TO.C,R23*%
X270425000Y-290150000D03*
X272250000Y-290150000D03*
%TD*%
D17*
%TO.C,D8*%
X276075000Y-277550000D03*
X274200000Y-277550000D03*
%TD*%
D13*
%TO.C,C2*%
X118300000Y-288820000D03*
X120200000Y-288820000D03*
%TD*%
D12*
%TO.C,R25*%
X270425000Y-294350000D03*
X272250000Y-294350000D03*
%TD*%
D13*
%TO.C,C45*%
X275350000Y-307900000D03*
X277250000Y-307900000D03*
%TD*%
%TO.C,C12*%
X182350000Y-292499322D03*
X184250000Y-292499322D03*
%TD*%
D27*
%TO.C,U4*%
X271549999Y-319250001D03*
D28*
X270950000Y-319050002D03*
X270449998Y-319050002D03*
X269949999Y-319050002D03*
X269450000Y-319050002D03*
X268949998Y-319050002D03*
D29*
X268349999Y-319250001D03*
D30*
X268100000Y-319900000D03*
X268100000Y-320400001D03*
X268100000Y-320900001D03*
X268100000Y-321400002D03*
D31*
X268349999Y-322050001D03*
D28*
X268949998Y-322250000D03*
X269450000Y-322250000D03*
X269949999Y-322250000D03*
X270449998Y-322250000D03*
X270950000Y-322250000D03*
D32*
X271549999Y-322050001D03*
D30*
X271799998Y-321400002D03*
X271799998Y-320900001D03*
X271799998Y-320400001D03*
X271799998Y-319900000D03*
%TD*%
D14*
%TO.C,R43*%
X254400000Y-296500000D03*
X252575000Y-296500000D03*
%TD*%
D12*
%TO.C,R21*%
X270425000Y-285950000D03*
X272250000Y-285950000D03*
%TD*%
D16*
%TO.C,C16*%
X176500000Y-289099322D03*
X176500000Y-287199322D03*
%TD*%
D13*
%TO.C,C3*%
X134450000Y-316500000D03*
X136350000Y-316500000D03*
%TD*%
D33*
%TO.C,Q1*%
X275762500Y-314600000D03*
X275762500Y-315900000D03*
X277637500Y-315250000D03*
%TD*%
D18*
%TO.C,TP5*%
X248100000Y-292500000D03*
%TD*%
D19*
%TO.C,C15*%
X172600000Y-293179322D03*
X172600000Y-295079322D03*
%TD*%
D17*
%TO.C,D6*%
X276075000Y-273350000D03*
X274200000Y-273350000D03*
%TD*%
D14*
%TO.C,R3*%
X149162500Y-292100000D03*
X147337500Y-292100000D03*
%TD*%
D12*
%TO.C,R38*%
X263900000Y-305350000D03*
X265725000Y-305350000D03*
%TD*%
D17*
%TO.C,D5*%
X276075000Y-271250000D03*
X274200000Y-271250000D03*
%TD*%
D16*
%TO.C,C25*%
X263600000Y-323100000D03*
X263600000Y-321200000D03*
%TD*%
D12*
%TO.C,R12*%
X270425000Y-267050000D03*
X272250000Y-267050000D03*
%TD*%
%TO.C,R26*%
X270425000Y-296450000D03*
X272250000Y-296450000D03*
%TD*%
D19*
%TO.C,C19*%
X276400000Y-319950000D03*
X276400000Y-321850000D03*
%TD*%
%TO.C,C17*%
X278600000Y-319950000D03*
X278600000Y-321850000D03*
%TD*%
D34*
%TO.C,C31*%
X184300000Y-286014322D03*
X182400000Y-286014322D03*
%TD*%
D12*
%TO.C,R13*%
X270425000Y-269150000D03*
X272250000Y-269150000D03*
%TD*%
D13*
%TO.C,C13*%
X182400000Y-290199322D03*
X184300000Y-290199322D03*
%TD*%
D14*
%TO.C,R41*%
X280812500Y-305100000D03*
X278987500Y-305100000D03*
%TD*%
D17*
%TO.C,D10*%
X276075000Y-281750000D03*
X274200000Y-281750000D03*
%TD*%
D13*
%TO.C,C14*%
X182300000Y-294799322D03*
X184200000Y-294799322D03*
%TD*%
D35*
%TO.C,U7*%
X253205000Y-275300000D03*
X253205000Y-275800000D03*
X253205000Y-276300000D03*
X253205000Y-276800000D03*
X253205000Y-277300000D03*
X253205000Y-277800000D03*
X253205000Y-278300000D03*
X253205000Y-278800000D03*
X253205000Y-279300000D03*
X253205000Y-279800000D03*
X253205000Y-280300000D03*
X253205000Y-280800000D03*
X253205000Y-281300000D03*
X253205000Y-281800000D03*
X253205000Y-282300000D03*
X253205000Y-282800000D03*
X253205000Y-283300000D03*
X253205000Y-283800000D03*
X253205000Y-284300000D03*
X253205000Y-284800000D03*
X253205000Y-285300000D03*
X253205000Y-285800000D03*
X253205000Y-286300000D03*
X253205000Y-286800000D03*
X260645000Y-286800000D03*
X260645000Y-286300000D03*
X260645000Y-285800000D03*
X260645000Y-285300000D03*
X260645000Y-284800000D03*
X260645000Y-284300000D03*
X260645000Y-283800000D03*
X260645000Y-283300000D03*
X260645000Y-282800000D03*
X260645000Y-282300000D03*
X260645000Y-281800000D03*
X260645000Y-281300000D03*
X260645000Y-280800000D03*
X260645000Y-280300000D03*
X260645000Y-279800000D03*
X260645000Y-279300000D03*
X260645000Y-278800000D03*
X260645000Y-278300000D03*
X260645000Y-277800000D03*
X260645000Y-277300000D03*
X260645000Y-276800000D03*
X260645000Y-276300000D03*
X260645000Y-275800000D03*
X260645000Y-275300000D03*
%TD*%
D16*
%TO.C,C9*%
X160500000Y-291700000D03*
X160500000Y-289800000D03*
%TD*%
D12*
%TO.C,R20*%
X270425000Y-283850000D03*
X272250000Y-283850000D03*
%TD*%
D15*
%TO.C,R10*%
X273100000Y-316600000D03*
X273100000Y-314775000D03*
%TD*%
D16*
%TO.C,C28*%
X174350000Y-302550000D03*
X174350000Y-300650000D03*
%TD*%
D34*
%TO.C,C30*%
X172450000Y-304500000D03*
X170550000Y-304500000D03*
%TD*%
D12*
%TO.C,R16*%
X270425000Y-275450000D03*
X272250000Y-275450000D03*
%TD*%
D16*
%TO.C,C8*%
X162600000Y-291700000D03*
X162600000Y-289800000D03*
%TD*%
D36*
%TO.C,U10*%
X272800000Y-306700000D03*
X272800000Y-306200000D03*
X272800000Y-305700000D03*
X272800000Y-305200000D03*
X272800000Y-304700000D03*
X270000000Y-304700000D03*
X270000000Y-305200000D03*
X270000000Y-305700000D03*
X270000000Y-306200000D03*
X270000000Y-306700000D03*
%TD*%
D19*
%TO.C,C7*%
X151950000Y-294650000D03*
X151950000Y-296550000D03*
%TD*%
D14*
%TO.C,R40*%
X284525000Y-305100000D03*
X282700000Y-305100000D03*
%TD*%
D37*
%TO.C,U2*%
X161950000Y-295047599D03*
X161450001Y-295047599D03*
X160949999Y-295047599D03*
X160450000Y-295047599D03*
X159950001Y-295047599D03*
X159450000Y-295047599D03*
X158950000Y-295047599D03*
X158449999Y-295047599D03*
X157950000Y-295047599D03*
X157450001Y-295047599D03*
X156949999Y-295047599D03*
X156450000Y-295047599D03*
D38*
X155747599Y-295750000D03*
X155747599Y-296249999D03*
X155747599Y-296750001D03*
X155747599Y-297250000D03*
X155747599Y-297749999D03*
X155747599Y-298250000D03*
X155747599Y-298750000D03*
X155747599Y-299250001D03*
X155747599Y-299750000D03*
X155747599Y-300249999D03*
X155747599Y-300750001D03*
X155747599Y-301250000D03*
D37*
X156450000Y-301952401D03*
X156949999Y-301952401D03*
X157450001Y-301952401D03*
X157950000Y-301952401D03*
X158449999Y-301952401D03*
X158950000Y-301952401D03*
X159450000Y-301952401D03*
X159950001Y-301952401D03*
X160450000Y-301952401D03*
X160949999Y-301952401D03*
X161450001Y-301952401D03*
X161950000Y-301952401D03*
D38*
X162652401Y-301250000D03*
X162652401Y-300750001D03*
X162652401Y-300249999D03*
X162652401Y-299750000D03*
X162652401Y-299250001D03*
X162652401Y-298750000D03*
X162652401Y-298250000D03*
X162652401Y-297749999D03*
X162652401Y-297250000D03*
X162652401Y-296750001D03*
X162652401Y-296249999D03*
X162652401Y-295750000D03*
D39*
X159200000Y-298500000D03*
%TD*%
D19*
%TO.C,C38*%
X274200000Y-319950000D03*
X274200000Y-321850000D03*
%TD*%
D14*
%TO.C,R45*%
X250725000Y-299500000D03*
X248900000Y-299500000D03*
%TD*%
D16*
%TO.C,C18*%
X174350000Y-289114322D03*
X174350000Y-287214322D03*
%TD*%
D13*
%TO.C,C40*%
X118450000Y-294000000D03*
X120350000Y-294000000D03*
%TD*%
%TO.C,C23*%
X182300000Y-307400000D03*
X184200000Y-307400000D03*
%TD*%
%TO.C,C22*%
X182300000Y-305100000D03*
X184200000Y-305100000D03*
%TD*%
D17*
%TO.C,D16*%
X276075000Y-294350000D03*
X274200000Y-294350000D03*
%TD*%
D12*
%TO.C,R24*%
X270425000Y-292250000D03*
X272250000Y-292250000D03*
%TD*%
D21*
%TO.C,U5*%
X175815000Y-305800000D03*
X175815000Y-306300000D03*
X175815000Y-306800000D03*
X175815000Y-307300000D03*
X175815000Y-307800000D03*
D22*
X176500000Y-308485000D03*
X177000000Y-308485000D03*
X177500000Y-308485000D03*
X178000000Y-308485000D03*
X178500000Y-308485000D03*
D21*
X179185000Y-307800000D03*
X179185000Y-307300000D03*
X179185000Y-306800000D03*
X179185000Y-306300000D03*
X179185000Y-305800000D03*
D22*
X178500000Y-305115000D03*
X178000000Y-305115000D03*
X177500000Y-305115000D03*
X177000000Y-305115000D03*
X176500000Y-305115000D03*
%TD*%
D14*
%TO.C,R36*%
X284525000Y-307900000D03*
X282700000Y-307900000D03*
%TD*%
D19*
%TO.C,C26*%
X172300000Y-306400000D03*
X172300000Y-308300000D03*
%TD*%
D16*
%TO.C,C24*%
X265900000Y-323100000D03*
X265900000Y-321200000D03*
%TD*%
D12*
%TO.C,R14*%
X270425000Y-271250000D03*
X272250000Y-271250000D03*
%TD*%
D17*
%TO.C,D4*%
X276075000Y-269150000D03*
X274200000Y-269150000D03*
%TD*%
%TO.C,D7*%
X276075000Y-275450000D03*
X274200000Y-275450000D03*
%TD*%
D34*
%TO.C,C20*%
X172600000Y-291099322D03*
X170700000Y-291099322D03*
%TD*%
D15*
%TO.C,R2*%
X141450000Y-290325000D03*
X141450000Y-288500000D03*
%TD*%
D12*
%TO.C,R19*%
X270425000Y-281750000D03*
X272250000Y-281750000D03*
%TD*%
%TO.C,R22*%
X270425000Y-288050000D03*
X272250000Y-288050000D03*
%TD*%
D17*
%TO.C,D2*%
X276075000Y-264950000D03*
X274200000Y-264950000D03*
%TD*%
D40*
%TO.C,T1*%
X137050000Y-288820000D03*
X137050000Y-291360000D03*
X137050000Y-293900000D03*
X124990000Y-293900000D03*
X124990000Y-291360000D03*
X124990000Y-288820000D03*
%TD*%
D17*
%TO.C,D11*%
X276075000Y-283850000D03*
X274200000Y-283850000D03*
%TD*%
D13*
%TO.C,C32*%
X182300000Y-298700000D03*
X184200000Y-298700000D03*
%TD*%
D17*
%TO.C,D17*%
X276075000Y-296450000D03*
X274200000Y-296450000D03*
%TD*%
D41*
%TO.C,R8*%
X281450000Y-323925000D03*
X281450000Y-325750000D03*
%TD*%
D16*
%TO.C,C27*%
X261300000Y-323100000D03*
X261300000Y-321200000D03*
%TD*%
D17*
%TO.C,D3*%
X276075000Y-267050000D03*
X274200000Y-267050000D03*
%TD*%
D15*
%TO.C,R6*%
X151450000Y-291912500D03*
X151450000Y-290087500D03*
%TD*%
D16*
%TO.C,C29*%
X176500000Y-302550000D03*
X176500000Y-300650000D03*
%TD*%
D26*
%TO.C,L1*%
X182350000Y-288114322D03*
X183950200Y-288114322D03*
%TD*%
D18*
%TO.C,TP2*%
X259450000Y-332000000D03*
%TD*%
D12*
%TO.C,R11*%
X270415000Y-264950000D03*
X272240000Y-264950000D03*
%TD*%
D16*
%TO.C,C10*%
X166200000Y-299100000D03*
X166200000Y-297200000D03*
%TD*%
D41*
%TO.C,R9*%
X285450000Y-329200000D03*
X285450000Y-331025000D03*
%TD*%
D13*
%TO.C,C44*%
X275300000Y-305100000D03*
X277200000Y-305100000D03*
%TD*%
D14*
%TO.C,R37*%
X280912500Y-307900000D03*
X279087500Y-307900000D03*
%TD*%
D17*
%TO.C,D15*%
X276075000Y-292250000D03*
X274200000Y-292250000D03*
%TD*%
D41*
%TO.C,R27*%
X280100000Y-314175000D03*
X280100000Y-316000000D03*
%TD*%
D14*
%TO.C,R5*%
X149675000Y-294600000D03*
X147850000Y-294600000D03*
%TD*%
D17*
%TO.C,D14*%
X276075000Y-290150000D03*
X274200000Y-290150000D03*
%TD*%
D13*
%TO.C,C4*%
X134400000Y-314200000D03*
X136300000Y-314200000D03*
%TD*%
M02*
